<svg xmlns="http://www.w3.org/2000/svg" xmlns:xlink="http://www.w3.org/1999/xlink" contentStyleType="text/css" data-diagram-type="ACTIVITY" height="2209px" preserveAspectRatio="none" style="width:716px;height:2209px;background:#FFFFFF;" version="1.1" viewBox="0 0 716 2209" width="716px" zoomAndPan="magnify"><title>Equipment Classifier - Data Processing Pipeline</title><defs/><g><text fill="#000000" font-family="sans-serif" font-size="14" font-weight="bold" lengthAdjust="spacing" textLength="375.4434" x="169.1802" y="32.9951">Equipment Classifier - Data Processing Pipeline</text><ellipse cx="155.0078" cy="57.2969" fill="#222222" rx="10" ry="10" style="stroke:#222222;stroke-width:1;"/><rect fill="none" height="244.1719" style="stroke:#000000;stroke-width:1.5;" width="585.5864" x="63.9453" y="77.2969"/><path d="M167.3037,77.2969 L167.3037,86.5938 L157.3037,96.5938 L63.9453,96.5938 " fill="none" style="stroke:#000000;stroke-width:1.5;"/><text fill="#000000" font-family="sans-serif" font-size="14" lengthAdjust="spacing" textLength="93.3584" x="66.9453" y="91.292">Data Loading</text><path d="M255.9854,118.0117 L255.9854,126.5781 L235.9854,130.5781 L255.9854,134.5781 L255.9854,143.1445 A0,0 0 0 0 255.9854,143.1445 L639.5317,143.1445 A0,0 0 0 0 639.5317,143.1445 L639.5317,128.0117 L629.5317,118.0117 L255.9854,118.0117 A0,0 0 0 0 255.9854,118.0117 " fill="#FFFFE0" style="stroke:#000000;stroke-width:0.5;"/><path d="M629.5317,118.0117 L629.5317,128.0117 L639.5317,128.0117 L629.5317,118.0117 " fill="#FFFFE0" style="stroke:#000000;stroke-width:0.5;"/><text fill="#000000" font-family="sans-serif" font-size="13" lengthAdjust="spacing" textLength="362.5464" x="261.9854" y="135.0786">Default path: fca_dashboard/classifier/ingest/eq_ids.csv</text><rect fill="#ADD8E6" height="33.9688" rx="12.5" ry="12.5" style="stroke:#000000;stroke-width:0.5;" width="161.9551" x="74.0303" y="113.5938"/><text fill="#000000" font-family="sans-serif" font-size="12" lengthAdjust="spacing" textLength="141.9551" x="84.0303" y="134.7324">Load CSV data from file</text><path d="M256.0703,171.9805 L256.0703,180.5469 L236.0703,184.5469 L256.0703,188.5469 L256.0703,197.1133 A0,0 0 0 0 256.0703,197.1133 L456.7026,197.1133 A0,0 0 0 0 456.7026,197.1133 L456.7026,181.9805 L446.7026,171.9805 L256.0703,171.9805 A0,0 0 0 0 256.0703,171.9805 " fill="#FFFFE0" style="stroke:#000000;stroke-width:0.5;"/><path d="M446.7026,171.9805 L446.7026,181.9805 L456.7026,181.9805 L446.7026,171.9805 " fill="#FFFFE0" style="stroke:#000000;stroke-width:0.5;"/><text fill="#000000" font-family="sans-serif" font-size="13" lengthAdjust="spacing" textLength="179.6323" x="262.0703" y="189.0474">Try UTF-8 first, then Latin-1</text><rect fill="#ADD8E6" height="33.9688" rx="12.5" ry="12.5" style="stroke:#000000;stroke-width:0.5;" width="162.125" x="73.9453" y="167.5625"/><text fill="#000000" font-family="sans-serif" font-size="12" lengthAdjust="spacing" textLength="142.125" x="83.9453" y="188.7012">Handle encoding issues</text><path d="M248.0781,225.9492 L248.0781,234.5156 L228.0781,238.5156 L248.0781,242.5156 L248.0781,251.082 A0,0 0 0 0 248.0781,251.082 L532.6265,251.082 A0,0 0 0 0 532.6265,251.082 L532.6265,235.9492 L522.6265,225.9492 L248.0781,225.9492 A0,0 0 0 0 248.0781,225.9492 " fill="#FFFFE0" style="stroke:#000000;stroke-width:0.5;"/><path d="M522.6265,225.9492 L522.6265,235.9492 L532.6265,235.9492 L522.6265,225.9492 " fill="#FFFFE0" style="stroke:#000000;stroke-width:0.5;"/><text fill="#000000" font-family="sans-serif" font-size="13" lengthAdjust="spacing" textLength="263.5483" x="254.0781" y="243.0161">Remove whitespace, standardize names</text><rect fill="#ADD8E6" height="33.9688" rx="12.5" ry="12.5" style="stroke:#000000;stroke-width:0.5;" width="146.1406" x="81.9375" y="221.5313"/><text fill="#000000" font-family="sans-serif" font-size="12" lengthAdjust="spacing" textLength="126.1406" x="91.9375" y="242.6699">Clean column names</text><path d="M239.8311,279.918 L239.8311,288.4844 L219.8311,292.4844 L239.8311,296.4844 L239.8311,305.0508 A0,0 0 0 0 239.8311,305.0508 L498.9189,305.0508 A0,0 0 0 0 498.9189,305.0508 L498.9189,289.918 L488.9189,279.918 L239.8311,279.918 A0,0 0 0 0 239.8311,279.918 " fill="#FFFFE0" style="stroke:#000000;stroke-width:0.5;"/><path d="M488.9189,279.918 L488.9189,289.918 L498.9189,289.918 L488.9189,279.918 " fill="#FFFFE0" style="stroke:#000000;stroke-width:0.5;"/><text fill="#000000" font-family="sans-serif" font-size="13" lengthAdjust="spacing" textLength="238.0879" x="245.8311" y="296.9849">Empty strings for text, 0 for numeric</text><rect fill="#ADD8E6" height="33.9688" rx="12.5" ry="12.5" style="stroke:#000000;stroke-width:0.5;" width="129.6465" x="90.1846" y="275.5"/><text fill="#000000" font-family="sans-serif" font-size="12" lengthAdjust="spacing" textLength="109.6465" x="100.1846" y="296.6387">Fill missing values</text><rect fill="none" height="379.1094" style="stroke:#000000;stroke-width:1.5;" width="685.5107" x="20.293" y="331.4688"/><path d="M172.7197,331.4688 L172.7197,340.7656 L162.7197,350.7656 L20.293,350.7656 " fill="none" style="stroke:#000000;stroke-width:1.5;"/><text fill="#000000" font-family="sans-serif" font-size="14" lengthAdjust="spacing" textLength="142.4268" x="23.293" y="345.4639">Feature Engineering</text><path d="M299.7227,360.7656 L299.7227,384.4648 L279.7227,388.4648 L299.7227,392.4648 L299.7227,416.1641 A0,0 0 0 0 299.7227,416.1641 L575.3779,416.1641 A0,0 0 0 0 575.3779,416.1641 L575.3779,370.7656 L565.3779,360.7656 L299.7227,360.7656 A0,0 0 0 0 299.7227,360.7656 " fill="#FFFFE0" style="stroke:#000000;stroke-width:0.5;"/><path d="M565.3779,360.7656 L565.3779,370.7656 L575.3779,370.7656 L565.3779,360.7656 " fill="#FFFFE0" style="stroke:#000000;stroke-width:0.5;"/><text fill="#000000" font-family="sans-serif" font-size="13" lengthAdjust="spacing" textLength="254.6553" x="305.7227" y="377.8325">Equipment_Category = Asset Category</text><text fill="#000000" font-family="sans-serif" font-size="13" lengthAdjust="spacing" textLength="227.2969" x="305.7227" y="392.9653">Uniformat_Class = System Type ID</text><text fill="#000000" font-family="sans-serif" font-size="13" lengthAdjust="spacing" textLength="203.1504" x="305.7227" y="408.0981">System_Type = Precon System</text><rect fill="#ADD8E6" height="33.9688" rx="12.5" ry="12.5" style="stroke:#000000;stroke-width:0.5;" width="249.4297" x="30.293" y="371.4805"/><text fill="#000000" font-family="sans-serif" font-size="12" lengthAdjust="spacing" textLength="229.4297" x="40.293" y="392.6191">Extract primary classification columns</text><path d="M277.2578,426.1641 L277.2578,502.8281 L257.2578,506.8281 L277.2578,510.8281 L277.2578,587.4922 A0,0 0 0 0 277.2578,587.4922 L456.6064,587.4922 A0,0 0 0 0 456.6064,587.4922 L456.6064,436.1641 L446.6064,426.1641 L277.2578,426.1641 A0,0 0 0 0 277.2578,426.1641 " fill="#FFFFE0" style="stroke:#000000;stroke-width:0.5;"/><path d="M446.6064,426.1641 L446.6064,436.1641 L456.6064,436.1641 L446.6064,426.1641 " fill="#FFFFE0" style="stroke:#000000;stroke-width:0.5;"/><text fill="#000000" font-family="sans-serif" font-size="13" lengthAdjust="spacing" textLength="158.3486" x="283.2578" y="443.231">Combine multiple fields:</text><text fill="#000000" font-family="sans-serif" font-size="13" lengthAdjust="spacing" textLength="107.8721" x="283.2578" y="458.3638">- Asset Category</text><text fill="#000000" font-family="sans-serif" font-size="13" lengthAdjust="spacing" textLength="105.8535" x="283.2578" y="473.4966">- Equip Name ID</text><text fill="#000000" font-family="sans-serif" font-size="13" lengthAdjust="spacing" textLength="122.1924" x="283.2578" y="488.6294">- Sub System Type</text><text fill="#000000" font-family="sans-serif" font-size="13" lengthAdjust="spacing" textLength="104.1523" x="283.2578" y="503.7622">- Sub System ID</text><text fill="#000000" font-family="sans-serif" font-size="13" lengthAdjust="spacing" textLength="37.083" x="283.2578" y="518.895">- Title</text><text fill="#000000" font-family="sans-serif" font-size="13" lengthAdjust="spacing" textLength="105.9551" x="283.2578" y="534.0278">- Precon System</text><text fill="#000000" font-family="sans-serif" font-size="13" lengthAdjust="spacing" textLength="132.9009" x="283.2578" y="549.1606">- Operations System</text><text fill="#000000" font-family="sans-serif" font-size="13" lengthAdjust="spacing" textLength="124.5093" x="283.2578" y="564.2935">- Sub System Class</text><text fill="#000000" font-family="sans-serif" font-size="13" lengthAdjust="spacing" textLength="149.9253" x="283.2578" y="579.4263">- Drawing Abbreviation</text><rect fill="#ADD8E6" height="33.9688" rx="12.5" ry="12.5" style="stroke:#000000;stroke-width:0.5;" width="204.5" x="52.7578" y="489.8438"/><text fill="#000000" font-family="sans-serif" font-size="12" lengthAdjust="spacing" textLength="184.5" x="62.7578" y="510.9824">Create combined text features</text><path d="M290.0664,611.9102 L290.0664,620.4766 L270.0664,624.4766 L290.0664,628.4766 L290.0664,637.043 A0,0 0 0 0 290.0664,637.043 L635.127,637.043 A0,0 0 0 0 635.127,637.043 L635.127,621.9102 L625.127,611.9102 L290.0664,611.9102 A0,0 0 0 0 290.0664,611.9102 " fill="#FFFFE0" style="stroke:#000000;stroke-width:0.5;"/><path d="M625.127,611.9102 L625.127,621.9102 L635.127,621.9102 L625.127,611.9102 " fill="#FFFFE0" style="stroke:#000000;stroke-width:0.5;"/><text fill="#000000" font-family="sans-serif" font-size="13" lengthAdjust="spacing" textLength="324.0605" x="296.0664" y="628.9771">service_life = Service Life (filled with 0 if missing)</text><rect fill="#ADD8E6" height="33.9688" rx="12.5" ry="12.5" style="stroke:#000000;stroke-width:0.5;" width="230.1172" x="39.9492" y="607.4922"/><text fill="#000000" font-family="sans-serif" font-size="12" lengthAdjust="spacing" textLength="210.1172" x="49.9492" y="628.6309">Add service life as numeric feature</text><path d="M275.5234,658.3125 L275.5234,674.4453 L255.5234,678.4453 L275.5234,682.4453 L275.5234,698.5781 A0,0 0 0 0 275.5234,698.5781 L695.8037,698.5781 A0,0 0 0 0 695.8037,698.5781 L695.8037,668.3125 L685.8037,658.3125 L275.5234,658.3125 A0,0 0 0 0 275.5234,658.3125 " fill="#FFFFE0" style="stroke:#000000;stroke-width:0.5;"/><path d="M685.8037,658.3125 L685.8037,668.3125 L695.8037,668.3125 L685.8037,658.3125 " fill="#FFFFE0" style="stroke:#000000;stroke-width:0.5;"/><text fill="#000000" font-family="sans-serif" font-size="13" lengthAdjust="spacing" textLength="374.3403" x="281.5234" y="675.3794">Equipment_Type = Asset Category + '-' + Equip Name ID</text><text fill="#000000" font-family="sans-serif" font-size="13" lengthAdjust="spacing" textLength="399.2803" x="281.5234" y="690.5122">System_Subtype = Precon System + '-' + Operations System</text><rect fill="#ADD8E6" height="33.9688" rx="12.5" ry="12.5" style="stroke:#000000;stroke-width:0.5;" width="201.0313" x="54.4922" y="661.4609"/><text fill="#000000" font-family="sans-serif" font-size="12" lengthAdjust="spacing" textLength="181.0313" x="64.4922" y="682.5996">Create hierarchical categories</text><rect fill="none" height="313.7109" style="stroke:#000000;stroke-width:1.5;" width="603.5811" x="42.3242" y="720.5781"/><path d="M171.6318,720.5781 L171.6318,729.875 L161.6318,739.875 L42.3242,739.875 " fill="none" style="stroke:#000000;stroke-width:1.5;"/><text fill="#000000" font-family="sans-serif" font-size="14" lengthAdjust="spacing" textLength="119.3076" x="45.3242" y="734.5732">Data Preparation</text><path d="M271.832,749.875 L271.832,826.5391 L251.832,830.5391 L271.832,834.5391 L271.832,911.2031 A0,0 0 0 0 271.832,911.2031 L438.1045,911.2031 A0,0 0 0 0 438.1045,911.2031 L438.1045,759.875 L428.1045,749.875 L271.832,749.875 A0,0 0 0 0 271.832,749.875 " fill="#FFFFE0" style="stroke:#000000;stroke-width:0.5;"/><path d="M428.1045,749.875 L428.1045,759.875 L438.1045,759.875 L428.1045,749.875 " fill="#FFFFE0" style="stroke:#000000;stroke-width:0.5;"/><text fill="#000000" font-family="sans-serif" font-size="13" lengthAdjust="spacing" textLength="136.646" x="277.832" y="766.9419">X = DataFrame with:</text><text fill="#000000" font-family="sans-serif" font-size="13" lengthAdjust="spacing" textLength="133.4341" x="277.832" y="782.0747">- combined_features</text><text fill="#000000" font-family="sans-serif" font-size="13" lengthAdjust="spacing" textLength="81.688" x="277.832" y="797.2075">- service_life</text><text fill="#000000" font-family="sans-serif" font-size="13" lengthAdjust="spacing" textLength="4.1323" x="277.832" y="812.3403">&#160;</text><text fill="#000000" font-family="sans-serif" font-size="13" lengthAdjust="spacing" textLength="135.4336" x="277.832" y="827.4731">y = DataFrame with:</text><text fill="#000000" font-family="sans-serif" font-size="13" lengthAdjust="spacing" textLength="145.2725" x="277.832" y="842.606">- Equipment_Category</text><text fill="#000000" font-family="sans-serif" font-size="13" lengthAdjust="spacing" textLength="114.4927" x="277.832" y="857.7388">- Uniformat_Class</text><text fill="#000000" font-family="sans-serif" font-size="13" lengthAdjust="spacing" textLength="95.6846" x="277.832" y="872.8716">- System_Type</text><text fill="#000000" font-family="sans-serif" font-size="13" lengthAdjust="spacing" textLength="117.7744" x="277.832" y="888.0044">- Equipment_Type</text><text fill="#000000" font-family="sans-serif" font-size="13" lengthAdjust="spacing" textLength="117.584" x="277.832" y="903.1372">- System_Subtype</text><rect fill="#ADD8E6" height="33.9688" rx="12.5" ry="12.5" style="stroke:#000000;stroke-width:0.5;" width="193.6484" x="58.1836" y="813.5547"/><text fill="#000000" font-family="sans-serif" font-size="12" lengthAdjust="spacing" textLength="173.6484" x="68.1836" y="834.6934">Prepare features and targets</text><path d="M277.6914,935.6211 L277.6914,944.1875 L257.6914,948.1875 L277.6914,952.1875 L277.6914,960.7539 A0,0 0 0 0 277.6914,960.7539 L468.4404,960.7539 A0,0 0 0 0 468.4404,960.7539 L468.4404,945.6211 L458.4404,935.6211 L277.6914,935.6211 A0,0 0 0 0 277.6914,935.6211 " fill="#FFFFE0" style="stroke:#000000;stroke-width:0.5;"/><path d="M458.4404,935.6211 L458.4404,945.6211 L468.4404,945.6211 L458.4404,935.6211 " fill="#FFFFE0" style="stroke:#000000;stroke-width:0.5;"/><text fill="#000000" font-family="sans-serif" font-size="13" lengthAdjust="spacing" textLength="169.749" x="283.6914" y="952.688">70% training, 30% testing</text><rect fill="#ADD8E6" height="33.9688" rx="12.5" ry="12.5" style="stroke:#000000;stroke-width:0.5;" width="205.3672" x="52.3242" y="931.2031"/><text fill="#000000" font-family="sans-serif" font-size="12" lengthAdjust="spacing" textLength="185.3672" x="62.3242" y="952.3418">Split into training and test sets</text><path d="M256.0088,982.0234 L256.0088,998.1563 L236.0088,1002.1563 L256.0088,1006.1563 L256.0088,1022.2891 A0,0 0 0 0 256.0088,1022.2891 L635.9053,1022.2891 A0,0 0 0 0 635.9053,1022.2891 L635.9053,992.0234 L625.9053,982.0234 L256.0088,982.0234 A0,0 0 0 0 256.0088,982.0234 " fill="#FFFFE0" style="stroke:#000000;stroke-width:0.5;"/><path d="M625.9053,982.0234 L625.9053,992.0234 L635.9053,992.0234 L625.9053,982.0234 " fill="#FFFFE0" style="stroke:#000000;stroke-width:0.5;"/><text fill="#000000" font-family="sans-serif" font-size="13" lengthAdjust="spacing" textLength="358.8965" x="262.0088" y="999.0903">Use RandomOverSampler to duplicate minority classes</text><text fill="#000000" font-family="sans-serif" font-size="13" lengthAdjust="spacing" textLength="337.5684" x="262.0088" y="1014.2231">Create composite key for multi-output classification</text><rect fill="#ADD8E6" height="33.9688" rx="12.5" ry="12.5" style="stroke:#000000;stroke-width:0.5;" width="162.002" x="74.0068" y="985.1719"/><text fill="#000000" font-family="sans-serif" font-size="12" lengthAdjust="spacing" textLength="142.002" x="84.0068" y="1006.3105">Handle class imbalance</text><rect fill="none" height="357.125" style="stroke:#000000;stroke-width:1.5;" width="603.8916" x="31.8213" y="1044.2891"/><path d="M145.0986,1044.2891 L145.0986,1053.5859 L135.0986,1063.5859 L31.8213,1063.5859 " fill="none" style="stroke:#000000;stroke-width:1.5;"/><text fill="#000000" font-family="sans-serif" font-size="14" lengthAdjust="spacing" textLength="103.2773" x="34.8213" y="1058.2842">Model Building</text><path d="M268.3428,1073.5859 L268.3428,1127.5508 L248.3428,1131.5508 L268.3428,1135.5508 L268.3428,1189.5156 A0,0 0 0 0 268.3428,1189.5156 L439.2236,1189.5156 A0,0 0 0 0 439.2236,1189.5156 L439.2236,1083.5859 L429.2236,1073.5859 L268.3428,1073.5859 A0,0 0 0 0 268.3428,1073.5859 " fill="#FFFFE0" style="stroke:#000000;stroke-width:0.5;"/><path d="M429.2236,1073.5859 L429.2236,1083.5859 L439.2236,1083.5859 L429.2236,1073.5859 " fill="#FFFFE0" style="stroke:#000000;stroke-width:0.5;"/><text fill="#000000" font-family="sans-serif" font-size="13" lengthAdjust="spacing" textLength="131.2632" x="274.3428" y="1090.6528">TfidfVectorizer with:</text><text fill="#000000" font-family="sans-serif" font-size="13" lengthAdjust="spacing" textLength="149.8809" x="274.3428" y="1105.7856">- max_features = 5000</text><text fill="#000000" font-family="sans-serif" font-size="13" lengthAdjust="spacing" textLength="149.6968" x="274.3428" y="1120.9185">- ngram_range = (1, 3)</text><text fill="#000000" font-family="sans-serif" font-size="13" lengthAdjust="spacing" textLength="80.0947" x="274.3428" y="1136.0513">- min_df = 2</text><text fill="#000000" font-family="sans-serif" font-size="13" lengthAdjust="spacing" textLength="96.3066" x="274.3428" y="1151.1841">- max_df = 0.9</text><text fill="#000000" font-family="sans-serif" font-size="13" lengthAdjust="spacing" textLength="103.4541" x="274.3428" y="1166.3169">- use_idf = True</text><text fill="#000000" font-family="sans-serif" font-size="13" lengthAdjust="spacing" textLength="133.7134" x="274.3428" y="1181.4497">- sublinear_tf = True</text><rect fill="#ADD8E6" height="33.9688" rx="12.5" ry="12.5" style="stroke:#000000;stroke-width:0.5;" width="186.6699" x="61.6729" y="1114.5664"/><text fill="#000000" font-family="sans-serif" font-size="12" lengthAdjust="spacing" textLength="166.6699" x="71.6729" y="1135.7051">Create text feature pipeline</text><path d="M280.9697,1213.9336 L280.9697,1222.5 L260.9697,1226.5 L280.9697,1230.5 L280.9697,1239.0664 A0,0 0 0 0 280.9697,1239.0664 L500.6641,1239.0664 A0,0 0 0 0 500.6641,1239.0664 L500.6641,1223.9336 L490.6641,1213.9336 L280.9697,1213.9336 A0,0 0 0 0 280.9697,1213.9336 " fill="#FFFFE0" style="stroke:#000000;stroke-width:0.5;"/><path d="M490.6641,1213.9336 L490.6641,1223.9336 L500.6641,1223.9336 L490.6641,1213.9336 " fill="#FFFFE0" style="stroke:#000000;stroke-width:0.5;"/><text fill="#000000" font-family="sans-serif" font-size="13" lengthAdjust="spacing" textLength="198.6943" x="286.9697" y="1231.0005">StandardScaler for service_life</text><rect fill="#ADD8E6" height="33.9688" rx="12.5" ry="12.5" style="stroke:#000000;stroke-width:0.5;" width="211.9238" x="49.0459" y="1209.5156"/><text fill="#000000" font-family="sans-serif" font-size="12" lengthAdjust="spacing" textLength="191.9238" x="59.0459" y="1230.6543">Create numeric feature pipeline</text><path d="M288.1943,1253.4844 L288.1943,1277.1836 L268.1943,1281.1836 L288.1943,1285.1836 L288.1943,1308.8828 A0,0 0 0 0 288.1943,1308.8828 L583.2354,1308.8828 A0,0 0 0 0 583.2354,1308.8828 L583.2354,1263.4844 L573.2354,1253.4844 L288.1943,1253.4844 A0,0 0 0 0 288.1943,1253.4844 " fill="#FFFFE0" style="stroke:#000000;stroke-width:0.5;"/><path d="M573.2354,1253.4844 L573.2354,1263.4844 L583.2354,1263.4844 L573.2354,1253.4844 " fill="#FFFFE0" style="stroke:#000000;stroke-width:0.5;"/><text fill="#000000" font-family="sans-serif" font-size="13" lengthAdjust="spacing" textLength="120.8149" x="294.1943" y="1270.5513">Preprocessor with:</text><text fill="#000000" font-family="sans-serif" font-size="13" lengthAdjust="spacing" textLength="274.041" x="294.1943" y="1285.6841">- text transformer for 'combined_features'</text><text fill="#000000" font-family="sans-serif" font-size="13" lengthAdjust="spacing" textLength="249.6533" x="294.1943" y="1300.8169">- numeric transformer for 'service_life'</text><rect fill="#ADD8E6" height="33.9688" rx="12.5" ry="12.5" style="stroke:#000000;stroke-width:0.5;" width="226.373" x="41.8213" y="1264.1992"/><text fill="#000000" font-family="sans-serif" font-size="12" lengthAdjust="spacing" textLength="206.373" x="51.8213" y="1285.3379">Combine with ColumnTransformer</text><path d="M274.1143,1318.8828 L274.1143,1350.1484 L254.1143,1354.1484 L274.1143,1358.1484 L274.1143,1389.4141 A0,0 0 0 0 274.1143,1389.4141 L625.7129,1389.4141 A0,0 0 0 0 625.7129,1389.4141 L625.7129,1328.8828 L615.7129,1318.8828 L274.1143,1318.8828 A0,0 0 0 0 274.1143,1318.8828 " fill="#FFFFE0" style="stroke:#000000;stroke-width:0.5;"/><path d="M615.7129,1318.8828 L615.7129,1328.8828 L625.7129,1328.8828 L615.7129,1318.8828 " fill="#FFFFE0" style="stroke:#000000;stroke-width:0.5;"/><text fill="#000000" font-family="sans-serif" font-size="13" lengthAdjust="spacing" textLength="330.5986" x="280.1143" y="1335.9497">MultiOutputClassifier with RandomForestClassifier:</text><text fill="#000000" font-family="sans-serif" font-size="13" lengthAdjust="spacing" textLength="136.811" x="280.1143" y="1351.0825">- n_estimators = 200</text><text fill="#000000" font-family="sans-serif" font-size="13" lengthAdjust="spacing" textLength="254.1919" x="280.1143" y="1366.2153">- class_weight = 'balanced_subsample'</text><text fill="#000000" font-family="sans-serif" font-size="13" lengthAdjust="spacing" textLength="134.3735" x="280.1143" y="1381.3481">- random_state = 42</text><rect fill="#ADD8E6" height="33.9688" rx="12.5" ry="12.5" style="stroke:#000000;stroke-width:0.5;" width="198.2129" x="55.9014" y="1337.1641"/><text fill="#000000" font-family="sans-serif" font-size="12" lengthAdjust="spacing" textLength="178.2129" x="65.9014" y="1358.3027">Build RandomForest classifier</text><rect fill="none" height="261.8984" style="stroke:#000000;stroke-width:1.5;" width="586.8604" x="40.6484" y="1411.4141"/><path d="M154.4316,1411.4141 L154.4316,1420.7109 L144.4316,1430.7109 L40.6484,1430.7109 " fill="none" style="stroke:#000000;stroke-width:1.5;"/><text fill="#000000" font-family="sans-serif" font-size="14" lengthAdjust="spacing" textLength="103.7832" x="43.6484" y="1425.4092">Model Training</text><path d="M279.3672,1452.1289 L279.3672,1460.6953 L259.3672,1464.6953 L279.3672,1468.6953 L279.3672,1477.2617 A0,0 0 0 0 279.3672,1477.2617 L617.5088,1477.2617 A0,0 0 0 0 617.5088,1477.2617 L617.5088,1462.1289 L607.5088,1452.1289 L279.3672,1452.1289 A0,0 0 0 0 279.3672,1452.1289 " fill="#FFFFE0" style="stroke:#000000;stroke-width:0.5;"/><path d="M607.5088,1452.1289 L607.5088,1462.1289 L617.5088,1462.1289 L607.5088,1452.1289 " fill="#FFFFE0" style="stroke:#000000;stroke-width:0.5;"/><text fill="#000000" font-family="sans-serif" font-size="13" lengthAdjust="spacing" textLength="317.1416" x="285.3672" y="1469.1958">model.fit(X_train_resampled, y_train_resampled)</text><rect fill="#ADD8E6" height="33.9688" rx="12.5" ry="12.5" style="stroke:#000000;stroke-width:0.5;" width="208.7188" x="50.6484" y="1447.7109"/><text fill="#000000" font-family="sans-serif" font-size="12" lengthAdjust="spacing" textLength="188.7188" x="60.6484" y="1468.8496">Train model on resampled data</text><path d="M270.0391,1491.6797 L270.0391,1515.3789 L250.0391,1519.3789 L270.0391,1523.3789 L270.0391,1547.0781 A0,0 0 0 0 270.0391,1547.0781 L544.4692,1547.0781 A0,0 0 0 0 544.4692,1547.0781 L544.4692,1501.6797 L534.4692,1491.6797 L270.0391,1491.6797 A0,0 0 0 0 270.0391,1491.6797 " fill="#FFFFE0" style="stroke:#000000;stroke-width:0.5;"/><path d="M534.4692,1491.6797 L534.4692,1501.6797 L544.4692,1501.6797 L534.4692,1491.6797 " fill="#FFFFE0" style="stroke:#000000;stroke-width:0.5;"/><text fill="#000000" font-family="sans-serif" font-size="13" lengthAdjust="spacing" textLength="199.8306" x="276.0391" y="1508.7466">Generate classification reports</text><text fill="#000000" font-family="sans-serif" font-size="13" lengthAdjust="spacing" textLength="176.2681" x="276.0391" y="1523.8794">Calculate accuracy metrics</text><text fill="#000000" font-family="sans-serif" font-size="13" lengthAdjust="spacing" textLength="253.4302" x="276.0391" y="1539.0122">Analyze "Other" category performance</text><rect fill="#ADD8E6" height="33.9688" rx="12.5" ry="12.5" style="stroke:#000000;stroke-width:0.5;" width="190.0625" x="59.9766" y="1502.3945"/><text fill="#000000" font-family="sans-serif" font-size="12" lengthAdjust="spacing" textLength="170.0625" x="69.9766" y="1523.5332">Evaluate model on test data</text><path d="M268.5391,1563.9297 L268.5391,1580.0625 L248.5391,1584.0625 L268.5391,1588.0625 L268.5391,1604.1953 A0,0 0 0 0 268.5391,1604.1953 L599.4126,1604.1953 A0,0 0 0 0 599.4126,1604.1953 L599.4126,1573.9297 L589.4126,1563.9297 L268.5391,1563.9297 A0,0 0 0 0 268.5391,1563.9297 " fill="#FFFFE0" style="stroke:#000000;stroke-width:0.5;"/><path d="M589.4126,1563.9297 L589.4126,1573.9297 L599.4126,1573.9297 L589.4126,1563.9297 " fill="#FFFFE0" style="stroke:#000000;stroke-width:0.5;"/><text fill="#000000" font-family="sans-serif" font-size="13" lengthAdjust="spacing" textLength="309.8735" x="274.5391" y="1580.9966">Extract feature importance from RandomForest</text><text fill="#000000" font-family="sans-serif" font-size="13" lengthAdjust="spacing" textLength="278.5732" x="274.5391" y="1596.1294">Identify top features for each classification</text><rect fill="#ADD8E6" height="33.9688" rx="12.5" ry="12.5" style="stroke:#000000;stroke-width:0.5;" width="187.0625" x="61.4766" y="1567.0781"/><text fill="#000000" font-family="sans-serif" font-size="12" lengthAdjust="spacing" textLength="167.0625" x="71.4766" y="1588.2168">Analyze feature importance</text><path d="M263.1309,1621.0469 L263.1309,1637.1797 L243.1309,1641.1797 L263.1309,1645.1797 L263.1309,1661.3125 A0,0 0 0 0 263.1309,1661.3125 L568.8804,1661.3125 A0,0 0 0 0 568.8804,1661.3125 L568.8804,1631.0469 L558.8804,1621.0469 L263.1309,1621.0469 A0,0 0 0 0 263.1309,1621.0469 " fill="#FFFFE0" style="stroke:#000000;stroke-width:0.5;"/><path d="M558.8804,1621.0469 L558.8804,1631.0469 L568.8804,1631.0469 L558.8804,1621.0469 " fill="#FFFFE0" style="stroke:#000000;stroke-width:0.5;"/><text fill="#000000" font-family="sans-serif" font-size="13" lengthAdjust="spacing" textLength="284.7495" x="269.1309" y="1638.1138">Examine false positives and false negatives</text><text fill="#000000" font-family="sans-serif" font-size="13" lengthAdjust="spacing" textLength="260.1206" x="269.1309" y="1653.2466">Focus on "Other" category performance</text><rect fill="#ADD8E6" height="33.9688" rx="12.5" ry="12.5" style="stroke:#000000;stroke-width:0.5;" width="176.2461" x="66.8848" y="1624.1953"/><text fill="#000000" font-family="sans-serif" font-size="12" lengthAdjust="spacing" textLength="156.2461" x="76.8848" y="1645.334">Analyze misclassifications</text><rect fill="none" height="472.7891" style="stroke:#000000;stroke-width:1.5;" width="600.0591" x="11" y="1683.3125"/><path d="M91.1025,1683.3125 L91.1025,1692.6094 L81.1025,1702.6094 L11,1702.6094 " fill="none" style="stroke:#000000;stroke-width:1.5;"/><text fill="#000000" font-family="sans-serif" font-size="14" lengthAdjust="spacing" textLength="70.1025" x="14" y="1697.3076">Prediction</text><path d="M309.0156,1712.6094 L309.0156,1736.3086 L289.0156,1740.3086 L309.0156,1744.3086 L309.0156,1768.0078 A0,0 0 0 0 309.0156,1768.0078 L535.1274,1768.0078 A0,0 0 0 0 535.1274,1768.0078 L535.1274,1722.6094 L525.1274,1712.6094 L309.0156,1712.6094 A0,0 0 0 0 309.0156,1712.6094 " fill="#FFFFE0" style="stroke:#000000;stroke-width:0.5;"/><path d="M525.1274,1712.6094 L525.1274,1722.6094 L535.1274,1722.6094 L525.1274,1712.6094 " fill="#FFFFE0" style="stroke:#000000;stroke-width:0.5;"/><text fill="#000000" font-family="sans-serif" font-size="13" lengthAdjust="spacing" textLength="38.0415" x="315.0156" y="1729.6763">Input:</text><text fill="#000000" font-family="sans-serif" font-size="13" lengthAdjust="spacing" textLength="205.1118" x="315.0156" y="1744.8091">- Text description of equipment</text><text fill="#000000" font-family="sans-serif" font-size="13" lengthAdjust="spacing" textLength="187.4019" x="315.0156" y="1759.9419">- Service life value (optional)</text><rect fill="#ADD8E6" height="33.9688" rx="12.5" ry="12.5" style="stroke:#000000;stroke-width:0.5;" width="268.0156" x="21" y="1723.3242"/><text fill="#000000" font-family="sans-serif" font-size="12" lengthAdjust="spacing" textLength="248.0156" x="31" y="1744.4629">Receive input description and service life</text><path d="M250.7354,1778.0078 L250.7354,1801.707 L230.7354,1805.707 L250.7354,1809.707 L250.7354,1833.4063 A0,0 0 0 0 250.7354,1833.4063 L496.6074,1833.4063 A0,0 0 0 0 496.6074,1833.4063 L496.6074,1788.0078 L486.6074,1778.0078 L250.7354,1778.0078 A0,0 0 0 0 250.7354,1778.0078 " fill="#FFFFE0" style="stroke:#000000;stroke-width:0.5;"/><path d="M486.6074,1778.0078 L486.6074,1788.0078 L496.6074,1788.0078 L486.6074,1778.0078 " fill="#FFFFE0" style="stroke:#000000;stroke-width:0.5;"/><text fill="#000000" font-family="sans-serif" font-size="13" lengthAdjust="spacing" textLength="156.1968" x="256.7354" y="1795.0747">Create DataFrame with:</text><text fill="#000000" font-family="sans-serif" font-size="13" lengthAdjust="spacing" textLength="224.8721" x="256.7354" y="1810.2075">- combined_features = description</text><text fill="#000000" font-family="sans-serif" font-size="13" lengthAdjust="spacing" textLength="213.3511" x="256.7354" y="1825.3403">- service_life = service_life value</text><rect fill="#ADD8E6" height="33.9688" rx="12.5" ry="12.5" style="stroke:#000000;stroke-width:0.5;" width="151.4551" x="79.2803" y="1788.7227"/><text fill="#000000" font-family="sans-serif" font-size="12" lengthAdjust="spacing" textLength="131.4551" x="89.2803" y="1809.8613">Preprocess input data</text><path d="M268.3955,1857.8242 L268.3955,1866.3906 L248.3955,1870.3906 L268.3955,1874.3906 L268.3955,1882.957 A0,0 0 0 0 268.3955,1882.957 L459.0747,1882.957 A0,0 0 0 0 459.0747,1882.957 L459.0747,1867.8242 L449.0747,1857.8242 L268.3955,1857.8242 A0,0 0 0 0 268.3955,1857.8242 " fill="#FFFFE0" style="stroke:#000000;stroke-width:0.5;"/><path d="M449.0747,1857.8242 L449.0747,1867.8242 L459.0747,1867.8242 L449.0747,1857.8242 " fill="#FFFFE0" style="stroke:#000000;stroke-width:0.5;"/><text fill="#000000" font-family="sans-serif" font-size="13" lengthAdjust="spacing" textLength="169.6792" x="274.3955" y="1874.8911">model.predict(input_data)</text><rect fill="#ADD8E6" height="33.9688" rx="12.5" ry="12.5" style="stroke:#000000;stroke-width:0.5;" width="186.7754" x="61.6201" y="1853.4063"/><text fill="#000000" font-family="sans-serif" font-size="12" lengthAdjust="spacing" textLength="166.7754" x="71.6201" y="1874.5449">Make prediction with model</text><path d="M269.3535,1897.375 L269.3535,1943.7734 L249.3535,1947.7734 L269.3535,1951.7734 L269.3535,1998.1719 A0,0 0 0 0 269.3535,1998.1719 L435.626,1998.1719 A0,0 0 0 0 435.626,1998.1719 L435.626,1907.375 L425.626,1897.375 L269.3535,1897.375 A0,0 0 0 0 269.3535,1897.375 " fill="#FFFFE0" style="stroke:#000000;stroke-width:0.5;"/><path d="M425.626,1897.375 L425.626,1907.375 L435.626,1907.375 L425.626,1897.375 " fill="#FFFFE0" style="stroke:#000000;stroke-width:0.5;"/><text fill="#000000" font-family="sans-serif" font-size="13" lengthAdjust="spacing" textLength="51.9048" x="275.3535" y="1914.4419">Results:</text><text fill="#000000" font-family="sans-serif" font-size="13" lengthAdjust="spacing" textLength="145.2725" x="275.3535" y="1929.5747">- Equipment_Category</text><text fill="#000000" font-family="sans-serif" font-size="13" lengthAdjust="spacing" textLength="114.4927" x="275.3535" y="1944.7075">- Uniformat_Class</text><text fill="#000000" font-family="sans-serif" font-size="13" lengthAdjust="spacing" textLength="95.6846" x="275.3535" y="1959.8403">- System_Type</text><text fill="#000000" font-family="sans-serif" font-size="13" lengthAdjust="spacing" textLength="117.7744" x="275.3535" y="1974.9731">- Equipment_Type</text><text fill="#000000" font-family="sans-serif" font-size="13" lengthAdjust="spacing" textLength="117.584" x="275.3535" y="1990.106">- System_Subtype</text><rect fill="#ADD8E6" height="33.9688" rx="12.5" ry="12.5" style="stroke:#000000;stroke-width:0.5;" width="188.6914" x="60.6621" y="1930.7891"/><text fill="#000000" font-family="sans-serif" font-size="12" lengthAdjust="spacing" textLength="168.6914" x="70.6621" y="1951.9277">Extract classification results</text><path d="M266.2627,2008.1719 L266.2627,2039.4375 L246.2627,2043.4375 L266.2627,2047.4375 L266.2627,2078.7031 A0,0 0 0 0 266.2627,2078.7031 L601.0591,2078.7031 A0,0 0 0 0 601.0591,2078.7031 L601.0591,2018.1719 L591.0591,2008.1719 L266.2627,2008.1719 A0,0 0 0 0 266.2627,2008.1719 " fill="#FFFFE0" style="stroke:#000000;stroke-width:0.5;"/><path d="M591.0591,2008.1719 L591.0591,2018.1719 L601.0591,2018.1719 L591.0591,2008.1719 " fill="#FFFFE0" style="stroke:#000000;stroke-width:0.5;"/><text fill="#000000" font-family="sans-serif" font-size="13" lengthAdjust="spacing" textLength="313.7964" x="272.2627" y="2025.2388">Use enhanced_masterformat_mapping function:</text><text fill="#000000" font-family="sans-serif" font-size="13" lengthAdjust="spacing" textLength="227.1763" x="272.2627" y="2040.3716">1. Try equipment-specific mapping</text><text fill="#000000" font-family="sans-serif" font-size="13" lengthAdjust="spacing" textLength="153.8926" x="272.2627" y="2055.5044">2. Try primary mapping</text><text fill="#000000" font-family="sans-serif" font-size="13" lengthAdjust="spacing" textLength="206.3242" x="272.2627" y="2070.6372">3. Fall back to general mapping</text><rect fill="#ADD8E6" height="33.9688" rx="12.5" ry="12.5" style="stroke:#000000;stroke-width:0.5;" width="182.5098" x="63.7529" y="2026.4531"/><text fill="#000000" font-family="sans-serif" font-size="12" lengthAdjust="spacing" textLength="162.5098" x="73.7529" y="2047.5918">Map to MasterFormat class</text><path d="M259.5742,2088.7031 L259.5742,2112.4023 L239.5742,2116.4023 L259.5742,2120.4023 L259.5742,2144.1016 A0,0 0 0 0 259.5742,2144.1016 L456.4805,2144.1016 A0,0 0 0 0 456.4805,2144.1016 L456.4805,2098.7031 L446.4805,2088.7031 L259.5742,2088.7031 A0,0 0 0 0 259.5742,2088.7031 " fill="#FFFFE0" style="stroke:#000000;stroke-width:0.5;"/><path d="M446.4805,2088.7031 L446.4805,2098.7031 L456.4805,2098.7031 L446.4805,2088.7031 " fill="#FFFFE0" style="stroke:#000000;stroke-width:0.5;"/><text fill="#000000" font-family="sans-serif" font-size="13" lengthAdjust="spacing" textLength="82.2974" x="265.5742" y="2105.77">Final output:</text><text fill="#000000" font-family="sans-serif" font-size="13" lengthAdjust="spacing" textLength="161.1289" x="265.5742" y="2120.9028">- All classification results</text><text fill="#000000" font-family="sans-serif" font-size="13" lengthAdjust="spacing" textLength="175.9063" x="265.5742" y="2136.0356">- MasterFormat_Class code</text><rect fill="#ADD8E6" height="33.9688" rx="12.5" ry="12.5" style="stroke:#000000;stroke-width:0.5;" width="169.1328" x="70.4414" y="2099.418"/><text fill="#000000" font-family="sans-serif" font-size="12" lengthAdjust="spacing" textLength="149.1328" x="80.4414" y="2120.5566">Return prediction results</text><ellipse cx="155.0078" cy="2187.1016" fill="none" rx="11" ry="11" style="stroke:#222222;stroke-width:1;"/><ellipse cx="155.0078" cy="2187.1016" fill="#222222" rx="6" ry="6" style="stroke:#222222;stroke-width:1;"/><line style="stroke:#000000;stroke-width:1;" x1="155.0078" x2="155.0078" y1="147.5625" y2="167.5625"/><polygon fill="#000000" points="151.0078,157.5625,155.0078,167.5625,159.0078,157.5625,155.0078,161.5625" style="stroke:#000000;stroke-width:1;"/><line style="stroke:#000000;stroke-width:1;" x1="155.0078" x2="155.0078" y1="201.5313" y2="221.5313"/><polygon fill="#000000" points="151.0078,211.5313,155.0078,221.5313,159.0078,211.5313,155.0078,215.5313" style="stroke:#000000;stroke-width:1;"/><line style="stroke:#000000;stroke-width:1;" x1="155.0078" x2="155.0078" y1="255.5" y2="275.5"/><polygon fill="#000000" points="151.0078,265.5,155.0078,275.5,159.0078,265.5,155.0078,269.5" style="stroke:#000000;stroke-width:1;"/><line style="stroke:#000000;stroke-width:1;" x1="155.0078" x2="155.0078" y1="67.2969" y2="113.5938"/><polygon fill="#000000" points="151.0078,103.5938,155.0078,113.5938,159.0078,103.5938,155.0078,107.5938" style="stroke:#000000;stroke-width:1;"/><line style="stroke:#000000;stroke-width:1;" x1="155.0078" x2="155.0078" y1="405.4492" y2="489.8438"/><polygon fill="#000000" points="151.0078,479.8438,155.0078,489.8438,159.0078,479.8438,155.0078,483.8438" style="stroke:#000000;stroke-width:1;"/><line style="stroke:#000000;stroke-width:1;" x1="155.0078" x2="155.0078" y1="523.8125" y2="607.4922"/><polygon fill="#000000" points="151.0078,597.4922,155.0078,607.4922,159.0078,597.4922,155.0078,601.4922" style="stroke:#000000;stroke-width:1;"/><line style="stroke:#000000;stroke-width:1;" x1="155.0078" x2="155.0078" y1="641.4609" y2="661.4609"/><polygon fill="#000000" points="151.0078,651.4609,155.0078,661.4609,159.0078,651.4609,155.0078,655.4609" style="stroke:#000000;stroke-width:1;"/><line style="stroke:#000000;stroke-width:1;" x1="155.0078" x2="155.0078" y1="309.4688" y2="371.4805"/><polygon fill="#000000" points="151.0078,361.4805,155.0078,371.4805,159.0078,361.4805,155.0078,365.4805" style="stroke:#000000;stroke-width:1;"/><line style="stroke:#000000;stroke-width:1;" x1="155.0078" x2="155.0078" y1="847.5234" y2="931.2031"/><polygon fill="#000000" points="151.0078,921.2031,155.0078,931.2031,159.0078,921.2031,155.0078,925.2031" style="stroke:#000000;stroke-width:1;"/><line style="stroke:#000000;stroke-width:1;" x1="155.0078" x2="155.0078" y1="965.1719" y2="985.1719"/><polygon fill="#000000" points="151.0078,975.1719,155.0078,985.1719,159.0078,975.1719,155.0078,979.1719" style="stroke:#000000;stroke-width:1;"/><line style="stroke:#000000;stroke-width:1;" x1="155.0078" x2="155.0078" y1="695.4297" y2="813.5547"/><polygon fill="#000000" points="151.0078,803.5547,155.0078,813.5547,159.0078,803.5547,155.0078,807.5547" style="stroke:#000000;stroke-width:1;"/><line style="stroke:#000000;stroke-width:1;" x1="155.0078" x2="155.0078" y1="1148.5352" y2="1209.5156"/><polygon fill="#000000" points="151.0078,1199.5156,155.0078,1209.5156,159.0078,1199.5156,155.0078,1203.5156" style="stroke:#000000;stroke-width:1;"/><line style="stroke:#000000;stroke-width:1;" x1="155.0078" x2="155.0078" y1="1243.4844" y2="1264.1992"/><polygon fill="#000000" points="151.0078,1254.1992,155.0078,1264.1992,159.0078,1254.1992,155.0078,1258.1992" style="stroke:#000000;stroke-width:1;"/><line style="stroke:#000000;stroke-width:1;" x1="155.0078" x2="155.0078" y1="1298.168" y2="1337.1641"/><polygon fill="#000000" points="151.0078,1327.1641,155.0078,1337.1641,159.0078,1327.1641,155.0078,1331.1641" style="stroke:#000000;stroke-width:1;"/><line style="stroke:#000000;stroke-width:1;" x1="155.0078" x2="155.0078" y1="1019.1406" y2="1114.5664"/><polygon fill="#000000" points="151.0078,1104.5664,155.0078,1114.5664,159.0078,1104.5664,155.0078,1108.5664" style="stroke:#000000;stroke-width:1;"/><line style="stroke:#000000;stroke-width:1;" x1="155.0078" x2="155.0078" y1="1481.6797" y2="1502.3945"/><polygon fill="#000000" points="151.0078,1492.3945,155.0078,1502.3945,159.0078,1492.3945,155.0078,1496.3945" style="stroke:#000000;stroke-width:1;"/><line style="stroke:#000000;stroke-width:1;" x1="155.0078" x2="155.0078" y1="1536.3633" y2="1567.0781"/><polygon fill="#000000" points="151.0078,1557.0781,155.0078,1567.0781,159.0078,1557.0781,155.0078,1561.0781" style="stroke:#000000;stroke-width:1;"/><line style="stroke:#000000;stroke-width:1;" x1="155.0078" x2="155.0078" y1="1601.0469" y2="1624.1953"/><polygon fill="#000000" points="151.0078,1614.1953,155.0078,1624.1953,159.0078,1614.1953,155.0078,1618.1953" style="stroke:#000000;stroke-width:1;"/><line style="stroke:#000000;stroke-width:1;" x1="155.0078" x2="155.0078" y1="1371.1328" y2="1447.7109"/><polygon fill="#000000" points="151.0078,1437.7109,155.0078,1447.7109,159.0078,1437.7109,155.0078,1441.7109" style="stroke:#000000;stroke-width:1;"/><line style="stroke:#000000;stroke-width:1;" x1="155.0078" x2="155.0078" y1="1757.293" y2="1788.7227"/><polygon fill="#000000" points="151.0078,1778.7227,155.0078,1788.7227,159.0078,1778.7227,155.0078,1782.7227" style="stroke:#000000;stroke-width:1;"/><line style="stroke:#000000;stroke-width:1;" x1="155.0078" x2="155.0078" y1="1822.6914" y2="1853.4063"/><polygon fill="#000000" points="151.0078,1843.4063,155.0078,1853.4063,159.0078,1843.4063,155.0078,1847.4063" style="stroke:#000000;stroke-width:1;"/><line style="stroke:#000000;stroke-width:1;" x1="155.0078" x2="155.0078" y1="1887.375" y2="1930.7891"/><polygon fill="#000000" points="151.0078,1920.7891,155.0078,1930.7891,159.0078,1920.7891,155.0078,1924.7891" style="stroke:#000000;stroke-width:1;"/><line style="stroke:#000000;stroke-width:1;" x1="155.0078" x2="155.0078" y1="1964.7578" y2="2026.4531"/><polygon fill="#000000" points="151.0078,2016.4531,155.0078,2026.4531,159.0078,2016.4531,155.0078,2020.4531" style="stroke:#000000;stroke-width:1;"/><line style="stroke:#000000;stroke-width:1;" x1="155.0078" x2="155.0078" y1="2060.4219" y2="2099.418"/><polygon fill="#000000" points="151.0078,2089.418,155.0078,2099.418,159.0078,2089.418,155.0078,2093.418" style="stroke:#000000;stroke-width:1;"/><line style="stroke:#000000;stroke-width:1;" x1="155.0078" x2="155.0078" y1="1658.1641" y2="1723.3242"/><polygon fill="#000000" points="151.0078,1713.3242,155.0078,1723.3242,159.0078,1713.3242,155.0078,1717.3242" style="stroke:#000000;stroke-width:1;"/><line style="stroke:#000000;stroke-width:1;" x1="155.0078" x2="155.0078" y1="2133.3867" y2="2176.1016"/><polygon fill="#000000" points="151.0078,2166.1016,155.0078,2176.1016,159.0078,2166.1016,155.0078,2170.1016" style="stroke:#000000;stroke-width:1;"/><!--SRC=[nLXHRzis47xthpW469nYSPga6xPbw4Fgn5k0PYbYj-YRG4idcmX5gYJbn1twttSyKROiAKNVzY9OnoDvz_6xZoUFuHfpgH7y6i7vhK8tSezIbyAA0agHFeeLpeCTBAPUw9N2baDgYj9erBvsgGfrqHfTqlILDPNEfaOP2qzhwTkpXRNcgHvQAl9j3wLURgJVlkiieUHgxPUgmY5VOpEqm-jfut5mhIqgPPwwdjzPYOEU6KfPVaKulnYDnh2Gdc3nuGatNofP5WG9J9LmJkOIBKpWMdW17wn9aMnw1HzaYOg03zFdNbW_SloaLtPzRqH6VYFQbDQLHiDHstu4_uu0BiCRJEUV80jZkJK5v5BXdpGMyW0RKhmCPomgvUay_VeIybGacN3hfH4sUvtkednDwwBph_5B8ZDtcheDBHDs-LleZ393dPgmDqZdAdJTJHPs2nyNiydl589r_YHGIiDxuQMUdCULfWg59jQegj2WHT5VvG4Biy6QAexuXoT4IzgVGWruyvous4mg1OMiyTm8DH3JJL7wBIrWoSL1JiVfyPb2E-FVkYhGodJqBQ0-G-4hI-UdLtGiQ3lW3mp7CxXvzfOe2AMLXI0C6a1JmJFhP3kHqGlicP9CXSULeRbluSev9Ef40_jzr9AYBGJvXQN9QRvr7WjOR4k4ssjsgaq9czuIqJ2blMiZZQFEUFVc62nbWw5wbvHCng10NcSu5EcqTeI2I2HBeWBHHMNkaWSdGp5FwkpW7pgl9iG9pAjbE_Q-TUTPLrJzkvjCiDsNQ1bVTsXlhSLWHVEr5K-19LVBfSMDv9bzMAwo31pQZKoHn2574AxXI8DEbs3HFM5tEfWu-truFQPIL8Jka_HhOfpC6xA-EZo6DTMUiEcQ6ACWhL6K-7t6n7C-H1v-Xl5aJCy-zf4U18yVOCXkuX2iEv2-xSI99WSnP1Ix0jKQYmLIMt17CA1o1XAx5VgX93zJT66bcGtn1_0QdZLyJPgLehrz26pYn_R5TVg55mSwbTPmQbzQlGNQD3w0kC-kUQca1wcz0H8CgGCV6GdIN4h1zyJhjxEVTfudy2QyaMlGfGDPPhq1MIo54Zh50KG_EeG7SZR5_GRjN1HKmgI41hAAOWgC8sPg8fsFwXMHtSj4QHpfCJpYbeMJTM1YAbzMlgDtFSBScGmLlAkawjvdXoEHB77FjY916U_AWTGMkSpoJzIPKFHVAQdsCHVYUSSKuiAlPsTdSKIlY1E9fMucbCBnEQ7xgfaaTPBbPBrehSA6izC_egboI3Tai2rirHo_gvOXHc4JtneP5jwEgBoGu6Le3FZccvCoK781-WxNUT6epgmpKxvk5fIR2rH6Em1QACYw4p67Y37gVZ-NTnptocxSm1ZJwCre1pdkey177XavCpRmVz-53CHx5-XspsnhzLISRdkH_LYJZqv2mL0z6niOSB4Z06-NF67OWWR6iNQoX4xHSNqqELhU8A4Un0Uk_7Bn0i4NiL3x16z68i7v5GeU8YSAdFVBk8Nh4e3TJdFfZpydB0N9ply4jbrJSw_SX6Q8gxhPXJMclm7d-1Vg8FhORLo89CRwg0H2fPKAJY9DAsftjb0WTLLfFNobXTfITtPqJpsVFMekiItGTSA2IjWENBTnLbC5iWWRlg1XJPVLTwxRtZOHUC9jHleiyotfNBc_UW8zKQJhxwZMON1qPH-w3jxBpw885PWBHLBBOYatyQAhRHfNWctiFpDfvSAv_2XWJ3GgsqoctKjtRuq4Uy0KQIUwQO8wP-XIAqls3U6q-vk1J6x3fAPy5a4EsWkO7B2v-ffRhzqlSHCEnuQzXNhLXtKlFKrymwICGlc3VG0LPYlCWQw070vUET1-T7VYaOvl1sWjCLn4muKPNOyvbIIaiYl1IDTUJJdIiY4AFTGZ_s-BSYVAq1RS2NApCzwcpk25fWBrkfRDWcV4m0fHbg6voIlDCDOvdP_o5-AEFnDNOXgGWUZFNXUrL_CjrHvwSmepGLzyuL-54EMATKkrV3hPF22HGxVFysNuPvBu2dL7i_kieSs6poywj76AtsRqXTmlt1kTqTUzAVy3]--></g></svg>