<svg xmlns="http://www.w3.org/2000/svg" xmlns:xlink="http://www.w3.org/1999/xlink" contentStyleType="text/css" data-diagram-type="DESCRIPTION" height="614px" preserveAspectRatio="none" style="width:1389px;height:614px;background:#FFFFFF;" version="1.1" viewBox="0 0 1389 614" width="1389px" zoomAndPan="magnify"><defs/><g><!--cluster PlantUML Utilities--><g class="cluster" data-entity="PlantUML Utilities" data-source-line="2" data-uid="ent0002" id="cluster_PlantUML Utilities"><path d="M346.5,77.97 L489.5371,77.97 A3.75,3.75 0 0 1 492.0371,80.47 L499.0371,100.2669 L892.5,100.2669 A2.5,2.5 0 0 1 895,102.7669 L895,604.77 A2.5,2.5 0 0 1 892.5,607.27 L346.5,607.27 A2.5,2.5 0 0 1 344,604.77 L344,80.47 A2.5,2.5 0 0 1 346.5,77.97 " fill="none" style="stroke:#000000;stroke-width:1.5;"/><line style="stroke:#000000;stroke-width:1.5;" x1="344" x2="499.0371" y1="100.2669" y2="100.2669"/><text fill="#000000" font-family="sans-serif" font-size="14" font-weight="bold" lengthAdjust="spacing" textLength="142.0371" x="348" y="92.9651">PlantUML Utilities</text></g><!--cluster viewer--><g class="cluster" data-entity="viewer" data-source-line="8" data-uid="ent0007" id="cluster_viewer"><path d="M467.5,485.97 L521.2529,485.97 A3.75,3.75 0 0 1 523.7529,488.47 L530.7529,508.2669 L608.5,508.2669 A2.5,2.5 0 0 1 611,510.7669 L611,580.77 A2.5,2.5 0 0 1 608.5,583.27 L467.5,583.27 A2.5,2.5 0 0 1 465,580.77 L465,488.47 A2.5,2.5 0 0 1 467.5,485.97 " fill="none" style="stroke:#000000;stroke-width:1.5;"/><line style="stroke:#000000;stroke-width:1.5;" x1="465" x2="530.7529" y1="508.2669" y2="508.2669"/><text fill="#000000" font-family="sans-serif" font-size="14" font-weight="bold" lengthAdjust="spacing" textLength="52.7529" x="469" y="500.9651">viewer</text></g><!--cluster External--><g class="cluster" data-entity="External" data-source-line="16" data-uid="ent0011" id="cluster_External"><path d="M921.5,485.97 L988.3984,485.97 A3.75,3.75 0 0 1 990.8984,488.47 L997.8984,508.2669 L1211.5,508.2669 A2.5,2.5 0 0 1 1214,510.7669 L1214,580.77 A2.5,2.5 0 0 1 1211.5,583.27 L921.5,583.27 A2.5,2.5 0 0 1 919,580.77 L919,488.47 A2.5,2.5 0 0 1 921.5,485.97 " fill="none" style="stroke:#000000;stroke-width:1.5;"/><line style="stroke:#000000;stroke-width:1.5;" x1="919" x2="997.8984" y1="508.2669" y2="508.2669"/><text fill="#000000" font-family="sans-serif" font-size="14" font-weight="bold" lengthAdjust="spacing" textLength="65.8984" x="923" y="500.9651">External</text></g><!--cluster Project--><g class="cluster" data-entity="Project" data-source-line="21" data-uid="ent0014" id="cluster_Project"><path d="M8.5,175.26 L65.5684,175.26 A3.75,3.75 0 0 1 68.0684,177.76 L75.0684,197.5569 L317.5,197.5569 A2.5,2.5 0 0 1 320,200.0569 L320,459.47 A2.5,2.5 0 0 1 317.5,461.97 L8.5,461.97 A2.5,2.5 0 0 1 6,459.47 L6,177.76 A2.5,2.5 0 0 1 8.5,175.26 " fill="none" style="stroke:#000000;stroke-width:1.5;"/><line style="stroke:#000000;stroke-width:1.5;" x1="6" x2="75.0684" y1="197.5569" y2="197.5569"/><text fill="#000000" font-family="sans-serif" font-size="14" font-weight="bold" lengthAdjust="spacing" textLength="56.0684" x="10" y="190.2551">Project</text></g><!--cluster docs/diagrams--><g class="cluster" data-entity="docs/diagrams" data-source-line="22" data-uid="ent0015" id="cluster_docs/diagrams"><path d="M32.5,218.26 L148.4463,218.26 A3.75,3.75 0 0 1 150.9463,220.76 L157.9463,240.5569 L183.5,240.5569 A2.5,2.5 0 0 1 186,243.0569 L186,435.47 A2.5,2.5 0 0 1 183.5,437.97 L32.5,437.97 A2.5,2.5 0 0 1 30,435.47 L30,220.76 A2.5,2.5 0 0 1 32.5,218.26 " fill="none" style="stroke:#000000;stroke-width:1.5;"/><line style="stroke:#000000;stroke-width:1.5;" x1="30" x2="157.9463" y1="240.5569" y2="240.5569"/><text fill="#000000" font-family="sans-serif" font-size="14" font-weight="bold" lengthAdjust="spacing" textLength="114.9463" x="34" y="233.2551">docs/diagrams</text></g><!--entity Config--><g class="entity" data-entity="Config" data-source-line="3" data-uid="ent0003" id="entity_Config"><rect fill="#F1F1F1" height="46.2969" rx="2.5" ry="2.5" style="stroke:#181818;stroke-width:0.5;" width="104.4629" x="359.77" y="112.97"/><rect fill="#F1F1F1" height="10" style="stroke:#181818;stroke-width:0.5;" width="15" x="444.2329" y="117.97"/><rect fill="#F1F1F1" height="2" style="stroke:#181818;stroke-width:0.5;" width="4" x="442.2329" y="119.97"/><rect fill="#F1F1F1" height="2" style="stroke:#181818;stroke-width:0.5;" width="4" x="442.2329" y="123.97"/><text fill="#000000" font-family="sans-serif" font-size="14" lengthAdjust="spacing" textLength="64.4629" x="374.77" y="145.9651">config.py</text></g><!--entity Renderer--><g class="entity" data-entity="Renderer" data-source-line="4" data-uid="ent0004" id="entity_Renderer"><rect fill="#F1F1F1" height="46.2969" rx="2.5" ry="2.5" style="stroke:#181818;stroke-width:0.5;" width="180.6289" x="447.69" y="253.26"/><rect fill="#F1F1F1" height="10" style="stroke:#181818;stroke-width:0.5;" width="15" x="608.3189" y="258.26"/><rect fill="#F1F1F1" height="2" style="stroke:#181818;stroke-width:0.5;" width="4" x="606.3189" y="260.26"/><rect fill="#F1F1F1" height="2" style="stroke:#181818;stroke-width:0.5;" width="4" x="606.3189" y="264.26"/><text fill="#000000" font-family="sans-serif" font-size="14" lengthAdjust="spacing" textLength="140.6289" x="462.69" y="286.2551">render_diagrams.py</text></g><!--entity CLI--><g class="entity" data-entity="CLI" data-source-line="5" data-uid="ent0005" id="entity_CLI"><rect fill="#F1F1F1" height="46.2969" rx="2.5" ry="2.5" style="stroke:#181818;stroke-width:0.5;" width="77.0986" x="499.45" y="371.68"/><rect fill="#F1F1F1" height="10" style="stroke:#181818;stroke-width:0.5;" width="15" x="556.5486" y="376.68"/><rect fill="#F1F1F1" height="2" style="stroke:#181818;stroke-width:0.5;" width="4" x="554.5486" y="378.68"/><rect fill="#F1F1F1" height="2" style="stroke:#181818;stroke-width:0.5;" width="4" x="554.5486" y="382.68"/><text fill="#000000" font-family="sans-serif" font-size="14" lengthAdjust="spacing" textLength="37.0986" x="514.45" y="404.6751">cli.py</text></g><!--entity Init--><g class="entity" data-entity="Init" data-source-line="6" data-uid="ent0006" id="entity_Init"><rect fill="#F1F1F1" height="46.2969" rx="2.5" ry="2.5" style="stroke:#181818;stroke-width:0.5;" width="83.7637" x="616.12" y="371.68"/><rect fill="#F1F1F1" height="10" style="stroke:#181818;stroke-width:0.5;" width="15" x="679.8837" y="376.68"/><rect fill="#F1F1F1" height="2" style="stroke:#181818;stroke-width:0.5;" width="4" x="677.8837" y="378.68"/><rect fill="#F1F1F1" height="2" style="stroke:#181818;stroke-width:0.5;" width="4" x="677.8837" y="382.68"/><text fill="#000000" font-family="sans-serif" font-size="14" lengthAdjust="spacing" text-decoration="underline" textLength="22.1416" x="631.12" y="404.6751">init</text><text fill="#000000" font-family="sans-serif" font-size="14" lengthAdjust="spacing" textLength="21.6221" x="653.2616" y="404.6751">.py</text></g><!--entity Readme--><g class="entity" data-entity="Readme" data-source-line="12" data-uid="ent0009" id="entity_Readme"><rect fill="#F1F1F1" height="46.2969" rx="2.5" ry="2.5" style="stroke:#181818;stroke-width:0.5;" width="126.8301" x="499.58" y="112.97"/><rect fill="#F1F1F1" height="10" style="stroke:#181818;stroke-width:0.5;" width="15" x="606.4101" y="117.97"/><rect fill="#F1F1F1" height="2" style="stroke:#181818;stroke-width:0.5;" width="4" x="604.4101" y="119.97"/><rect fill="#F1F1F1" height="2" style="stroke:#181818;stroke-width:0.5;" width="4" x="604.4101" y="123.97"/><text fill="#000000" font-family="sans-serif" font-size="14" lengthAdjust="spacing" textLength="86.8301" x="514.58" y="145.9651">README.md</text></g><!--entity SOP--><g class="entity" data-entity="SOP" data-source-line="13" data-uid="ent0010" id="entity_SOP"><rect fill="#F1F1F1" height="46.2969" rx="2.5" ry="2.5" style="stroke:#181818;stroke-width:0.5;" width="217.2354" x="661.38" y="112.97"/><rect fill="#F1F1F1" height="10" style="stroke:#181818;stroke-width:0.5;" width="15" x="858.6154" y="117.97"/><rect fill="#F1F1F1" height="2" style="stroke:#181818;stroke-width:0.5;" width="4" x="856.6154" y="119.97"/><rect fill="#F1F1F1" height="2" style="stroke:#181818;stroke-width:0.5;" width="4" x="856.6154" y="123.97"/><text fill="#000000" font-family="sans-serif" font-size="14" lengthAdjust="spacing" textLength="177.2354" x="676.38" y="145.9651">004-plantuml-utilities.md</text></g><!--entity Viewer--><g class="entity" data-entity="Viewer" data-source-line="9" data-uid="ent0008" id="entity_Viewer"><rect fill="#F1F1F1" height="46.2969" rx="2.5" ry="2.5" style="stroke:#181818;stroke-width:0.5;" width="114.8877" x="480.56" y="520.97"/><rect fill="#F1F1F1" height="10" style="stroke:#181818;stroke-width:0.5;" width="15" x="575.4477" y="525.97"/><rect fill="#F1F1F1" height="2" style="stroke:#181818;stroke-width:0.5;" width="4" x="573.4477" y="527.97"/><rect fill="#F1F1F1" height="2" style="stroke:#181818;stroke-width:0.5;" width="4" x="573.4477" y="531.97"/><text fill="#000000" font-family="sans-serif" font-size="14" lengthAdjust="spacing" textLength="74.8877" x="495.56" y="553.9651">index.html</text></g><!--entity PlantUML--><g class="entity" data-entity="PlantUML" data-source-line="17" data-uid="ent0012" id="entity_PlantUML"><rect fill="#F1F1F1" height="46.2969" rx="2.5" ry="2.5" style="stroke:#181818;stroke-width:0.5;" width="102.1182" x="1095.94" y="520.97"/><rect fill="#F1F1F1" height="10" style="stroke:#181818;stroke-width:0.5;" width="15" x="1178.0582" y="525.97"/><rect fill="#F1F1F1" height="2" style="stroke:#181818;stroke-width:0.5;" width="4" x="1176.0582" y="527.97"/><rect fill="#F1F1F1" height="2" style="stroke:#181818;stroke-width:0.5;" width="4" x="1176.0582" y="531.97"/><text fill="#000000" font-family="sans-serif" font-size="14" lengthAdjust="spacing" textLength="62.1182" x="1110.94" y="553.9651">plantuml</text></g><!--entity Browser--><g class="entity" data-entity="Browser" data-source-line="18" data-uid="ent0013" id="entity_Browser"><rect fill="#F1F1F1" height="46.2969" rx="2.5" ry="2.5" style="stroke:#181818;stroke-width:0.5;" width="125.2715" x="935.36" y="520.97"/><rect fill="#F1F1F1" height="10" style="stroke:#181818;stroke-width:0.5;" width="15" x="1040.6315" y="525.97"/><rect fill="#F1F1F1" height="2" style="stroke:#181818;stroke-width:0.5;" width="4" x="1038.6315" y="527.97"/><rect fill="#F1F1F1" height="2" style="stroke:#181818;stroke-width:0.5;" width="4" x="1038.6315" y="531.97"/><text fill="#000000" font-family="sans-serif" font-size="14" lengthAdjust="spacing" textLength="85.2715" x="950.36" y="553.9651">webbrowser</text></g><!--entity ProjectMakefile--><g class="entity" data-entity="ProjectMakefile" data-source-line="27" data-uid="ent0018" id="entity_ProjectMakefile"><rect fill="#F1F1F1" height="46.2969" rx="2.5" ry="2.5" style="stroke:#181818;stroke-width:0.5;" width="98.7002" x="205.65" y="253.26"/><rect fill="#F1F1F1" height="10" style="stroke:#181818;stroke-width:0.5;" width="15" x="284.3502" y="258.26"/><rect fill="#F1F1F1" height="2" style="stroke:#181818;stroke-width:0.5;" width="4" x="282.3502" y="260.26"/><rect fill="#F1F1F1" height="2" style="stroke:#181818;stroke-width:0.5;" width="4" x="282.3502" y="264.26"/><text fill="#000000" font-family="sans-serif" font-size="14" lengthAdjust="spacing" textLength="58.7002" x="220.65" y="286.2551">Makefile</text></g><!--entity DiagramFiles--><g class="entity" data-entity="DiagramFiles" data-source-line="23" data-uid="ent0016" id="entity_DiagramFiles"><rect fill="#F1F1F1" height="46.2969" rx="2.5" ry="2.5" style="stroke:#181818;stroke-width:0.5;" width="124.8027" x="45.6" y="253.26"/><rect fill="#F1F1F1" height="10" style="stroke:#181818;stroke-width:0.5;" width="15" x="150.4027" y="258.26"/><rect fill="#F1F1F1" height="2" style="stroke:#181818;stroke-width:0.5;" width="4" x="148.4027" y="260.26"/><rect fill="#F1F1F1" height="2" style="stroke:#181818;stroke-width:0.5;" width="4" x="148.4027" y="264.26"/><ellipse cx="66.1" cy="282.0569" fill="#000000" rx="2.5" ry="2.5"/><text fill="#000000" font-family="sans-serif" font-size="14" lengthAdjust="spacing" textLength="72.8027" x="72.6" y="286.2551">.puml files</text></g><!--entity OutputFolder--><g class="entity" data-entity="OutputFolder" data-source-line="24" data-uid="ent0017" id="entity_OutputFolder"><path d="M96.41,367.68 L137.41,367.68 A3.75,3.75 0 0 1 139.91,370.18 L146.91,388.68 L167.5868,388.68 A2.5,2.5 0 0 1 170.0868,391.18 L170.0868,419.4769 A2.5,2.5 0 0 1 167.5868,421.9769 L96.41,421.9769 A2.5,2.5 0 0 1 93.91,419.4769 L93.91,370.18 A2.5,2.5 0 0 1 96.41,367.68 " fill="#F1F1F1" style="stroke:#181818;stroke-width:0.5;"/><line style="stroke:#181818;stroke-width:0.5;" x1="93.91" x2="146.91" y1="388.68" y2="388.68"/><text fill="#000000" font-family="sans-serif" font-size="14" lengthAdjust="spacing" textLength="46.1768" x="103.91" y="408.6751">output</text></g><g class="entity" data-entity="GMN31" data-source-line="49" data-uid="ent0032" id="entity_GMN31"><path d="M913.65,123.55 L913.65,148.6828 L1072.3497,148.6828 L1072.3497,133.55 L1062.3497,123.55 L913.65,123.55 " fill="#FEFFDD" style="stroke:#181818;stroke-width:0.5;"/><path d="M1062.3497,123.55 L1062.3497,133.55 L1072.3497,133.55 L1062.3497,123.55 " fill="#FEFFDD" style="stroke:#181818;stroke-width:1;"/><text fill="#000000" font-family="sans-serif" font-size="13" lengthAdjust="spacing" textLength="137.6997" x="919.65" y="140.6169">Central configuration</text></g><g class="entity" data-entity="GMN34" data-source-line="51" data-uid="ent0035" id="entity_GMN34"><path d="M910.61,256.28 L910.61,272.41 L628.73,276.41 L910.61,280.41 L910.61,296.5456 A0,0 0 0 0 910.61,296.5456 L1067.3927,296.5456 A0,0 0 0 0 1067.3927,296.5456 L1067.3927,266.28 L1057.3927,256.28 L910.61,256.28 A0,0 0 0 0 910.61,256.28 " fill="#FEFFDD" style="stroke:#181818;stroke-width:0.5;"/><path d="M1057.3927,256.28 L1057.3927,266.28 L1067.3927,266.28 L1057.3927,256.28 " fill="#FEFFDD" style="stroke:#181818;stroke-width:0.5;"/><text fill="#000000" font-family="sans-serif" font-size="13" lengthAdjust="spacing" textLength="135.7827" x="916.61" y="273.3469">Renders diagrams to</text><text fill="#000000" font-family="sans-serif" font-size="13" lengthAdjust="spacing" textLength="87.5786" x="916.61" y="288.4797">SVG and PNG</text></g><g class="entity" data-entity="GMN37" data-source-line="53" data-uid="ent0038" id="entity_GMN37"><path d="M910.52,359.56 L910.52,430.0913 L1009.4883,430.0913 L1009.4883,369.56 L999.4883,359.56 L910.52,359.56 " fill="#FEFFDD" style="stroke:#181818;stroke-width:0.5;"/><path d="M999.4883,359.56 L999.4883,369.56 L1009.4883,369.56 L999.4883,359.56 " fill="#FEFFDD" style="stroke:#181818;stroke-width:1;"/><text fill="#000000" font-family="sans-serif" font-size="13" lengthAdjust="spacing" textLength="77.9683" x="916.52" y="376.6269">Commands:</text><text fill="#000000" font-family="sans-serif" font-size="13" lengthAdjust="spacing" textLength="52" x="916.52" y="391.7597">- render</text><text fill="#000000" font-family="sans-serif" font-size="13" lengthAdjust="spacing" textLength="38.7588" x="916.52" y="406.8925">- view</text><text fill="#000000" font-family="sans-serif" font-size="13" lengthAdjust="spacing" textLength="36.9243" x="916.52" y="422.0253">- help</text></g><g class="entity" data-entity="GMN40" data-source-line="55" data-uid="ent0041" id="entity_GMN40"><path d="M1233.21,531.56 L1233.21,556.6928 L1382.7945,556.6928 L1382.7945,541.56 L1372.7945,531.56 L1233.21,531.56 " fill="#FEFFDD" style="stroke:#181818;stroke-width:0.5;"/><path d="M1372.7945,531.56 L1372.7945,541.56 L1382.7945,541.56 L1372.7945,531.56 " fill="#FEFFDD" style="stroke:#181818;stroke-width:1;"/><text fill="#000000" font-family="sans-serif" font-size="13" lengthAdjust="spacing" textLength="128.5845" x="1239.21" y="548.6269">React-based viewer</text></g><g class="entity" data-entity="GMN43" data-source-line="57" data-uid="ent0044" id="entity_GMN43"><path d="M61.24,523.99 L61.24,564.2556 A0,0 0 0 0 61.24,564.2556 L202.7566,564.2556 A0,0 0 0 0 202.7566,564.2556 L202.7566,533.99 L192.7566,523.99 L136,523.99 L132,422.16 L128,523.99 L61.24,523.99 A0,0 0 0 0 61.24,523.99 " fill="#FEFFDD" style="stroke:#181818;stroke-width:0.5;"/><path d="M192.7566,523.99 L192.7566,533.99 L202.7566,533.99 L192.7566,523.99 " fill="#FEFFDD" style="stroke:#181818;stroke-width:0.5;"/><text fill="#000000" font-family="sans-serif" font-size="13" lengthAdjust="spacing" textLength="120.5166" x="67.24" y="541.0569">Contains rendered</text><text fill="#000000" font-family="sans-serif" font-size="13" lengthAdjust="spacing" textLength="60.8296" x="67.24" y="556.1897">diagrams</text></g><!--link Config to Renderer--><g class="link" data-entity-1="Config" data-entity-2="Renderer" data-source-line="31" data-uid="lnk19" id="link_Config_Renderer"><path d="M432.52,159.64 C455.95,185.36 490.0195,222.7444 513.4395,248.4544 " fill="none" id="Config-to-Renderer" style="stroke:#181818;stroke-width:1;"/><polygon fill="#181818" points="517.48,252.89,514.3763,243.543,514.1129,249.1937,508.4622,248.9303,517.48,252.89" style="stroke:#181818;stroke-width:1;"/></g><!--link Config to CLI--><g class="link" data-entity-1="Config" data-entity-2="CLI" data-source-line="32" data-uid="lnk20" id="link_Config_CLI"><path d="M409.56,159.6 C407.05,192.37 406.33,254.3 430,299.56 C445.8,329.77 470.6641,351.2679 494.9741,367.8579 " fill="none" id="Config-to-CLI" style="stroke:#181818;stroke-width:1;"/><polygon fill="#181818" points="499.93,371.24,494.7508,362.8629,495.8,368.4216,490.2414,369.4708,499.93,371.24" style="stroke:#181818;stroke-width:1;"/></g><!--link Renderer to CLI--><g class="link" data-entity-1="Renderer" data-entity-2="CLI" data-source-line="33" data-uid="lnk21" id="link_Renderer_CLI"><path d="M538,299.86 C538,320.47 538,344.86 538,365.45 " fill="none" id="Renderer-to-CLI" style="stroke:#181818;stroke-width:1;"/><polygon fill="#181818" points="538,371.45,542,362.45,538,366.45,534,362.45,538,371.45" style="stroke:#181818;stroke-width:1;"/></g><!--link Config to Init--><g class="link" data-entity-1="Config" data-entity-2="Init" data-source-line="34" data-uid="lnk22" id="link_Config_Init"><path d="M464.38,155.28 C470.27,156.85 476.23,158.23 482,159.26 C499.96,162.49 633.07,154.39 646,167.26 C700.7,221.74 680.3601,319.84 667.0301,365.54 " fill="none" id="Config-to-Init" style="stroke:#181818;stroke-width:1;"/><polygon fill="#181818" points="665.35,371.3,671.7101,363.7801,666.7501,366.5,664.0302,361.54,665.35,371.3" style="stroke:#181818;stroke-width:1;"/></g><!--link Renderer to Init--><g class="link" data-entity-1="Renderer" data-entity-2="Init" data-source-line="35" data-uid="lnk23" id="link_Renderer_Init"><path d="M561.14,299.86 C582.39,320.47 609.4039,346.6818 630.6239,367.2718 " fill="none" id="Renderer-to-Init" style="stroke:#181818;stroke-width:1;"/><polygon fill="#181818" points="634.93,371.45,631.2564,362.3119,631.3416,367.9681,625.6854,368.0534,634.93,371.45" style="stroke:#181818;stroke-width:1;"/></g><!--link CLI to Browser--><g class="link" data-entity-1="CLI" data-entity-2="Browser" data-source-line="37" data-uid="lnk24" id="link_CLI_Browser"><path d="M550.49,418.29 C561.13,435.25 578.02,457.63 599,469.97 C654.99,502.92 831.5546,525.7264 929.1546,536.2564 " fill="none" id="CLI-to-Browser" style="stroke:#181818;stroke-width:1;"/><polygon fill="#181818" points="935.12,536.9,926.601,531.9577,930.1488,536.3637,925.7429,539.9115,935.12,536.9" style="stroke:#181818;stroke-width:1;"/></g><!--link Renderer to PlantUML--><g class="link" data-entity-1="Renderer" data-entity-2="PlantUML" data-source-line="38" data-uid="lnk25" id="link_Renderer_PlantUML"><path d="M628.67,283.96 C751.51,294.29 962.88,317.63 1027,359.56 C1087.54,399.15 1122.2025,475.4761 1137.1425,515.0861 " fill="none" id="Renderer-to-PlantUML" style="stroke:#181818;stroke-width:1;"/><polygon fill="#181818" points="1139.26,520.7,1139.8264,510.8674,1137.4955,516.0217,1132.3412,513.6907,1139.26,520.7" style="stroke:#181818;stroke-width:1;"/></g><!--link CLI to Viewer--><g class="link" data-entity-1="CLI" data-entity-2="Viewer" data-source-line="40" data-uid="lnk26" id="link_CLI_Viewer"><path d="M538,418.2 C538,445.88 538,486.76 538,514.54 " fill="none" id="CLI-to-Viewer" style="stroke:#181818;stroke-width:1;"/><polygon fill="#181818" points="538,520.54,542,511.54,538,515.54,534,511.54,538,520.54" style="stroke:#181818;stroke-width:1;"/></g><!--link Renderer to OutputFolder--><g class="link" data-entity-1="Renderer" data-entity-2="OutputFolder" data-source-line="41" data-uid="lnk27" id="link_Renderer_OutputFolder"><path d="M459.24,299.99 C372.42,324.89 242.0976,383.2562 176.1476,402.1662 " fill="none" id="Renderer-to-OutputFolder" style="stroke:#181818;stroke-width:1;"/><polygon fill="#181818" points="170.38,403.82,180.1339,405.1844,175.1863,402.4419,177.9289,397.4943,170.38,403.82" style="stroke:#181818;stroke-width:1;"/></g><!--link ProjectMakefile to CLI--><g class="link" data-entity-1="ProjectMakefile" data-entity-2="CLI" data-source-line="43" data-uid="lnk28" id="link_ProjectMakefile_CLI"><path d="M304.62,297.82 C360.1,320.64 443.241,354.8477 493.811,375.6477 " fill="none" id="ProjectMakefile-to-CLI" style="stroke:#181818;stroke-width:1;"/><polygon fill="#181818" points="499.36,377.93,492.5581,370.8072,494.7359,376.028,489.515,378.2058,499.36,377.93" style="stroke:#181818;stroke-width:1;"/></g><!--link DiagramFiles to OutputFolder--><g class="link" data-entity-1="DiagramFiles" data-entity-2="OutputFolder" data-source-line="45" data-uid="lnk29" id="link_DiagramFiles_OutputFolder"><path d="M112.63,299.86 C116.6,319.15 121.1384,341.1236 125.3384,361.4936 " fill="none" id="DiagramFiles-to-OutputFolder" style="stroke:#181818;stroke-width:1;"/><polygon fill="#181818" points="126.55,367.37,128.6502,357.7477,125.5403,362.473,120.815,359.3632,126.55,367.37" style="stroke:#181818;stroke-width:1;"/></g><!--link Viewer to OutputFolder--><g class="link" data-entity-1="Viewer" data-entity-2="OutputFolder" data-source-line="46" data-uid="lnk30" id="link_Viewer_OutputFolder"><path d="M480.32,522.19 C396.23,491.69 247.8602,437.8564 176.2002,411.8564 " fill="none" id="Viewer-to-OutputFolder" style="stroke:#181818;stroke-width:1;"/><polygon fill="#181818" points="170.56,409.81,177.6561,416.6398,175.2602,411.5153,180.3846,409.1195,170.56,409.81" style="stroke:#181818;stroke-width:1;"/></g><!--link Config to GMN31--><g class="link" data-entity-1="Config" data-entity-2="GMN31" data-source-line="49" data-uid="lnk33" id="link_Config_GMN31"><path d="M425.2,112.72 C439.9,89.32 466.06,54.75 499.5,39.97 C576.33,6 798.51,11.39 877.5,39.97 C923.87,56.74 964.73,101.15 982.94,123.25 " fill="none" id="Config-GMN31" style="stroke:#181818;stroke-width:1;stroke-dasharray:7.0,7.0;"/></g><!--link CLI to GMN37--><g class="link" data-entity-1="CLI" data-entity-2="GMN37" data-source-line="53" data-uid="lnk39" id="link_CLI_GMN37"><path d="M558,371.31 C572.48,356.19 593.5,337.87 616.5,329.56 C725.59,290.13 767.93,291.46 877.5,329.56 C895.27,335.74 912.09,347.51 925.86,359.37 " fill="none" id="CLI-GMN37" style="stroke:#181818;stroke-width:1;stroke-dasharray:7.0,7.0;"/></g><!--link Viewer to GMN40--><g class="link" data-entity-1="Viewer" data-entity-2="GMN40" data-source-line="55" data-uid="lnk42" id="link_Viewer_GMN40"><path d="M595.66,530.71 C672.78,513.52 814.03,484.67 936.5,473.97 C965.28,471.46 1167.79,470.73 1196.5,473.97 C1237.86,478.64 1276.77,512.13 1295.8,531.1 " fill="none" id="Viewer-GMN40" style="stroke:#181818;stroke-width:1;stroke-dasharray:7.0,7.0;"/></g><!--SRC=[RLFBQjj05DthAoxU60foi-ZAYq8QEo4GDoOXsSH5Z3LNrZJp43EZsg7atpjFHN83Hfuvzvpxd3k75JPC8jHAT4gYj0QEpBPWcEWuQZ1lqf9JqP7wbHmGPbjEf7tQtC6JPPnPXcO6Vmk0brh9XXqMtTil80QkmitZ6YL5NL563fe8amaF0KOTf9mDkhjRZrGLaynMLOPltStXxjSexdGm-yFmY3h6TWBcl9qMhHKyy9-3rPdUe-hbONsvsgmNWgRWX0hq-CN5jxBp9VM2btqkAVCUxxV5U_5H_FfaKKl2KybP6BYvCTvmnFrUgwD17Km_uddYQglLRwnjz9IBegesNtEdXjg-B3eN11h6qGH_gyYuza2WPBtgRTSxduvp7uxNmJ3gmuQyedSKKuuvPCpdDy_lGICdbYbfMjPz_YJYYA4iltyCSuJvIMPy04RsCD898I25euLRRjg4CZHveAL9JrYJsekpAeTSYd4R_zT5nv_ucyCbfQaP89LrC_1VqEpGMb1DUlkmX2ktJffmYAlHwz3GuemzPBvCHmFv1O1LE_duV0D4KjZ-l3cN-XwuA4e8Hp3BdImXRfi_-GNn_otoxboOQlCHIMtBFJ588MvKekwLjKfuxhZu4CqDdqcJ8Y7ToPpkFm00]--></g></svg>