<svg xmlns="http://www.w3.org/2000/svg" xmlns:xlink="http://www.w3.org/1999/xlink" contentStyleType="text/css" data-diagram-type="CLASS" height="777px" preserveAspectRatio="none" style="width:1583px;height:777px;background:#282828;" version="1.1" viewBox="0 0 1583 777" width="1583px" zoomAndPan="magnify"><defs/><g><rect fill="#282828" height="777" style="stroke:none;stroke-width:1;" width="1583" x="0" y="0"/><!--class App--><g class="entity" data-entity="App" data-source-line="4" data-uid="ent0002" id="entity_App"><rect fill="#282828" height="435.125" rx="2.5" ry="2.5" style="stroke:#33FF33;stroke-width:1;" width="381.8887" x="12" y="12"/><ellipse cx="185.519" cy="26" fill="#282828" rx="9" ry="9" style="stroke:#33FF33;stroke-width:1;"/><path d="M188.4878,31.6406 Q187.9097,31.9375 187.269,32.0781 Q186.6284,32.2344 185.9253,32.2344 Q183.4253,32.2344 182.0972,30.5938 Q180.7847,28.9375 180.7847,25.8125 Q180.7847,22.6875 182.0972,21.0313 Q183.4253,19.375 185.9253,19.375 Q186.6284,19.375 187.269,19.5313 Q187.9253,19.6875 188.4878,19.9844 L188.4878,22.7031 Q187.8628,22.125 187.269,21.8594 Q186.6753,21.5781 186.0503,21.5781 Q184.7065,21.5781 184.019,22.6563 Q183.3315,23.7188 183.3315,25.8125 Q183.3315,27.9063 184.019,28.9844 Q184.7065,30.0469 186.0503,30.0469 Q186.6753,30.0469 187.269,29.7813 Q187.8628,29.5 188.4878,28.9219 L188.4878,31.6406 Z " fill="#33FF33"/><text fill="#33FF33" font-family="Verdana" font-size="14" lengthAdjust="spacing" textLength="27.3506" x="203.019" y="30.8467">App</text><line style="stroke:#33FF33;stroke-width:1;" x1="13" x2="392.8887" y1="40" y2="40"/><rect fill="none" height="6" style="stroke:#33FF33;stroke-width:1;" width="6" x="20" y="50.6484"/><text fill="#33FF33" font-family="Verdana" font-size="14" lengthAdjust="spacing" textLength="102.6963" x="30" y="56.9951">folders: Object</text><rect fill="none" height="6" style="stroke:#33FF33;stroke-width:1;" width="6" x="20" y="66.9453"/><text fill="#33FF33" font-family="Verdana" font-size="14" lengthAdjust="spacing" textLength="116.71" x="30" y="73.292">loading: boolean</text><rect fill="none" height="6" style="stroke:#33FF33;stroke-width:1;" width="6" x="20" y="83.2422"/><text fill="#33FF33" font-family="Verdana" font-size="14" lengthAdjust="spacing" textLength="83.8018" x="30" y="89.5889">error: string</text><rect fill="none" height="6" style="stroke:#33FF33;stroke-width:1;" width="6" x="20" y="99.5391"/><text fill="#33FF33" font-family="Verdana" font-size="14" lengthAdjust="spacing" textLength="152.2158" x="30" y="105.8857">selectedFolder: string</text><rect fill="none" height="6" style="stroke:#33FF33;stroke-width:1;" width="6" x="20" y="115.8359"/><text fill="#33FF33" font-family="Verdana" font-size="14" lengthAdjust="spacing" textLength="168.5605" x="30" y="122.1826">selectedDiagram: string</text><rect fill="none" height="6" style="stroke:#33FF33;stroke-width:1;" width="6" x="20" y="132.1328"/><text fill="#33FF33" font-family="Verdana" font-size="14" lengthAdjust="spacing" textLength="96.3115" x="30" y="138.4795">format: string</text><rect fill="none" height="6" style="stroke:#33FF33;stroke-width:1;" width="6" x="20" y="148.4297"/><text fill="#33FF33" font-family="Verdana" font-size="14" lengthAdjust="spacing" textLength="175.4443" x="30" y="154.7764">expandedFolders: Object</text><rect fill="none" height="6" style="stroke:#33FF33;stroke-width:1;" width="6" x="20" y="164.7266"/><text fill="#33FF33" font-family="Verdana" font-size="14" lengthAdjust="spacing" textLength="166.3047" x="30" y="171.0732">transform: {x, y, scale}</text><rect fill="none" height="6" style="stroke:#33FF33;stroke-width:1;" width="6" x="20" y="181.0234"/><text fill="#33FF33" font-family="Verdana" font-size="14" lengthAdjust="spacing" textLength="140.8613" x="30" y="187.3701">isDragging: boolean</text><rect fill="none" height="6" style="stroke:#33FF33;stroke-width:1;" width="6" x="20" y="197.3203"/><text fill="#33FF33" font-family="Verdana" font-size="14" lengthAdjust="spacing" textLength="118.7607" x="30" y="203.667">dragStart: {x, y}</text><rect fill="none" height="6" style="stroke:#33FF33;stroke-width:1;" width="6" x="20" y="213.6172"/><text fill="#33FF33" font-family="Verdana" font-size="14" lengthAdjust="spacing" textLength="212.1943" x="30" y="219.9639">containerRef: React.RefObject</text><line style="stroke:#33FF33;stroke-width:1;" x1="13" x2="392.8887" y1="227.2656" y2="227.2656"/><ellipse cx="23" cy="240.9141" fill="#282828" rx="3" ry="3" style="stroke:#33FF33;stroke-width:1;"/><text fill="#33FF33" font-family="Verdana" font-size="14" lengthAdjust="spacing" textLength="147.041" x="30" y="244.2607">loadDiagrams(): void</text><ellipse cx="23" cy="257.2109" fill="#282828" rx="3" ry="3" style="stroke:#33FF33;stroke-width:1;"/><text fill="#33FF33" font-family="Verdana" font-size="14" lengthAdjust="spacing" textLength="165.5322" x="30" y="260.5576">scanDiagrams(): Object</text><ellipse cx="23" cy="273.5078" fill="#282828" rx="3" ry="3" style="stroke:#33FF33;stroke-width:1;"/><text fill="#33FF33" font-family="Verdana" font-size="14" lengthAdjust="spacing" textLength="227.8076" x="30" y="276.8545">toggleFolder(folder: string): void</text><ellipse cx="23" cy="289.8047" fill="#282828" rx="3" ry="3" style="stroke:#33FF33;stroke-width:1;"/><text fill="#33FF33" font-family="Verdana" font-size="14" lengthAdjust="spacing" textLength="357.8887" x="30" y="293.1514">selectDiagram(folder: string, diagram: string): void</text><ellipse cx="23" cy="306.1016" fill="#282828" rx="3" ry="3" style="stroke:#33FF33;stroke-width:1;"/><text fill="#33FF33" font-family="Verdana" font-size="14" lengthAdjust="spacing" textLength="297.7051" x="30" y="309.4482">formatDiagramName(name: string): string</text><ellipse cx="23" cy="322.3984" fill="#282828" rx="3" ry="3" style="stroke:#33FF33;stroke-width:1;"/><text fill="#33FF33" font-family="Verdana" font-size="14" lengthAdjust="spacing" textLength="100.8369" x="30" y="325.7451">zoomIn(): void</text><ellipse cx="23" cy="338.6953" fill="#282828" rx="3" ry="3" style="stroke:#33FF33;stroke-width:1;"/><text fill="#33FF33" font-family="Verdana" font-size="14" lengthAdjust="spacing" textLength="113.2168" x="30" y="342.042">zoomOut(): void</text><ellipse cx="23" cy="354.9922" fill="#282828" rx="3" ry="3" style="stroke:#33FF33;stroke-width:1;"/><text fill="#33FF33" font-family="Verdana" font-size="14" lengthAdjust="spacing" textLength="119.0137" x="30" y="358.3389">resetView(): void</text><ellipse cx="23" cy="371.2891" fill="#282828" rx="3" ry="3" style="stroke:#33FF33;stroke-width:1;"/><text fill="#33FF33" font-family="Verdana" font-size="14" lengthAdjust="spacing" textLength="285.8379" x="30" y="374.6357">handleMouseDown(e: MouseEvent): void</text><ellipse cx="23" cy="387.5859" fill="#282828" rx="3" ry="3" style="stroke:#33FF33;stroke-width:1;"/><text fill="#33FF33" font-family="Verdana" font-size="14" lengthAdjust="spacing" textLength="283.7119" x="30" y="390.9326">handleMouseMove(e: MouseEvent): void</text><ellipse cx="23" cy="403.8828" fill="#282828" rx="3" ry="3" style="stroke:#33FF33;stroke-width:1;"/><text fill="#33FF33" font-family="Verdana" font-size="14" lengthAdjust="spacing" textLength="161.9912" x="30" y="407.2295">handleMouseUp(): void</text><ellipse cx="23" cy="420.1797" fill="#282828" rx="3" ry="3" style="stroke:#33FF33;stroke-width:1;"/><text fill="#33FF33" font-family="Verdana" font-size="14" lengthAdjust="spacing" textLength="242.9834" x="30" y="423.5264">handleWheel(e: WheelEvent): void</text><ellipse cx="23" cy="436.4766" fill="#282828" rx="3" ry="3" style="stroke:#33FF33;stroke-width:1;"/><text fill="#33FF33" font-family="Verdana" font-size="14" lengthAdjust="spacing" textLength="164.6572" x="30" y="439.8232">render(): ReactElement</text></g><!--class Config--><g class="entity" data-entity="Config" data-source-line="31" data-uid="ent0003" id="entity_Config"><rect fill="#282828" height="109.1875" rx="2.5" ry="2.5" style="stroke:#33FF33;stroke-width:1;" width="203.2178" x="690.34" y="174.97"/><ellipse cx="765.7394" cy="188.97" fill="#282828" rx="9" ry="9" style="stroke:#33FF33;stroke-width:1;"/><path d="M768.7082,194.6106 Q768.13,194.9075 767.4894,195.0481 Q766.8488,195.2044 766.1457,195.2044 Q763.6457,195.2044 762.3175,193.5638 Q761.005,191.9075 761.005,188.7825 Q761.005,185.6575 762.3175,184.0013 Q763.6457,182.345 766.1457,182.345 Q766.8488,182.345 767.4894,182.5013 Q768.1457,182.6575 768.7082,182.9544 L768.7082,185.6731 Q768.0832,185.095 767.4894,184.8294 Q766.8957,184.5481 766.2707,184.5481 Q764.9269,184.5481 764.2394,185.6263 Q763.5519,186.6888 763.5519,188.7825 Q763.5519,190.8763 764.2394,191.9544 Q764.9269,193.0169 766.2707,193.0169 Q766.8957,193.0169 767.4894,192.7513 Q768.0832,192.47 768.7082,191.8919 L768.7082,194.6106 Z " fill="#33FF33"/><text fill="#33FF33" font-family="Verdana" font-size="14" lengthAdjust="spacing" textLength="44.9189" x="783.2394" y="193.8167">Config</text><line style="stroke:#33FF33;stroke-width:1;" x1="691.34" x2="892.5578" y1="202.97" y2="202.97"/><ellipse cx="701.34" cy="216.6184" fill="none" rx="3" ry="3" style="stroke:#33FF33;stroke-width:1;"/><text fill="#33FF33" font-family="Verdana" font-size="14" lengthAdjust="spacing" textLength="157.165" x="708.34" y="219.9651">PROJECT_ROOT: string</text><ellipse cx="701.34" cy="232.9153" fill="none" rx="3" ry="3" style="stroke:#33FF33;stroke-width:1;"/><text fill="#33FF33" font-family="Verdana" font-size="14" lengthAdjust="spacing" textLength="139.4941" x="708.34" y="236.262">SOURCE_DIR: string</text><ellipse cx="701.34" cy="249.2122" fill="none" rx="3" ry="3" style="stroke:#33FF33;stroke-width:1;"/><text fill="#33FF33" font-family="Verdana" font-size="14" lengthAdjust="spacing" textLength="138.0518" x="708.34" y="252.5589">OUTPUT_DIR: string</text><ellipse cx="701.34" cy="265.5091" fill="none" rx="3" ry="3" style="stroke:#33FF33;stroke-width:1;"/><text fill="#33FF33" font-family="Verdana" font-size="14" lengthAdjust="spacing" textLength="179.2178" x="708.34" y="268.8557">DEFAULT_FORMAT: string</text><line style="stroke:#33FF33;stroke-width:1;" x1="691.34" x2="892.5578" y1="276.1575" y2="276.1575"/></g><!--class CLI--><g class="entity" data-entity="CLI" data-source-line="38" data-uid="ent0004" id="entity_CLI"><rect fill="#282828" height="92.8906" rx="2.5" ry="2.5" style="stroke:#33FF33;stroke-width:1;" width="372.9814" x="531.45" y="677.72"/><ellipse cx="703.3387" cy="691.72" fill="#282828" rx="9" ry="9" style="stroke:#33FF33;stroke-width:1;"/><path d="M706.3074,697.3606 Q705.7293,697.6575 705.0887,697.7981 Q704.448,697.9544 703.7449,697.9544 Q701.2449,697.9544 699.9168,696.3138 Q698.6043,694.6575 698.6043,691.5325 Q698.6043,688.4075 699.9168,686.7513 Q701.2449,685.095 703.7449,685.095 Q704.448,685.095 705.0887,685.2513 Q705.7449,685.4075 706.3074,685.7044 L706.3074,688.4231 Q705.6824,687.845 705.0887,687.5794 Q704.4949,687.2981 703.8699,687.2981 Q702.5262,687.2981 701.8387,688.3763 Q701.1512,689.4388 701.1512,691.5325 Q701.1512,693.6263 701.8387,694.7044 Q702.5262,695.7669 703.8699,695.7669 Q704.4949,695.7669 705.0887,695.5013 Q705.6824,695.22 706.3074,694.6419 L706.3074,697.3606 Z " fill="#33FF33"/><text fill="#33FF33" font-family="Verdana" font-size="14" lengthAdjust="spacing" textLength="21.7041" x="720.8387" y="696.5667">CLI</text><line style="stroke:#33FF33;stroke-width:1;" x1="532.45" x2="903.4314" y1="705.72" y2="705.72"/><line style="stroke:#33FF33;stroke-width:1;" x1="532.45" x2="903.4314" y1="713.72" y2="713.72"/><ellipse cx="542.45" cy="727.3684" fill="#282828" rx="3" ry="3" style="stroke:#33FF33;stroke-width:1;"/><text fill="#33FF33" font-family="Verdana" font-size="14" lengthAdjust="spacing" textLength="348.9814" x="549.45" y="730.7151">render_command(file: string, format: string): void</text><ellipse cx="542.45" cy="743.6653" fill="#282828" rx="3" ry="3" style="stroke:#33FF33;stroke-width:1;"/><text fill="#33FF33" font-family="Verdana" font-size="14" lengthAdjust="spacing" textLength="158.833" x="549.45" y="747.012">view_command(): void</text><ellipse cx="542.45" cy="759.9622" fill="#282828" rx="3" ry="3" style="stroke:#33FF33;stroke-width:1;"/><text fill="#33FF33" font-family="Verdana" font-size="14" lengthAdjust="spacing" textLength="84.6973" x="549.45" y="763.3089">main(): void</text></g><!--class RenderDiagrams--><g class="entity" data-entity="RenderDiagrams" data-source-line="44" data-uid="ent0005" id="entity_RenderDiagrams"><rect fill="#282828" height="76.5938" rx="2.5" ry="2.5" style="stroke:#33FF33;stroke-width:1;" width="572.9463" x="754.47" y="524.13"/><ellipse cx="978.2571" cy="538.13" fill="#282828" rx="9" ry="9" style="stroke:#33FF33;stroke-width:1;"/><path d="M981.2259,543.7706 Q980.6477,544.0675 980.0071,544.2081 Q979.3665,544.3644 978.6634,544.3644 Q976.1634,544.3644 974.8352,542.7238 Q973.5227,541.0675 973.5227,537.9425 Q973.5227,534.8175 974.8352,533.1613 Q976.1634,531.505 978.6634,531.505 Q979.3665,531.505 980.0071,531.6613 Q980.6634,531.8175 981.2259,532.1144 L981.2259,534.8331 Q980.6009,534.255 980.0071,533.9894 Q979.4134,533.7081 978.7884,533.7081 Q977.4446,533.7081 976.7571,534.7863 Q976.0696,535.8488 976.0696,537.9425 Q976.0696,540.0363 976.7571,541.1144 Q977.4446,542.1769 978.7884,542.1769 Q979.4134,542.1769 980.0071,541.9113 Q980.6009,541.63 981.2259,541.0519 L981.2259,543.7706 Z " fill="#33FF33"/><text fill="#33FF33" font-family="Verdana" font-size="14" lengthAdjust="spacing" textLength="117.8721" x="995.7571" y="542.9767">RenderDiagrams</text><line style="stroke:#33FF33;stroke-width:1;" x1="755.47" x2="1326.4163" y1="552.13" y2="552.13"/><line style="stroke:#33FF33;stroke-width:1;" x1="755.47" x2="1326.4163" y1="560.13" y2="560.13"/><ellipse cx="765.47" cy="573.7784" fill="#282828" rx="3" ry="3" style="stroke:#33FF33;stroke-width:1;"/><text fill="#33FF33" font-family="Verdana" font-size="14" lengthAdjust="spacing" textLength="516.6738" x="772.47" y="577.1251">render_diagram(file_path: string, output_dir: string, format: string): string</text><ellipse cx="765.47" cy="590.0753" fill="#282828" rx="3" ry="3" style="stroke:#33FF33;stroke-width:1;"/><text fill="#33FF33" font-family="Verdana" font-size="14" lengthAdjust="spacing" textLength="548.9463" x="772.47" y="593.422">render_all_diagrams(source_dir: string, output_dir: string, format: string): void</text></g><!--class HTTP--><g class="entity" data-entity="HTTP" data-source-line="53" data-uid="ent0009" id="entity_HTTP"><rect fill="#282828" height="44" rx="2.5" ry="2.5" style="stroke:#33FF33;stroke-width:1;" width="64.0732" x="170.91" y="540.42"/><ellipse cx="183.91" cy="554.42" fill="#282828" rx="9" ry="9" style="stroke:#33FF33;stroke-width:1;"/><path d="M186.8788,560.0606 Q186.3006,560.3575 185.66,560.4981 Q185.0194,560.6544 184.3163,560.6544 Q181.8163,560.6544 180.4881,559.0138 Q179.1756,557.3575 179.1756,554.2325 Q179.1756,551.1075 180.4881,549.4513 Q181.8163,547.795 184.3163,547.795 Q185.0194,547.795 185.66,547.9513 Q186.3163,548.1075 186.8788,548.4044 L186.8788,551.1231 Q186.2538,550.545 185.66,550.2794 Q185.0663,549.9981 184.4413,549.9981 Q183.0975,549.9981 182.41,551.0763 Q181.7225,552.1388 181.7225,554.2325 Q181.7225,556.3263 182.41,557.4044 Q183.0975,558.4669 184.4413,558.4669 Q185.0663,558.4669 185.66,558.2013 Q186.2538,557.92 186.8788,557.3419 L186.8788,560.0606 Z " fill="#33FF33"/><text fill="#33FF33" font-family="Verdana" font-size="14" lengthAdjust="spacing" textLength="36.0732" x="195.91" y="559.2667">HTTP</text><line style="stroke:#33FF33;stroke-width:1;" x1="171.91" x2="233.9832" y1="568.42" y2="568.42"/><line style="stroke:#33FF33;stroke-width:1;" x1="171.91" x2="233.9832" y1="576.42" y2="576.42"/></g><g class="entity" data-entity="GMN11" data-source-line="56" data-uid="ent0012" id="entity_GMN11"><path d="M428.71,209.43 L428.71,225.56 L394.29,229.56 L428.71,233.56 L428.71,249.6956 A0,0 0 0 0 428.71,249.6956 L655.1709,249.6956 A0,0 0 0 0 655.1709,249.6956 L655.1709,219.43 L645.1709,209.43 L428.71,209.43 A0,0 0 0 0 428.71,209.43 " fill="#282828" style="stroke:#33FF33;stroke-width:1;"/><path d="M645.1709,209.43 L645.1709,219.43 L655.1709,219.43 L645.1709,209.43 " fill="#282828" style="stroke:#33FF33;stroke-width:1;"/><text fill="#33FF33" font-family="Verdana" font-size="13" lengthAdjust="spacing" textLength="205.4609" x="434.71" y="226.4969">React component that provides</text><text fill="#33FF33" font-family="Verdana" font-size="13" lengthAdjust="spacing" textLength="204.7944" x="434.71" y="241.6297">the interactive viewer interface</text></g><g class="entity" data-entity="GMN14" data-source-line="61" data-uid="ent0015" id="entity_GMN14"><path d="M928.64,209.43 L928.64,225.56 L893.81,229.56 L928.64,233.56 L928.64,249.6956 A0,0 0 0 0 928.64,249.6956 L1127.2538,249.6956 A0,0 0 0 0 1127.2538,249.6956 L1127.2538,219.43 L1117.2538,209.43 L928.64,209.43 A0,0 0 0 0 928.64,209.43 " fill="#282828" style="stroke:#33FF33;stroke-width:1;"/><path d="M1117.2538,209.43 L1117.2538,219.43 L1127.2538,219.43 L1117.2538,209.43 " fill="#282828" style="stroke:#33FF33;stroke-width:1;"/><text fill="#33FF33" font-family="Verdana" font-size="13" lengthAdjust="spacing" textLength="159.707" x="934.64" y="226.4969">Central configuration for</text><text fill="#33FF33" font-family="Verdana" font-size="13" lengthAdjust="spacing" textLength="177.6138" x="934.64" y="241.6297">diagram paths and formats</text></g><g class="entity" data-entity="GMN17" data-source-line="66" data-uid="ent0018" id="entity_GMN17"><path d="M938.94,704.03 L938.94,720.16 L904.87,724.16 L938.94,728.16 L938.94,744.2956 A0,0 0 0 0 938.94,744.2956 L1170.9424,744.2956 A0,0 0 0 0 1170.9424,744.2956 L1170.9424,714.03 L1160.9424,704.03 L938.94,704.03 A0,0 0 0 0 938.94,704.03 " fill="#282828" style="stroke:#33FF33;stroke-width:1;"/><path d="M1160.9424,704.03 L1160.9424,714.03 L1170.9424,714.03 L1160.9424,704.03 " fill="#282828" style="stroke:#33FF33;stroke-width:1;"/><text fill="#33FF33" font-family="Verdana" font-size="13" lengthAdjust="spacing" textLength="179.0864" x="944.94" y="721.0969">Command-line interface for</text><text fill="#33FF33" font-family="Verdana" font-size="13" lengthAdjust="spacing" textLength="211.0024" x="944.94" y="736.2297">rendering and viewing diagrams</text></g><g class="entity" data-entity="GMN20" data-source-line="71" data-uid="ent0021" id="entity_GMN20"><path d="M1362.89,542.29 L1362.89,558.42 L1327.5,562.42 L1362.89,566.42 L1362.89,582.5556 A0,0 0 0 0 1362.89,582.5556 L1576.9921,582.5556 A0,0 0 0 0 1576.9921,582.5556 L1576.9921,552.29 L1566.9921,542.29 L1362.89,542.29 A0,0 0 0 0 1362.89,542.29 " fill="#282828" style="stroke:#33FF33;stroke-width:1;"/><path d="M1566.9921,542.29 L1566.9921,552.29 L1576.9921,552.29 L1566.9921,542.29 " fill="#282828" style="stroke:#33FF33;stroke-width:1;"/><text fill="#33FF33" font-family="Verdana" font-size="13" lengthAdjust="spacing" textLength="137.5981" x="1368.89" y="559.3569">Core functionality for</text><text fill="#33FF33" font-family="Verdana" font-size="13" lengthAdjust="spacing" textLength="193.1021" x="1368.89" y="574.4897">rendering PlantUML diagrams</text></g><!--reverse link Config to RenderDiagrams--><g class="link" data-entity-1="Config" data-entity-2="RenderDiagrams" data-source-line="50" data-uid="lnk6" id="link_Config_RenderDiagrams"><path codeLine="50" d="M817.6347,289.9176 C838.8047,335.7776 870.41,396.59 910.94,447.13 C933.88,475.73 964.48,503.02 990.23,523.77 " fill="none" id="Config-backto-RenderDiagrams" style="stroke:#33FF33;stroke-width:1;"/><polygon fill="#33FF33" points="815.12,284.47,815.2604,294.3179,817.2156,289.0097,822.5238,290.9649,815.12,284.47" style="stroke:#33FF33;stroke-width:1;"/><text fill="#33FF33" font-family="Verdana" font-size="13" lengthAdjust="spacing" textLength="29.7832" x="953.94" y="490.1969">uses</text></g><!--reverse link Config to CLI--><g class="link" data-entity-1="Config" data-entity-2="CLI" data-source-line="51" data-uid="lnk7" id="link_Config_CLI"><path codeLine="51" d="M769.0476,290.0844 C747.7776,348.1944 718.26,438.31 705.94,524.13 C701.11,557.82 704.28,566.72 705.94,600.72 C707.19,626.11 709.87,654.35 712.38,677.31 " fill="none" id="Config-backto-CLI" style="stroke:#33FF33;stroke-width:1;"/><polygon fill="#33FF33" points="771.11,284.45,764.2602,291.5267,769.3914,289.1453,771.7727,294.2765,771.11,284.45" style="stroke:#33FF33;stroke-width:1;"/><text fill="#33FF33" font-family="Verdana" font-size="13" lengthAdjust="spacing" textLength="29.7832" x="706.94" y="566.9869">uses</text></g><!--reverse link RenderDiagrams to CLI--><g class="link" data-entity-1="RenderDiagrams" data-entity-2="CLI" data-source-line="52" data-uid="lnk8" id="link_RenderDiagrams_CLI"><path codeLine="52" d="M959.4318,603.74 C913.2718,626.57 859.43,653.19 810.56,677.36 " fill="none" id="RenderDiagrams-backto-CLI" style="stroke:#33FF33;stroke-width:1;"/><polygon fill="#33FF33" points="964.81,601.08,954.9695,601.4845,960.3282,603.2966,958.5161,608.6554,964.81,601.08" style="stroke:#33FF33;stroke-width:1;"/><text fill="#33FF33" font-family="Verdana" font-size="13" lengthAdjust="spacing" textLength="29.7832" x="898.94" y="643.7869">uses</text></g><!--link App to HTTP--><g class="link" data-entity-1="App" data-entity-2="HTTP" data-source-line="53" data-uid="lnk10" id="link_App_HTTP"><path codeLine="53" d="M202.94,447.56 C202.94,485.56 202.94,513.53 202.94,534.27 " fill="none" id="App-to-HTTP" style="stroke:#33FF33;stroke-width:1;stroke-dasharray:7.0,7.0;"/><polygon fill="#33FF33" points="202.94,540.27,206.94,531.27,202.94,535.27,198.94,531.27,202.94,540.27" style="stroke:#33FF33;stroke-width:1;"/><text fill="#33FF33" font-family="Verdana" font-size="13" lengthAdjust="spacing" textLength="112.7915" x="203.94" y="490.1969">fetches diagrams</text></g><!--SRC=[ZLJ1Rjim3BtxAxXUbg9DFo0O1XH9YcL8vi1rkcEWshIZGPOCIKxR5VttKRBZM4axz98eZ-GZ-SZmYzrXXP1fEoureeoYhp33Wai4ia0cc35e8lyDjtKDhn7060ebSjHc0l7Z7yoinuHYEPVb11wL4iYa1r5hfITWh2QJHmmAYi3ypbEyQvfnLcfM1RP2wOhP0CBdcidym1GMOpMJniLCuFNv6bwkmMHCu9itSZFJh2pFYiq9lRTCsowezSwKj8m4qGaM4qYGPVQ6ddsoAzzvLxCPNKvWhtZk3PHJ3Ws36AlAKc1R-gW8j0WOl2GTnudVDUIXKCF0Lgyky1UhS2JfO-3P2ta5VvMg5ZAet45nOmDCeq7xmF4fG7Sq0u4hrHYSgISveXp-ntoFqdxWk59x_9JZfdudr-yTed3X_d4Mhb4wJI-xMSq5BRYqqLlKRV5KoOANVf6lO9t4F-VJT9l4SHfeSXzlakbyEria0HnlqlKcFODdyxlRpJBTtiN9wlP8TCovN7G9s-gscQegQcPKS877UOPBFcngJxBtGKD3HQlP0ts-n6Svh5wOEZyi4wNUripkZlbLO-l6aeV-Jqs3jZj69iI1rOoCQdI68SUdU0yTz0T8es2MAsbsl3PHDxPlu_5fTnDet8qQE3YvE_J4zyJgBjhDpNUu-96cwmj22xJP3itXdsMYI2fBfV1oPq4LxWHIvtwnw31KjPAqMtGgcOLQgptFYHJywUJIeYOtlaS_FTGjLB0C8oeA7F4fVTi3CKo9LZFXZWy1ZVP2ECt8rjK6RdO6Q24wBSt7jCk5uspNPooSk7qj7MaxIfg49tG5ktSlmqVCeRm-YIRAHcQkO2QuVJbBi1PCsirgUSx-3m00]--></g></svg>