<svg xmlns="http://www.w3.org/2000/svg" xmlns:xlink="http://www.w3.org/1999/xlink" contentStyleType="text/css" data-diagram-type="DESCRIPTION" height="744px" preserveAspectRatio="none" style="width:366px;height:744px;background:#FFFFFF;" version="1.1" viewBox="0 0 366 744" width="366px" zoomAndPan="magnify"><defs/><g><!--cluster Frontend--><g class="cluster" data-entity="Frontend" data-source-line="2" data-uid="ent0002" id="cluster_Frontend"><path d="M102.5,6 L175.7285,6 A3.75,3.75 0 0 1 178.2285,8.5 L185.2285,28.2969 L237.5,28.2969 A2.5,2.5 0 0 1 240,30.7969 L240,224.09 A2.5,2.5 0 0 1 237.5,226.59 L102.5,226.59 A2.5,2.5 0 0 1 100,224.09 L100,8.5 A2.5,2.5 0 0 1 102.5,6 " fill="none" style="stroke:#000000;stroke-width:1.5;"/><line style="stroke:#000000;stroke-width:1.5;" x1="100" x2="185.2285" y1="28.2969" y2="28.2969"/><text fill="#000000" font-family="sans-serif" font-size="14" font-weight="bold" lengthAdjust="spacing" textLength="72.2285" x="104" y="20.9951">Frontend</text></g><!--cluster Backend--><g class="cluster" data-entity="Backend" data-source-line="7" data-uid="ent0005" id="cluster_Backend"><path d="M8.5,275.59 L76.7109,275.59 A3.75,3.75 0 0 1 79.2109,278.09 L86.2109,297.8869 L356.5,297.8869 A2.5,2.5 0 0 1 359,300.3869 L359,616.98 A2.5,2.5 0 0 1 356.5,619.48 L8.5,619.48 A2.5,2.5 0 0 1 6,616.98 L6,278.09 A2.5,2.5 0 0 1 8.5,275.59 " fill="none" style="stroke:#000000;stroke-width:1.5;"/><line style="stroke:#000000;stroke-width:1.5;" x1="6" x2="86.2109" y1="297.8869" y2="297.8869"/><text fill="#000000" font-family="sans-serif" font-size="14" font-weight="bold" lengthAdjust="spacing" textLength="67.2109" x="10" y="290.5851">Backend</text></g><!--entity WebUI--><g class="entity" data-entity="WebUI" data-source-line="3" data-uid="ent0003" id="entity_WebUI"><rect fill="#F1F1F1" height="46.2969" rx="2.5" ry="2.5" style="stroke:#181818;stroke-width:0.5;" width="90.1689" x="124.92" y="41"/><rect fill="#F1F1F1" height="10" style="stroke:#181818;stroke-width:0.5;" width="15" x="195.0889" y="46"/><rect fill="#F1F1F1" height="2" style="stroke:#181818;stroke-width:0.5;" width="4" x="193.0889" y="48"/><rect fill="#F1F1F1" height="2" style="stroke:#181818;stroke-width:0.5;" width="4" x="193.0889" y="52"/><text fill="#000000" font-family="sans-serif" font-size="14" lengthAdjust="spacing" textLength="50.1689" x="139.92" y="73.9951">Web UI</text></g><!--entity APIClient--><g class="entity" data-entity="APIClient" data-source-line="4" data-uid="ent0004" id="entity_APIClient"><rect fill="#F1F1F1" height="46.2969" rx="2.5" ry="2.5" style="stroke:#181818;stroke-width:0.5;" width="107.1289" x="116.44" y="164.3"/><rect fill="#F1F1F1" height="10" style="stroke:#181818;stroke-width:0.5;" width="15" x="203.5689" y="169.3"/><rect fill="#F1F1F1" height="2" style="stroke:#181818;stroke-width:0.5;" width="4" x="201.5689" y="171.3"/><rect fill="#F1F1F1" height="2" style="stroke:#181818;stroke-width:0.5;" width="4" x="201.5689" y="175.3"/><text fill="#000000" font-family="sans-serif" font-size="14" lengthAdjust="spacing" textLength="67.1289" x="131.44" y="197.2951">API Client</text></g><!--entity FastAPI--><g class="entity" data-entity="FastAPI" data-source-line="8" data-uid="ent0006" id="entity_FastAPI"><rect fill="#F1F1F1" height="46.2969" rx="2.5" ry="2.5" style="stroke:#181818;stroke-width:0.5;" width="123.3643" x="108.32" y="310.59"/><rect fill="#F1F1F1" height="10" style="stroke:#181818;stroke-width:0.5;" width="15" x="211.6843" y="315.59"/><rect fill="#F1F1F1" height="2" style="stroke:#181818;stroke-width:0.5;" width="4" x="209.6843" y="317.59"/><rect fill="#F1F1F1" height="2" style="stroke:#181818;stroke-width:0.5;" width="4" x="209.6843" y="321.59"/><text fill="#000000" font-family="sans-serif" font-size="14" lengthAdjust="spacing" textLength="83.3643" x="123.32" y="343.5851">FastAPI App</text></g><!--entity Auth--><g class="entity" data-entity="Auth" data-source-line="9" data-uid="ent0007" id="entity_Auth"><rect fill="#F1F1F1" height="46.2969" rx="2.5" ry="2.5" style="stroke:#181818;stroke-width:0.5;" width="142.7715" x="21.61" y="433.89"/><rect fill="#F1F1F1" height="10" style="stroke:#181818;stroke-width:0.5;" width="15" x="144.3815" y="438.89"/><rect fill="#F1F1F1" height="2" style="stroke:#181818;stroke-width:0.5;" width="4" x="142.3815" y="440.89"/><rect fill="#F1F1F1" height="2" style="stroke:#181818;stroke-width:0.5;" width="4" x="142.3815" y="444.89"/><text fill="#000000" font-family="sans-serif" font-size="14" lengthAdjust="spacing" textLength="102.7715" x="36.61" y="466.8851">Authentication</text></g><!--entity DB--><g class="entity" data-entity="DB" data-source-line="10" data-uid="ent0008" id="entity_DB"><rect fill="#F1F1F1" height="46.2969" rx="2.5" ry="2.5" style="stroke:#181818;stroke-width:0.5;" width="159.4238" x="183.29" y="557.19"/><rect fill="#F1F1F1" height="10" style="stroke:#181818;stroke-width:0.5;" width="15" x="322.7138" y="562.19"/><rect fill="#F1F1F1" height="2" style="stroke:#181818;stroke-width:0.5;" width="4" x="320.7138" y="564.19"/><rect fill="#F1F1F1" height="2" style="stroke:#181818;stroke-width:0.5;" width="4" x="320.7138" y="568.19"/><text fill="#000000" font-family="sans-serif" font-size="14" lengthAdjust="spacing" textLength="119.4238" x="198.29" y="590.1851">Database Access</text></g><!--entity Logic--><g class="entity" data-entity="Logic" data-source-line="11" data-uid="ent0009" id="entity_Logic"><rect fill="#F1F1F1" height="46.2969" rx="2.5" ry="2.5" style="stroke:#181818;stroke-width:0.5;" width="143.0244" x="199.49" y="433.89"/><rect fill="#F1F1F1" height="10" style="stroke:#181818;stroke-width:0.5;" width="15" x="322.5144" y="438.89"/><rect fill="#F1F1F1" height="2" style="stroke:#181818;stroke-width:0.5;" width="4" x="320.5144" y="440.89"/><rect fill="#F1F1F1" height="2" style="stroke:#181818;stroke-width:0.5;" width="4" x="320.5144" y="444.89"/><text fill="#000000" font-family="sans-serif" font-size="14" lengthAdjust="spacing" textLength="103.0244" x="214.49" y="466.8851">Business Logic</text></g><!--entity Postgres--><g class="entity" data-entity="Postgres" data-source-line="14" data-uid="ent0010" id="entity_Postgres"><path d="M212.62,692.48 C212.62,682.48 262.9965,682.48 262.9965,682.48 C262.9965,682.48 313.3729,682.48 313.3729,692.48 L313.3729,717.7769 C313.3729,727.7769 262.9965,727.7769 262.9965,727.7769 C262.9965,727.7769 212.62,727.7769 212.62,717.7769 L212.62,692.48 " fill="#F1F1F1" style="stroke:#181818;stroke-width:0.5;"/><path d="M212.62,692.48 C212.62,702.48 262.9965,702.48 262.9965,702.48 C262.9965,702.48 313.3729,702.48 313.3729,692.48 " fill="none" style="stroke:#181818;stroke-width:0.5;"/><text fill="#000000" font-family="sans-serif" font-size="14" lengthAdjust="spacing" textLength="80.7529" x="222.62" y="719.4751">PostgreSQL</text></g><!--link WebUI to APIClient--><g class="link" data-entity-1="WebUI" data-entity-2="APIClient" data-source-line="17" data-uid="lnk11" id="link_WebUI_APIClient"><path d="M170,87.68 C170,109.46 170,136.29 170,158.03 " fill="none" id="WebUI-to-APIClient" style="stroke:#181818;stroke-width:1;"/><polygon fill="#181818" points="170,164.03,174,155.03,170,159.03,166,155.03,170,164.03" style="stroke:#181818;stroke-width:1;"/><text fill="#000000" font-family="sans-serif" font-size="13" lengthAdjust="spacing" textLength="29.7832" x="171" y="130.3669">uses</text></g><!--link APIClient to FastAPI--><g class="link" data-entity-1="APIClient" data-entity-2="FastAPI" data-source-line="18" data-uid="lnk12" id="link_APIClient_FastAPI"><path d="M170,210.99 C170,238.1 170,277.32 170,304.35 " fill="none" id="APIClient-to-FastAPI" style="stroke:#181818;stroke-width:1;"/><polygon fill="#181818" points="170,310.35,174,301.35,170,305.35,166,301.35,170,310.35" style="stroke:#181818;stroke-width:1;"/><text fill="#000000" font-family="sans-serif" font-size="13" lengthAdjust="spacing" textLength="94.104" x="171" y="255.6569">HTTP requests</text></g><!--link FastAPI to Auth--><g class="link" data-entity-1="FastAPI" data-entity-2="Auth" data-source-line="19" data-uid="lnk13" id="link_FastAPI_Auth"><path d="M148.14,357.26 C140.26,366.07 131.67,376.54 125,386.89 C115.54,401.56 109.6173,413.9431 103.8773,427.8631 " fill="none" id="FastAPI-to-Auth" style="stroke:#181818;stroke-width:1;"/><polygon fill="#181818" points="101.59,433.41,108.7189,426.6145,103.4961,428.7876,101.323,423.5648,101.59,433.41" style="stroke:#181818;stroke-width:1;"/><text fill="#000000" font-family="sans-serif" font-size="13" lengthAdjust="spacing" textLength="89.4702" x="126" y="399.9569">authenticates</text></g><!--link FastAPI to Logic--><g class="link" data-entity-1="FastAPI" data-entity-2="Logic" data-source-line="20" data-uid="lnk14" id="link_FastAPI_Logic"><path d="M192.81,357.25 C201.58,366.23 211.52,376.82 220,386.89 C232.68,401.95 242.3864,414.9607 252.1564,428.7807 " fill="none" id="FastAPI-to-Logic" style="stroke:#181818;stroke-width:1;"/><polygon fill="#181818" points="255.62,433.68,253.6909,424.0219,252.7337,429.5972,247.1584,428.64,255.62,433.68" style="stroke:#181818;stroke-width:1;"/><text fill="#000000" font-family="sans-serif" font-size="13" lengthAdjust="spacing" textLength="65.0127" x="234" y="399.9569">processes</text></g><!--link Logic to DB--><g class="link" data-entity-1="Logic" data-entity-2="DB" data-source-line="21" data-uid="lnk15" id="link_Logic_DB"><path d="M269.51,480.57 C268.08,502.36 266.3038,529.1929 264.8738,550.9329 " fill="none" id="Logic-to-DB" style="stroke:#181818;stroke-width:1;"/><polygon fill="#181818" points="264.48,556.92,269.0621,548.2019,264.8082,551.9308,261.0793,547.6769,264.48,556.92" style="stroke:#181818;stroke-width:1;"/><text fill="#000000" font-family="sans-serif" font-size="13" lengthAdjust="spacing" textLength="29.7832" x="268" y="523.2569">uses</text></g><!--link DB to Postgres--><g class="link" data-entity-1="DB" data-entity-2="Postgres" data-source-line="22" data-uid="lnk16" id="link_DB_Postgres"><path d="M263,603.86 C263,626.15 263,654.07 263,676.16 " fill="none" id="DB-to-Postgres" style="stroke:#181818;stroke-width:1;"/><polygon fill="#181818" points="263,682.16,267,673.16,263,677.16,259,673.16,263,682.16" style="stroke:#181818;stroke-width:1;"/><text fill="#000000" font-family="sans-serif" font-size="13" lengthAdjust="spacing" textLength="48.2168" x="264" y="648.5469">queries</text></g><!--SRC=[LL0nRiCm3Dpr2i9BfdmWGm6xHb036LmqGOUYWwAmZj1KKaLvAlhtadG4enjvnplok84UFtn0SF4hnO2Xa4dMVTe9eTdd60g6ImC_1k3j5Szm6jx14d1v6WHhnm4URvvrYdExTERNh3uT5wlDtb8HMPkIQkwzkitbocBlRF4nB8uC2TNROi-M45hda4YvlXEccua34C4XJjufePMSSAcgPenKfemlpuT69kuj6REf7yXuqxLqzOcC9eJjzc7D13kOYIKh87IDiuEdut5ab-yPYRzOSRNW43nWrtZuVq0FvecKewHZTa64wxkwc2i1wkqCywxiaVu0]--></g></svg>