<svg xmlns="http://www.w3.org/2000/svg" xmlns:xlink="http://www.w3.org/1999/xlink" contentStyleType="text/css" data-diagram-type="CLASS" height="415px" preserveAspectRatio="none" style="width:284px;height:415px;background:#FFFFFF;" version="1.1" viewBox="0 0 284 415" width="284px" zoomAndPan="magnify"><defs/><g><!--class user--><g class="entity" data-entity="user" data-source-line="2" data-uid="ent0002" id="entity_user"><rect fill="#F1F1F1" height="178.375" rx="2.5" ry="2.5" style="stroke:#181818;stroke-width:0.5;" width="270.583" x="7" y="7"/><ellipse cx="122.0864" cy="23" fill="#ADD1B2" rx="11" ry="11" style="stroke:#181818;stroke-width:1;"/><path d="M126.1958,29 L118.4771,29 L118.4771,16.6094 L126.1958,16.6094 L126.1958,18.7656 L120.9302,18.7656 L120.9302,21.4375 L125.6958,21.4375 L125.6958,23.5938 L120.9302,23.5938 L120.9302,26.8438 L126.1958,26.8438 L126.1958,29 Z " fill="#000000"/><text fill="#000000" font-family="sans-serif" font-size="14" lengthAdjust="spacing" textLength="31.9102" x="142.5864" y="27.8467">User</text><line style="stroke:#181818;stroke-width:0.5;" x1="8" x2="276.583" y1="39" y2="39"/><ellipse cx="18" cy="52.6484" fill="#000000" rx="3" ry="3" style="stroke:#000000;stroke-width:1;"/><text fill="#000000" font-family="sans-serif" font-size="14" lengthAdjust="spacing" textLength="101.001" x="27" y="55.9951">id : UUID &#171;PK&#187;</text><line style="stroke:#181818;stroke-width:1;" x1="8" x2="276.583" y1="63.2969" y2="63.2969"/><ellipse cx="18" cy="76.9453" fill="#000000" rx="3" ry="3" style="stroke:#000000;stroke-width:1;"/><text fill="#000000" font-family="sans-serif" font-size="14" lengthAdjust="spacing" textLength="158.3613" x="27" y="80.292">email : VARCHAR(255)</text><ellipse cx="18" cy="93.2422" fill="#000000" rx="3" ry="3" style="stroke:#000000;stroke-width:1;"/><text fill="#000000" font-family="sans-serif" font-size="14" lengthAdjust="spacing" textLength="244.583" x="27" y="96.5889">hashed_password : VARCHAR(255)</text><ellipse cx="18" cy="109.5391" fill="#000000" rx="3" ry="3" style="stroke:#000000;stroke-width:1;"/><text fill="#000000" font-family="sans-serif" font-size="14" lengthAdjust="spacing" textLength="142.6934" x="27" y="112.8857">is_active : BOOLEAN</text><ellipse cx="18" cy="125.8359" fill="#000000" rx="3" ry="3" style="stroke:#000000;stroke-width:1;"/><text fill="#000000" font-family="sans-serif" font-size="14" lengthAdjust="spacing" textLength="170.0986" x="27" y="129.1826">is_superuser : BOOLEAN</text><ellipse cx="18" cy="142.1328" fill="#000000" rx="3" ry="3" style="stroke:#000000;stroke-width:1;"/><text fill="#000000" font-family="sans-serif" font-size="14" lengthAdjust="spacing" textLength="188.0361" x="27" y="145.4795">full_name : VARCHAR(255)</text><text fill="#000000" font-family="sans-serif" font-size="14" lengthAdjust="spacing" textLength="169.4629" x="27" y="161.7764">created_at : TIMESTAMP</text><text fill="#000000" font-family="sans-serif" font-size="14" lengthAdjust="spacing" textLength="174.043" x="27" y="178.0732">updated_at : TIMESTAMP</text></g><!--class item--><g class="entity" data-entity="item" data-source-line="14" data-uid="ent0003" id="entity_item"><rect fill="#F1F1F1" height="145.7813" rx="2.5" ry="2.5" style="stroke:#181818;stroke-width:0.5;" width="200.043" x="42.27" y="262.38"/><ellipse cx="122.1069" cy="278.38" fill="#ADD1B2" rx="11" ry="11" style="stroke:#181818;stroke-width:1;"/><path d="M126.2163,284.38 L118.4975,284.38 L118.4975,271.9894 L126.2163,271.9894 L126.2163,274.1456 L120.9507,274.1456 L120.9507,276.8175 L125.7163,276.8175 L125.7163,278.9738 L120.9507,278.9738 L120.9507,282.2238 L126.2163,282.2238 L126.2163,284.38 Z " fill="#000000"/><text fill="#000000" font-family="sans-serif" font-size="14" lengthAdjust="spacing" textLength="31.8691" x="142.6069" y="283.2267">Item</text><line style="stroke:#181818;stroke-width:0.5;" x1="43.27" x2="241.313" y1="294.38" y2="294.38"/><ellipse cx="53.27" cy="308.0284" fill="#000000" rx="3" ry="3" style="stroke:#000000;stroke-width:1;"/><text fill="#000000" font-family="sans-serif" font-size="14" lengthAdjust="spacing" textLength="101.001" x="62.27" y="311.3751">id : UUID &#171;PK&#187;</text><ellipse cx="53.27" cy="324.3253" fill="#000000" rx="3" ry="3" style="stroke:#000000;stroke-width:1;"/><text fill="#000000" font-family="sans-serif" font-size="14" lengthAdjust="spacing" textLength="150.8691" x="62.27" y="327.672">owner_id : UUID &#171;FK&#187;</text><line style="stroke:#181818;stroke-width:1;" x1="43.27" x2="241.313" y1="334.9738" y2="334.9738"/><ellipse cx="53.27" cy="348.6222" fill="#000000" rx="3" ry="3" style="stroke:#000000;stroke-width:1;"/><text fill="#000000" font-family="sans-serif" font-size="14" lengthAdjust="spacing" textLength="147.123" x="62.27" y="351.9689">title : VARCHAR(255)</text><ellipse cx="53.27" cy="364.9191" fill="#000000" rx="3" ry="3" style="stroke:#000000;stroke-width:1;"/><text fill="#000000" font-family="sans-serif" font-size="14" lengthAdjust="spacing" textLength="126.998" x="62.27" y="368.2657">description : TEXT</text><ellipse cx="53.27" cy="381.2159" fill="#000000" rx="3" ry="3" style="stroke:#000000;stroke-width:1;"/><text fill="#000000" font-family="sans-serif" font-size="14" lengthAdjust="spacing" textLength="169.4629" x="62.27" y="384.5626">created_at : TIMESTAMP</text><text fill="#000000" font-family="sans-serif" font-size="14" lengthAdjust="spacing" textLength="174.043" x="62.27" y="400.8595">updated_at : TIMESTAMP</text></g><!--link user to item--><g class="link" data-entity-1="user" data-entity-2="item" data-source-line="25" data-uid="lnk4" id="link_user_item"><path codeLine="25" d="M142.29,193.81 C142.29,218.93 142.29,219.97 142.29,244 " fill="none" id="user-item" style="stroke:#181818;stroke-width:1;"/><line style="stroke:#181818;stroke-width:1;" x1="138.29" x2="146.29" y1="189.81" y2="189.81"/><line style="stroke:#181818;stroke-width:1;" x1="138.29" x2="146.29" y1="192.81" y2="192.81"/><line style="stroke:#181818;stroke-width:1;" x1="142.29" x2="142.29" y1="193.81" y2="185.81"/><line style="stroke:#181818;stroke-width:1;" x1="142.29" x2="148.29" y1="254" y2="262"/><line style="stroke:#181818;stroke-width:1;" x1="142.29" x2="136.29" y1="254" y2="262"/><line style="stroke:#181818;stroke-width:1;" x1="142.29" x2="142.29" y1="254" y2="262"/><ellipse cx="142.29" cy="248" fill="none" rx="4" ry="4" style="stroke:#181818;stroke-width:1;"/><text fill="#000000" font-family="sans-serif" font-size="13" lengthAdjust="spacing" textLength="33.5981" x="143.29" y="228.4469">owns</text></g><!--SRC=[dP51IyD048Nl-HL3BzL2Ba8lfHIYZHYqjjIaU0jBTae6DfjbPsEHrl_kPgLYCLwy3UyRthutEuObxaaZe7Ra23aAmpkC2aOx0i7G-G6E4S04IC8CYY9Rmdo-ULmil1Z7WM0ZI7cuIxPt3ydswcOwlGwW5boZB8rWFhHM3gqGbw9oz8OUtgxNJsdoVDQvCsX3W4kqxvGgjMZmjrzbKJZ_ed2UvTagVScJrSQ3piWXy15zLyuSDg4o-U7loXDe3nfj-HFTNrp3soaSgYgHAql6KQlx4Ebh7kH_P1wVFywY4hqVrsGu2hSwdUAuFNwrcFLX-HC0]--></g></svg>