<svg xmlns="http://www.w3.org/2000/svg" xmlns:xlink="http://www.w3.org/1999/xlink" contentStyleType="text/css" data-diagram-type="CLASS" height="610px" preserveAspectRatio="none" style="width:2982px;height:610px;background:#FFFFFF;" version="1.1" viewBox="0 0 2982 610" width="2982px" zoomAndPan="magnify"><defs/><g><!--class analyzer_CodeVisitor--><g class="entity" data-entity="analyzer_CodeVisitor" data-source-line="3" data-uid="ent0002" id="entity_analyzer_CodeVisitor"><rect fill="#F1F1F1" height="471.7188" rx="2.5" ry="2.5" style="stroke:#181818;stroke-width:0.5;" width="280.9531" x="7" y="7"/><ellipse cx="103.0757" cy="23" fill="#ADD1B2" rx="11" ry="11" style="stroke:#181818;stroke-width:1;"/><path d="M106.0444,28.6406 Q105.4663,28.9375 104.8257,29.0781 Q104.1851,29.2344 103.4819,29.2344 Q100.9819,29.2344 99.6538,27.5938 Q98.3413,25.9375 98.3413,22.8125 Q98.3413,19.6875 99.6538,18.0313 Q100.9819,16.375 103.4819,16.375 Q104.1851,16.375 104.8257,16.5313 Q105.4819,16.6875 106.0444,16.9844 L106.0444,19.7031 Q105.4194,19.125 104.8257,18.8594 Q104.2319,18.5781 103.6069,18.5781 Q102.2632,18.5781 101.5757,19.6563 Q100.8882,20.7188 100.8882,22.8125 Q100.8882,24.9063 101.5757,25.9844 Q102.2632,27.0469 103.6069,27.0469 Q104.2319,27.0469 104.8257,26.7813 Q105.4194,26.5 106.0444,25.9219 L106.0444,28.6406 Z " fill="#000000"/><text fill="#000000" font-family="sans-serif" font-size="14" lengthAdjust="spacing" textLength="80.3018" x="123.5757" y="27.8467">CodeVisitor</text><line style="stroke:#181818;stroke-width:0.5;" x1="8" x2="286.9531" y1="39" y2="39"/><text fill="#000000" font-family="sans-serif" font-size="14" lengthAdjust="spacing" textLength="81.457" x="13" y="55.9951">class_name</text><text fill="#000000" font-family="sans-serif" font-size="14" lengthAdjust="spacing" textLength="68.2842" x="13" y="72.292">full_name</text><text fill="#000000" font-family="sans-serif" font-size="14" lengthAdjust="spacing" textLength="40.667" x="13" y="88.5889">bases</text><text fill="#000000" font-family="sans-serif" font-size="14" lengthAdjust="spacing" textLength="63.0957" x="13" y="104.8857">class_obj</text><text fill="#000000" font-family="sans-serif" font-size="14" lengthAdjust="spacing" textLength="63.0957" x="13" y="121.1826">old_class</text><text fill="#000000" font-family="sans-serif" font-size="14" lengthAdjust="spacing" textLength="77.0752" x="13" y="137.4795">func_name</text><text fill="#000000" font-family="sans-serif" font-size="14" lengthAdjust="spacing" textLength="92.9004" x="13" y="153.7764">parent_name</text><text fill="#000000" font-family="sans-serif" font-size="14" lengthAdjust="spacing" textLength="57.1895" x="13" y="170.0732">function</text><text fill="#000000" font-family="sans-serif" font-size="14" lengthAdjust="spacing" textLength="85.5313" x="13" y="186.3701">old_function</text><text fill="#000000" font-family="sans-serif" font-size="14" lengthAdjust="spacing" textLength="72.0166" x="13" y="202.667">attr_name</text><text fill="#000000" font-family="sans-serif" font-size="14" lengthAdjust="spacing" textLength="114.0508" x="13" y="218.9639">type_annotation</text><text fill="#000000" font-family="sans-serif" font-size="14" lengthAdjust="spacing" textLength="110.4277" x="13" y="235.2607">imported_name</text><text fill="#000000" font-family="sans-serif" font-size="14" lengthAdjust="spacing" textLength="62.5762" x="13" y="251.5576">as_name</text><text fill="#000000" font-family="sans-serif" font-size="14" lengthAdjust="spacing" textLength="68.0449" x="13" y="267.8545">obj_name</text><text fill="#000000" font-family="sans-serif" font-size="14" lengthAdjust="spacing" textLength="100.7686" x="13" y="284.1514">method_name</text><text fill="#000000" font-family="sans-serif" font-size="14" lengthAdjust="spacing" textLength="41.5557" x="13" y="300.4482">called</text><line style="stroke:#181818;stroke-width:0.5;" x1="8" x2="286.9531" y1="307.75" y2="307.75"/><ellipse cx="18" cy="321.3984" fill="#84BE84" rx="3" ry="3" style="stroke:#038048;stroke-width:1;"/><text fill="#000000" font-family="sans-serif" font-size="14" lengthAdjust="spacing" textLength="126.5195" x="27" y="324.7451">__init__(self, path)</text><ellipse cx="18" cy="337.6953" fill="#84BE84" rx="3" ry="3" style="stroke:#038048;stroke-width:1;"/><text fill="#000000" font-family="sans-serif" font-size="14" lengthAdjust="spacing" textLength="176.4902" x="27" y="341.042">visit_ClassDef(self, node)</text><ellipse cx="18" cy="353.9922" fill="#84BE84" rx="3" ry="3" style="stroke:#038048;stroke-width:1;"/><text fill="#000000" font-family="sans-serif" font-size="14" lengthAdjust="spacing" textLength="199.9717" x="27" y="357.3389">visit_FunctionDef(self, node)</text><ellipse cx="18" cy="370.2891" fill="#84BE84" rx="3" ry="3" style="stroke:#038048;stroke-width:1;"/><text fill="#000000" font-family="sans-serif" font-size="14" lengthAdjust="spacing" textLength="188.4736" x="27" y="373.6357">visit_AnnAssign(self, node)</text><ellipse cx="18" cy="386.5859" fill="#84BE84" rx="3" ry="3" style="stroke:#038048;stroke-width:1;"/><text fill="#000000" font-family="sans-serif" font-size="14" lengthAdjust="spacing" textLength="161.1504" x="27" y="389.9326">visit_Assign(self, node)</text><ellipse cx="18" cy="402.8828" fill="#84BE84" rx="3" ry="3" style="stroke:#038048;stroke-width:1;"/><text fill="#000000" font-family="sans-serif" font-size="14" lengthAdjust="spacing" textLength="161.7998" x="27" y="406.2295">visit_Import(self, node)</text><ellipse cx="18" cy="419.1797" fill="#84BE84" rx="3" ry="3" style="stroke:#038048;stroke-width:1;"/><text fill="#000000" font-family="sans-serif" font-size="14" lengthAdjust="spacing" textLength="197.8115" x="27" y="422.5264">visit_ImportFrom(self, node)</text><ellipse cx="18" cy="435.4766" fill="#84BE84" rx="3" ry="3" style="stroke:#038048;stroke-width:1;"/><text fill="#000000" font-family="sans-serif" font-size="14" lengthAdjust="spacing" textLength="141.4697" x="27" y="438.8232">visit_Call(self, node)</text><ellipse cx="18" cy="451.7734" fill="#84BE84" rx="3" ry="3" style="stroke:#038048;stroke-width:1;"/><text fill="#000000" font-family="sans-serif" font-size="14" lengthAdjust="spacing" textLength="251.9521" x="27" y="455.1201">_get_attribute_name(self, node): str</text><ellipse cx="18" cy="468.0703" fill="#84BE84" rx="3" ry="3" style="stroke:#038048;stroke-width:1;"/><text fill="#000000" font-family="sans-serif" font-size="14" lengthAdjust="spacing" textLength="254.9531" x="27" y="471.417">_get_subscript_name(self, node): str</text></g><!--class ast_NodeVisitor--><g class="entity" data-entity="ast_NodeVisitor" data-source-line="32" data-uid="ent0003" id="entity_ast_NodeVisitor"><rect fill="#F1F1F1" height="48" rx="2.5" ry="2.5" style="stroke:#181818;stroke-width:0.5;" width="141.3613" x="76.8" y="555.72"/><ellipse cx="91.8" cy="571.72" fill="#ADD1B2" rx="11" ry="11" style="stroke:#181818;stroke-width:1;"/><path d="M94.7688,577.3606 Q94.1906,577.6575 93.55,577.7981 Q92.9094,577.9544 92.2063,577.9544 Q89.7063,577.9544 88.3781,576.3138 Q87.0656,574.6575 87.0656,571.5325 Q87.0656,568.4075 88.3781,566.7513 Q89.7063,565.095 92.2063,565.095 Q92.9094,565.095 93.55,565.2513 Q94.2063,565.4075 94.7688,565.7044 L94.7688,568.4231 Q94.1438,567.845 93.55,567.5794 Q92.9563,567.2981 92.3313,567.2981 Q90.9875,567.2981 90.3,568.3763 Q89.6125,569.4388 89.6125,571.5325 Q89.6125,573.6263 90.3,574.7044 Q90.9875,575.7669 92.3313,575.7669 Q92.9563,575.7669 93.55,575.5013 Q94.1438,575.22 94.7688,574.6419 L94.7688,577.3606 Z " fill="#000000"/><text fill="#000000" font-family="sans-serif" font-size="14" lengthAdjust="spacing" textLength="109.3613" x="105.8" y="576.5667">ast_NodeVisitor</text><line style="stroke:#181818;stroke-width:0.5;" x1="77.8" x2="217.1613" y1="587.72" y2="587.72"/><line style="stroke:#181818;stroke-width:0.5;" x1="77.8" x2="217.1613" y1="595.72" y2="595.72"/></g><!--class analyzer_CodeVisitor_visit_ClassDef--><g class="entity" data-entity="analyzer_CodeVisitor_visit_ClassDef" data-source-line="33" data-uid="ent0005" id="entity_analyzer_CodeVisitor_visit_ClassDef"><rect fill="#F1F1F1" height="48" rx="2.5" ry="2.5" style="stroke:#181818;stroke-width:0.5;" width="283.2275" x="688.86" y="218.86"/><ellipse cx="703.86" cy="234.86" fill="#ADD1B2" rx="11" ry="11" style="stroke:#181818;stroke-width:1;"/><path d="M706.8288,240.5006 Q706.2506,240.7975 705.61,240.9381 Q704.9694,241.0944 704.2663,241.0944 Q701.7663,241.0944 700.4381,239.4538 Q699.1256,237.7975 699.1256,234.6725 Q699.1256,231.5475 700.4381,229.8913 Q701.7663,228.235 704.2663,228.235 Q704.9694,228.235 705.61,228.3913 Q706.2663,228.5475 706.8288,228.8444 L706.8288,231.5631 Q706.2038,230.985 705.61,230.7194 Q705.0163,230.4381 704.3913,230.4381 Q703.0475,230.4381 702.36,231.5163 Q701.6725,232.5788 701.6725,234.6725 Q701.6725,236.7663 702.36,237.8444 Q703.0475,238.9069 704.3913,238.9069 Q705.0163,238.9069 705.61,238.6413 Q706.2038,238.36 706.8288,237.7819 L706.8288,240.5006 Z " fill="#000000"/><text fill="#000000" font-family="sans-serif" font-size="14" lengthAdjust="spacing" textLength="251.2275" x="717.86" y="239.7067">analyzer_CodeVisitor_visit_ClassDef</text><line style="stroke:#181818;stroke-width:0.5;" x1="689.86" x2="971.0875" y1="250.86" y2="250.86"/><line style="stroke:#181818;stroke-width:0.5;" x1="689.86" x2="971.0875" y1="258.86" y2="258.86"/></g><!--class self__get_attribute_name--><g class="entity" data-entity="self__get_attribute_name" data-source-line="33" data-uid="ent0006" id="entity_self__get_attribute_name"><rect fill="#F1F1F1" height="48" rx="2.5" ry="2.5" style="stroke:#181818;stroke-width:0.5;" width="208.4834" x="393.23" y="555.72"/><ellipse cx="408.23" cy="571.72" fill="#ADD1B2" rx="11" ry="11" style="stroke:#181818;stroke-width:1;"/><path d="M411.1988,577.3606 Q410.6206,577.6575 409.98,577.7981 Q409.3394,577.9544 408.6363,577.9544 Q406.1363,577.9544 404.8081,576.3138 Q403.4956,574.6575 403.4956,571.5325 Q403.4956,568.4075 404.8081,566.7513 Q406.1363,565.095 408.6363,565.095 Q409.3394,565.095 409.98,565.2513 Q410.6363,565.4075 411.1988,565.7044 L411.1988,568.4231 Q410.5738,567.845 409.98,567.5794 Q409.3863,567.2981 408.7613,567.2981 Q407.4175,567.2981 406.73,568.3763 Q406.0425,569.4388 406.0425,571.5325 Q406.0425,573.6263 406.73,574.7044 Q407.4175,575.7669 408.7613,575.7669 Q409.3863,575.7669 409.98,575.5013 Q410.5738,575.22 411.1988,574.6419 L411.1988,577.3606 Z " fill="#000000"/><text fill="#000000" font-family="sans-serif" font-size="14" lengthAdjust="spacing" textLength="176.4834" x="422.23" y="576.5667">self__get_attribute_name</text><line style="stroke:#181818;stroke-width:0.5;" x1="394.23" x2="600.7134" y1="587.72" y2="587.72"/><line style="stroke:#181818;stroke-width:0.5;" x1="394.23" x2="600.7134" y1="595.72" y2="595.72"/></g><!--class bases_append--><g class="entity" data-entity="bases_append" data-source-line="34" data-uid="ent0008" id="entity_bases_append"><rect fill="#F1F1F1" height="48" rx="2.5" ry="2.5" style="stroke:#181818;stroke-width:0.5;" width="132.3926" x="646.28" y="555.72"/><ellipse cx="661.28" cy="571.72" fill="#ADD1B2" rx="11" ry="11" style="stroke:#181818;stroke-width:1;"/><path d="M664.2488,577.3606 Q663.6706,577.6575 663.03,577.7981 Q662.3894,577.9544 661.6863,577.9544 Q659.1863,577.9544 657.8581,576.3138 Q656.5456,574.6575 656.5456,571.5325 Q656.5456,568.4075 657.8581,566.7513 Q659.1863,565.095 661.6863,565.095 Q662.3894,565.095 663.03,565.2513 Q663.6863,565.4075 664.2488,565.7044 L664.2488,568.4231 Q663.6238,567.845 663.03,567.5794 Q662.4363,567.2981 661.8113,567.2981 Q660.4675,567.2981 659.78,568.3763 Q659.0925,569.4388 659.0925,571.5325 Q659.0925,573.6263 659.78,574.7044 Q660.4675,575.7669 661.8113,575.7669 Q662.4363,575.7669 663.03,575.5013 Q663.6238,575.22 664.2488,574.6419 L664.2488,577.3606 Z " fill="#000000"/><text fill="#000000" font-family="sans-serif" font-size="14" lengthAdjust="spacing" textLength="100.3926" x="675.28" y="576.5667">bases_append</text><line style="stroke:#181818;stroke-width:0.5;" x1="647.28" x2="777.6726" y1="587.72" y2="587.72"/><line style="stroke:#181818;stroke-width:0.5;" x1="647.28" x2="777.6726" y1="595.72" y2="595.72"/></g><!--class class_obj_add_relationship--><g class="entity" data-entity="class_obj_add_relationship" data-source-line="35" data-uid="ent0010" id="entity_class_obj_add_relationship"><rect fill="#F1F1F1" height="48" rx="2.5" ry="2.5" style="stroke:#181818;stroke-width:0.5;" width="218.0469" x="813.45" y="555.72"/><ellipse cx="828.45" cy="571.72" fill="#ADD1B2" rx="11" ry="11" style="stroke:#181818;stroke-width:1;"/><path d="M831.4188,577.3606 Q830.8406,577.6575 830.2,577.7981 Q829.5594,577.9544 828.8563,577.9544 Q826.3563,577.9544 825.0281,576.3138 Q823.7156,574.6575 823.7156,571.5325 Q823.7156,568.4075 825.0281,566.7513 Q826.3563,565.095 828.8563,565.095 Q829.5594,565.095 830.2,565.2513 Q830.8563,565.4075 831.4188,565.7044 L831.4188,568.4231 Q830.7938,567.845 830.2,567.5794 Q829.6063,567.2981 828.9813,567.2981 Q827.6375,567.2981 826.95,568.3763 Q826.2625,569.4388 826.2625,571.5325 Q826.2625,573.6263 826.95,574.7044 Q827.6375,575.7669 828.9813,575.7669 Q829.6063,575.7669 830.2,575.5013 Q830.7938,575.22 831.4188,574.6419 L831.4188,577.3606 Z " fill="#000000"/><text fill="#000000" font-family="sans-serif" font-size="14" lengthAdjust="spacing" textLength="186.0469" x="842.45" y="576.5667">class_obj_add_relationship</text><line style="stroke:#181818;stroke-width:0.5;" x1="814.45" x2="1030.4969" y1="587.72" y2="587.72"/><line style="stroke:#181818;stroke-width:0.5;" x1="814.45" x2="1030.4969" y1="595.72" y2="595.72"/></g><!--class self_visit--><g class="entity" data-entity="self_visit" data-source-line="36" data-uid="ent0012" id="entity_self_visit"><rect fill="#F1F1F1" height="48" rx="2.5" ry="2.5" style="stroke:#181818;stroke-width:0.5;" width="92.5732" x="1082.19" y="555.72"/><ellipse cx="1097.19" cy="571.72" fill="#ADD1B2" rx="11" ry="11" style="stroke:#181818;stroke-width:1;"/><path d="M1100.1588,577.3606 Q1099.5806,577.6575 1098.94,577.7981 Q1098.2994,577.9544 1097.5963,577.9544 Q1095.0963,577.9544 1093.7681,576.3138 Q1092.4556,574.6575 1092.4556,571.5325 Q1092.4556,568.4075 1093.7681,566.7513 Q1095.0963,565.095 1097.5963,565.095 Q1098.2994,565.095 1098.94,565.2513 Q1099.5963,565.4075 1100.1588,565.7044 L1100.1588,568.4231 Q1099.5338,567.845 1098.94,567.5794 Q1098.3463,567.2981 1097.7213,567.2981 Q1096.3775,567.2981 1095.69,568.3763 Q1095.0025,569.4388 1095.0025,571.5325 Q1095.0025,573.6263 1095.69,574.7044 Q1096.3775,575.7669 1097.7213,575.7669 Q1098.3463,575.7669 1098.94,575.5013 Q1099.5338,575.22 1100.1588,574.6419 L1100.1588,577.3606 Z " fill="#000000"/><text fill="#000000" font-family="sans-serif" font-size="14" lengthAdjust="spacing" textLength="60.5732" x="1111.19" y="576.5667">self_visit</text><line style="stroke:#181818;stroke-width:0.5;" x1="1083.19" x2="1173.7632" y1="587.72" y2="587.72"/><line style="stroke:#181818;stroke-width:0.5;" x1="1083.19" x2="1173.7632" y1="595.72" y2="595.72"/></g><!--class analyzer_CodeVisitor_visit_FunctionDef--><g class="entity" data-entity="analyzer_CodeVisitor_visit_FunctionDef" data-source-line="37" data-uid="ent0014" id="entity_analyzer_CodeVisitor_visit_FunctionDef"><rect fill="#F1F1F1" height="48" rx="2.5" ry="2.5" style="stroke:#181818;stroke-width:0.5;" width="306.709" x="1007.12" y="218.86"/><ellipse cx="1022.12" cy="234.86" fill="#ADD1B2" rx="11" ry="11" style="stroke:#181818;stroke-width:1;"/><path d="M1025.0888,240.5006 Q1024.5106,240.7975 1023.87,240.9381 Q1023.2294,241.0944 1022.5263,241.0944 Q1020.0263,241.0944 1018.6981,239.4538 Q1017.3856,237.7975 1017.3856,234.6725 Q1017.3856,231.5475 1018.6981,229.8913 Q1020.0263,228.235 1022.5263,228.235 Q1023.2294,228.235 1023.87,228.3913 Q1024.5263,228.5475 1025.0888,228.8444 L1025.0888,231.5631 Q1024.4638,230.985 1023.87,230.7194 Q1023.2763,230.4381 1022.6513,230.4381 Q1021.3075,230.4381 1020.62,231.5163 Q1019.9325,232.5788 1019.9325,234.6725 Q1019.9325,236.7663 1020.62,237.8444 Q1021.3075,238.9069 1022.6513,238.9069 Q1023.2763,238.9069 1023.87,238.6413 Q1024.4638,238.36 1025.0888,237.7819 L1025.0888,240.5006 Z " fill="#000000"/><text fill="#000000" font-family="sans-serif" font-size="14" lengthAdjust="spacing" textLength="274.709" x="1036.12" y="239.7067">analyzer_CodeVisitor_visit_FunctionDef</text><line style="stroke:#181818;stroke-width:0.5;" x1="1008.12" x2="1312.829" y1="250.86" y2="250.86"/><line style="stroke:#181818;stroke-width:0.5;" x1="1008.12" x2="1312.829" y1="258.86" y2="258.86"/></g><!--class analyzer_CodeVisitor_visit_AnnAssign--><g class="entity" data-entity="analyzer_CodeVisitor_visit_AnnAssign" data-source-line="38" data-uid="ent0016" id="entity_analyzer_CodeVisitor_visit_AnnAssign"><rect fill="#F1F1F1" height="48" rx="2.5" ry="2.5" style="stroke:#181818;stroke-width:0.5;" width="295.2109" x="1348.87" y="218.86"/><ellipse cx="1363.87" cy="234.86" fill="#ADD1B2" rx="11" ry="11" style="stroke:#181818;stroke-width:1;"/><path d="M1366.8388,240.5006 Q1366.2606,240.7975 1365.62,240.9381 Q1364.9794,241.0944 1364.2763,241.0944 Q1361.7763,241.0944 1360.4481,239.4538 Q1359.1356,237.7975 1359.1356,234.6725 Q1359.1356,231.5475 1360.4481,229.8913 Q1361.7763,228.235 1364.2763,228.235 Q1364.9794,228.235 1365.62,228.3913 Q1366.2763,228.5475 1366.8388,228.8444 L1366.8388,231.5631 Q1366.2138,230.985 1365.62,230.7194 Q1365.0263,230.4381 1364.4013,230.4381 Q1363.0575,230.4381 1362.37,231.5163 Q1361.6825,232.5788 1361.6825,234.6725 Q1361.6825,236.7663 1362.37,237.8444 Q1363.0575,238.9069 1364.4013,238.9069 Q1365.0263,238.9069 1365.62,238.6413 Q1366.2138,238.36 1366.8388,237.7819 L1366.8388,240.5006 Z " fill="#000000"/><text fill="#000000" font-family="sans-serif" font-size="14" lengthAdjust="spacing" textLength="263.2109" x="1377.87" y="239.7067">analyzer_CodeVisitor_visit_AnnAssign</text><line style="stroke:#181818;stroke-width:0.5;" x1="1349.87" x2="1643.0809" y1="250.86" y2="250.86"/><line style="stroke:#181818;stroke-width:0.5;" x1="1349.87" x2="1643.0809" y1="258.86" y2="258.86"/></g><!--class attr_name_startswith--><g class="entity" data-entity="attr_name_startswith" data-source-line="38" data-uid="ent0017" id="entity_attr_name_startswith"><rect fill="#F1F1F1" height="48" rx="2.5" ry="2.5" style="stroke:#181818;stroke-width:0.5;" width="180.6201" x="1565.17" y="555.72"/><ellipse cx="1580.17" cy="571.72" fill="#ADD1B2" rx="11" ry="11" style="stroke:#181818;stroke-width:1;"/><path d="M1583.1388,577.3606 Q1582.5606,577.6575 1581.92,577.7981 Q1581.2794,577.9544 1580.5763,577.9544 Q1578.0763,577.9544 1576.7481,576.3138 Q1575.4356,574.6575 1575.4356,571.5325 Q1575.4356,568.4075 1576.7481,566.7513 Q1578.0763,565.095 1580.5763,565.095 Q1581.2794,565.095 1581.92,565.2513 Q1582.5763,565.4075 1583.1388,565.7044 L1583.1388,568.4231 Q1582.5138,567.845 1581.92,567.5794 Q1581.3263,567.2981 1580.7013,567.2981 Q1579.3575,567.2981 1578.67,568.3763 Q1577.9825,569.4388 1577.9825,571.5325 Q1577.9825,573.6263 1578.67,574.7044 Q1579.3575,575.7669 1580.7013,575.7669 Q1581.3263,575.7669 1581.92,575.5013 Q1582.5138,575.22 1583.1388,574.6419 L1583.1388,577.3606 Z " fill="#000000"/><text fill="#000000" font-family="sans-serif" font-size="14" lengthAdjust="spacing" textLength="148.6201" x="1594.17" y="576.5667">attr_name_startswith</text><line style="stroke:#181818;stroke-width:0.5;" x1="1566.17" x2="1744.7901" y1="587.72" y2="587.72"/><line style="stroke:#181818;stroke-width:0.5;" x1="1566.17" x2="1744.7901" y1="595.72" y2="595.72"/></g><!--class analyzer_CodeVisitor_visit_Assign--><g class="entity" data-entity="analyzer_CodeVisitor_visit_Assign" data-source-line="39" data-uid="ent0019" id="entity_analyzer_CodeVisitor_visit_Assign"><rect fill="#F1F1F1" height="48" rx="2.5" ry="2.5" style="stroke:#181818;stroke-width:0.5;" width="267.8877" x="1679.53" y="218.86"/><ellipse cx="1694.53" cy="234.86" fill="#ADD1B2" rx="11" ry="11" style="stroke:#181818;stroke-width:1;"/><path d="M1697.4988,240.5006 Q1696.9206,240.7975 1696.28,240.9381 Q1695.6394,241.0944 1694.9363,241.0944 Q1692.4363,241.0944 1691.1081,239.4538 Q1689.7956,237.7975 1689.7956,234.6725 Q1689.7956,231.5475 1691.1081,229.8913 Q1692.4363,228.235 1694.9363,228.235 Q1695.6394,228.235 1696.28,228.3913 Q1696.9363,228.5475 1697.4988,228.8444 L1697.4988,231.5631 Q1696.8738,230.985 1696.28,230.7194 Q1695.6863,230.4381 1695.0613,230.4381 Q1693.7175,230.4381 1693.03,231.5163 Q1692.3425,232.5788 1692.3425,234.6725 Q1692.3425,236.7663 1693.03,237.8444 Q1693.7175,238.9069 1695.0613,238.9069 Q1695.6863,238.9069 1696.28,238.6413 Q1696.8738,238.36 1697.4988,237.7819 L1697.4988,240.5006 Z " fill="#000000"/><text fill="#000000" font-family="sans-serif" font-size="14" lengthAdjust="spacing" textLength="235.8877" x="1708.53" y="239.7067">analyzer_CodeVisitor_visit_Assign</text><line style="stroke:#181818;stroke-width:0.5;" x1="1680.53" x2="1946.4177" y1="250.86" y2="250.86"/><line style="stroke:#181818;stroke-width:0.5;" x1="1680.53" x2="1946.4177" y1="258.86" y2="258.86"/></g><!--class analyzer_CodeVisitor_visit_Call--><g class="entity" data-entity="analyzer_CodeVisitor_visit_Call" data-source-line="40" data-uid="ent0021" id="entity_analyzer_CodeVisitor_visit_Call"><rect fill="#F1F1F1" height="48" rx="2.5" ry="2.5" style="stroke:#181818;stroke-width:0.5;" width="248.207" x="1982.37" y="218.86"/><ellipse cx="1997.37" cy="234.86" fill="#ADD1B2" rx="11" ry="11" style="stroke:#181818;stroke-width:1;"/><path d="M2000.3388,240.5006 Q1999.7606,240.7975 1999.12,240.9381 Q1998.4794,241.0944 1997.7763,241.0944 Q1995.2763,241.0944 1993.9481,239.4538 Q1992.6356,237.7975 1992.6356,234.6725 Q1992.6356,231.5475 1993.9481,229.8913 Q1995.2763,228.235 1997.7763,228.235 Q1998.4794,228.235 1999.12,228.3913 Q1999.7763,228.5475 2000.3388,228.8444 L2000.3388,231.5631 Q1999.7138,230.985 1999.12,230.7194 Q1998.5263,230.4381 1997.9013,230.4381 Q1996.5575,230.4381 1995.87,231.5163 Q1995.1825,232.5788 1995.1825,234.6725 Q1995.1825,236.7663 1995.87,237.8444 Q1996.5575,238.9069 1997.9013,238.9069 Q1998.5263,238.9069 1999.12,238.6413 Q1999.7138,238.36 2000.3388,237.7819 L2000.3388,240.5006 Z " fill="#000000"/><text fill="#000000" font-family="sans-serif" font-size="14" lengthAdjust="spacing" textLength="216.207" x="2011.37" y="239.7067">analyzer_CodeVisitor_visit_Call</text><line style="stroke:#181818;stroke-width:0.5;" x1="1983.37" x2="2229.577" y1="250.86" y2="250.86"/><line style="stroke:#181818;stroke-width:0.5;" x1="1983.37" x2="2229.577" y1="258.86" y2="258.86"/></g><!--class self_generic_visit--><g class="entity" data-entity="self_generic_visit" data-source-line="40" data-uid="ent0022" id="entity_self_generic_visit"><rect fill="#F1F1F1" height="48" rx="2.5" ry="2.5" style="stroke:#181818;stroke-width:0.5;" width="151.9023" x="2030.53" y="555.72"/><ellipse cx="2045.53" cy="571.72" fill="#ADD1B2" rx="11" ry="11" style="stroke:#181818;stroke-width:1;"/><path d="M2048.4987,577.3606 Q2047.9206,577.6575 2047.28,577.7981 Q2046.6394,577.9544 2045.9363,577.9544 Q2043.4363,577.9544 2042.1081,576.3138 Q2040.7956,574.6575 2040.7956,571.5325 Q2040.7956,568.4075 2042.1081,566.7513 Q2043.4363,565.095 2045.9363,565.095 Q2046.6394,565.095 2047.28,565.2513 Q2047.9363,565.4075 2048.4987,565.7044 L2048.4987,568.4231 Q2047.8738,567.845 2047.28,567.5794 Q2046.6863,567.2981 2046.0613,567.2981 Q2044.7175,567.2981 2044.03,568.3763 Q2043.3425,569.4388 2043.3425,571.5325 Q2043.3425,573.6263 2044.03,574.7044 Q2044.7175,575.7669 2046.0613,575.7669 Q2046.6863,575.7669 2047.28,575.5013 Q2047.8738,575.22 2048.4987,574.6419 L2048.4987,577.3606 Z " fill="#000000"/><text fill="#000000" font-family="sans-serif" font-size="14" lengthAdjust="spacing" textLength="119.9023" x="2059.53" y="576.5667">self_generic_visit</text><line style="stroke:#181818;stroke-width:0.5;" x1="2031.53" x2="2181.4323" y1="587.72" y2="587.72"/><line style="stroke:#181818;stroke-width:0.5;" x1="2031.53" x2="2181.4323" y1="595.72" y2="595.72"/></g><!--class analyzer_CodeVisitor__get_attribute_name--><g class="entity" data-entity="analyzer_CodeVisitor__get_attribute_name" data-source-line="41" data-uid="ent0024" id="entity_analyzer_CodeVisitor__get_attribute_name"><rect fill="#F1F1F1" height="48" rx="2.5" ry="2.5" style="stroke:#181818;stroke-width:0.5;" width="330.9834" x="322.98" y="218.86"/><ellipse cx="337.98" cy="234.86" fill="#ADD1B2" rx="11" ry="11" style="stroke:#181818;stroke-width:1;"/><path d="M340.9488,240.5006 Q340.3706,240.7975 339.73,240.9381 Q339.0894,241.0944 338.3863,241.0944 Q335.8863,241.0944 334.5581,239.4538 Q333.2456,237.7975 333.2456,234.6725 Q333.2456,231.5475 334.5581,229.8913 Q335.8863,228.235 338.3863,228.235 Q339.0894,228.235 339.73,228.3913 Q340.3863,228.5475 340.9488,228.8444 L340.9488,231.5631 Q340.3238,230.985 339.73,230.7194 Q339.1363,230.4381 338.5113,230.4381 Q337.1675,230.4381 336.48,231.5163 Q335.7925,232.5788 335.7925,234.6725 Q335.7925,236.7663 336.48,237.8444 Q337.1675,238.9069 338.5113,238.9069 Q339.1363,238.9069 339.73,238.6413 Q340.3238,238.36 340.9488,237.7819 L340.9488,240.5006 Z " fill="#000000"/><text fill="#000000" font-family="sans-serif" font-size="14" lengthAdjust="spacing" textLength="298.9834" x="351.98" y="239.7067">analyzer_CodeVisitor__get_attribute_name</text><line style="stroke:#181818;stroke-width:0.5;" x1="323.98" x2="652.9634" y1="250.86" y2="250.86"/><line style="stroke:#181818;stroke-width:0.5;" x1="323.98" x2="652.9634" y1="258.86" y2="258.86"/></g><!--class analyzer_analyze_file--><g class="entity" data-entity="analyzer_analyze_file" data-source-line="42" data-uid="ent0026" id="entity_analyzer_analyze_file"><rect fill="#F1F1F1" height="48" rx="2.5" ry="2.5" style="stroke:#181818;stroke-width:0.5;" width="181.4131" x="2281.77" y="218.86"/><ellipse cx="2296.77" cy="234.86" fill="#ADD1B2" rx="11" ry="11" style="stroke:#181818;stroke-width:1;"/><path d="M2299.7388,240.5006 Q2299.1606,240.7975 2298.52,240.9381 Q2297.8794,241.0944 2297.1763,241.0944 Q2294.6763,241.0944 2293.3481,239.4538 Q2292.0356,237.7975 2292.0356,234.6725 Q2292.0356,231.5475 2293.3481,229.8913 Q2294.6763,228.235 2297.1763,228.235 Q2297.8794,228.235 2298.52,228.3913 Q2299.1763,228.5475 2299.7388,228.8444 L2299.7388,231.5631 Q2299.1138,230.985 2298.52,230.7194 Q2297.9263,230.4381 2297.3013,230.4381 Q2295.9575,230.4381 2295.27,231.5163 Q2294.5825,232.5788 2294.5825,234.6725 Q2294.5825,236.7663 2295.27,237.8444 Q2295.9575,238.9069 2297.3013,238.9069 Q2297.9263,238.9069 2298.52,238.6413 Q2299.1138,238.36 2299.7388,237.7819 L2299.7388,240.5006 Z " fill="#000000"/><text fill="#000000" font-family="sans-serif" font-size="14" lengthAdjust="spacing" textLength="149.4131" x="2310.77" y="239.7067">analyzer_analyze_file</text><line style="stroke:#181818;stroke-width:0.5;" x1="2282.77" x2="2462.1831" y1="250.86" y2="250.86"/><line style="stroke:#181818;stroke-width:0.5;" x1="2282.77" x2="2462.1831" y1="258.86" y2="258.86"/></g><!--class visitor_visit--><g class="entity" data-entity="visitor_visit" data-source-line="42" data-uid="ent0027" id="entity_visitor_visit"><rect fill="#F1F1F1" height="48" rx="2.5" ry="2.5" style="stroke:#181818;stroke-width:0.5;" width="111.0166" x="2216.97" y="555.72"/><ellipse cx="2231.97" cy="571.72" fill="#ADD1B2" rx="11" ry="11" style="stroke:#181818;stroke-width:1;"/><path d="M2234.9388,577.3606 Q2234.3606,577.6575 2233.72,577.7981 Q2233.0794,577.9544 2232.3763,577.9544 Q2229.8763,577.9544 2228.5481,576.3138 Q2227.2356,574.6575 2227.2356,571.5325 Q2227.2356,568.4075 2228.5481,566.7513 Q2229.8763,565.095 2232.3763,565.095 Q2233.0794,565.095 2233.72,565.2513 Q2234.3763,565.4075 2234.9388,565.7044 L2234.9388,568.4231 Q2234.3138,567.845 2233.72,567.5794 Q2233.1263,567.2981 2232.5013,567.2981 Q2231.1575,567.2981 2230.47,568.3763 Q2229.7825,569.4388 2229.7825,571.5325 Q2229.7825,573.6263 2230.47,574.7044 Q2231.1575,575.7669 2232.5013,575.7669 Q2233.1263,575.7669 2233.72,575.5013 Q2234.3138,575.22 2234.9388,574.6419 L2234.9388,577.3606 Z " fill="#000000"/><text fill="#000000" font-family="sans-serif" font-size="14" lengthAdjust="spacing" textLength="79.0166" x="2245.97" y="576.5667">visitor_visit</text><line style="stroke:#181818;stroke-width:0.5;" x1="2217.97" x2="2326.9866" y1="587.72" y2="587.72"/><line style="stroke:#181818;stroke-width:0.5;" x1="2217.97" x2="2326.9866" y1="595.72" y2="595.72"/></g><!--class logger_info--><g class="entity" data-entity="logger_info" data-source-line="43" data-uid="ent0029" id="entity_logger_info"><rect fill="#F1F1F1" height="48" rx="2.5" ry="2.5" style="stroke:#181818;stroke-width:0.5;" width="109.8545" x="2362.55" y="555.72"/><ellipse cx="2377.55" cy="571.72" fill="#ADD1B2" rx="11" ry="11" style="stroke:#181818;stroke-width:1;"/><path d="M2380.5188,577.3606 Q2379.9406,577.6575 2379.3,577.7981 Q2378.6594,577.9544 2377.9563,577.9544 Q2375.4563,577.9544 2374.1281,576.3138 Q2372.8156,574.6575 2372.8156,571.5325 Q2372.8156,568.4075 2374.1281,566.7513 Q2375.4563,565.095 2377.9563,565.095 Q2378.6594,565.095 2379.3,565.2513 Q2379.9563,565.4075 2380.5188,565.7044 L2380.5188,568.4231 Q2379.8938,567.845 2379.3,567.5794 Q2378.7063,567.2981 2378.0813,567.2981 Q2376.7375,567.2981 2376.05,568.3763 Q2375.3625,569.4388 2375.3625,571.5325 Q2375.3625,573.6263 2376.05,574.7044 Q2376.7375,575.7669 2378.0813,575.7669 Q2378.7063,575.7669 2379.3,575.5013 Q2379.8938,575.22 2380.5188,574.6419 L2380.5188,577.3606 Z " fill="#000000"/><text fill="#000000" font-family="sans-serif" font-size="14" lengthAdjust="spacing" textLength="77.8545" x="2391.55" y="576.5667">logger_info</text><line style="stroke:#181818;stroke-width:0.5;" x1="2363.55" x2="2471.4045" y1="587.72" y2="587.72"/><line style="stroke:#181818;stroke-width:0.5;" x1="2363.55" x2="2471.4045" y1="595.72" y2="595.72"/></g><!--class analyzer_analyze_directory--><g class="entity" data-entity="analyzer_analyze_directory" data-source-line="44" data-uid="ent0031" id="entity_analyzer_analyze_directory"><rect fill="#F1F1F1" height="48" rx="2.5" ry="2.5" style="stroke:#181818;stroke-width:0.5;" width="223.0303" x="2560.96" y="218.86"/><ellipse cx="2575.96" cy="234.86" fill="#ADD1B2" rx="11" ry="11" style="stroke:#181818;stroke-width:1;"/><path d="M2578.9288,240.5006 Q2578.3506,240.7975 2577.71,240.9381 Q2577.0694,241.0944 2576.3663,241.0944 Q2573.8663,241.0944 2572.5381,239.4538 Q2571.2256,237.7975 2571.2256,234.6725 Q2571.2256,231.5475 2572.5381,229.8913 Q2573.8663,228.235 2576.3663,228.235 Q2577.0694,228.235 2577.71,228.3913 Q2578.3663,228.5475 2578.9288,228.8444 L2578.9288,231.5631 Q2578.3038,230.985 2577.71,230.7194 Q2577.1163,230.4381 2576.4913,230.4381 Q2575.1475,230.4381 2574.46,231.5163 Q2573.7725,232.5788 2573.7725,234.6725 Q2573.7725,236.7663 2574.46,237.8444 Q2575.1475,238.9069 2576.4913,238.9069 Q2577.1163,238.9069 2577.71,238.6413 Q2578.3038,238.36 2578.9288,237.7819 L2578.9288,240.5006 Z " fill="#000000"/><text fill="#000000" font-family="sans-serif" font-size="14" lengthAdjust="spacing" textLength="191.0303" x="2589.96" y="239.7067">analyzer_analyze_directory</text><line style="stroke:#181818;stroke-width:0.5;" x1="2561.96" x2="2782.9903" y1="250.86" y2="250.86"/><line style="stroke:#181818;stroke-width:0.5;" x1="2561.96" x2="2782.9903" y1="258.86" y2="258.86"/></g><!--class logger_warning--><g class="entity" data-entity="logger_warning" data-source-line="44" data-uid="ent0032" id="entity_logger_warning"><rect fill="#F1F1F1" height="48" rx="2.5" ry="2.5" style="stroke:#181818;stroke-width:0.5;" width="139.9053" x="2507.52" y="555.72"/><ellipse cx="2522.52" cy="571.72" fill="#ADD1B2" rx="11" ry="11" style="stroke:#181818;stroke-width:1;"/><path d="M2525.4888,577.3606 Q2524.9106,577.6575 2524.27,577.7981 Q2523.6294,577.9544 2522.9263,577.9544 Q2520.4263,577.9544 2519.0981,576.3138 Q2517.7856,574.6575 2517.7856,571.5325 Q2517.7856,568.4075 2519.0981,566.7513 Q2520.4263,565.095 2522.9263,565.095 Q2523.6294,565.095 2524.27,565.2513 Q2524.9263,565.4075 2525.4888,565.7044 L2525.4888,568.4231 Q2524.8638,567.845 2524.27,567.5794 Q2523.6763,567.2981 2523.0513,567.2981 Q2521.7075,567.2981 2521.02,568.3763 Q2520.3325,569.4388 2520.3325,571.5325 Q2520.3325,573.6263 2521.02,574.7044 Q2521.7075,575.7669 2523.0513,575.7669 Q2523.6763,575.7669 2524.27,575.5013 Q2524.8638,575.22 2525.4888,574.6419 L2525.4888,577.3606 Z " fill="#000000"/><text fill="#000000" font-family="sans-serif" font-size="14" lengthAdjust="spacing" textLength="107.9053" x="2536.52" y="576.5667">logger_warning</text><line style="stroke:#181818;stroke-width:0.5;" x1="2508.52" x2="2646.4253" y1="587.72" y2="587.72"/><line style="stroke:#181818;stroke-width:0.5;" x1="2508.52" x2="2646.4253" y1="595.72" y2="595.72"/></g><!--class path_rglob--><g class="entity" data-entity="path_rglob" data-source-line="45" data-uid="ent0034" id="entity_path_rglob"><rect fill="#F1F1F1" height="48" rx="2.5" ry="2.5" style="stroke:#181818;stroke-width:0.5;" width="106.8125" x="2682.07" y="555.72"/><ellipse cx="2697.07" cy="571.72" fill="#ADD1B2" rx="11" ry="11" style="stroke:#181818;stroke-width:1;"/><path d="M2700.0388,577.3606 Q2699.4606,577.6575 2698.82,577.7981 Q2698.1794,577.9544 2697.4763,577.9544 Q2694.9763,577.9544 2693.6481,576.3138 Q2692.3356,574.6575 2692.3356,571.5325 Q2692.3356,568.4075 2693.6481,566.7513 Q2694.9763,565.095 2697.4763,565.095 Q2698.1794,565.095 2698.82,565.2513 Q2699.4763,565.4075 2700.0388,565.7044 L2700.0388,568.4231 Q2699.4138,567.845 2698.82,567.5794 Q2698.2263,567.2981 2697.6013,567.2981 Q2696.2575,567.2981 2695.57,568.3763 Q2694.8825,569.4388 2694.8825,571.5325 Q2694.8825,573.6263 2695.57,574.7044 Q2696.2575,575.7669 2697.6013,575.7669 Q2698.2263,575.7669 2698.82,575.5013 Q2699.4138,575.22 2700.0388,574.6419 L2700.0388,577.3606 Z " fill="#000000"/><text fill="#000000" font-family="sans-serif" font-size="14" lengthAdjust="spacing" textLength="74.8125" x="2711.07" y="576.5667">path_rglob</text><line style="stroke:#181818;stroke-width:0.5;" x1="2683.07" x2="2787.8825" y1="587.72" y2="587.72"/><line style="stroke:#181818;stroke-width:0.5;" x1="2683.07" x2="2787.8825" y1="595.72" y2="595.72"/></g><!--class modules_append--><g class="entity" data-entity="modules_append" data-source-line="46" data-uid="ent0036" id="entity_modules_append"><rect fill="#F1F1F1" height="48" rx="2.5" ry="2.5" style="stroke:#181818;stroke-width:0.5;" width="151.4854" x="2823.73" y="555.72"/><ellipse cx="2838.73" cy="571.72" fill="#ADD1B2" rx="11" ry="11" style="stroke:#181818;stroke-width:1;"/><path d="M2841.6988,577.3606 Q2841.1206,577.6575 2840.48,577.7981 Q2839.8394,577.9544 2839.1363,577.9544 Q2836.6363,577.9544 2835.3081,576.3138 Q2833.9956,574.6575 2833.9956,571.5325 Q2833.9956,568.4075 2835.3081,566.7513 Q2836.6363,565.095 2839.1363,565.095 Q2839.8394,565.095 2840.48,565.2513 Q2841.1363,565.4075 2841.6988,565.7044 L2841.6988,568.4231 Q2841.0738,567.845 2840.48,567.5794 Q2839.8863,567.2981 2839.2613,567.2981 Q2837.9175,567.2981 2837.23,568.3763 Q2836.5425,569.4388 2836.5425,571.5325 Q2836.5425,573.6263 2837.23,574.7044 Q2837.9175,575.7669 2839.2613,575.7669 Q2839.8863,575.7669 2840.48,575.5013 Q2841.0738,575.22 2841.6988,574.6419 L2841.6988,577.3606 Z " fill="#000000"/><text fill="#000000" font-family="sans-serif" font-size="14" lengthAdjust="spacing" textLength="119.4854" x="2852.73" y="576.5667">modules_append</text><line style="stroke:#181818;stroke-width:0.5;" x1="2824.73" x2="2974.2154" y1="587.72" y2="587.72"/><line style="stroke:#181818;stroke-width:0.5;" x1="2824.73" x2="2974.2154" y1="595.72" y2="595.72"/></g><!--link analyzer_CodeVisitor to ast_NodeVisitor--><g class="link" data-entity-1="analyzer_CodeVisitor" data-entity-2="ast_NodeVisitor" data-source-line="32" data-uid="lnk4" id="link_analyzer_CodeVisitor_ast_NodeVisitor"><path codeLine="32" d="M147.48,479.16 C147.48,510.13 147.48,519.38 147.48,537.5 " fill="none" id="analyzer_CodeVisitor-to-ast_NodeVisitor" style="stroke:#181818;stroke-width:1;"/><polygon fill="none" points="147.48,555.5,153.48,537.5,141.48,537.5,147.48,555.5" style="stroke:#181818;stroke-width:1;"/></g><!--link analyzer_CodeVisitor_visit_ClassDef to self__get_attribute_name--><g class="link" data-entity-1="analyzer_CodeVisitor_visit_ClassDef" data-entity-2="self__get_attribute_name" data-source-line="33" data-uid="lnk7" id="link_analyzer_CodeVisitor_visit_ClassDef_self__get_attribute_name"><path codeLine="33" d="M819.33,267.07 C796.68,312.35 741.46,413.7 671.48,478.72 C636.38,511.33 594.2026,535.1707 557.6626,552.6507 " fill="none" id="analyzer_CodeVisitor_visit_ClassDef-to-self__get_attribute_name" style="stroke:#181818;stroke-width:1;stroke-dasharray:7.0,7.0;"/><polygon fill="#181818" points="552.25,555.24,562.095,554.9645,556.7605,553.0823,558.6427,547.7477,552.25,555.24" style="stroke:#181818;stroke-width:1;"/><text fill="#000000" font-family="sans-serif" font-size="13" lengthAdjust="spacing" textLength="29.1104" x="634.48" y="521.7869">calls</text></g><!--link analyzer_CodeVisitor_visit_ClassDef to bases_append--><g class="link" data-entity-1="analyzer_CodeVisitor_visit_ClassDef" data-entity-2="bases_append" data-source-line="34" data-uid="lnk9" id="link_analyzer_CodeVisitor_visit_ClassDef_bases_append"><path codeLine="34" d="M822.27,267.14 C800.63,328.54 744.1936,488.7009 722.6236,549.9309 " fill="none" id="analyzer_CodeVisitor_visit_ClassDef-to-bases_append" style="stroke:#181818;stroke-width:1;stroke-dasharray:7.0,7.0;"/><polygon fill="#181818" points="720.63,555.59,727.3931,548.4304,722.2913,550.8741,719.8476,545.7723,720.63,555.59" style="stroke:#181818;stroke-width:1;"/><text fill="#000000" font-family="sans-serif" font-size="13" lengthAdjust="spacing" textLength="29.1104" x="736.48" y="521.7869">calls</text></g><!--link analyzer_CodeVisitor_visit_ClassDef to class_obj_add_relationship--><g class="link" data-entity-1="analyzer_CodeVisitor_visit_ClassDef" data-entity-2="class_obj_add_relationship" data-source-line="35" data-uid="lnk11" id="link_analyzer_CodeVisitor_visit_ClassDef_class_obj_add_relationship"><path codeLine="35" d="M836.87,267.14 C853.74,328.54 897.7107,488.5743 914.5307,549.8043 " fill="none" id="analyzer_CodeVisitor_visit_ClassDef-to-class_obj_add_relationship" style="stroke:#181818;stroke-width:1;stroke-dasharray:7.0,7.0;"/><polygon fill="#181818" points="916.12,555.59,917.5931,545.8519,914.7956,550.7686,909.8789,547.971,916.12,555.59" style="stroke:#181818;stroke-width:1;"/><text fill="#000000" font-family="sans-serif" font-size="13" lengthAdjust="spacing" textLength="29.1104" x="908.48" y="521.7869">calls</text></g><!--link analyzer_CodeVisitor_visit_ClassDef to self_visit--><g class="link" data-entity-1="analyzer_CodeVisitor_visit_ClassDef" data-entity-2="self_visit" data-source-line="36" data-uid="lnk13" id="link_analyzer_CodeVisitor_visit_ClassDef_self_visit"><path codeLine="36" d="M842.59,267.15 C866.51,311.69 923.24,410.57 989.48,478.72 C1019.1,509.21 1053.9149,533.6554 1083.3749,552.1054 " fill="none" id="analyzer_CodeVisitor_visit_ClassDef-to-self_visit" style="stroke:#181818;stroke-width:1;stroke-dasharray:7.0,7.0;"/><polygon fill="#181818" points="1088.46,555.29,1082.9555,547.123,1084.2224,552.6361,1078.7093,553.9031,1088.46,555.29" style="stroke:#181818;stroke-width:1;"/><text fill="#000000" font-family="sans-serif" font-size="13" lengthAdjust="spacing" textLength="29.1104" x="1044.48" y="521.7869">calls</text></g><!--link analyzer_CodeVisitor_visit_FunctionDef to self_visit--><g class="link" data-entity-1="analyzer_CodeVisitor_visit_FunctionDef" data-entity-2="self_visit" data-source-line="37" data-uid="lnk15" id="link_analyzer_CodeVisitor_visit_FunctionDef_self_visit"><path codeLine="37" d="M1158.25,267.14 C1152.38,328.54 1137.1106,488.3872 1131.2606,549.6172 " fill="none" id="analyzer_CodeVisitor_visit_FunctionDef-to-self_visit" style="stroke:#181818;stroke-width:1;stroke-dasharray:7.0,7.0;"/><polygon fill="#181818" points="1130.69,555.59,1135.5278,547.0112,1131.1655,550.6127,1127.5641,546.2504,1130.69,555.59" style="stroke:#181818;stroke-width:1;"/><text fill="#000000" font-family="sans-serif" font-size="13" lengthAdjust="spacing" textLength="29.1104" x="1136.48" y="521.7869">calls</text></g><!--link analyzer_CodeVisitor_visit_AnnAssign to attr_name_startswith--><g class="link" data-entity-1="analyzer_CodeVisitor_visit_AnnAssign" data-entity-2="attr_name_startswith" data-source-line="38" data-uid="lnk18" id="link_analyzer_CodeVisitor_visit_AnnAssign_attr_name_startswith"><path codeLine="38" d="M1507.53,267.14 C1536.69,328.54 1612.846,488.9402 1641.926,550.1702 " fill="none" id="analyzer_CodeVisitor_visit_AnnAssign-to-attr_name_startswith" style="stroke:#181818;stroke-width:1;stroke-dasharray:7.0,7.0;"/><polygon fill="#181818" points="1644.5,555.59,1644.2522,545.7443,1642.355,551.0735,1637.0257,549.1763,1644.5,555.59" style="stroke:#181818;stroke-width:1;"/><text fill="#000000" font-family="sans-serif" font-size="13" lengthAdjust="spacing" textLength="29.1104" x="1630.48" y="521.7869">calls</text></g><!--link analyzer_CodeVisitor_visit_Assign to attr_name_startswith--><g class="link" data-entity-1="analyzer_CodeVisitor_visit_Assign" data-entity-2="attr_name_startswith" data-source-line="39" data-uid="lnk20" id="link_analyzer_CodeVisitor_visit_Assign_attr_name_startswith"><path codeLine="39" d="M1802.49,267.14 C1773.52,328.54 1697.8403,488.9337 1668.9503,550.1637 " fill="none" id="analyzer_CodeVisitor_visit_Assign-to-attr_name_startswith" style="stroke:#181818;stroke-width:1;stroke-dasharray:7.0,7.0;"/><polygon fill="#181818" points="1666.39,555.59,1673.848,549.1574,1668.5236,551.0681,1666.6129,545.7437,1666.39,555.59" style="stroke:#181818;stroke-width:1;"/><text fill="#000000" font-family="sans-serif" font-size="13" lengthAdjust="spacing" textLength="29.1104" x="1687.48" y="521.7869">calls</text></g><!--link analyzer_CodeVisitor_visit_Call to self_generic_visit--><g class="link" data-entity-1="analyzer_CodeVisitor_visit_Call" data-entity-2="self_generic_visit" data-source-line="40" data-uid="lnk23" id="link_analyzer_CodeVisitor_visit_Call_self_generic_visit"><path codeLine="40" d="M2106.48,267.14 C2106.48,328.54 2106.48,488.36 2106.48,549.59 " fill="none" id="analyzer_CodeVisitor_visit_Call-to-self_generic_visit" style="stroke:#181818;stroke-width:1;stroke-dasharray:7.0,7.0;"/><polygon fill="#181818" points="2106.48,555.59,2110.48,546.59,2106.48,550.59,2102.48,546.59,2106.48,555.59" style="stroke:#181818;stroke-width:1;"/><text fill="#000000" font-family="sans-serif" font-size="13" lengthAdjust="spacing" textLength="29.1104" x="2107.48" y="521.7869">calls</text></g><!--link analyzer_CodeVisitor__get_attribute_name to self__get_attribute_name--><g class="link" data-entity-1="analyzer_CodeVisitor__get_attribute_name" data-entity-2="self__get_attribute_name" data-source-line="41" data-uid="lnk25" id="link_analyzer_CodeVisitor__get_attribute_name_self__get_attribute_name"><path codeLine="41" d="M489.1,267.14 C490.75,328.54 495.0494,488.3622 496.6894,549.5922 " fill="none" id="analyzer_CodeVisitor__get_attribute_name-to-self__get_attribute_name" style="stroke:#181818;stroke-width:1;stroke-dasharray:7.0,7.0;"/><polygon fill="#181818" points="496.85,555.59,500.6076,546.4861,496.7161,550.5918,492.6105,546.7003,496.85,555.59" style="stroke:#181818;stroke-width:1;"/><text fill="#000000" font-family="sans-serif" font-size="13" lengthAdjust="spacing" textLength="29.1104" x="497.48" y="521.7869">calls</text></g><!--link analyzer_analyze_file to visitor_visit--><g class="link" data-entity-1="analyzer_analyze_file" data-entity-2="visitor_visit" data-source-line="42" data-uid="lnk28" id="link_analyzer_analyze_file_visitor_visit"><path codeLine="42" d="M2365.52,267.14 C2347.19,328.54 2299.3873,488.611 2281.0973,549.841 " fill="none" id="analyzer_analyze_file-to-visitor_visit" style="stroke:#181818;stroke-width:1;stroke-dasharray:7.0,7.0;"/><polygon fill="#181818" points="2279.38,555.59,2285.7886,548.1114,2280.8111,550.7992,2278.1233,545.8217,2279.38,555.59" style="stroke:#181818;stroke-width:1;"/><text fill="#000000" font-family="sans-serif" font-size="13" lengthAdjust="spacing" textLength="29.1104" x="2293.48" y="521.7869">calls</text></g><!--link analyzer_analyze_file to logger_info--><g class="link" data-entity-1="analyzer_analyze_file" data-entity-2="logger_info" data-source-line="43" data-uid="lnk30" id="link_analyzer_analyze_file_logger_info"><path codeLine="43" d="M2375.61,267.14 C2383.86,328.54 2405.3407,488.4135 2413.5707,549.6435 " fill="none" id="analyzer_analyze_file-to-logger_info" style="stroke:#181818;stroke-width:1;stroke-dasharray:7.0,7.0;"/><polygon fill="#181818" points="2414.37,555.59,2417.1354,546.1374,2413.7039,550.6346,2409.2067,547.2031,2414.37,555.59" style="stroke:#181818;stroke-width:1;"/><text fill="#000000" font-family="sans-serif" font-size="13" lengthAdjust="spacing" textLength="29.1104" x="2411.48" y="521.7869">calls</text></g><!--link analyzer_analyze_directory to logger_warning--><g class="link" data-entity-1="analyzer_analyze_directory" data-entity-2="logger_warning" data-source-line="44" data-uid="lnk33" id="link_analyzer_analyze_directory_logger_warning"><path codeLine="44" d="M2665.87,267.14 C2648.45,328.54 2603.0475,488.5878 2585.6775,549.8178 " fill="none" id="analyzer_analyze_directory-to-logger_warning" style="stroke:#181818;stroke-width:1;stroke-dasharray:7.0,7.0;"/><polygon fill="#181818" points="2584.04,555.59,2590.3444,548.0233,2585.4046,550.7798,2582.6481,545.84,2584.04,555.59" style="stroke:#181818;stroke-width:1;"/><text fill="#000000" font-family="sans-serif" font-size="13" lengthAdjust="spacing" textLength="29.1104" x="2597.48" y="521.7869">calls</text></g><!--link analyzer_analyze_directory to path_rglob--><g class="link" data-entity-1="analyzer_analyze_directory" data-entity-2="path_rglob" data-source-line="45" data-uid="lnk35" id="link_analyzer_analyze_directory_path_rglob"><path codeLine="45" d="M2676.86,267.14 C2688.41,328.54 2718.5006,488.4635 2730.0206,549.6935 " fill="none" id="analyzer_analyze_directory-to-path_rglob" style="stroke:#181818;stroke-width:1;stroke-dasharray:7.0,7.0;"/><polygon fill="#181818" points="2731.13,555.59,2733.3969,546.0056,2730.2055,550.6762,2725.5349,547.4848,2731.13,555.59" style="stroke:#181818;stroke-width:1;"/><text fill="#000000" font-family="sans-serif" font-size="13" lengthAdjust="spacing" textLength="29.1104" x="2726.48" y="521.7869">calls</text></g><!--link analyzer_analyze_directory to modules_append--><g class="link" data-entity-1="analyzer_analyze_directory" data-entity-2="modules_append" data-source-line="46" data-uid="lnk37" id="link_analyzer_analyze_directory_modules_append"><path codeLine="46" d="M2688.26,267.14 C2729.88,328.54 2838.9232,489.3937 2880.4332,550.6237 " fill="none" id="analyzer_analyze_directory-to-modules_append" style="stroke:#181818;stroke-width:1;stroke-dasharray:7.0,7.0;"/><polygon fill="#181818" points="2883.8,555.59,2882.0606,545.896,2880.9943,551.4514,2875.4388,550.3851,2883.8,555.59" style="stroke:#181818;stroke-width:1;"/><text fill="#000000" font-family="sans-serif" font-size="13" lengthAdjust="spacing" textLength="29.1104" x="2861.48" y="521.7869">calls</text></g><!--link analyzer_analyze_directory to logger_info--><g class="link" data-entity-1="analyzer_analyze_directory" data-entity-2="logger_info" data-source-line="47" data-uid="lnk38" id="link_analyzer_analyze_directory_logger_info"><path codeLine="47" d="M2654.75,267.14 C2607.99,328.54 2485.3447,489.5862 2438.7247,550.8162 " fill="none" id="analyzer_analyze_directory-to-logger_info" style="stroke:#181818;stroke-width:1;stroke-dasharray:7.0,7.0;"/><polygon fill="#181818" points="2435.09,555.59,2443.7246,550.8525,2438.1189,551.6119,2437.3595,546.0062,2435.09,555.59" style="stroke:#181818;stroke-width:1;"/><text fill="#000000" font-family="sans-serif" font-size="13" lengthAdjust="spacing" textLength="29.1104" x="2467.48" y="521.7869">calls</text></g><!--SRC=[fLJBRjmm3BpxAuHSqg9DFY270C4M0NhfAUYLe2tQPY5BXaHduJx-lP9gUzt2k_2cDuepGv7KsBVgfUMWD6FZiLD730e7SHqALsZCg1gov558gt9KqfAgd2Q55itudNnHL0P3K3U7cFtAWSNv6vMAJ0HO0Uf7eLJcWyMEug4UZ9dZ4WE5XU3ARp5sHaC-PwwjPcwFdgoSgjXAsDb9i3gYY9zPClO4QAqJd53kUkVZP3C3bxxYxNFOaRHkeQITa8x11m2sB03l0fdwO-n8slSf_vfcXKDg-XFL4shZ4bReyzJXMSAJjKyXS6FFm1UmptceIzYpTzqsVeZJ_Oj0Gm9fZrmEGdaFQyg32k8NNXZAK7dkvGplLr5i6kFkxkTZNB_0brDoamb_hrVTtp-gT0jijAaUydE5tOMo0m7xdgo-MhpO5b1hy6IooqBB_TMbya0vlqUwCjCRr8lJidRvNY08UWb7bdPNbVylaRntwZ__TRZQCyVMorzdYoc0ciqVwUkwinryuvecvjdMxZnRiwSgLXtNaYDwoxRPgqf_6V2DSULUHUVqO2wu-c9twu5-0m00]--></g></svg>