<svg xmlns="http://www.w3.org/2000/svg" xmlns:xlink="http://www.w3.org/1999/xlink" contentStyleType="text/css" data-diagram-type="CLASS" height="684px" preserveAspectRatio="none" style="width:2811px;height:684px;background:#FFFFFF;" version="1.1" viewBox="0 0 2811 684" width="2811px" zoomAndPan="magnify"><defs/><g><!--class code_analyzer_CodeVisitor--><g class="entity" data-entity="code_analyzer_CodeVisitor" data-source-line="3" data-uid="ent0002" id="entity_code_analyzer_CodeVisitor"><rect fill="#F1F1F1" height="520.6094" rx="2.5" ry="2.5" style="stroke:#181818;stroke-width:0.5;" width="289.7852" x="741.55" y="7"/><ellipse cx="842.0417" cy="23" fill="#ADD1B2" rx="11" ry="11" style="stroke:#181818;stroke-width:1;"/><path d="M845.0104,28.6406 Q844.4323,28.9375 843.7917,29.0781 Q843.1511,29.2344 842.4479,29.2344 Q839.9479,29.2344 838.6198,27.5938 Q837.3073,25.9375 837.3073,22.8125 Q837.3073,19.6875 838.6198,18.0313 Q839.9479,16.375 842.4479,16.375 Q843.1511,16.375 843.7917,16.5313 Q844.4479,16.6875 845.0104,16.9844 L845.0104,19.7031 Q844.3854,19.125 843.7917,18.8594 Q843.1979,18.5781 842.5729,18.5781 Q841.2292,18.5781 840.5417,19.6563 Q839.8542,20.7188 839.8542,22.8125 Q839.8542,24.9063 840.5417,25.9844 Q841.2292,27.0469 842.5729,27.0469 Q843.1979,27.0469 843.7917,26.7813 Q844.3854,26.5 845.0104,25.9219 L845.0104,28.6406 Z " fill="#000000"/><text fill="#000000" font-family="sans-serif" font-size="14" lengthAdjust="spacing" textLength="80.3018" x="862.5417" y="27.8467">CodeVisitor</text><line style="stroke:#181818;stroke-width:0.5;" x1="742.55" x2="1030.3352" y1="39" y2="39"/><text fill="#000000" font-family="sans-serif" font-size="14" lengthAdjust="spacing" textLength="81.457" x="747.55" y="55.9951">class_name</text><text fill="#000000" font-family="sans-serif" font-size="14" lengthAdjust="spacing" textLength="40.667" x="747.55" y="72.292">bases</text><text fill="#000000" font-family="sans-serif" font-size="14" lengthAdjust="spacing" textLength="80.0762" x="747.55" y="88.5889">base_name</text><text fill="#000000" font-family="sans-serif" font-size="14" lengthAdjust="spacing" textLength="63.0957" x="747.55" y="104.8857">old_class</text><text fill="#000000" font-family="sans-serif" font-size="14" lengthAdjust="spacing" textLength="100.7686" x="747.55" y="121.1826">method_name</text><text fill="#000000" font-family="sans-serif" font-size="14" lengthAdjust="spacing" textLength="68.2842" x="747.55" y="137.4795">full_name</text><text fill="#000000" font-family="sans-serif" font-size="14" lengthAdjust="spacing" textLength="103.8926" x="747.55" y="153.7764">function_name</text><text fill="#000000" font-family="sans-serif" font-size="14" lengthAdjust="spacing" textLength="85.5313" x="747.55" y="170.0732">old_function</text><text fill="#000000" font-family="sans-serif" font-size="14" lengthAdjust="spacing" textLength="72.0166" x="747.55" y="186.3701">attr_name</text><text fill="#000000" font-family="sans-serif" font-size="14" lengthAdjust="spacing" textLength="72.0166" x="747.55" y="202.667">attr_name</text><text fill="#000000" font-family="sans-serif" font-size="14" lengthAdjust="spacing" textLength="114.0508" x="747.55" y="218.9639">type_annotation</text><text fill="#000000" font-family="sans-serif" font-size="14" lengthAdjust="spacing" textLength="114.0508" x="747.55" y="235.2607">type_annotation</text><text fill="#000000" font-family="sans-serif" font-size="14" lengthAdjust="spacing" textLength="114.0508" x="747.55" y="251.5576">type_annotation</text><text fill="#000000" font-family="sans-serif" font-size="14" lengthAdjust="spacing" textLength="110.4277" x="747.55" y="267.8545">imported_name</text><text fill="#000000" font-family="sans-serif" font-size="14" lengthAdjust="spacing" textLength="62.5762" x="747.55" y="284.1514">as_name</text><text fill="#000000" font-family="sans-serif" font-size="14" lengthAdjust="spacing" textLength="68.2842" x="747.55" y="300.4482">full_name</text><text fill="#000000" font-family="sans-serif" font-size="14" lengthAdjust="spacing" textLength="68.0449" x="747.55" y="316.7451">obj_name</text><text fill="#000000" font-family="sans-serif" font-size="14" lengthAdjust="spacing" textLength="100.7686" x="747.55" y="333.042">method_name</text><text fill="#000000" font-family="sans-serif" font-size="14" lengthAdjust="spacing" textLength="38.4248" x="747.55" y="349.3389">caller</text><text fill="#000000" font-family="sans-serif" font-size="14" lengthAdjust="spacing" textLength="41.5557" x="747.55" y="365.6357">called</text><line style="stroke:#181818;stroke-width:0.5;" x1="742.55" x2="1030.3352" y1="372.9375" y2="372.9375"/><ellipse cx="752.55" cy="386.5859" fill="#84BE84" rx="3" ry="3" style="stroke:#038048;stroke-width:1;"/><text fill="#000000" font-family="sans-serif" font-size="14" lengthAdjust="spacing" textLength="263.7852" x="761.55" y="389.9326">__init__(self, filename, module_name)</text><ellipse cx="752.55" cy="402.8828" fill="#84BE84" rx="3" ry="3" style="stroke:#038048;stroke-width:1;"/><text fill="#000000" font-family="sans-serif" font-size="14" lengthAdjust="spacing" textLength="176.4902" x="761.55" y="406.2295">visit_ClassDef(self, node)</text><ellipse cx="752.55" cy="419.1797" fill="#84BE84" rx="3" ry="3" style="stroke:#038048;stroke-width:1;"/><text fill="#000000" font-family="sans-serif" font-size="14" lengthAdjust="spacing" textLength="199.9717" x="761.55" y="422.5264">visit_FunctionDef(self, node)</text><ellipse cx="752.55" cy="435.4766" fill="#84BE84" rx="3" ry="3" style="stroke:#038048;stroke-width:1;"/><text fill="#000000" font-family="sans-serif" font-size="14" lengthAdjust="spacing" textLength="161.1504" x="761.55" y="438.8232">visit_Assign(self, node)</text><ellipse cx="752.55" cy="451.7734" fill="#84BE84" rx="3" ry="3" style="stroke:#038048;stroke-width:1;"/><text fill="#000000" font-family="sans-serif" font-size="14" lengthAdjust="spacing" textLength="188.4736" x="761.55" y="455.1201">visit_AnnAssign(self, node)</text><ellipse cx="752.55" cy="468.0703" fill="#84BE84" rx="3" ry="3" style="stroke:#038048;stroke-width:1;"/><text fill="#000000" font-family="sans-serif" font-size="14" lengthAdjust="spacing" textLength="161.7998" x="761.55" y="471.417">visit_Import(self, node)</text><ellipse cx="752.55" cy="484.3672" fill="#84BE84" rx="3" ry="3" style="stroke:#038048;stroke-width:1;"/><text fill="#000000" font-family="sans-serif" font-size="14" lengthAdjust="spacing" textLength="197.8115" x="761.55" y="487.7139">visit_ImportFrom(self, node)</text><ellipse cx="752.55" cy="500.6641" fill="#84BE84" rx="3" ry="3" style="stroke:#038048;stroke-width:1;"/><text fill="#000000" font-family="sans-serif" font-size="14" lengthAdjust="spacing" textLength="141.4697" x="761.55" y="504.0107">visit_Call(self, node)</text><ellipse cx="752.55" cy="516.9609" fill="#84BE84" rx="3" ry="3" style="stroke:#038048;stroke-width:1;"/><text fill="#000000" font-family="sans-serif" font-size="14" lengthAdjust="spacing" textLength="224.2461" x="761.55" y="520.3076">_get_attribute_name(self, node)</text></g><!--class code_analyzer_analyze_file--><g class="entity" data-entity="code_analyzer_analyze_file" data-source-line="35" data-uid="ent0003" id="entity_code_analyzer_analyze_file"><rect fill="#F1F1F1" height="72.5625" rx="2.5" ry="2.5" style="stroke:#181818;stroke-width:0.5;" width="179.5625" x="1066.66" y="231.02"/><ellipse cx="1110.9466" cy="251.1528" fill="#ADD1B2" rx="11" ry="11" style="stroke:#181818;stroke-width:1;"/><path d="M1113.9154,256.7934 Q1113.3372,257.0903 1112.6966,257.2309 Q1112.056,257.3872 1111.3529,257.3872 Q1108.8529,257.3872 1107.5247,255.7466 Q1106.2122,254.0903 1106.2122,250.9653 Q1106.2122,247.8403 1107.5247,246.1841 Q1108.8529,244.5278 1111.3529,244.5278 Q1112.056,244.5278 1112.6966,244.6841 Q1113.3529,244.8403 1113.9154,245.1372 L1113.9154,247.8559 Q1113.2904,247.2778 1112.6966,247.0122 Q1112.1029,246.7309 1111.4779,246.7309 Q1110.1341,246.7309 1109.4466,247.8091 Q1108.7591,248.8716 1108.7591,250.9653 Q1108.7591,253.0591 1109.4466,254.1372 Q1110.1341,255.1997 1111.4779,255.1997 Q1112.1029,255.1997 1112.6966,254.9341 Q1113.2904,254.6528 1113.9154,254.0747 L1113.9154,256.7934 Z " fill="#000000"/><text fill="#000000" font-family="sans-serif" font-size="12" font-style="italic" lengthAdjust="spacing" textLength="63.7031" x="1140.8397" y="247.1587">&#171;function&#187;</text><text fill="#000000" font-family="sans-serif" font-size="14" lengthAdjust="spacing" textLength="82.4893" x="1131.4466" y="262.9839">analyze_file</text><line style="stroke:#181818;stroke-width:0.5;" x1="1067.66" x2="1245.2225" y1="271.2856" y2="271.2856"/><line style="stroke:#181818;stroke-width:0.5;" x1="1067.66" x2="1245.2225" y1="279.2856" y2="279.2856"/><ellipse cx="1077.66" cy="292.9341" fill="#84BE84" rx="3" ry="3" style="stroke:#038048;stroke-width:1;"/><text fill="#000000" font-family="sans-serif" font-size="14" lengthAdjust="spacing" textLength="153.5625" x="1086.66" y="296.2807">analyze_file(file_path)</text></g><!--class code_analyzer_analyze_directory--><g class="entity" data-entity="code_analyzer_analyze_directory" data-source-line="39" data-uid="ent0004" id="entity_code_analyzer_analyze_directory"><rect fill="#F1F1F1" height="72.5625" rx="2.5" ry="2.5" style="stroke:#181818;stroke-width:0.5;" width="320.5537" x="1281.17" y="231.02"/><ellipse cx="1375.1436" cy="251.1528" fill="#ADD1B2" rx="11" ry="11" style="stroke:#181818;stroke-width:1;"/><path d="M1378.1124,256.7934 Q1377.5343,257.0903 1376.8936,257.2309 Q1376.253,257.3872 1375.5499,257.3872 Q1373.0499,257.3872 1371.7218,255.7466 Q1370.4093,254.0903 1370.4093,250.9653 Q1370.4093,247.8403 1371.7218,246.1841 Q1373.0499,244.5278 1375.5499,244.5278 Q1376.253,244.5278 1376.8936,244.6841 Q1377.5499,244.8403 1378.1124,245.1372 L1378.1124,247.8559 Q1377.4874,247.2778 1376.8936,247.0122 Q1376.2999,246.7309 1375.6749,246.7309 Q1374.3311,246.7309 1373.6436,247.8091 Q1372.9561,248.8716 1372.9561,250.9653 Q1372.9561,253.0591 1373.6436,254.1372 Q1374.3311,255.1997 1375.6749,255.1997 Q1376.2999,255.1997 1376.8936,254.9341 Q1377.4874,254.6528 1378.1124,254.0747 L1378.1124,256.7934 Z " fill="#000000"/><text fill="#000000" font-family="sans-serif" font-size="12" font-style="italic" lengthAdjust="spacing" textLength="63.7031" x="1425.8453" y="247.1587">&#171;function&#187;</text><text fill="#000000" font-family="sans-serif" font-size="14" lengthAdjust="spacing" textLength="124.1064" x="1395.6436" y="262.9839">analyze_directory</text><line style="stroke:#181818;stroke-width:0.5;" x1="1282.17" x2="1600.7237" y1="271.2856" y2="271.2856"/><line style="stroke:#181818;stroke-width:0.5;" x1="1282.17" x2="1600.7237" y1="279.2856" y2="279.2856"/><ellipse cx="1292.17" cy="292.9341" fill="#84BE84" rx="3" ry="3" style="stroke:#038048;stroke-width:1;"/><text fill="#000000" font-family="sans-serif" font-size="14" lengthAdjust="spacing" textLength="294.5537" x="1301.17" y="296.2807">analyze_directory(directory, exclude_dirs)</text></g><!--class code_analyzer_generate_class_diagram--><g class="entity" data-entity="code_analyzer_generate_class_diagram" data-source-line="43" data-uid="ent0005" id="entity_code_analyzer_generate_class_diagram"><rect fill="#F1F1F1" height="72.5625" rx="2.5" ry="2.5" style="stroke:#181818;stroke-width:0.5;" width="388.8857" x="7" y="231.02"/><ellipse cx="111.9966" cy="251.1528" fill="#ADD1B2" rx="11" ry="11" style="stroke:#181818;stroke-width:1;"/><path d="M114.9653,256.7934 Q114.3872,257.0903 113.7466,257.2309 Q113.106,257.3872 112.4028,257.3872 Q109.9028,257.3872 108.5747,255.7466 Q107.2622,254.0903 107.2622,250.9653 Q107.2622,247.8403 108.5747,246.1841 Q109.9028,244.5278 112.4028,244.5278 Q113.106,244.5278 113.7466,244.6841 Q114.4028,244.8403 114.9653,245.1372 L114.9653,247.8559 Q114.3403,247.2778 113.7466,247.0122 Q113.1528,246.7309 112.5278,246.7309 Q111.1841,246.7309 110.4966,247.8091 Q109.8091,248.8716 109.8091,250.9653 Q109.8091,253.0591 110.4966,254.1372 Q111.1841,255.1997 112.5278,255.1997 Q113.1528,255.1997 113.7466,254.9341 Q114.3403,254.6528 114.9653,254.0747 L114.9653,256.7934 Z " fill="#000000"/><text fill="#000000" font-family="sans-serif" font-size="12" font-style="italic" lengthAdjust="spacing" textLength="63.7031" x="185.8413" y="247.1587">&#171;function&#187;</text><text fill="#000000" font-family="sans-serif" font-size="14" lengthAdjust="spacing" textLength="170.3926" x="132.4966" y="262.9839">generate_class_diagram</text><line style="stroke:#181818;stroke-width:0.5;" x1="8" x2="394.8857" y1="271.2856" y2="271.2856"/><line style="stroke:#181818;stroke-width:0.5;" x1="8" x2="394.8857" y1="279.2856" y2="279.2856"/><ellipse cx="18" cy="292.9341" fill="#84BE84" rx="3" ry="3" style="stroke:#038048;stroke-width:1;"/><text fill="#000000" font-family="sans-serif" font-size="14" lengthAdjust="spacing" textLength="362.8857" x="27" y="296.2807">generate_class_diagram(visitors, include_functions)</text></g><!--class code_analyzer_generate_module_diagram--><g class="entity" data-entity="code_analyzer_generate_module_diagram" data-source-line="47" data-uid="ent0006" id="entity_code_analyzer_generate_module_diagram"><rect fill="#F1F1F1" height="72.5625" rx="2.5" ry="2.5" style="stroke:#181818;stroke-width:0.5;" width="275.4912" x="430.7" y="231.02"/><ellipse cx="470.624" cy="251.1528" fill="#ADD1B2" rx="11" ry="11" style="stroke:#181818;stroke-width:1;"/><path d="M473.5928,256.7934 Q473.0146,257.0903 472.374,257.2309 Q471.7334,257.3872 471.0303,257.3872 Q468.5303,257.3872 467.2021,255.7466 Q465.8896,254.0903 465.8896,250.9653 Q465.8896,247.8403 467.2021,246.1841 Q468.5303,244.5278 471.0303,244.5278 Q471.7334,244.5278 472.374,244.6841 Q473.0303,244.8403 473.5928,245.1372 L473.5928,247.8559 Q472.9678,247.2778 472.374,247.0122 Q471.7803,246.7309 471.1553,246.7309 Q469.8115,246.7309 469.124,247.8091 Q468.4365,248.8716 468.4365,250.9653 Q468.4365,253.0591 469.124,254.1372 Q469.8115,255.1997 471.1553,255.1997 Q471.7803,255.1997 472.374,254.9341 Q472.9678,254.6528 473.5928,254.0747 L473.5928,256.7934 Z " fill="#000000"/><text fill="#000000" font-family="sans-serif" font-size="12" font-style="italic" lengthAdjust="spacing" textLength="63.7031" x="552.3634" y="247.1587">&#171;function&#187;</text><text fill="#000000" font-family="sans-serif" font-size="14" lengthAdjust="spacing" textLength="188.1045" x="490.1627" y="262.9839">generate_module_diagram</text><line style="stroke:#181818;stroke-width:0.5;" x1="431.7" x2="705.1912" y1="271.2856" y2="271.2856"/><line style="stroke:#181818;stroke-width:0.5;" x1="431.7" x2="705.1912" y1="279.2856" y2="279.2856"/><ellipse cx="441.7" cy="292.9341" fill="#84BE84" rx="3" ry="3" style="stroke:#038048;stroke-width:1;"/><text fill="#000000" font-family="sans-serif" font-size="14" lengthAdjust="spacing" textLength="249.4912" x="450.7" y="296.2807">generate_module_diagram(visitors)</text></g><!--class code_analyzer_save_diagram--><g class="entity" data-entity="code_analyzer_save_diagram" data-source-line="51" data-uid="ent0007" id="entity_code_analyzer_save_diagram"><rect fill="#F1F1F1" height="72.5625" rx="2.5" ry="2.5" style="stroke:#181818;stroke-width:0.5;" width="276.5234" x="1637.18" y="231.02"/><ellipse cx="1722.1986" cy="251.1528" fill="#ADD1B2" rx="11" ry="11" style="stroke:#181818;stroke-width:1;"/><path d="M1725.1673,256.7934 Q1724.5892,257.0903 1723.9486,257.2309 Q1723.3079,257.3872 1722.6048,257.3872 Q1720.1048,257.3872 1718.7767,255.7466 Q1717.4642,254.0903 1717.4642,250.9653 Q1717.4642,247.8403 1718.7767,246.1841 Q1720.1048,244.5278 1722.6048,244.5278 Q1723.3079,244.5278 1723.9486,244.6841 Q1724.6048,244.8403 1725.1673,245.1372 L1725.1673,247.8559 Q1724.5423,247.2778 1723.9486,247.0122 Q1723.3548,246.7309 1722.7298,246.7309 Q1721.3861,246.7309 1720.6986,247.8091 Q1720.0111,248.8716 1720.0111,250.9653 Q1720.0111,253.0591 1720.6986,254.1372 Q1721.3861,255.1997 1722.7298,255.1997 Q1723.3548,255.1997 1723.9486,254.9341 Q1724.5423,254.6528 1725.1673,254.0747 L1725.1673,256.7934 Z " fill="#000000"/><text fill="#000000" font-family="sans-serif" font-size="12" font-style="italic" lengthAdjust="spacing" textLength="63.7031" x="1759.8402" y="247.1587">&#171;function&#187;</text><text fill="#000000" font-family="sans-serif" font-size="14" lengthAdjust="spacing" textLength="97.9863" x="1742.6986" y="262.9839">save_diagram</text><line style="stroke:#181818;stroke-width:0.5;" x1="1638.18" x2="1912.7034" y1="271.2856" y2="271.2856"/><line style="stroke:#181818;stroke-width:0.5;" x1="1638.18" x2="1912.7034" y1="279.2856" y2="279.2856"/><ellipse cx="1648.18" cy="292.9341" fill="#84BE84" rx="3" ry="3" style="stroke:#038048;stroke-width:1;"/><text fill="#000000" font-family="sans-serif" font-size="14" lengthAdjust="spacing" textLength="250.5234" x="1657.18" y="296.2807">save_diagram(diagram, output_file)</text></g><!--class code_analyzer_parse_args--><g class="entity" data-entity="code_analyzer_parse_args" data-source-line="55" data-uid="ent0008" id="entity_code_analyzer_parse_args"><rect fill="#F1F1F1" height="72.5625" rx="2.5" ry="2.5" style="stroke:#181818;stroke-width:0.5;" width="113.5684" x="1948.66" y="231.02"/><ellipse cx="1965.8757" cy="251.1528" fill="#ADD1B2" rx="11" ry="11" style="stroke:#181818;stroke-width:1;"/><path d="M1968.8445,256.7934 Q1968.2663,257.0903 1967.6257,257.2309 Q1966.9851,257.3872 1966.282,257.3872 Q1963.782,257.3872 1962.4538,255.7466 Q1961.1413,254.0903 1961.1413,250.9653 Q1961.1413,247.8403 1962.4538,246.1841 Q1963.782,244.5278 1966.282,244.5278 Q1966.9851,244.5278 1967.6257,244.6841 Q1968.282,244.8403 1968.8445,245.1372 L1968.8445,247.8559 Q1968.2195,247.2778 1967.6257,247.0122 Q1967.032,246.7309 1966.407,246.7309 Q1965.0632,246.7309 1964.3757,247.8091 Q1963.6882,248.8716 1963.6882,250.9653 Q1963.6882,253.0591 1964.3757,254.1372 Q1965.0632,255.1997 1966.407,255.1997 Q1967.032,255.1997 1967.6257,254.9341 Q1968.2195,254.6528 1968.8445,254.0747 L1968.8445,256.7934 Z " fill="#000000"/><text fill="#000000" font-family="sans-serif" font-size="12" font-style="italic" lengthAdjust="spacing" textLength="63.7031" x="1986.8388" y="247.1587">&#171;function&#187;</text><text fill="#000000" font-family="sans-serif" font-size="14" lengthAdjust="spacing" textLength="76.6445" x="1980.3681" y="262.9839">parse_args</text><line style="stroke:#181818;stroke-width:0.5;" x1="1949.66" x2="2061.2284" y1="271.2856" y2="271.2856"/><line style="stroke:#181818;stroke-width:0.5;" x1="1949.66" x2="2061.2284" y1="279.2856" y2="279.2856"/><ellipse cx="1959.66" cy="292.9341" fill="#84BE84" rx="3" ry="3" style="stroke:#038048;stroke-width:1;"/><text fill="#000000" font-family="sans-serif" font-size="14" lengthAdjust="spacing" textLength="87.5684" x="1968.66" y="296.2807">parse_args()</text></g><!--class code_analyzer_main--><g class="entity" data-entity="code_analyzer_main" data-source-line="59" data-uid="ent0009" id="entity_code_analyzer_main"><rect fill="#F1F1F1" height="72.5625" rx="2.5" ry="2.5" style="stroke:#181818;stroke-width:0.5;" width="91.7031" x="155.59" y="604.61"/><ellipse cx="170.59" cy="624.7428" fill="#ADD1B2" rx="11" ry="11" style="stroke:#181818;stroke-width:1;"/><path d="M173.5588,630.3834 Q172.9806,630.6803 172.34,630.8209 Q171.6994,630.9772 170.9963,630.9772 Q168.4963,630.9772 167.1681,629.3366 Q165.8556,627.6803 165.8556,624.5553 Q165.8556,621.4303 167.1681,619.7741 Q168.4963,618.1178 170.9963,618.1178 Q171.6994,618.1178 172.34,618.2741 Q172.9963,618.4303 173.5588,618.7272 L173.5588,621.4459 Q172.9338,620.8678 172.34,620.6022 Q171.7463,620.3209 171.1213,620.3209 Q169.7775,620.3209 169.09,621.3991 Q168.4025,622.4616 168.4025,624.5553 Q168.4025,626.6491 169.09,627.7272 Q169.7775,628.7897 171.1213,628.7897 Q171.7463,628.7897 172.34,628.5241 Q172.9338,628.2428 173.5588,627.6647 L173.5588,630.3834 Z " fill="#000000"/><text fill="#000000" font-family="sans-serif" font-size="12" font-style="italic" lengthAdjust="spacing" textLength="63.7031" x="182.59" y="620.7487">&#171;function&#187;</text><text fill="#000000" font-family="sans-serif" font-size="14" lengthAdjust="spacing" textLength="34.9795" x="196.9518" y="636.5739">main</text><line style="stroke:#181818;stroke-width:0.5;" x1="156.59" x2="246.2931" y1="644.8756" y2="644.8756"/><line style="stroke:#181818;stroke-width:0.5;" x1="156.59" x2="246.2931" y1="652.8756" y2="652.8756"/><ellipse cx="166.59" cy="666.5241" fill="#84BE84" rx="3" ry="3" style="stroke:#038048;stroke-width:1;"/><text fill="#000000" font-family="sans-serif" font-size="14" lengthAdjust="spacing" textLength="45.9033" x="175.59" y="669.8707">main()</text></g><!--class ast_NodeVisitor--><g class="entity" data-entity="ast_NodeVisitor" data-source-line="63" data-uid="ent0010" id="entity_ast_NodeVisitor"><rect fill="#F1F1F1" height="48" rx="2.5" ry="2.5" style="stroke:#181818;stroke-width:0.5;" width="141.3613" x="815.76" y="616.89"/><ellipse cx="830.76" cy="632.89" fill="#ADD1B2" rx="11" ry="11" style="stroke:#181818;stroke-width:1;"/><path d="M833.7288,638.5306 Q833.1506,638.8275 832.51,638.9681 Q831.8694,639.1244 831.1663,639.1244 Q828.6663,639.1244 827.3381,637.4838 Q826.0256,635.8275 826.0256,632.7025 Q826.0256,629.5775 827.3381,627.9213 Q828.6663,626.265 831.1663,626.265 Q831.8694,626.265 832.51,626.4213 Q833.1663,626.5775 833.7288,626.8744 L833.7288,629.5931 Q833.1038,629.015 832.51,628.7494 Q831.9163,628.4681 831.2913,628.4681 Q829.9475,628.4681 829.26,629.5463 Q828.5725,630.6088 828.5725,632.7025 Q828.5725,634.7963 829.26,635.8744 Q829.9475,636.9369 831.2913,636.9369 Q831.9163,636.9369 832.51,636.6713 Q833.1038,636.39 833.7288,635.8119 L833.7288,638.5306 Z " fill="#000000"/><text fill="#000000" font-family="sans-serif" font-size="14" lengthAdjust="spacing" textLength="109.3613" x="844.76" y="637.7367">ast_NodeVisitor</text><line style="stroke:#181818;stroke-width:0.5;" x1="816.76" x2="956.1213" y1="648.89" y2="648.89"/><line style="stroke:#181818;stroke-width:0.5;" x1="816.76" x2="956.1213" y1="656.89" y2="656.89"/></g><!--class code_analyzer_CodeVisitor_visit_ClassDef--><g class="entity" data-entity="code_analyzer_CodeVisitor_visit_ClassDef" data-source-line="64" data-uid="ent0012" id="entity_code_analyzer_CodeVisitor_visit_ClassDef"><rect fill="#F1F1F1" height="48" rx="2.5" ry="2.5" style="stroke:#181818;stroke-width:0.5;" width="323.9902" x="2097.45" y="243.3"/><ellipse cx="2112.45" cy="259.3" fill="#ADD1B2" rx="11" ry="11" style="stroke:#181818;stroke-width:1;"/><path d="M2115.4188,264.9406 Q2114.8406,265.2375 2114.2,265.3781 Q2113.5594,265.5344 2112.8563,265.5344 Q2110.3563,265.5344 2109.0281,263.8937 Q2107.7156,262.2375 2107.7156,259.1125 Q2107.7156,255.9875 2109.0281,254.3312 Q2110.3563,252.675 2112.8563,252.675 Q2113.5594,252.675 2114.2,252.8312 Q2114.8563,252.9875 2115.4188,253.2844 L2115.4188,256.0031 Q2114.7938,255.425 2114.2,255.1594 Q2113.6063,254.8781 2112.9813,254.8781 Q2111.6375,254.8781 2110.95,255.9562 Q2110.2625,257.0187 2110.2625,259.1125 Q2110.2625,261.2062 2110.95,262.2844 Q2111.6375,263.3469 2112.9813,263.3469 Q2113.6063,263.3469 2114.2,263.0812 Q2114.7938,262.8 2115.4188,262.2219 L2115.4188,264.9406 Z " fill="#000000"/><text fill="#000000" font-family="sans-serif" font-size="14" lengthAdjust="spacing" textLength="291.9902" x="2126.45" y="264.1467">code_analyzer_CodeVisitor_visit_ClassDef</text><line style="stroke:#181818;stroke-width:0.5;" x1="2098.45" x2="2420.4402" y1="275.3" y2="275.3"/><line style="stroke:#181818;stroke-width:0.5;" x1="2098.45" x2="2420.4402" y1="283.3" y2="283.3"/></g><!--class ast_get_docstring--><g class="entity" data-entity="ast_get_docstring" data-source-line="64" data-uid="ent0013" id="entity_ast_get_docstring"><rect fill="#F1F1F1" height="48" rx="2.5" ry="2.5" style="stroke:#181818;stroke-width:0.5;" width="155.6895" x="2367.6" y="616.89"/><ellipse cx="2382.6" cy="632.89" fill="#ADD1B2" rx="11" ry="11" style="stroke:#181818;stroke-width:1;"/><path d="M2385.5688,638.5306 Q2384.9906,638.8275 2384.35,638.9681 Q2383.7094,639.1244 2383.0063,639.1244 Q2380.5063,639.1244 2379.1781,637.4838 Q2377.8656,635.8275 2377.8656,632.7025 Q2377.8656,629.5775 2379.1781,627.9213 Q2380.5063,626.265 2383.0063,626.265 Q2383.7094,626.265 2384.35,626.4213 Q2385.0063,626.5775 2385.5688,626.8744 L2385.5688,629.5931 Q2384.9438,629.015 2384.35,628.7494 Q2383.7563,628.4681 2383.1313,628.4681 Q2381.7875,628.4681 2381.1,629.5463 Q2380.4125,630.6088 2380.4125,632.7025 Q2380.4125,634.7963 2381.1,635.8744 Q2381.7875,636.9369 2383.1313,636.9369 Q2383.7563,636.9369 2384.35,636.6713 Q2384.9438,636.39 2385.5688,635.8119 L2385.5688,638.5306 Z " fill="#000000"/><text fill="#000000" font-family="sans-serif" font-size="14" lengthAdjust="spacing" textLength="123.6895" x="2396.6" y="637.7367">ast_get_docstring</text><line style="stroke:#181818;stroke-width:0.5;" x1="2368.6" x2="2522.2895" y1="648.89" y2="648.89"/><line style="stroke:#181818;stroke-width:0.5;" x1="2368.6" x2="2522.2895" y1="656.89" y2="656.89"/></g><!--class code_analyzer_CodeVisitor_visit_FunctionDef--><g class="entity" data-entity="code_analyzer_CodeVisitor_visit_FunctionDef" data-source-line="65" data-uid="ent0015" id="entity_code_analyzer_CodeVisitor_visit_FunctionDef"><rect fill="#F1F1F1" height="48" rx="2.5" ry="2.5" style="stroke:#181818;stroke-width:0.5;" width="347.4717" x="2456.71" y="243.3"/><ellipse cx="2471.71" cy="259.3" fill="#ADD1B2" rx="11" ry="11" style="stroke:#181818;stroke-width:1;"/><path d="M2474.6788,264.9406 Q2474.1006,265.2375 2473.46,265.3781 Q2472.8194,265.5344 2472.1163,265.5344 Q2469.6163,265.5344 2468.2881,263.8937 Q2466.9756,262.2375 2466.9756,259.1125 Q2466.9756,255.9875 2468.2881,254.3312 Q2469.6163,252.675 2472.1163,252.675 Q2472.8194,252.675 2473.46,252.8312 Q2474.1163,252.9875 2474.6788,253.2844 L2474.6788,256.0031 Q2474.0538,255.425 2473.46,255.1594 Q2472.8663,254.8781 2472.2413,254.8781 Q2470.8975,254.8781 2470.21,255.9562 Q2469.5225,257.0187 2469.5225,259.1125 Q2469.5225,261.2062 2470.21,262.2844 Q2470.8975,263.3469 2472.2413,263.3469 Q2472.8663,263.3469 2473.46,263.0812 Q2474.0538,262.8 2474.6788,262.2219 L2474.6788,264.9406 Z " fill="#000000"/><text fill="#000000" font-family="sans-serif" font-size="14" lengthAdjust="spacing" textLength="315.4717" x="2485.71" y="264.1467">code_analyzer_CodeVisitor_visit_FunctionDef</text><line style="stroke:#181818;stroke-width:0.5;" x1="2457.71" x2="2803.1817" y1="275.3" y2="275.3"/><line style="stroke:#181818;stroke-width:0.5;" x1="2457.71" x2="2803.1817" y1="283.3" y2="283.3"/></g><!--class ast_parse--><g class="entity" data-entity="ast_parse" data-source-line="66" data-uid="ent0017" id="entity_ast_parse"><rect fill="#F1F1F1" height="48" rx="2.5" ry="2.5" style="stroke:#181818;stroke-width:0.5;" width="99.4912" x="1106.7" y="616.89"/><ellipse cx="1121.7" cy="632.89" fill="#ADD1B2" rx="11" ry="11" style="stroke:#181818;stroke-width:1;"/><path d="M1124.6688,638.5306 Q1124.0906,638.8275 1123.45,638.9681 Q1122.8094,639.1244 1122.1063,639.1244 Q1119.6063,639.1244 1118.2781,637.4838 Q1116.9656,635.8275 1116.9656,632.7025 Q1116.9656,629.5775 1118.2781,627.9213 Q1119.6063,626.265 1122.1063,626.265 Q1122.8094,626.265 1123.45,626.4213 Q1124.1063,626.5775 1124.6688,626.8744 L1124.6688,629.5931 Q1124.0438,629.015 1123.45,628.7494 Q1122.8563,628.4681 1122.2313,628.4681 Q1120.8875,628.4681 1120.2,629.5463 Q1119.5125,630.6088 1119.5125,632.7025 Q1119.5125,634.7963 1120.2,635.8744 Q1120.8875,636.9369 1122.2313,636.9369 Q1122.8563,636.9369 1123.45,636.6713 Q1124.0438,636.39 1124.6688,635.8119 L1124.6688,638.5306 Z " fill="#000000"/><text fill="#000000" font-family="sans-serif" font-size="14" lengthAdjust="spacing" textLength="67.4912" x="1135.7" y="637.7367">ast_parse</text><line style="stroke:#181818;stroke-width:0.5;" x1="1107.7" x2="1205.1912" y1="648.89" y2="648.89"/><line style="stroke:#181818;stroke-width:0.5;" x1="1107.7" x2="1205.1912" y1="656.89" y2="656.89"/></g><!--class os_walk--><g class="entity" data-entity="os_walk" data-source-line="67" data-uid="ent0019" id="entity_os_walk"><rect fill="#F1F1F1" height="48" rx="2.5" ry="2.5" style="stroke:#181818;stroke-width:0.5;" width="86.8857" x="1398" y="616.89"/><ellipse cx="1413" cy="632.89" fill="#ADD1B2" rx="11" ry="11" style="stroke:#181818;stroke-width:1;"/><path d="M1415.9688,638.5306 Q1415.3906,638.8275 1414.75,638.9681 Q1414.1094,639.1244 1413.4063,639.1244 Q1410.9063,639.1244 1409.5781,637.4838 Q1408.2656,635.8275 1408.2656,632.7025 Q1408.2656,629.5775 1409.5781,627.9213 Q1410.9063,626.265 1413.4063,626.265 Q1414.1094,626.265 1414.75,626.4213 Q1415.4063,626.5775 1415.9688,626.8744 L1415.9688,629.5931 Q1415.3438,629.015 1414.75,628.7494 Q1414.1563,628.4681 1413.5313,628.4681 Q1412.1875,628.4681 1411.5,629.5463 Q1410.8125,630.6088 1410.8125,632.7025 Q1410.8125,634.7963 1411.5,635.8744 Q1412.1875,636.9369 1413.5313,636.9369 Q1414.1563,636.9369 1414.75,636.6713 Q1415.3438,636.39 1415.9688,635.8119 L1415.9688,638.5306 Z " fill="#000000"/><text fill="#000000" font-family="sans-serif" font-size="14" lengthAdjust="spacing" textLength="54.8857" x="1427" y="637.7367">os_walk</text><line style="stroke:#181818;stroke-width:0.5;" x1="1399" x2="1483.8857" y1="648.89" y2="648.89"/><line style="stroke:#181818;stroke-width:0.5;" x1="1399" x2="1483.8857" y1="656.89" y2="656.89"/></g><!--class os_makedirs--><g class="entity" data-entity="os_makedirs" data-source-line="68" data-uid="ent0021" id="entity_os_makedirs"><rect fill="#F1F1F1" height="48" rx="2.5" ry="2.5" style="stroke:#181818;stroke-width:0.5;" width="119.623" x="1715.63" y="616.89"/><ellipse cx="1730.63" cy="632.89" fill="#ADD1B2" rx="11" ry="11" style="stroke:#181818;stroke-width:1;"/><path d="M1733.5988,638.5306 Q1733.0206,638.8275 1732.38,638.9681 Q1731.7394,639.1244 1731.0363,639.1244 Q1728.5363,639.1244 1727.2081,637.4838 Q1725.8956,635.8275 1725.8956,632.7025 Q1725.8956,629.5775 1727.2081,627.9213 Q1728.5363,626.265 1731.0363,626.265 Q1731.7394,626.265 1732.38,626.4213 Q1733.0363,626.5775 1733.5988,626.8744 L1733.5988,629.5931 Q1732.9738,629.015 1732.38,628.7494 Q1731.7863,628.4681 1731.1613,628.4681 Q1729.8175,628.4681 1729.13,629.5463 Q1728.4425,630.6088 1728.4425,632.7025 Q1728.4425,634.7963 1729.13,635.8744 Q1729.8175,636.9369 1731.1613,636.9369 Q1731.7863,636.9369 1732.38,636.6713 Q1732.9738,636.39 1733.5988,635.8119 L1733.5988,638.5306 Z " fill="#000000"/><text fill="#000000" font-family="sans-serif" font-size="14" lengthAdjust="spacing" textLength="87.623" x="1744.63" y="637.7367">os_makedirs</text><line style="stroke:#181818;stroke-width:0.5;" x1="1716.63" x2="1834.253" y1="648.89" y2="648.89"/><line style="stroke:#181818;stroke-width:0.5;" x1="1716.63" x2="1834.253" y1="656.89" y2="656.89"/></g><!--class argparse_ArgumentParser--><g class="entity" data-entity="argparse_ArgumentParser" data-source-line="69" data-uid="ent0023" id="entity_argparse_ArgumentParser"><rect fill="#F1F1F1" height="48" rx="2.5" ry="2.5" style="stroke:#181818;stroke-width:0.5;" width="215.4971" x="1897.69" y="616.89"/><ellipse cx="1912.69" cy="632.89" fill="#ADD1B2" rx="11" ry="11" style="stroke:#181818;stroke-width:1;"/><path d="M1915.6588,638.5306 Q1915.0806,638.8275 1914.44,638.9681 Q1913.7994,639.1244 1913.0963,639.1244 Q1910.5963,639.1244 1909.2681,637.4838 Q1907.9556,635.8275 1907.9556,632.7025 Q1907.9556,629.5775 1909.2681,627.9213 Q1910.5963,626.265 1913.0963,626.265 Q1913.7994,626.265 1914.44,626.4213 Q1915.0963,626.5775 1915.6588,626.8744 L1915.6588,629.5931 Q1915.0338,629.015 1914.44,628.7494 Q1913.8463,628.4681 1913.2213,628.4681 Q1911.8775,628.4681 1911.19,629.5463 Q1910.5025,630.6088 1910.5025,632.7025 Q1910.5025,634.7963 1911.19,635.8744 Q1911.8775,636.9369 1913.2213,636.9369 Q1913.8463,636.9369 1914.44,636.6713 Q1915.0338,636.39 1915.6588,635.8119 L1915.6588,638.5306 Z " fill="#000000"/><text fill="#000000" font-family="sans-serif" font-size="14" lengthAdjust="spacing" textLength="183.4971" x="1926.69" y="637.7367">argparse_ArgumentParser</text><line style="stroke:#181818;stroke-width:0.5;" x1="1898.69" x2="2112.1871" y1="648.89" y2="648.89"/><line style="stroke:#181818;stroke-width:0.5;" x1="1898.69" x2="2112.1871" y1="656.89" y2="656.89"/></g><!--link code_analyzer_CodeVisitor to ast_NodeVisitor--><g class="link" data-entity-1="code_analyzer_CodeVisitor" data-entity-2="ast_NodeVisitor" data-source-line="63" data-uid="lnk11" id="link_code_analyzer_CodeVisitor_ast_NodeVisitor"><path codeLine="63" d="M886.44,527.9 C886.44,564.38 886.44,578.34 886.44,598.67 " fill="none" id="code_analyzer_CodeVisitor-to-ast_NodeVisitor" style="stroke:#181818;stroke-width:1;"/><polygon fill="none" points="886.44,616.67,892.44,598.67,880.44,598.67,886.44,616.67" style="stroke:#181818;stroke-width:1;"/></g><!--link code_analyzer_CodeVisitor_visit_ClassDef to ast_get_docstring--><g class="link" data-entity-1="code_analyzer_CodeVisitor_visit_ClassDef" data-entity-2="ast_get_docstring" data-source-line="64" data-uid="lnk14" id="link_code_analyzer_CodeVisitor_visit_ClassDef_ast_get_docstring"><path codeLine="64" d="M2271.08,291.55 C2304.48,358.28 2397.7241,544.5647 2431.1241,611.2847 " fill="none" id="code_analyzer_CodeVisitor_visit_ClassDef-to-ast_get_docstring" style="stroke:#181818;stroke-width:1;stroke-dasharray:7.0,7.0;"/><polygon fill="#181818" points="2433.81,616.65,2433.3581,606.8115,2431.5718,612.1789,2426.2044,610.3927,2433.81,616.65" style="stroke:#181818;stroke-width:1;"/><text fill="#000000" font-family="sans-serif" font-size="13" lengthAdjust="spacing" textLength="29.1104" x="2411.44" y="570.6769">calls</text></g><!--link code_analyzer_CodeVisitor_visit_FunctionDef to ast_get_docstring--><g class="link" data-entity-1="code_analyzer_CodeVisitor_visit_FunctionDef" data-entity-2="ast_get_docstring" data-source-line="65" data-uid="lnk16" id="link_code_analyzer_CodeVisitor_visit_FunctionDef_ast_get_docstring"><path codeLine="65" d="M2618.87,291.55 C2585.65,358.28 2492.9043,544.5589 2459.6843,611.2789 " fill="none" id="code_analyzer_CodeVisitor_visit_FunctionDef-to-ast_get_docstring" style="stroke:#181818;stroke-width:1;stroke-dasharray:7.0,7.0;"/><polygon fill="#181818" points="2457.01,616.65,2464.6021,610.3762,2459.2386,612.1741,2457.4407,606.8106,2457.01,616.65" style="stroke:#181818;stroke-width:1;"/><text fill="#000000" font-family="sans-serif" font-size="13" lengthAdjust="spacing" textLength="29.1104" x="2486.44" y="570.6769">calls</text></g><!--link code_analyzer_analyze_file to ast_parse--><g class="link" data-entity-1="code_analyzer_analyze_file" data-entity-2="ast_parse" data-source-line="66" data-uid="lnk18" id="link_code_analyzer_analyze_file_ast_parse"><path codeLine="66" d="M1156.44,303.93 C1156.44,379.32 1156.44,547.21 1156.44,610.4 " fill="none" id="code_analyzer_analyze_file-to-ast_parse" style="stroke:#181818;stroke-width:1;stroke-dasharray:7.0,7.0;"/><polygon fill="#181818" points="1156.44,616.4,1160.44,607.4,1156.44,611.4,1152.44,607.4,1156.44,616.4" style="stroke:#181818;stroke-width:1;"/><text fill="#000000" font-family="sans-serif" font-size="13" lengthAdjust="spacing" textLength="29.1104" x="1157.44" y="570.6769">calls</text></g><!--link code_analyzer_analyze_directory to os_walk--><g class="link" data-entity-1="code_analyzer_analyze_directory" data-entity-2="os_walk" data-source-line="67" data-uid="lnk20" id="link_code_analyzer_analyze_directory_os_walk"><path codeLine="67" d="M1441.44,303.93 C1441.44,379.32 1441.44,547.21 1441.44,610.4 " fill="none" id="code_analyzer_analyze_directory-to-os_walk" style="stroke:#181818;stroke-width:1;stroke-dasharray:7.0,7.0;"/><polygon fill="#181818" points="1441.44,616.4,1445.44,607.4,1441.44,611.4,1437.44,607.4,1441.44,616.4" style="stroke:#181818;stroke-width:1;"/><text fill="#000000" font-family="sans-serif" font-size="13" lengthAdjust="spacing" textLength="29.1104" x="1442.44" y="570.6769">calls</text></g><!--link code_analyzer_save_diagram to os_makedirs--><g class="link" data-entity-1="code_analyzer_save_diagram" data-entity-2="os_makedirs" data-source-line="68" data-uid="lnk22" id="link_code_analyzer_save_diagram_os_makedirs"><path codeLine="68" d="M1775.44,303.93 C1775.44,379.32 1775.44,547.21 1775.44,610.4 " fill="none" id="code_analyzer_save_diagram-to-os_makedirs" style="stroke:#181818;stroke-width:1;stroke-dasharray:7.0,7.0;"/><polygon fill="#181818" points="1775.44,616.4,1779.44,607.4,1775.44,611.4,1771.44,607.4,1775.44,616.4" style="stroke:#181818;stroke-width:1;"/><text fill="#000000" font-family="sans-serif" font-size="13" lengthAdjust="spacing" textLength="29.1104" x="1776.44" y="570.6769">calls</text></g><!--link code_analyzer_parse_args to argparse_ArgumentParser--><g class="link" data-entity-1="code_analyzer_parse_args" data-entity-2="argparse_ArgumentParser" data-source-line="69" data-uid="lnk24" id="link_code_analyzer_parse_args_argparse_ArgumentParser"><path codeLine="69" d="M2005.44,303.93 C2005.44,379.32 2005.44,547.21 2005.44,610.4 " fill="none" id="code_analyzer_parse_args-to-argparse_ArgumentParser" style="stroke:#181818;stroke-width:1;stroke-dasharray:7.0,7.0;"/><polygon fill="#181818" points="2005.44,616.4,2009.44,607.4,2005.44,611.4,2001.44,607.4,2005.44,616.4" style="stroke:#181818;stroke-width:1;"/><text fill="#000000" font-family="sans-serif" font-size="13" lengthAdjust="spacing" textLength="29.1104" x="2006.44" y="570.6769">calls</text></g><!--SRC=[bLJ9Rjmm3BtFLn2vr4MSV40H311C4Q2NeeUYLu5ZQJngj1YIFAcx_7ibM_B8XUoa5vlYUrn4aNm7Ny_S0kNO6fJmWXQmTrgYumqACK3B53Fe68NZ0ExCeD6K0IeKmqzcThj6eBLmS_3QRznofyqDU2U1HHABP2ZysW6CHaIXPFvmHCji_2UT5fIC92zBviwQ9kJK2t6LLUEuLhbLqlaZEcSIbCjkw49kIZkCpBTekEoqyNMOFTfIIlhuFOdBl4CrVRsYGBrmImXNt15IMIPEDPouO85SWzIq5rCjtWVY9PIE748zFh9Jf2jVqmnzYlTU9JnQorkrWYcr1NyQhxw5FHajo_Z1N_TVXBJCaV0Y_DYxwPuBof-vhM87aL2RGb_bC3myfBVVxySkkytXAdn8X-vSya-vOOtlpc4ZoCpPY3HpgbcgWVreH4z7qER1qsXDdKxY31OoA1CBQPI9rMKQFLi3LrCgoR2SJ-o_DoIqP6vbj6JEAUNnBLwsWkPm8L8EL_5VW-vTrxkn0_9G7Hg_RD2qjX3e2XR2NC4gToYHguAhe2uu2Ufelhedx-v-xxr3HpvVbUjqijmHS7y_6OT9exgnVjPK2n_6xMDVTPCja__oj9Z7P3XMx1M3wsm5Ast92uhd5Pj57qIwn6SMncl597lHCIlJJff7q_QIAVSbd4mo_Wi0]--></g></svg>