<svg xmlns="http://www.w3.org/2000/svg" xmlns:xlink="http://www.w3.org/1999/xlink" contentStyleType="text/css" data-diagram-type="CLASS" height="817px" preserveAspectRatio="none" style="width:3528px;height:817px;background:#FFFFFF;" version="1.1" viewBox="0 0 3528 817" width="3528px" zoomAndPan="magnify"><defs/><g><!--class code_analyzer_ModuleInfo--><g class="entity" data-entity="code_analyzer_ModuleInfo" data-source-line="3" data-uid="ent0002" id="entity_code_analyzer_ModuleInfo"><rect fill="#F1F1F1" height="96.8906" rx="2.5" ry="2.5" style="stroke:#181818;stroke-width:0.5;" width="109.4033" x="1370.81" y="218.85"/><ellipse cx="1385.81" cy="234.85" fill="#ADD1B2" rx="11" ry="11" style="stroke:#181818;stroke-width:1;"/><path d="M1388.7788,240.4906 Q1388.2006,240.7875 1387.56,240.9281 Q1386.9194,241.0844 1386.2163,241.0844 Q1383.7163,241.0844 1382.3881,239.4438 Q1381.0756,237.7875 1381.0756,234.6625 Q1381.0756,231.5375 1382.3881,229.8813 Q1383.7163,228.225 1386.2163,228.225 Q1386.9194,228.225 1387.56,228.3813 Q1388.2163,228.5375 1388.7788,228.8344 L1388.7788,231.5531 Q1388.1538,230.975 1387.56,230.7094 Q1386.9663,230.4281 1386.3413,230.4281 Q1384.9975,230.4281 1384.31,231.5063 Q1383.6225,232.5688 1383.6225,234.6625 Q1383.6225,236.7563 1384.31,237.8344 Q1384.9975,238.8969 1386.3413,238.8969 Q1386.9663,238.8969 1387.56,238.6313 Q1388.1538,238.35 1388.7788,237.7719 L1388.7788,240.4906 Z " fill="#000000"/><text fill="#000000" font-family="sans-serif" font-size="14" lengthAdjust="spacing" textLength="77.4033" x="1399.81" y="239.6967">ModuleInfo</text><line style="stroke:#181818;stroke-width:0.5;" x1="1371.81" x2="1479.2133" y1="250.85" y2="250.85"/><text fill="#000000" font-family="sans-serif" font-size="14" lengthAdjust="spacing" textLength="84.082" x="1376.81" y="267.8451">imports: set</text><text fill="#000000" font-family="sans-serif" font-size="14" lengthAdjust="spacing" textLength="80.3906" x="1376.81" y="284.142">classes: list</text><text fill="#000000" font-family="sans-serif" font-size="14" lengthAdjust="spacing" textLength="94.2129" x="1376.81" y="300.4389">functions: list</text><line style="stroke:#181818;stroke-width:0.5;" x1="1371.81" x2="1479.2133" y1="307.7406" y2="307.7406"/></g><!--class code_analyzer_CodeVisitor--><g class="entity" data-entity="code_analyzer_CodeVisitor" data-source-line="9" data-uid="ent0003" id="entity_code_analyzer_CodeVisitor"><rect fill="#F1F1F1" height="520.6094" rx="2.5" ry="2.5" style="stroke:#181818;stroke-width:0.5;" width="289.7852" x="1515.62" y="7"/><ellipse cx="1616.1117" cy="23" fill="#ADD1B2" rx="11" ry="11" style="stroke:#181818;stroke-width:1;"/><path d="M1619.0804,28.6406 Q1618.5023,28.9375 1617.8617,29.0781 Q1617.2211,29.2344 1616.5179,29.2344 Q1614.0179,29.2344 1612.6898,27.5938 Q1611.3773,25.9375 1611.3773,22.8125 Q1611.3773,19.6875 1612.6898,18.0313 Q1614.0179,16.375 1616.5179,16.375 Q1617.2211,16.375 1617.8617,16.5313 Q1618.5179,16.6875 1619.0804,16.9844 L1619.0804,19.7031 Q1618.4554,19.125 1617.8617,18.8594 Q1617.2679,18.5781 1616.6429,18.5781 Q1615.2992,18.5781 1614.6117,19.6563 Q1613.9242,20.7188 1613.9242,22.8125 Q1613.9242,24.9063 1614.6117,25.9844 Q1615.2992,27.0469 1616.6429,27.0469 Q1617.2679,27.0469 1617.8617,26.7813 Q1618.4554,26.5 1619.0804,25.9219 L1619.0804,28.6406 Z " fill="#000000"/><text fill="#000000" font-family="sans-serif" font-size="14" lengthAdjust="spacing" textLength="80.3018" x="1636.6117" y="27.8467">CodeVisitor</text><line style="stroke:#181818;stroke-width:0.5;" x1="1516.62" x2="1804.4052" y1="39" y2="39"/><text fill="#000000" font-family="sans-serif" font-size="14" lengthAdjust="spacing" textLength="81.457" x="1521.62" y="55.9951">class_name</text><text fill="#000000" font-family="sans-serif" font-size="14" lengthAdjust="spacing" textLength="40.667" x="1521.62" y="72.292">bases</text><text fill="#000000" font-family="sans-serif" font-size="14" lengthAdjust="spacing" textLength="80.0762" x="1521.62" y="88.5889">base_name</text><text fill="#000000" font-family="sans-serif" font-size="14" lengthAdjust="spacing" textLength="63.0957" x="1521.62" y="104.8857">old_class</text><text fill="#000000" font-family="sans-serif" font-size="14" lengthAdjust="spacing" textLength="100.7686" x="1521.62" y="121.1826">method_name</text><text fill="#000000" font-family="sans-serif" font-size="14" lengthAdjust="spacing" textLength="68.2842" x="1521.62" y="137.4795">full_name</text><text fill="#000000" font-family="sans-serif" font-size="14" lengthAdjust="spacing" textLength="103.8926" x="1521.62" y="153.7764">function_name</text><text fill="#000000" font-family="sans-serif" font-size="14" lengthAdjust="spacing" textLength="85.5313" x="1521.62" y="170.0732">old_function</text><text fill="#000000" font-family="sans-serif" font-size="14" lengthAdjust="spacing" textLength="72.0166" x="1521.62" y="186.3701">attr_name</text><text fill="#000000" font-family="sans-serif" font-size="14" lengthAdjust="spacing" textLength="72.0166" x="1521.62" y="202.667">attr_name</text><text fill="#000000" font-family="sans-serif" font-size="14" lengthAdjust="spacing" textLength="114.0508" x="1521.62" y="218.9639">type_annotation</text><text fill="#000000" font-family="sans-serif" font-size="14" lengthAdjust="spacing" textLength="114.0508" x="1521.62" y="235.2607">type_annotation</text><text fill="#000000" font-family="sans-serif" font-size="14" lengthAdjust="spacing" textLength="114.0508" x="1521.62" y="251.5576">type_annotation</text><text fill="#000000" font-family="sans-serif" font-size="14" lengthAdjust="spacing" textLength="110.4277" x="1521.62" y="267.8545">imported_name</text><text fill="#000000" font-family="sans-serif" font-size="14" lengthAdjust="spacing" textLength="62.5762" x="1521.62" y="284.1514">as_name</text><text fill="#000000" font-family="sans-serif" font-size="14" lengthAdjust="spacing" textLength="68.2842" x="1521.62" y="300.4482">full_name</text><text fill="#000000" font-family="sans-serif" font-size="14" lengthAdjust="spacing" textLength="68.0449" x="1521.62" y="316.7451">obj_name</text><text fill="#000000" font-family="sans-serif" font-size="14" lengthAdjust="spacing" textLength="100.7686" x="1521.62" y="333.042">method_name</text><text fill="#000000" font-family="sans-serif" font-size="14" lengthAdjust="spacing" textLength="38.4248" x="1521.62" y="349.3389">caller</text><text fill="#000000" font-family="sans-serif" font-size="14" lengthAdjust="spacing" textLength="41.5557" x="1521.62" y="365.6357">called</text><line style="stroke:#181818;stroke-width:0.5;" x1="1516.62" x2="1804.4052" y1="372.9375" y2="372.9375"/><ellipse cx="1526.62" cy="386.5859" fill="#84BE84" rx="3" ry="3" style="stroke:#038048;stroke-width:1;"/><text fill="#000000" font-family="sans-serif" font-size="14" lengthAdjust="spacing" textLength="263.7852" x="1535.62" y="389.9326">__init__(self, filename, module_name)</text><ellipse cx="1526.62" cy="402.8828" fill="#84BE84" rx="3" ry="3" style="stroke:#038048;stroke-width:1;"/><text fill="#000000" font-family="sans-serif" font-size="14" lengthAdjust="spacing" textLength="176.4902" x="1535.62" y="406.2295">visit_ClassDef(self, node)</text><ellipse cx="1526.62" cy="419.1797" fill="#84BE84" rx="3" ry="3" style="stroke:#038048;stroke-width:1;"/><text fill="#000000" font-family="sans-serif" font-size="14" lengthAdjust="spacing" textLength="199.9717" x="1535.62" y="422.5264">visit_FunctionDef(self, node)</text><ellipse cx="1526.62" cy="435.4766" fill="#84BE84" rx="3" ry="3" style="stroke:#038048;stroke-width:1;"/><text fill="#000000" font-family="sans-serif" font-size="14" lengthAdjust="spacing" textLength="161.1504" x="1535.62" y="438.8232">visit_Assign(self, node)</text><ellipse cx="1526.62" cy="451.7734" fill="#84BE84" rx="3" ry="3" style="stroke:#038048;stroke-width:1;"/><text fill="#000000" font-family="sans-serif" font-size="14" lengthAdjust="spacing" textLength="188.4736" x="1535.62" y="455.1201">visit_AnnAssign(self, node)</text><ellipse cx="1526.62" cy="468.0703" fill="#84BE84" rx="3" ry="3" style="stroke:#038048;stroke-width:1;"/><text fill="#000000" font-family="sans-serif" font-size="14" lengthAdjust="spacing" textLength="161.7998" x="1535.62" y="471.417">visit_Import(self, node)</text><ellipse cx="1526.62" cy="484.3672" fill="#84BE84" rx="3" ry="3" style="stroke:#038048;stroke-width:1;"/><text fill="#000000" font-family="sans-serif" font-size="14" lengthAdjust="spacing" textLength="197.8115" x="1535.62" y="487.7139">visit_ImportFrom(self, node)</text><ellipse cx="1526.62" cy="500.6641" fill="#84BE84" rx="3" ry="3" style="stroke:#038048;stroke-width:1;"/><text fill="#000000" font-family="sans-serif" font-size="14" lengthAdjust="spacing" textLength="141.4697" x="1535.62" y="504.0107">visit_Call(self, node)</text><ellipse cx="1526.62" cy="516.9609" fill="#84BE84" rx="3" ry="3" style="stroke:#038048;stroke-width:1;"/><text fill="#000000" font-family="sans-serif" font-size="14" lengthAdjust="spacing" textLength="224.2461" x="1535.62" y="520.3076">_get_attribute_name(self, node)</text></g><!--class code_analyzer_InvalidPathError--><g class="entity" data-entity="code_analyzer_InvalidPathError" data-source-line="41" data-uid="ent0004" id="entity_code_analyzer_InvalidPathError"><rect fill="#F1F1F1" height="64.2969" rx="2.5" ry="2.5" style="stroke:#181818;stroke-width:0.5;" width="152.5195" x="1840.25" y="235.15"/><ellipse cx="1858.8162" cy="251.15" fill="#ADD1B2" rx="11" ry="11" style="stroke:#181818;stroke-width:1;"/><path d="M1861.7849,256.7906 Q1861.2068,257.0875 1860.5662,257.2281 Q1859.9255,257.3844 1859.2224,257.3844 Q1856.7224,257.3844 1855.3943,255.7437 Q1854.0818,254.0875 1854.0818,250.9625 Q1854.0818,247.8375 1855.3943,246.1812 Q1856.7224,244.525 1859.2224,244.525 Q1859.9255,244.525 1860.5662,244.6812 Q1861.2224,244.8375 1861.7849,245.1344 L1861.7849,247.8531 Q1861.1599,247.275 1860.5662,247.0094 Q1859.9724,246.7281 1859.3474,246.7281 Q1858.0037,246.7281 1857.3162,247.8062 Q1856.6287,248.8687 1856.6287,250.9625 Q1856.6287,253.0562 1857.3162,254.1344 Q1858.0037,255.1969 1859.3474,255.1969 Q1859.9724,255.1969 1860.5662,254.9312 Q1861.1599,254.65 1861.7849,254.0719 L1861.7849,256.7906 Z " fill="#000000"/><text fill="#000000" font-family="sans-serif" font-size="14" lengthAdjust="spacing" textLength="112.5947" x="1873.6086" y="255.9967">InvalidPathError</text><line style="stroke:#181818;stroke-width:0.5;" x1="1841.25" x2="1991.7695" y1="267.15" y2="267.15"/><line style="stroke:#181818;stroke-width:0.5;" x1="1841.25" x2="1991.7695" y1="275.15" y2="275.15"/><ellipse cx="1851.25" cy="288.7984" fill="#84BE84" rx="3" ry="3" style="stroke:#038048;stroke-width:1;"/><text fill="#000000" font-family="sans-serif" font-size="14" lengthAdjust="spacing" textLength="126.5195" x="1860.25" y="292.1451">__init__(self, path)</text></g><!--class code_analyzer_NoFilesAnalyzedError--><g class="entity" data-entity="code_analyzer_NoFilesAnalyzedError" data-source-line="45" data-uid="ent0005" id="entity_code_analyzer_NoFilesAnalyzedError"><rect fill="#F1F1F1" height="64.2969" rx="2.5" ry="2.5" style="stroke:#181818;stroke-width:0.5;" width="181.5088" x="2027.75" y="235.15"/><ellipse cx="2042.75" cy="251.15" fill="#ADD1B2" rx="11" ry="11" style="stroke:#181818;stroke-width:1;"/><path d="M2045.7188,256.7906 Q2045.1406,257.0875 2044.5,257.2281 Q2043.8594,257.3844 2043.1563,257.3844 Q2040.6563,257.3844 2039.3281,255.7437 Q2038.0156,254.0875 2038.0156,250.9625 Q2038.0156,247.8375 2039.3281,246.1812 Q2040.6563,244.525 2043.1563,244.525 Q2043.8594,244.525 2044.5,244.6812 Q2045.1563,244.8375 2045.7188,245.1344 L2045.7188,247.8531 Q2045.0938,247.275 2044.5,247.0094 Q2043.9063,246.7281 2043.2813,246.7281 Q2041.9375,246.7281 2041.25,247.8062 Q2040.5625,248.8687 2040.5625,250.9625 Q2040.5625,253.0562 2041.25,254.1344 Q2041.9375,255.1969 2043.2813,255.1969 Q2043.9063,255.1969 2044.5,254.9312 Q2045.0938,254.65 2045.7188,254.0719 L2045.7188,256.7906 Z " fill="#000000"/><text fill="#000000" font-family="sans-serif" font-size="14" lengthAdjust="spacing" textLength="149.5088" x="2056.75" y="255.9967">NoFilesAnalyzedError</text><line style="stroke:#181818;stroke-width:0.5;" x1="2028.75" x2="2208.2588" y1="267.15" y2="267.15"/><line style="stroke:#181818;stroke-width:0.5;" x1="2028.75" x2="2208.2588" y1="275.15" y2="275.15"/><ellipse cx="2038.75" cy="288.7984" fill="#84BE84" rx="3" ry="3" style="stroke:#038048;stroke-width:1;"/><text fill="#000000" font-family="sans-serif" font-size="14" lengthAdjust="spacing" textLength="85.791" x="2047.75" y="292.1451">__init__(self)</text></g><!--class code_analyzer_analyze_file--><g class="entity" data-entity="code_analyzer_analyze_file" data-source-line="49" data-uid="ent0006" id="entity_code_analyzer_analyze_file"><rect fill="#F1F1F1" height="72.5625" rx="2.5" ry="2.5" style="stroke:#181818;stroke-width:0.5;" width="179.5625" x="2244.73" y="231.02"/><ellipse cx="2289.0166" cy="251.1528" fill="#ADD1B2" rx="11" ry="11" style="stroke:#181818;stroke-width:1;"/><path d="M2291.9854,256.7934 Q2291.4072,257.0903 2290.7666,257.2309 Q2290.126,257.3872 2289.4229,257.3872 Q2286.9229,257.3872 2285.5947,255.7466 Q2284.2822,254.0903 2284.2822,250.9653 Q2284.2822,247.8403 2285.5947,246.1841 Q2286.9229,244.5278 2289.4229,244.5278 Q2290.126,244.5278 2290.7666,244.6841 Q2291.4229,244.8403 2291.9854,245.1372 L2291.9854,247.8559 Q2291.3604,247.2778 2290.7666,247.0122 Q2290.1729,246.7309 2289.5479,246.7309 Q2288.2041,246.7309 2287.5166,247.8091 Q2286.8291,248.8716 2286.8291,250.9653 Q2286.8291,253.0591 2287.5166,254.1372 Q2288.2041,255.1997 2289.5479,255.1997 Q2290.1729,255.1997 2290.7666,254.9341 Q2291.3604,254.6528 2291.9854,254.0747 L2291.9854,256.7934 Z " fill="#000000"/><text fill="#000000" font-family="sans-serif" font-size="12" font-style="italic" lengthAdjust="spacing" textLength="63.7031" x="2318.9097" y="247.1587">&#171;function&#187;</text><text fill="#000000" font-family="sans-serif" font-size="14" lengthAdjust="spacing" textLength="82.4893" x="2309.5166" y="262.9839">analyze_file</text><line style="stroke:#181818;stroke-width:0.5;" x1="2245.73" x2="2423.2925" y1="271.2856" y2="271.2856"/><line style="stroke:#181818;stroke-width:0.5;" x1="2245.73" x2="2423.2925" y1="279.2856" y2="279.2856"/><ellipse cx="2255.73" cy="292.9341" fill="#84BE84" rx="3" ry="3" style="stroke:#038048;stroke-width:1;"/><text fill="#000000" font-family="sans-serif" font-size="14" lengthAdjust="spacing" textLength="153.5625" x="2264.73" y="296.2807">analyze_file(file_path)</text></g><!--class code_analyzer_analyze_directory--><g class="entity" data-entity="code_analyzer_analyze_directory" data-source-line="53" data-uid="ent0007" id="entity_code_analyzer_analyze_directory"><rect fill="#F1F1F1" height="72.5625" rx="2.5" ry="2.5" style="stroke:#181818;stroke-width:0.5;" width="320.5537" x="2459.23" y="231.02"/><ellipse cx="2553.2036" cy="251.1528" fill="#ADD1B2" rx="11" ry="11" style="stroke:#181818;stroke-width:1;"/><path d="M2556.1724,256.7934 Q2555.5943,257.0903 2554.9536,257.2309 Q2554.313,257.3872 2553.6099,257.3872 Q2551.1099,257.3872 2549.7818,255.7466 Q2548.4693,254.0903 2548.4693,250.9653 Q2548.4693,247.8403 2549.7818,246.1841 Q2551.1099,244.5278 2553.6099,244.5278 Q2554.313,244.5278 2554.9536,244.6841 Q2555.6099,244.8403 2556.1724,245.1372 L2556.1724,247.8559 Q2555.5474,247.2778 2554.9536,247.0122 Q2554.3599,246.7309 2553.7349,246.7309 Q2552.3911,246.7309 2551.7036,247.8091 Q2551.0161,248.8716 2551.0161,250.9653 Q2551.0161,253.0591 2551.7036,254.1372 Q2552.3911,255.1997 2553.7349,255.1997 Q2554.3599,255.1997 2554.9536,254.9341 Q2555.5474,254.6528 2556.1724,254.0747 L2556.1724,256.7934 Z " fill="#000000"/><text fill="#000000" font-family="sans-serif" font-size="12" font-style="italic" lengthAdjust="spacing" textLength="63.7031" x="2603.9053" y="247.1587">&#171;function&#187;</text><text fill="#000000" font-family="sans-serif" font-size="14" lengthAdjust="spacing" textLength="124.1064" x="2573.7036" y="262.9839">analyze_directory</text><line style="stroke:#181818;stroke-width:0.5;" x1="2460.23" x2="2778.7837" y1="271.2856" y2="271.2856"/><line style="stroke:#181818;stroke-width:0.5;" x1="2460.23" x2="2778.7837" y1="279.2856" y2="279.2856"/><ellipse cx="2470.23" cy="292.9341" fill="#84BE84" rx="3" ry="3" style="stroke:#038048;stroke-width:1;"/><text fill="#000000" font-family="sans-serif" font-size="14" lengthAdjust="spacing" textLength="294.5537" x="2479.23" y="296.2807">analyze_directory(directory, exclude_dirs)</text></g><!--class code_analyzer__add_classes_to_diagram--><g class="entity" data-entity="code_analyzer__add_classes_to_diagram" data-source-line="57" data-uid="ent0008" id="entity_code_analyzer__add_classes_to_diagram"><rect fill="#F1F1F1" height="72.5625" rx="2.5" ry="2.5" style="stroke:#181818;stroke-width:0.5;" width="331.7852" x="85.62" y="231.02"/><ellipse cx="158.621" cy="251.1528" fill="#ADD1B2" rx="11" ry="11" style="stroke:#181818;stroke-width:1;"/><path d="M161.5897,256.7934 Q161.0116,257.0903 160.371,257.2309 Q159.7304,257.3872 159.0272,257.3872 Q156.5272,257.3872 155.1991,255.7466 Q153.8866,254.0903 153.8866,250.9653 Q153.8866,247.8403 155.1991,246.1841 Q156.5272,244.5278 159.0272,244.5278 Q159.7304,244.5278 160.371,244.6841 Q161.0272,244.8403 161.5897,245.1372 L161.5897,247.8559 Q160.9647,247.2778 160.371,247.0122 Q159.7772,246.7309 159.1522,246.7309 Q157.8085,246.7309 157.121,247.8091 Q156.4335,248.8716 156.4335,250.9653 Q156.4335,253.0591 157.121,254.1372 Q157.8085,255.1997 159.1522,255.1997 Q159.7772,255.1997 160.371,254.9341 Q160.9647,254.6528 161.5897,254.0747 L161.5897,256.7934 Z " fill="#000000"/><text fill="#000000" font-family="sans-serif" font-size="12" font-style="italic" lengthAdjust="spacing" textLength="63.7031" x="235.911" y="247.1587">&#171;function&#187;</text><text fill="#000000" font-family="sans-serif" font-size="14" lengthAdjust="spacing" textLength="177.2832" x="179.121" y="262.9839">_add_classes_to_diagram</text><line style="stroke:#181818;stroke-width:0.5;" x1="86.62" x2="416.4052" y1="271.2856" y2="271.2856"/><line style="stroke:#181818;stroke-width:0.5;" x1="86.62" x2="416.4052" y1="279.2856" y2="279.2856"/><ellipse cx="96.62" cy="292.9341" fill="#84BE84" rx="3" ry="3" style="stroke:#038048;stroke-width:1;"/><text fill="#000000" font-family="sans-serif" font-size="14" lengthAdjust="spacing" textLength="305.7852" x="105.62" y="296.2807">_add_classes_to_diagram(visitors, diagram)</text></g><!--class code_analyzer__add_functions_to_diagram--><g class="entity" data-entity="code_analyzer__add_functions_to_diagram" data-source-line="61" data-uid="ent0009" id="entity_code_analyzer__add_functions_to_diagram"><rect fill="#F1F1F1" height="72.5625" rx="2.5" ry="2.5" style="stroke:#181818;stroke-width:0.5;" width="345.6074" x="452.71" y="231.02"/><ellipse cx="525.711" cy="251.1528" fill="#ADD1B2" rx="11" ry="11" style="stroke:#181818;stroke-width:1;"/><path d="M528.6797,256.7934 Q528.1016,257.0903 527.461,257.2309 Q526.8204,257.3872 526.1172,257.3872 Q523.6172,257.3872 522.2891,255.7466 Q520.9766,254.0903 520.9766,250.9653 Q520.9766,247.8403 522.2891,246.1841 Q523.6172,244.5278 526.1172,244.5278 Q526.8204,244.5278 527.461,244.6841 Q528.1172,244.8403 528.6797,245.1372 L528.6797,247.8559 Q528.0547,247.2778 527.461,247.0122 Q526.8672,246.7309 526.2422,246.7309 Q524.8985,246.7309 524.211,247.8091 Q523.5235,248.8716 523.5235,250.9653 Q523.5235,253.0591 524.211,254.1372 Q524.8985,255.1997 526.2422,255.1997 Q526.8672,255.1997 527.461,254.9341 Q528.0547,254.6528 528.6797,254.0747 L528.6797,256.7934 Z " fill="#000000"/><text fill="#000000" font-family="sans-serif" font-size="12" font-style="italic" lengthAdjust="spacing" textLength="63.7031" x="609.9121" y="247.1587">&#171;function&#187;</text><text fill="#000000" font-family="sans-serif" font-size="14" lengthAdjust="spacing" textLength="191.1055" x="546.211" y="262.9839">_add_functions_to_diagram</text><line style="stroke:#181818;stroke-width:0.5;" x1="453.71" x2="797.3174" y1="271.2856" y2="271.2856"/><line style="stroke:#181818;stroke-width:0.5;" x1="453.71" x2="797.3174" y1="279.2856" y2="279.2856"/><ellipse cx="463.71" cy="292.9341" fill="#84BE84" rx="3" ry="3" style="stroke:#038048;stroke-width:1;"/><text fill="#000000" font-family="sans-serif" font-size="14" lengthAdjust="spacing" textLength="319.6074" x="472.71" y="296.2807">_add_functions_to_diagram(visitors, diagram)</text></g><!--class code_analyzer__add_relationships_to_diagram--><g class="entity" data-entity="code_analyzer__add_relationships_to_diagram" data-source-line="65" data-uid="ent0010" id="entity_code_analyzer__add_relationships_to_diagram"><rect fill="#F1F1F1" height="72.5625" rx="2.5" ry="2.5" style="stroke:#181818;stroke-width:0.5;" width="502.123" x="833.45" y="231.02"/><ellipse cx="972.0042" cy="251.1528" fill="#ADD1B2" rx="11" ry="11" style="stroke:#181818;stroke-width:1;"/><path d="M974.9729,256.7934 Q974.3948,257.0903 973.7542,257.2309 Q973.1136,257.3872 972.4104,257.3872 Q969.9104,257.3872 968.5823,255.7466 Q967.2698,254.0903 967.2698,250.9653 Q967.2698,247.8403 968.5823,246.1841 Q969.9104,244.5278 972.4104,244.5278 Q973.1136,244.5278 973.7542,244.6841 Q974.4104,244.8403 974.9729,245.1372 L974.9729,247.8559 Q974.3479,247.2778 973.7542,247.0122 Q973.1604,246.7309 972.5354,246.7309 Q971.1917,246.7309 970.5042,247.8091 Q969.8167,248.8716 969.8167,250.9653 Q969.8167,253.0591 970.5042,254.1372 Q971.1917,255.1997 972.5354,255.1997 Q973.1604,255.1997 973.7542,254.9341 Q974.3479,254.6528 974.9729,254.0747 L974.9729,256.7934 Z " fill="#000000"/><text fill="#000000" font-family="sans-serif" font-size="12" font-style="italic" lengthAdjust="spacing" textLength="63.7031" x="1068.91" y="247.1587">&#171;function&#187;</text><text fill="#000000" font-family="sans-serif" font-size="14" lengthAdjust="spacing" textLength="216.5146" x="992.5042" y="262.9839">_add_relationships_to_diagram</text><line style="stroke:#181818;stroke-width:0.5;" x1="834.45" x2="1334.573" y1="271.2856" y2="271.2856"/><line style="stroke:#181818;stroke-width:0.5;" x1="834.45" x2="1334.573" y1="279.2856" y2="279.2856"/><ellipse cx="844.45" cy="292.9341" fill="#84BE84" rx="3" ry="3" style="stroke:#038048;stroke-width:1;"/><text fill="#000000" font-family="sans-serif" font-size="14" lengthAdjust="spacing" textLength="476.123" x="853.45" y="296.2807">_add_relationships_to_diagram(visitors, diagram, include_functions)</text></g><!--class code_analyzer_generate_class_diagram--><g class="entity" data-entity="code_analyzer_generate_class_diagram" data-source-line="69" data-uid="ent0011" id="entity_code_analyzer_generate_class_diagram"><rect fill="#F1F1F1" height="72.5625" rx="2.5" ry="2.5" style="stroke:#181818;stroke-width:0.5;" width="388.8857" x="57.07" y="604.6"/><ellipse cx="162.0666" cy="624.7328" fill="#ADD1B2" rx="11" ry="11" style="stroke:#181818;stroke-width:1;"/><path d="M165.0353,630.3734 Q164.4572,630.6703 163.8166,630.8109 Q163.176,630.9672 162.4728,630.9672 Q159.9728,630.9672 158.6447,629.3266 Q157.3322,627.6703 157.3322,624.5453 Q157.3322,621.4203 158.6447,619.7641 Q159.9728,618.1078 162.4728,618.1078 Q163.176,618.1078 163.8166,618.2641 Q164.4728,618.4203 165.0353,618.7172 L165.0353,621.4359 Q164.4103,620.8578 163.8166,620.5922 Q163.2228,620.3109 162.5978,620.3109 Q161.2541,620.3109 160.5666,621.3891 Q159.8791,622.4516 159.8791,624.5453 Q159.8791,626.6391 160.5666,627.7172 Q161.2541,628.7797 162.5978,628.7797 Q163.2228,628.7797 163.8166,628.5141 Q164.4103,628.2328 165.0353,627.6547 L165.0353,630.3734 Z " fill="#000000"/><text fill="#000000" font-family="sans-serif" font-size="12" font-style="italic" lengthAdjust="spacing" textLength="63.7031" x="235.9113" y="620.7387">&#171;function&#187;</text><text fill="#000000" font-family="sans-serif" font-size="14" lengthAdjust="spacing" textLength="170.3926" x="182.5666" y="636.5639">generate_class_diagram</text><line style="stroke:#181818;stroke-width:0.5;" x1="58.07" x2="444.9557" y1="644.8656" y2="644.8656"/><line style="stroke:#181818;stroke-width:0.5;" x1="58.07" x2="444.9557" y1="652.8656" y2="652.8656"/><ellipse cx="68.07" cy="666.5141" fill="#84BE84" rx="3" ry="3" style="stroke:#038048;stroke-width:1;"/><text fill="#000000" font-family="sans-serif" font-size="14" lengthAdjust="spacing" textLength="362.8857" x="77.07" y="669.8607">generate_class_diagram(visitors, include_functions)</text></g><!--class code_analyzer_generate_module_diagram--><g class="entity" data-entity="code_analyzer_generate_module_diagram" data-source-line="73" data-uid="ent0012" id="entity_code_analyzer_generate_module_diagram"><rect fill="#F1F1F1" height="72.5625" rx="2.5" ry="2.5" style="stroke:#181818;stroke-width:0.5;" width="275.4912" x="480.76" y="604.6"/><ellipse cx="520.684" cy="624.7328" fill="#ADD1B2" rx="11" ry="11" style="stroke:#181818;stroke-width:1;"/><path d="M523.6528,630.3734 Q523.0746,630.6703 522.434,630.8109 Q521.7934,630.9672 521.0903,630.9672 Q518.5903,630.9672 517.2621,629.3266 Q515.9496,627.6703 515.9496,624.5453 Q515.9496,621.4203 517.2621,619.7641 Q518.5903,618.1078 521.0903,618.1078 Q521.7934,618.1078 522.434,618.2641 Q523.0903,618.4203 523.6528,618.7172 L523.6528,621.4359 Q523.0278,620.8578 522.434,620.5922 Q521.8403,620.3109 521.2153,620.3109 Q519.8715,620.3109 519.184,621.3891 Q518.4965,622.4516 518.4965,624.5453 Q518.4965,626.6391 519.184,627.7172 Q519.8715,628.7797 521.2153,628.7797 Q521.8403,628.7797 522.434,628.5141 Q523.0278,628.2328 523.6528,627.6547 L523.6528,630.3734 Z " fill="#000000"/><text fill="#000000" font-family="sans-serif" font-size="12" font-style="italic" lengthAdjust="spacing" textLength="63.7031" x="602.4234" y="620.7387">&#171;function&#187;</text><text fill="#000000" font-family="sans-serif" font-size="14" lengthAdjust="spacing" textLength="188.1045" x="540.2227" y="636.5639">generate_module_diagram</text><line style="stroke:#181818;stroke-width:0.5;" x1="481.76" x2="755.2512" y1="644.8656" y2="644.8656"/><line style="stroke:#181818;stroke-width:0.5;" x1="481.76" x2="755.2512" y1="652.8656" y2="652.8656"/><ellipse cx="491.76" cy="666.5141" fill="#84BE84" rx="3" ry="3" style="stroke:#038048;stroke-width:1;"/><text fill="#000000" font-family="sans-serif" font-size="14" lengthAdjust="spacing" textLength="249.4912" x="500.76" y="669.8607">generate_module_diagram(visitors)</text></g><!--class code_analyzer_save_diagram--><g class="entity" data-entity="code_analyzer_save_diagram" data-source-line="77" data-uid="ent0013" id="entity_code_analyzer_save_diagram"><rect fill="#F1F1F1" height="72.5625" rx="2.5" ry="2.5" style="stroke:#181818;stroke-width:0.5;" width="276.5234" x="791.25" y="604.6"/><ellipse cx="876.2686" cy="624.7328" fill="#ADD1B2" rx="11" ry="11" style="stroke:#181818;stroke-width:1;"/><path d="M879.2373,630.3734 Q878.6592,630.6703 878.0186,630.8109 Q877.3779,630.9672 876.6748,630.9672 Q874.1748,630.9672 872.8467,629.3266 Q871.5342,627.6703 871.5342,624.5453 Q871.5342,621.4203 872.8467,619.7641 Q874.1748,618.1078 876.6748,618.1078 Q877.3779,618.1078 878.0186,618.2641 Q878.6748,618.4203 879.2373,618.7172 L879.2373,621.4359 Q878.6123,620.8578 878.0186,620.5922 Q877.4248,620.3109 876.7998,620.3109 Q875.4561,620.3109 874.7686,621.3891 Q874.0811,622.4516 874.0811,624.5453 Q874.0811,626.6391 874.7686,627.7172 Q875.4561,628.7797 876.7998,628.7797 Q877.4248,628.7797 878.0186,628.5141 Q878.6123,628.2328 879.2373,627.6547 L879.2373,630.3734 Z " fill="#000000"/><text fill="#000000" font-family="sans-serif" font-size="12" font-style="italic" lengthAdjust="spacing" textLength="63.7031" x="913.9102" y="620.7387">&#171;function&#187;</text><text fill="#000000" font-family="sans-serif" font-size="14" lengthAdjust="spacing" textLength="97.9863" x="896.7686" y="636.5639">save_diagram</text><line style="stroke:#181818;stroke-width:0.5;" x1="792.25" x2="1066.7734" y1="644.8656" y2="644.8656"/><line style="stroke:#181818;stroke-width:0.5;" x1="792.25" x2="1066.7734" y1="652.8656" y2="652.8656"/><ellipse cx="802.25" cy="666.5141" fill="#84BE84" rx="3" ry="3" style="stroke:#038048;stroke-width:1;"/><text fill="#000000" font-family="sans-serif" font-size="14" lengthAdjust="spacing" textLength="250.5234" x="811.25" y="669.8607">save_diagram(diagram, output_file)</text></g><!--class code_analyzer_analyze_and_generate_diagram--><g class="entity" data-entity="code_analyzer_analyze_and_generate_diagram" data-source-line="81" data-uid="ent0014" id="entity_code_analyzer_analyze_and_generate_diagram"><rect fill="#F1F1F1" height="72.5625" rx="2.5" ry="2.5" style="stroke:#181818;stroke-width:0.5;" width="489.0186" x="7" y="738.17"/><ellipse cx="135.6865" cy="758.3028" fill="#ADD1B2" rx="11" ry="11" style="stroke:#181818;stroke-width:1;"/><path d="M138.6553,763.9434 Q138.0771,764.2403 137.4365,764.3809 Q136.7959,764.5372 136.0928,764.5372 Q133.5928,764.5372 132.2646,762.8966 Q130.9521,761.2403 130.9521,758.1153 Q130.9521,754.9903 132.2646,753.3341 Q133.5928,751.6778 136.0928,751.6778 Q136.7959,751.6778 137.4365,751.8341 Q138.0928,751.9903 138.6553,752.2872 L138.6553,755.0059 Q138.0303,754.4278 137.4365,754.1622 Q136.8428,753.8809 136.2178,753.8809 Q134.874,753.8809 134.1865,754.9591 Q133.499,756.0216 133.499,758.1153 Q133.499,760.2091 134.1865,761.2872 Q134.874,762.3497 136.2178,762.3497 Q136.8428,762.3497 137.4365,762.0841 Q138.0303,761.8028 138.6553,761.2247 L138.6553,763.9434 Z " fill="#000000"/><text fill="#000000" font-family="sans-serif" font-size="12" font-style="italic" lengthAdjust="spacing" textLength="63.7031" x="235.9077" y="754.3087">&#171;function&#187;</text><text fill="#000000" font-family="sans-serif" font-size="14" lengthAdjust="spacing" textLength="223.1455" x="156.1865" y="770.1339">analyze_and_generate_diagram</text><line style="stroke:#181818;stroke-width:0.5;" x1="8" x2="495.0186" y1="778.4356" y2="778.4356"/><line style="stroke:#181818;stroke-width:0.5;" x1="8" x2="495.0186" y1="786.4356" y2="786.4356"/><ellipse cx="18" cy="800.0841" fill="#84BE84" rx="3" ry="3" style="stroke:#038048;stroke-width:1;"/><text fill="#000000" font-family="sans-serif" font-size="14" lengthAdjust="spacing" textLength="463.0186" x="27" y="803.4307">analyze_and_generate_diagram(path, output, modules, functions)</text></g><!--class typing_TypedDict--><g class="entity" data-entity="typing_TypedDict" data-source-line="85" data-uid="ent0015" id="entity_typing_TypedDict"><rect fill="#F1F1F1" height="48" rx="2.5" ry="2.5" style="stroke:#181818;stroke-width:0.5;" width="154.3906" x="1348.31" y="616.89"/><ellipse cx="1363.31" cy="632.89" fill="#ADD1B2" rx="11" ry="11" style="stroke:#181818;stroke-width:1;"/><path d="M1366.2788,638.5306 Q1365.7006,638.8275 1365.06,638.9681 Q1364.4194,639.1244 1363.7163,639.1244 Q1361.2163,639.1244 1359.8881,637.4838 Q1358.5756,635.8275 1358.5756,632.7025 Q1358.5756,629.5775 1359.8881,627.9213 Q1361.2163,626.265 1363.7163,626.265 Q1364.4194,626.265 1365.06,626.4213 Q1365.7163,626.5775 1366.2788,626.8744 L1366.2788,629.5931 Q1365.6538,629.015 1365.06,628.7494 Q1364.4663,628.4681 1363.8413,628.4681 Q1362.4975,628.4681 1361.81,629.5463 Q1361.1225,630.6088 1361.1225,632.7025 Q1361.1225,634.7963 1361.81,635.8744 Q1362.4975,636.9369 1363.8413,636.9369 Q1364.4663,636.9369 1365.06,636.6713 Q1365.6538,636.39 1366.2788,635.8119 L1366.2788,638.5306 Z " fill="#000000"/><text fill="#000000" font-family="sans-serif" font-size="14" lengthAdjust="spacing" textLength="122.3906" x="1377.31" y="637.7367">typing_TypedDict</text><line style="stroke:#181818;stroke-width:0.5;" x1="1349.31" x2="1501.7006" y1="648.89" y2="648.89"/><line style="stroke:#181818;stroke-width:0.5;" x1="1349.31" x2="1501.7006" y1="656.89" y2="656.89"/></g><!--class ast_NodeVisitor--><g class="entity" data-entity="ast_NodeVisitor" data-source-line="86" data-uid="ent0017" id="entity_ast_NodeVisitor"><rect fill="#F1F1F1" height="48" rx="2.5" ry="2.5" style="stroke:#181818;stroke-width:0.5;" width="141.3613" x="1589.83" y="616.89"/><ellipse cx="1604.83" cy="632.89" fill="#ADD1B2" rx="11" ry="11" style="stroke:#181818;stroke-width:1;"/><path d="M1607.7988,638.5306 Q1607.2206,638.8275 1606.58,638.9681 Q1605.9394,639.1244 1605.2363,639.1244 Q1602.7363,639.1244 1601.4081,637.4838 Q1600.0956,635.8275 1600.0956,632.7025 Q1600.0956,629.5775 1601.4081,627.9213 Q1602.7363,626.265 1605.2363,626.265 Q1605.9394,626.265 1606.58,626.4213 Q1607.2363,626.5775 1607.7988,626.8744 L1607.7988,629.5931 Q1607.1738,629.015 1606.58,628.7494 Q1605.9863,628.4681 1605.3613,628.4681 Q1604.0175,628.4681 1603.33,629.5463 Q1602.6425,630.6088 1602.6425,632.7025 Q1602.6425,634.7963 1603.33,635.8744 Q1604.0175,636.9369 1605.3613,636.9369 Q1605.9863,636.9369 1606.58,636.6713 Q1607.1738,636.39 1607.7988,635.8119 L1607.7988,638.5306 Z " fill="#000000"/><text fill="#000000" font-family="sans-serif" font-size="14" lengthAdjust="spacing" textLength="109.3613" x="1618.83" y="637.7367">ast_NodeVisitor</text><line style="stroke:#181818;stroke-width:0.5;" x1="1590.83" x2="1730.1913" y1="648.89" y2="648.89"/><line style="stroke:#181818;stroke-width:0.5;" x1="1590.83" x2="1730.1913" y1="656.89" y2="656.89"/></g><!--class ValueError--><g class="entity" data-entity="ValueError" data-source-line="87" data-uid="ent0019" id="entity_ValueError"><rect fill="#F1F1F1" height="48" rx="2.5" ry="2.5" style="stroke:#181818;stroke-width:0.5;" width="106.2109" x="1964.4" y="616.89"/><ellipse cx="1979.4" cy="632.89" fill="#ADD1B2" rx="11" ry="11" style="stroke:#181818;stroke-width:1;"/><path d="M1982.3688,638.5306 Q1981.7906,638.8275 1981.15,638.9681 Q1980.5094,639.1244 1979.8063,639.1244 Q1977.3063,639.1244 1975.9781,637.4838 Q1974.6656,635.8275 1974.6656,632.7025 Q1974.6656,629.5775 1975.9781,627.9213 Q1977.3063,626.265 1979.8063,626.265 Q1980.5094,626.265 1981.15,626.4213 Q1981.8063,626.5775 1982.3688,626.8744 L1982.3688,629.5931 Q1981.7438,629.015 1981.15,628.7494 Q1980.5563,628.4681 1979.9313,628.4681 Q1978.5875,628.4681 1977.9,629.5463 Q1977.2125,630.6088 1977.2125,632.7025 Q1977.2125,634.7963 1977.9,635.8744 Q1978.5875,636.9369 1979.9313,636.9369 Q1980.5563,636.9369 1981.15,636.6713 Q1981.7438,636.39 1982.3688,635.8119 L1982.3688,638.5306 Z " fill="#000000"/><text fill="#000000" font-family="sans-serif" font-size="14" lengthAdjust="spacing" textLength="74.2109" x="1993.4" y="637.7367">ValueError</text><line style="stroke:#181818;stroke-width:0.5;" x1="1965.4" x2="2069.6109" y1="648.89" y2="648.89"/><line style="stroke:#181818;stroke-width:0.5;" x1="1965.4" x2="2069.6109" y1="656.89" y2="656.89"/></g><!--class code_analyzer_CodeVisitor_visit_ClassDef--><g class="entity" data-entity="code_analyzer_CodeVisitor_visit_ClassDef" data-source-line="89" data-uid="ent0022" id="entity_code_analyzer_CodeVisitor_visit_ClassDef"><rect fill="#F1F1F1" height="48" rx="2.5" ry="2.5" style="stroke:#181818;stroke-width:0.5;" width="323.9902" x="2814.51" y="243.3"/><ellipse cx="2829.51" cy="259.3" fill="#ADD1B2" rx="11" ry="11" style="stroke:#181818;stroke-width:1;"/><path d="M2832.4788,264.9406 Q2831.9006,265.2375 2831.26,265.3781 Q2830.6194,265.5344 2829.9163,265.5344 Q2827.4163,265.5344 2826.0881,263.8938 Q2824.7756,262.2375 2824.7756,259.1125 Q2824.7756,255.9875 2826.0881,254.3313 Q2827.4163,252.675 2829.9163,252.675 Q2830.6194,252.675 2831.26,252.8313 Q2831.9163,252.9875 2832.4788,253.2844 L2832.4788,256.0031 Q2831.8538,255.425 2831.26,255.1594 Q2830.6663,254.8781 2830.0413,254.8781 Q2828.6975,254.8781 2828.01,255.9563 Q2827.3225,257.0188 2827.3225,259.1125 Q2827.3225,261.2063 2828.01,262.2844 Q2828.6975,263.3469 2830.0413,263.3469 Q2830.6663,263.3469 2831.26,263.0813 Q2831.8538,262.8 2832.4788,262.2219 L2832.4788,264.9406 Z " fill="#000000"/><text fill="#000000" font-family="sans-serif" font-size="14" lengthAdjust="spacing" textLength="291.9902" x="2843.51" y="264.1467">code_analyzer_CodeVisitor_visit_ClassDef</text><line style="stroke:#181818;stroke-width:0.5;" x1="2815.51" x2="3137.5002" y1="275.3" y2="275.3"/><line style="stroke:#181818;stroke-width:0.5;" x1="2815.51" x2="3137.5002" y1="283.3" y2="283.3"/></g><!--class ast_get_docstring--><g class="entity" data-entity="ast_get_docstring" data-source-line="89" data-uid="ent0023" id="entity_ast_get_docstring"><rect fill="#F1F1F1" height="48" rx="2.5" ry="2.5" style="stroke:#181818;stroke-width:0.5;" width="155.6895" x="3084.66" y="616.89"/><ellipse cx="3099.66" cy="632.89" fill="#ADD1B2" rx="11" ry="11" style="stroke:#181818;stroke-width:1;"/><path d="M3102.6288,638.5306 Q3102.0506,638.8275 3101.41,638.9681 Q3100.7694,639.1244 3100.0663,639.1244 Q3097.5663,639.1244 3096.2381,637.4838 Q3094.9256,635.8275 3094.9256,632.7025 Q3094.9256,629.5775 3096.2381,627.9213 Q3097.5663,626.265 3100.0663,626.265 Q3100.7694,626.265 3101.41,626.4213 Q3102.0663,626.5775 3102.6288,626.8744 L3102.6288,629.5931 Q3102.0038,629.015 3101.41,628.7494 Q3100.8163,628.4681 3100.1913,628.4681 Q3098.8475,628.4681 3098.16,629.5463 Q3097.4725,630.6088 3097.4725,632.7025 Q3097.4725,634.7963 3098.16,635.8744 Q3098.8475,636.9369 3100.1913,636.9369 Q3100.8163,636.9369 3101.41,636.6713 Q3102.0038,636.39 3102.6288,635.8119 L3102.6288,638.5306 Z " fill="#000000"/><text fill="#000000" font-family="sans-serif" font-size="14" lengthAdjust="spacing" textLength="123.6895" x="3113.66" y="637.7367">ast_get_docstring</text><line style="stroke:#181818;stroke-width:0.5;" x1="3085.66" x2="3239.3495" y1="648.89" y2="648.89"/><line style="stroke:#181818;stroke-width:0.5;" x1="3085.66" x2="3239.3495" y1="656.89" y2="656.89"/></g><!--class code_analyzer_CodeVisitor_visit_FunctionDef--><g class="entity" data-entity="code_analyzer_CodeVisitor_visit_FunctionDef" data-source-line="90" data-uid="ent0025" id="entity_code_analyzer_CodeVisitor_visit_FunctionDef"><rect fill="#F1F1F1" height="48" rx="2.5" ry="2.5" style="stroke:#181818;stroke-width:0.5;" width="347.4717" x="3173.77" y="243.3"/><ellipse cx="3188.77" cy="259.3" fill="#ADD1B2" rx="11" ry="11" style="stroke:#181818;stroke-width:1;"/><path d="M3191.7388,264.9406 Q3191.1606,265.2375 3190.52,265.3781 Q3189.8794,265.5344 3189.1763,265.5344 Q3186.6763,265.5344 3185.3481,263.8938 Q3184.0356,262.2375 3184.0356,259.1125 Q3184.0356,255.9875 3185.3481,254.3313 Q3186.6763,252.675 3189.1763,252.675 Q3189.8794,252.675 3190.52,252.8313 Q3191.1763,252.9875 3191.7388,253.2844 L3191.7388,256.0031 Q3191.1138,255.425 3190.52,255.1594 Q3189.9263,254.8781 3189.3013,254.8781 Q3187.9575,254.8781 3187.27,255.9563 Q3186.5825,257.0188 3186.5825,259.1125 Q3186.5825,261.2063 3187.27,262.2844 Q3187.9575,263.3469 3189.3013,263.3469 Q3189.9263,263.3469 3190.52,263.0813 Q3191.1138,262.8 3191.7388,262.2219 L3191.7388,264.9406 Z " fill="#000000"/><text fill="#000000" font-family="sans-serif" font-size="14" lengthAdjust="spacing" textLength="315.4717" x="3202.77" y="264.1467">code_analyzer_CodeVisitor_visit_FunctionDef</text><line style="stroke:#181818;stroke-width:0.5;" x1="3174.77" x2="3520.2417" y1="275.3" y2="275.3"/><line style="stroke:#181818;stroke-width:0.5;" x1="3174.77" x2="3520.2417" y1="283.3" y2="283.3"/></g><!--class ast_parse--><g class="entity" data-entity="ast_parse" data-source-line="91" data-uid="ent0027" id="entity_ast_parse"><rect fill="#F1F1F1" height="48" rx="2.5" ry="2.5" style="stroke:#181818;stroke-width:0.5;" width="99.4912" x="2284.76" y="616.89"/><ellipse cx="2299.76" cy="632.89" fill="#ADD1B2" rx="11" ry="11" style="stroke:#181818;stroke-width:1;"/><path d="M2302.7288,638.5306 Q2302.1506,638.8275 2301.51,638.9681 Q2300.8694,639.1244 2300.1663,639.1244 Q2297.6663,639.1244 2296.3381,637.4838 Q2295.0256,635.8275 2295.0256,632.7025 Q2295.0256,629.5775 2296.3381,627.9213 Q2297.6663,626.265 2300.1663,626.265 Q2300.8694,626.265 2301.51,626.4213 Q2302.1663,626.5775 2302.7288,626.8744 L2302.7288,629.5931 Q2302.1038,629.015 2301.51,628.7494 Q2300.9163,628.4681 2300.2913,628.4681 Q2298.9475,628.4681 2298.26,629.5463 Q2297.5725,630.6088 2297.5725,632.7025 Q2297.5725,634.7963 2298.26,635.8744 Q2298.9475,636.9369 2300.2913,636.9369 Q2300.9163,636.9369 2301.51,636.6713 Q2302.1038,636.39 2302.7288,635.8119 L2302.7288,638.5306 Z " fill="#000000"/><text fill="#000000" font-family="sans-serif" font-size="14" lengthAdjust="spacing" textLength="67.4912" x="2313.76" y="637.7367">ast_parse</text><line style="stroke:#181818;stroke-width:0.5;" x1="2285.76" x2="2383.2512" y1="648.89" y2="648.89"/><line style="stroke:#181818;stroke-width:0.5;" x1="2285.76" x2="2383.2512" y1="656.89" y2="656.89"/></g><!--class os_walk--><g class="entity" data-entity="os_walk" data-source-line="92" data-uid="ent0029" id="entity_os_walk"><rect fill="#F1F1F1" height="48" rx="2.5" ry="2.5" style="stroke:#181818;stroke-width:0.5;" width="86.8857" x="2576.07" y="616.89"/><ellipse cx="2591.07" cy="632.89" fill="#ADD1B2" rx="11" ry="11" style="stroke:#181818;stroke-width:1;"/><path d="M2594.0388,638.5306 Q2593.4606,638.8275 2592.82,638.9681 Q2592.1794,639.1244 2591.4763,639.1244 Q2588.9763,639.1244 2587.6481,637.4838 Q2586.3356,635.8275 2586.3356,632.7025 Q2586.3356,629.5775 2587.6481,627.9213 Q2588.9763,626.265 2591.4763,626.265 Q2592.1794,626.265 2592.82,626.4213 Q2593.4763,626.5775 2594.0388,626.8744 L2594.0388,629.5931 Q2593.4138,629.015 2592.82,628.7494 Q2592.2263,628.4681 2591.6013,628.4681 Q2590.2575,628.4681 2589.57,629.5463 Q2588.8825,630.6088 2588.8825,632.7025 Q2588.8825,634.7963 2589.57,635.8744 Q2590.2575,636.9369 2591.6013,636.9369 Q2592.2263,636.9369 2592.82,636.6713 Q2593.4138,636.39 2594.0388,635.8119 L2594.0388,638.5306 Z " fill="#000000"/><text fill="#000000" font-family="sans-serif" font-size="14" lengthAdjust="spacing" textLength="54.8857" x="2605.07" y="637.7367">os_walk</text><line style="stroke:#181818;stroke-width:0.5;" x1="2577.07" x2="2661.9557" y1="648.89" y2="648.89"/><line style="stroke:#181818;stroke-width:0.5;" x1="2577.07" x2="2661.9557" y1="656.89" y2="656.89"/></g><!--link code_analyzer_ModuleInfo to typing_TypedDict--><g class="link" data-entity-1="code_analyzer_ModuleInfo" data-entity-2="typing_TypedDict" data-source-line="85" data-uid="lnk16" id="link_code_analyzer_ModuleInfo_typing_TypedDict"><path codeLine="85" d="M1425.51,316.12 C1425.51,396.68 1425.51,538.53 1425.51,598.46 " fill="none" id="code_analyzer_ModuleInfo-to-typing_TypedDict" style="stroke:#181818;stroke-width:1;"/><polygon fill="none" points="1425.51,616.46,1431.51,598.46,1419.51,598.46,1425.51,616.46" style="stroke:#181818;stroke-width:1;"/></g><!--link code_analyzer_CodeVisitor to ast_NodeVisitor--><g class="link" data-entity-1="code_analyzer_CodeVisitor" data-entity-2="ast_NodeVisitor" data-source-line="86" data-uid="lnk18" id="link_code_analyzer_CodeVisitor_ast_NodeVisitor"><path codeLine="86" d="M1660.51,527.89 C1660.51,564.38 1660.51,578.33 1660.51,598.67 " fill="none" id="code_analyzer_CodeVisitor-to-ast_NodeVisitor" style="stroke:#181818;stroke-width:1;"/><polygon fill="none" points="1660.51,616.67,1666.51,598.67,1654.51,598.67,1660.51,616.67" style="stroke:#181818;stroke-width:1;"/></g><!--link code_analyzer_InvalidPathError to ValueError--><g class="link" data-entity-1="code_analyzer_InvalidPathError" data-entity-2="ValueError" data-source-line="87" data-uid="lnk20" id="link_code_analyzer_InvalidPathError_ValueError"><path codeLine="87" d="M1925.03,299.66 C1944.87,372.62 1989.0195,535.05 2006.4695,599.26 " fill="none" id="code_analyzer_InvalidPathError-to-ValueError" style="stroke:#181818;stroke-width:1;"/><polygon fill="none" points="2011.19,616.63,2012.2594,597.6865,2000.6795,600.8335,2011.19,616.63" style="stroke:#181818;stroke-width:1;"/></g><!--link code_analyzer_NoFilesAnalyzedError to ValueError--><g class="link" data-entity-1="code_analyzer_NoFilesAnalyzedError" data-entity-2="ValueError" data-source-line="88" data-uid="lnk21" id="link_code_analyzer_NoFilesAnalyzedError_ValueError"><path codeLine="88" d="M2109.99,299.66 C2090.15,372.62 2046.0005,535.05 2028.5505,599.26 " fill="none" id="code_analyzer_NoFilesAnalyzedError-to-ValueError" style="stroke:#181818;stroke-width:1;"/><polygon fill="none" points="2023.83,616.63,2034.3405,600.8335,2022.7606,597.6865,2023.83,616.63" style="stroke:#181818;stroke-width:1;"/></g><!--link code_analyzer_CodeVisitor_visit_ClassDef to ast_get_docstring--><g class="link" data-entity-1="code_analyzer_CodeVisitor_visit_ClassDef" data-entity-2="ast_get_docstring" data-source-line="89" data-uid="lnk24" id="link_code_analyzer_CodeVisitor_visit_ClassDef_ast_get_docstring"><path codeLine="89" d="M2988.14,291.54 C3021.55,358.28 3114.7941,544.5647 3148.1941,611.2847 " fill="none" id="code_analyzer_CodeVisitor_visit_ClassDef-to-ast_get_docstring" style="stroke:#181818;stroke-width:1;stroke-dasharray:7.0,7.0;"/><polygon fill="#181818" points="3150.88,616.65,3150.4281,606.8115,3148.6418,612.1789,3143.2744,610.3927,3150.88,616.65" style="stroke:#181818;stroke-width:1;"/><text fill="#000000" font-family="sans-serif" font-size="13" lengthAdjust="spacing" textLength="29.1104" x="3128.51" y="570.6669">calls</text></g><!--link code_analyzer_CodeVisitor_visit_FunctionDef to ast_get_docstring--><g class="link" data-entity-1="code_analyzer_CodeVisitor_visit_FunctionDef" data-entity-2="ast_get_docstring" data-source-line="90" data-uid="lnk26" id="link_code_analyzer_CodeVisitor_visit_FunctionDef_ast_get_docstring"><path codeLine="90" d="M3335.94,291.54 C3302.71,358.28 3209.9743,544.5589 3176.7543,611.2789 " fill="none" id="code_analyzer_CodeVisitor_visit_FunctionDef-to-ast_get_docstring" style="stroke:#181818;stroke-width:1;stroke-dasharray:7.0,7.0;"/><polygon fill="#181818" points="3174.08,616.65,3181.6721,610.3762,3176.3086,612.1741,3174.5107,606.8106,3174.08,616.65" style="stroke:#181818;stroke-width:1;"/><text fill="#000000" font-family="sans-serif" font-size="13" lengthAdjust="spacing" textLength="29.1104" x="3203.51" y="570.6669">calls</text></g><!--link code_analyzer_analyze_file to ast_parse--><g class="link" data-entity-1="code_analyzer_analyze_file" data-entity-2="ast_parse" data-source-line="91" data-uid="lnk28" id="link_code_analyzer_analyze_file_ast_parse"><path codeLine="91" d="M2334.51,303.93 C2334.51,379.31 2334.51,547.21 2334.51,610.4 " fill="none" id="code_analyzer_analyze_file-to-ast_parse" style="stroke:#181818;stroke-width:1;stroke-dasharray:7.0,7.0;"/><polygon fill="#181818" points="2334.51,616.4,2338.51,607.4,2334.51,611.4,2330.51,607.4,2334.51,616.4" style="stroke:#181818;stroke-width:1;"/><text fill="#000000" font-family="sans-serif" font-size="13" lengthAdjust="spacing" textLength="29.1104" x="2335.51" y="570.6669">calls</text></g><!--link code_analyzer_analyze_directory to os_walk--><g class="link" data-entity-1="code_analyzer_analyze_directory" data-entity-2="os_walk" data-source-line="92" data-uid="lnk30" id="link_code_analyzer_analyze_directory_os_walk"><path codeLine="92" d="M2619.51,303.93 C2619.51,379.31 2619.51,547.21 2619.51,610.4 " fill="none" id="code_analyzer_analyze_directory-to-os_walk" style="stroke:#181818;stroke-width:1;stroke-dasharray:7.0,7.0;"/><polygon fill="#181818" points="2619.51,616.4,2623.51,607.4,2619.51,611.4,2615.51,607.4,2619.51,616.4" style="stroke:#181818;stroke-width:1;"/><text fill="#000000" font-family="sans-serif" font-size="13" lengthAdjust="spacing" textLength="29.1104" x="2620.51" y="570.6669">calls</text></g><!--SRC=[bLPDZziW4BtxLw2zr5Mp-mDMgqYhtKRAeLKFgxsYYI4EBGOBSBRfntylOEFWB3Zk9G7Ucva70pF-W5uEJ2F2e5RGe3VG23eZ6p2i0ivFgAQ2AZ2KeDq9cGD5bIGKWG1- -aLLKLGSj4OtNoJfEDsAlRn1reSZuK32Pn3zBX1YJIkLqVT8KsEdtWErKywqc-yxKHacHLZvEmPvibvVcMP6gaIK2FLXl14Mq50xsO4DCVo7DSa9zYGxRgWvI1AGVSVvUTpBYQt2cfs2CIf0yTYSMgTDI0C3SybAVpHq508w9KdkleVXLBTBcKtAC21sy0bZ9fZ1kDIKxrTeppXrv1LgV5AyvKT7FBgZmq_kF9xfVg0BUwOHkXdsdIKyQirgaS64c8EtVkjps4R99eq_sUrU8hYc1hkCi5rd-drEAEThjHL7u8ny0tFuh5JoRbrI_0MxFDlMeh7Vht9ZJri_zav8pdUAbl0VUnviiSjcmcCCeuU7S5lNwzvj39Vk1ryg3mp25AtiUphD11avCv56JZcELeZ-h7X7FAZZu1Z8y2wfnaRYeJOb96IO2I4PPddiwuLUXGhuJiXOZHP8IN5pObBS1N8KvRvMw0DhbqZAyNEoSlptqbQ8YJw1urPYjQ5lzAS-8pDDJEXB4oDXo_GCTM-1e2bpJj6KEKgAusiupWMDuKIa62x71CZEj9tnxpZrUa6GysRoeUVeCsywHIzT8GcwGekncRd8IExZuFRspzerHIPg_69x8tbcbIdoNTxpGHjRGiV5uahXzZQlm3lgvyM2MZnl4Wd2qnwAxkvwUQuJ4Lbfsuj4ZUvzTzPNtKJDzhyyJQf_C6n1QNh5u5p9dPNK-0tuZs3p3m00]--></g></svg>