<svg xmlns="http://www.w3.org/2000/svg" xmlns:xlink="http://www.w3.org/1999/xlink" contentStyleType="text/css" data-diagram-type="DESCRIPTION" height="173px" preserveAspectRatio="none" style="width:310px;height:173px;background:#FFFFFF;" version="1.1" viewBox="0 0 310 173" width="310px" zoomAndPan="magnify"><defs/><g><!--entity config--><g class="entity" data-entity="config" data-source-line="3" data-uid="ent0002" id="entity_config"><rect fill="#F1F1F1" height="46.2969" rx="2.5" ry="2.5" style="stroke:#181818;stroke-width:0.5;" width="82.8408" x="13.53" y="11.07"/><rect fill="#F1F1F1" height="10" style="stroke:#181818;stroke-width:0.5;" width="15" x="76.3708" y="16.07"/><rect fill="#F1F1F1" height="2" style="stroke:#181818;stroke-width:0.5;" width="4" x="74.3708" y="18.07"/><rect fill="#F1F1F1" height="2" style="stroke:#181818;stroke-width:0.5;" width="4" x="74.3708" y="22.07"/><text fill="#000000" font-family="sans-serif" font-size="14" lengthAdjust="spacing" textLength="42.8408" x="28.53" y="44.0651">config</text></g><!--entity db--><g class="entity" data-entity="db" data-source-line="4" data-uid="ent0003" id="entity_db"><rect fill="#F1F1F1" height="46.2969" rx="2.5" ry="2.5" style="stroke:#181818;stroke-width:0.5;" width="57.7734" x="131.06" y="11.07"/><rect fill="#F1F1F1" height="10" style="stroke:#181818;stroke-width:0.5;" width="15" x="168.8334" y="16.07"/><rect fill="#F1F1F1" height="2" style="stroke:#181818;stroke-width:0.5;" width="4" x="166.8334" y="18.07"/><rect fill="#F1F1F1" height="2" style="stroke:#181818;stroke-width:0.5;" width="4" x="166.8334" y="22.07"/><text fill="#000000" font-family="sans-serif" font-size="14" lengthAdjust="spacing" textLength="17.7734" x="146.06" y="44.0651">db</text></g><!--entity security--><g class="entity" data-entity="security" data-source-line="5" data-uid="ent0004" id="entity_security"><rect fill="#F1F1F1" height="46.2969" rx="2.5" ry="2.5" style="stroke:#181818;stroke-width:0.5;" width="95.8975" x="7" y="121.44"/><rect fill="#F1F1F1" height="10" style="stroke:#181818;stroke-width:0.5;" width="15" x="82.8975" y="126.44"/><rect fill="#F1F1F1" height="2" style="stroke:#181818;stroke-width:0.5;" width="4" x="80.8975" y="128.44"/><rect fill="#F1F1F1" height="2" style="stroke:#181818;stroke-width:0.5;" width="4" x="80.8975" y="132.44"/><text fill="#000000" font-family="sans-serif" font-size="14" lengthAdjust="spacing" textLength="55.8975" x="22" y="154.4351">security</text></g><!--entity __init__--><g class="entity" data-entity="__init__" data-source-line="6" data-uid="ent0005" id="entity___init__"><rect fill="#F1F1F1" height="54.4453" rx="2.5" ry="2.5" style="stroke:#181818;stroke-width:0.5;" width="70.1416" x="223.88" y="7"/><rect fill="#F1F1F1" height="10" style="stroke:#181818;stroke-width:0.5;" width="15" x="274.0216" y="12"/><rect fill="#F1F1F1" height="2" style="stroke:#181818;stroke-width:0.5;" width="4" x="272.0216" y="14"/><rect fill="#F1F1F1" height="2" style="stroke:#181818;stroke-width:0.5;" width="4" x="272.0216" y="18"/><line style="stroke:#181818;stroke-width:0.5;" x1="224.88" x2="247.88" y1="35.1484" y2="35.1484"/><text fill="#000000" font-family="sans-serif" font-size="14" lengthAdjust="spacing" textLength="22.1416" x="247.88" y="39.4951">init</text><line style="stroke:#181818;stroke-width:0.5;" x1="270.0216" x2="293.0216" y1="35.1484" y2="35.1484"/></g><!--entity logging--><g class="entity" data-entity="logging" data-source-line="7" data-uid="ent0006" id="entity_logging"><rect fill="#F1F1F1" height="46.2969" rx="2.5" ry="2.5" style="stroke:#181818;stroke-width:0.5;" width="91.8779" x="213.01" y="121.44"/><rect fill="#F1F1F1" height="10" style="stroke:#181818;stroke-width:0.5;" width="15" x="284.8879" y="126.44"/><rect fill="#F1F1F1" height="2" style="stroke:#181818;stroke-width:0.5;" width="4" x="282.8879" y="128.44"/><rect fill="#F1F1F1" height="2" style="stroke:#181818;stroke-width:0.5;" width="4" x="282.8879" y="132.44"/><text fill="#000000" font-family="sans-serif" font-size="14" lengthAdjust="spacing" textLength="51.8779" x="228.01" y="154.4351">logging</text></g><!--link __init__ to logging--><g class="link" data-entity-1="__init__" data-entity-2="logging" data-source-line="9" data-uid="lnk7" id="link___init___logging"><path d="M258.95,61.73 C258.95,79.9 258.95,97.75 258.95,115.02 " fill="none" id="__init__-to-logging" style="stroke:#181818;stroke-width:1;"/><polygon fill="#181818" points="258.95,121.02,262.95,112.02,258.95,116.02,254.95,112.02,258.95,121.02" style="stroke:#181818;stroke-width:1;"/></g><!--SRC=[DOmn3WCX30Hxly9Tglj2Nf4EHSY0mrdYZ0G-HUJrYRZGxSngzuQFNJeceTpem3TrfDFgGIQHIXcOMRcHSS8mq7R6M1CZAPNnuGRWOjMNv2V-bbS4byB45C1rZcSJ6rCi0EUzg9ZtKoy0LshEejVPFmEi6hVjlkmN]--></g></svg>