<svg xmlns="http://www.w3.org/2000/svg" xmlns:xlink="http://www.w3.org/1999/xlink" contentStyleType="text/css" data-diagram-type="DESCRIPTION" height="492px" preserveAspectRatio="none" style="width:1272px;height:492px;background:#FFFFFF;" version="1.1" viewBox="0 0 1272 492" width="1272px" zoomAndPan="magnify"><defs/><g><!--entity analyzer--><g class="entity" data-entity="analyzer" data-source-line="3" data-uid="ent0002" id="entity_analyzer"><rect fill="#F1F1F1" height="46.2969" rx="2.5" ry="2.5" style="stroke:#181818;stroke-width:0.5;" width="99.9238" x="7" y="11.07"/><rect fill="#F1F1F1" height="10" style="stroke:#181818;stroke-width:0.5;" width="15" x="86.9238" y="16.07"/><rect fill="#F1F1F1" height="2" style="stroke:#181818;stroke-width:0.5;" width="4" x="84.9238" y="18.07"/><rect fill="#F1F1F1" height="2" style="stroke:#181818;stroke-width:0.5;" width="4" x="84.9238" y="22.07"/><text fill="#000000" font-family="sans-serif" font-size="14" lengthAdjust="spacing" textLength="59.9238" x="22" y="44.0651">analyzer</text></g><!--entity cli--><g class="entity" data-entity="cli" data-source-line="4" data-uid="ent0003" id="entity_cli"><rect fill="#F1F1F1" height="46.2969" rx="2.5" ry="2.5" style="stroke:#181818;stroke-width:0.5;" width="55.4766" x="601.22" y="11.07"/><rect fill="#F1F1F1" height="10" style="stroke:#181818;stroke-width:0.5;" width="15" x="636.6966" y="16.07"/><rect fill="#F1F1F1" height="2" style="stroke:#181818;stroke-width:0.5;" width="4" x="634.6966" y="18.07"/><rect fill="#F1F1F1" height="2" style="stroke:#181818;stroke-width:0.5;" width="4" x="634.6966" y="22.07"/><text fill="#000000" font-family="sans-serif" font-size="14" lengthAdjust="spacing" textLength="15.4766" x="616.22" y="44.0651">cli</text></g><!--entity code_analyzer--><g class="entity" data-entity="code_analyzer" data-source-line="5" data-uid="ent0004" id="entity_code_analyzer"><rect fill="#F1F1F1" height="46.2969" rx="2.5" ry="2.5" style="stroke:#181818;stroke-width:0.5;" width="140.6865" x="681.62" y="121.44"/><rect fill="#F1F1F1" height="10" style="stroke:#181818;stroke-width:0.5;" width="15" x="802.3065" y="126.44"/><rect fill="#F1F1F1" height="2" style="stroke:#181818;stroke-width:0.5;" width="4" x="800.3065" y="128.44"/><rect fill="#F1F1F1" height="2" style="stroke:#181818;stroke-width:0.5;" width="4" x="800.3065" y="132.44"/><text fill="#000000" font-family="sans-serif" font-size="14" lengthAdjust="spacing" textLength="100.6865" x="696.62" y="154.4351">code_analyzer</text></g><!--entity diagram_generator--><g class="entity" data-entity="diagram_generator" data-source-line="6" data-uid="ent0005" id="entity_diagram_generator"><rect fill="#F1F1F1" height="46.2969" rx="2.5" ry="2.5" style="stroke:#181818;stroke-width:0.5;" width="174.3467" x="141.79" y="11.07"/><rect fill="#F1F1F1" height="10" style="stroke:#181818;stroke-width:0.5;" width="15" x="296.1367" y="16.07"/><rect fill="#F1F1F1" height="2" style="stroke:#181818;stroke-width:0.5;" width="4" x="294.1367" y="18.07"/><rect fill="#F1F1F1" height="2" style="stroke:#181818;stroke-width:0.5;" width="4" x="294.1367" y="22.07"/><text fill="#000000" font-family="sans-serif" font-size="14" lengthAdjust="spacing" textLength="134.3467" x="156.79" y="44.0651">diagram_generator</text></g><!--entity api--><g class="entity" data-entity="api" data-source-line="7" data-uid="ent0006" id="entity_api"><rect fill="#F1F1F1" height="46.2969" rx="2.5" ry="2.5" style="stroke:#181818;stroke-width:0.5;" width="61.3555" x="351.28" y="11.07"/><rect fill="#F1F1F1" height="10" style="stroke:#181818;stroke-width:0.5;" width="15" x="392.6355" y="16.07"/><rect fill="#F1F1F1" height="2" style="stroke:#181818;stroke-width:0.5;" width="4" x="390.6355" y="18.07"/><rect fill="#F1F1F1" height="2" style="stroke:#181818;stroke-width:0.5;" width="4" x="390.6355" y="22.07"/><text fill="#000000" font-family="sans-serif" font-size="14" lengthAdjust="spacing" textLength="21.3555" x="366.28" y="44.0651">api</text></g><!--entity core--><g class="entity" data-entity="core" data-source-line="8" data-uid="ent0007" id="entity_core"><rect fill="#F1F1F1" height="46.2969" rx="2.5" ry="2.5" style="stroke:#181818;stroke-width:0.5;" width="70.6318" x="998.65" y="227.74"/><rect fill="#F1F1F1" height="10" style="stroke:#181818;stroke-width:0.5;" width="15" x="1049.2818" y="232.74"/><rect fill="#F1F1F1" height="2" style="stroke:#181818;stroke-width:0.5;" width="4" x="1047.2818" y="234.74"/><rect fill="#F1F1F1" height="2" style="stroke:#181818;stroke-width:0.5;" width="4" x="1047.2818" y="238.74"/><text fill="#000000" font-family="sans-serif" font-size="14" lengthAdjust="spacing" textLength="30.6318" x="1013.65" y="260.7351">core</text></g><!--entity config--><g class="entity" data-entity="config" data-source-line="9" data-uid="ent0008" id="entity_config"><rect fill="#F1F1F1" height="46.2969" rx="2.5" ry="2.5" style="stroke:#181818;stroke-width:0.5;" width="82.8408" x="15.54" y="121.44"/><rect fill="#F1F1F1" height="10" style="stroke:#181818;stroke-width:0.5;" width="15" x="78.3808" y="126.44"/><rect fill="#F1F1F1" height="2" style="stroke:#181818;stroke-width:0.5;" width="4" x="76.3808" y="128.44"/><rect fill="#F1F1F1" height="2" style="stroke:#181818;stroke-width:0.5;" width="4" x="76.3808" y="132.44"/><text fill="#000000" font-family="sans-serif" font-size="14" lengthAdjust="spacing" textLength="42.8408" x="30.54" y="154.4351">config</text></g><!--entity exceptions--><g class="entity" data-entity="exceptions" data-source-line="10" data-uid="ent0009" id="entity_exceptions"><rect fill="#F1F1F1" height="46.2969" rx="2.5" ry="2.5" style="stroke:#181818;stroke-width:0.5;" width="116.207" x="657.86" y="440.33"/><rect fill="#F1F1F1" height="10" style="stroke:#181818;stroke-width:0.5;" width="15" x="754.067" y="445.33"/><rect fill="#F1F1F1" height="2" style="stroke:#181818;stroke-width:0.5;" width="4" x="752.067" y="447.33"/><rect fill="#F1F1F1" height="2" style="stroke:#181818;stroke-width:0.5;" width="4" x="752.067" y="451.33"/><text fill="#000000" font-family="sans-serif" font-size="14" lengthAdjust="spacing" textLength="76.207" x="672.86" y="473.3251">exceptions</text></g><!--entity models--><g class="entity" data-entity="models" data-source-line="11" data-uid="ent0010" id="entity_models"><rect fill="#F1F1F1" height="46.2969" rx="2.5" ry="2.5" style="stroke:#181818;stroke-width:0.5;" width="90.8867" x="133.52" y="121.44"/><rect fill="#F1F1F1" height="10" style="stroke:#181818;stroke-width:0.5;" width="15" x="204.4067" y="126.44"/><rect fill="#F1F1F1" height="2" style="stroke:#181818;stroke-width:0.5;" width="4" x="202.4067" y="128.44"/><rect fill="#F1F1F1" height="2" style="stroke:#181818;stroke-width:0.5;" width="4" x="202.4067" y="132.44"/><text fill="#000000" font-family="sans-serif" font-size="14" lengthAdjust="spacing" textLength="50.8867" x="148.52" y="154.4351">models</text></g><!--entity settings--><g class="entity" data-entity="settings" data-source-line="12" data-uid="ent0011" id="entity_settings"><rect fill="#F1F1F1" height="46.2969" rx="2.5" ry="2.5" style="stroke:#181818;stroke-width:0.5;" width="95.8291" x="841.05" y="334.04"/><rect fill="#F1F1F1" height="10" style="stroke:#181818;stroke-width:0.5;" width="15" x="916.8791" y="339.04"/><rect fill="#F1F1F1" height="2" style="stroke:#181818;stroke-width:0.5;" width="4" x="914.8791" y="341.04"/><rect fill="#F1F1F1" height="2" style="stroke:#181818;stroke-width:0.5;" width="4" x="914.8791" y="345.04"/><text fill="#000000" font-family="sans-serif" font-size="14" lengthAdjust="spacing" textLength="55.8291" x="856.05" y="367.0351">settings</text></g><!--entity __init__--><g class="entity" data-entity="__init__" data-source-line="13" data-uid="ent0012" id="entity___init__"><rect fill="#F1F1F1" height="54.4453" rx="2.5" ry="2.5" style="stroke:#181818;stroke-width:0.5;" width="70.1416" x="905.89" y="7"/><rect fill="#F1F1F1" height="10" style="stroke:#181818;stroke-width:0.5;" width="15" x="956.0316" y="12"/><rect fill="#F1F1F1" height="2" style="stroke:#181818;stroke-width:0.5;" width="4" x="954.0316" y="14"/><rect fill="#F1F1F1" height="2" style="stroke:#181818;stroke-width:0.5;" width="4" x="954.0316" y="18"/><line style="stroke:#181818;stroke-width:0.5;" x1="906.89" x2="929.89" y1="35.1484" y2="35.1484"/><text fill="#000000" font-family="sans-serif" font-size="14" lengthAdjust="spacing" textLength="22.1416" x="929.89" y="39.4951">init</text><line style="stroke:#181818;stroke-width:0.5;" x1="952.0316" x2="975.0316" y1="35.1484" y2="35.1484"/></g><!--entity render_diagrams--><g class="entity" data-entity="render_diagrams" data-source-line="14" data-uid="ent0013" id="entity_render_diagrams"><rect fill="#F1F1F1" height="46.2969" rx="2.5" ry="2.5" style="stroke:#181818;stroke-width:0.5;" width="159.0068" x="928.46" y="121.44"/><rect fill="#F1F1F1" height="10" style="stroke:#181818;stroke-width:0.5;" width="15" x="1067.4668" y="126.44"/><rect fill="#F1F1F1" height="2" style="stroke:#181818;stroke-width:0.5;" width="4" x="1065.4668" y="128.44"/><rect fill="#F1F1F1" height="2" style="stroke:#181818;stroke-width:0.5;" width="4" x="1065.4668" y="132.44"/><text fill="#000000" font-family="sans-serif" font-size="14" lengthAdjust="spacing" textLength="119.0068" x="943.46" y="154.4351">render_diagrams</text></g><!--entity test_code_analyzer--><g class="entity" data-entity="test_code_analyzer" data-source-line="15" data-uid="ent0014" id="entity_test_code_analyzer"><rect fill="#F1F1F1" height="46.2969" rx="2.5" ry="2.5" style="stroke:#181818;stroke-width:0.5;" width="174.5723" x="259.68" y="121.44"/><rect fill="#F1F1F1" height="10" style="stroke:#181818;stroke-width:0.5;" width="15" x="414.2523" y="126.44"/><rect fill="#F1F1F1" height="2" style="stroke:#181818;stroke-width:0.5;" width="4" x="412.2523" y="128.44"/><rect fill="#F1F1F1" height="2" style="stroke:#181818;stroke-width:0.5;" width="4" x="412.2523" y="132.44"/><text fill="#000000" font-family="sans-serif" font-size="14" lengthAdjust="spacing" textLength="134.5723" x="274.68" y="154.4351">test_code_analyzer</text></g><!--entity test_puml--><g class="entity" data-entity="test_puml" data-source-line="17" data-uid="ent0015" id="entity_test_puml"><rect fill="#F1F1F1" height="46.2969" rx="2.5" ry="2.5" style="stroke:#181818;stroke-width:0.5;" width="109.1729" x="1157.38" y="11.07"/><rect fill="#F1F1F1" height="10" style="stroke:#181818;stroke-width:0.5;" width="15" x="1246.5529" y="16.07"/><rect fill="#F1F1F1" height="2" style="stroke:#181818;stroke-width:0.5;" width="4" x="1244.5529" y="18.07"/><rect fill="#F1F1F1" height="2" style="stroke:#181818;stroke-width:0.5;" width="4" x="1244.5529" y="22.07"/><text fill="#000000" font-family="sans-serif" font-size="14" lengthAdjust="spacing" textLength="69.1729" x="1172.38" y="44.0651">test_puml</text></g><!--link cli to code_analyzer--><g class="link" data-entity-1="cli" data-entity-2="code_analyzer" data-source-line="19" data-uid="lnk16" id="link_cli_code_analyzer"><path d="M654.45,57.67 C675.56,76.27 700.9091,98.6024 722.0091,117.2024 " fill="none" id="cli-to-code_analyzer" style="stroke:#181818;stroke-width:1;"/><polygon fill="#181818" points="726.51,121.17,722.4037,112.218,722.7593,117.8637,717.1136,118.2192,726.51,121.17" style="stroke:#181818;stroke-width:1;"/></g><!--link cli to core--><g class="link" data-entity-1="cli" data-entity-2="core" data-source-line="20" data-uid="lnk17" id="link_cli_core"><path d="M628.24,57.71 C628.58,87.26 633.85,138.8 663.96,167.74 C711.94,213.85 909.0794,237.7763 992.2494,246.0463 " fill="none" id="cli-to-core" style="stroke:#181818;stroke-width:1;"/><polygon fill="#181818" points="998.22,246.64,989.66,241.7691,993.2445,246.1453,988.8684,249.7298,998.22,246.64" style="stroke:#181818;stroke-width:1;"/></g><!--link cli to exceptions--><g class="link" data-entity-1="cli" data-entity-2="exceptions" data-source-line="21" data-uid="lnk18" id="link_cli_exceptions"><path d="M621.39,57.8 C613.53,84.22 603.26,129.27 609.96,167.74 C628.41,273.54 678.8774,386.1138 702.1774,434.5138 " fill="none" id="cli-to-exceptions" style="stroke:#181818;stroke-width:1;"/><polygon fill="#181818" points="704.78,439.92,704.4803,430.0757,702.6112,435.4149,697.272,433.5458,704.78,439.92" style="stroke:#181818;stroke-width:1;"/></g><!--link cli to render_diagrams--><g class="link" data-entity-1="cli" data-entity-2="render_diagrams" data-source-line="22" data-uid="lnk19" id="link_cli_render_diagrams"><path d="M657.14,43.28 C714.01,59.54 838.5312,95.1403 923.3312,119.3903 " fill="none" id="cli-to-render_diagrams" style="stroke:#181818;stroke-width:1;"/><polygon fill="#181818" points="929.1,121.04,921.5466,114.7196,924.2927,119.6653,919.3471,122.4113,929.1,121.04" style="stroke:#181818;stroke-width:1;"/></g><!--link cli to settings--><g class="link" data-entity-1="cli" data-entity-2="settings" data-source-line="23" data-uid="lnk20" id="link_cli_settings"><path d="M623.27,57.77 C617.57,85.37 611.98,132.75 629.96,167.74 C674.38,254.17 773.3413,308.0092 835.1813,335.0092 " fill="none" id="cli-to-settings" style="stroke:#181818;stroke-width:1;"/><polygon fill="#181818" points="840.68,337.41,834.0324,330.143,836.0977,335.4093,830.8314,337.4746,840.68,337.41" style="stroke:#181818;stroke-width:1;"/></g><!--link core to exceptions--><g class="link" data-entity-1="core" data-entity-2="exceptions" data-source-line="24" data-uid="lnk21" id="link_core_exceptions"><path d="M1025.6,274.21 C1013.82,302.74 989.7,351.84 953.96,380.33 C901.41,422.23 832.0254,442.2631 780.2754,452.5231 " fill="none" id="core-to-exceptions" style="stroke:#181818;stroke-width:1;"/><polygon fill="#181818" points="774.39,453.69,783.9961,455.8633,779.2945,452.7176,782.4403,448.0161,774.39,453.69" style="stroke:#181818;stroke-width:1;"/></g><!--link core to settings--><g class="link" data-entity-1="core" data-entity-2="settings" data-source-line="25" data-uid="lnk22" id="link_core_settings"><path d="M1002.5,274.52 C978.18,292.01 949.5414,312.6172 925.2314,330.0972 " fill="none" id="core-to-settings" style="stroke:#181818;stroke-width:1;"/><polygon fill="#181818" points="920.36,333.6,930.0023,331.5935,924.4195,330.681,925.3319,325.0982,920.36,333.6" style="stroke:#181818;stroke-width:1;"/></g><!--link settings to exceptions--><g class="link" data-entity-1="settings" data-entity-2="exceptions" data-source-line="26" data-uid="lnk23" id="link_settings_exceptions"><path d="M851.42,380.82 C822.41,398.31 787.5687,419.3126 758.5687,436.7926 " fill="none" id="settings-to-exceptions" style="stroke:#181818;stroke-width:1;"/><polygon fill="#181818" points="753.43,439.89,763.203,438.6697,757.7122,437.3088,759.0731,431.8181,753.43,439.89" style="stroke:#181818;stroke-width:1;"/></g><!--link __init__ to code_analyzer--><g class="link" data-entity-1="__init__" data-entity-2="code_analyzer" data-source-line="27" data-uid="lnk24" id="link___init___code_analyzer"><path d="M905.41,55.6 C872.91,74.24 830.1053,98.7858 796.4753,118.0658 " fill="none" id="__init__-to-code_analyzer" style="stroke:#181818;stroke-width:1;"/><polygon fill="#181818" points="791.27,121.05,801.0673,120.0439,795.6077,118.5632,797.0885,113.1036,791.27,121.05" style="stroke:#181818;stroke-width:1;"/></g><!--link __init__ to core--><g class="link" data-entity-1="__init__" data-entity-2="core" data-source-line="28" data-uid="lnk25" id="link___init___core"><path d="M976.22,42.47 C1015.49,52.64 1077.1,75.32 1104.96,121.44 C1126.96,157.86 1094.4684,197.3816 1066.1484,223.2716 " fill="none" id="__init__-to-core" style="stroke:#181818;stroke-width:1;"/><polygon fill="#181818" points="1061.72,227.32,1071.0615,224.1997,1065.4103,223.9463,1065.6636,218.2952,1061.72,227.32" style="stroke:#181818;stroke-width:1;"/></g><!--link __init__ to render_diagrams--><g class="link" data-entity-1="__init__" data-entity-2="render_diagrams" data-source-line="29" data-uid="lnk26" id="link___init___render_diagrams"><path d="M957.35,61.73 C968.59,79.9 980.1742,98.647 990.8542,115.917 " fill="none" id="__init__-to-render_diagrams" style="stroke:#181818;stroke-width:1;"/><polygon fill="#181818" points="994.01,121.02,992.6783,111.2616,991.3802,116.7675,985.8743,115.4693,994.01,121.02" style="stroke:#181818;stroke-width:1;"/></g><!--link __init__ to settings--><g class="link" data-entity-1="__init__" data-entity-2="settings" data-source-line="30" data-uid="lnk27" id="link___init___settings"><path d="M929.79,61.92 C923.24,78.71 915.41,101 910.96,121.44 C894.3,198.04 890.3993,285.3916 889.4193,327.5816 " fill="none" id="__init__-to-settings" style="stroke:#181818;stroke-width:1;"/><polygon fill="#181818" points="889.28,333.58,893.4879,324.6753,889.3961,328.5813,885.4901,324.4895,889.28,333.58" style="stroke:#181818;stroke-width:1;"/></g><!--link render_diagrams to core--><g class="link" data-entity-1="render_diagrams" data-entity-2="core" data-source-line="31" data-uid="lnk28" id="link_render_diagrams_core"><path d="M1013.6,168.22 C1017.96,185.72 1022.5179,203.9984 1026.8779,221.4784 " fill="none" id="render_diagrams-to-core" style="stroke:#181818;stroke-width:1;"/><polygon fill="#181818" points="1028.33,227.3,1030.033,217.5995,1027.1199,222.4486,1022.2708,219.5356,1028.33,227.3" style="stroke:#181818;stroke-width:1;"/></g><!--link render_diagrams to exceptions--><g class="link" data-entity-1="render_diagrams" data-entity-2="exceptions" data-source-line="32" data-uid="lnk29" id="link_render_diagrams_exceptions"><path d="M985.03,167.98 C949.65,202.76 880,272.2 823.96,334.04 C791.09,370.3 758.6277,409.6285 737.5977,435.5785 " fill="none" id="render_diagrams-to-exceptions" style="stroke:#181818;stroke-width:1;"/><polygon fill="#181818" points="733.82,440.24,742.5941,435.7663,736.9681,436.3554,736.3789,430.7294,733.82,440.24" style="stroke:#181818;stroke-width:1;"/></g><!--link render_diagrams to settings--><g class="link" data-entity-1="render_diagrams" data-entity-2="settings" data-source-line="33" data-uid="lnk30" id="link_render_diagrams_settings"><path d="M995.23,168.13 C972.32,208.66 927.3908,288.1657 904.5608,328.5857 " fill="none" id="render_diagrams-to-settings" style="stroke:#181818;stroke-width:1;"/><polygon fill="#181818" points="901.61,333.81,909.519,327.9408,904.069,329.4564,902.5533,324.0064,901.61,333.81" style="stroke:#181818;stroke-width:1;"/></g><!--link test_puml to core--><g class="link" data-entity-1="test_puml" data-entity-2="core" data-source-line="34" data-uid="lnk31" id="link_test_puml_core"><path d="M1201.92,57.39 C1188.76,85.02 1163.81,132.84 1133.96,167.74 C1114.39,190.62 1092.7491,208.5027 1071.9591,223.7427 " fill="none" id="test_puml-to-core" style="stroke:#181818;stroke-width:1;"/><polygon fill="#181818" points="1067.12,227.29,1076.7435,225.1952,1071.1526,224.3339,1072.0138,218.743,1067.12,227.29" style="stroke:#181818;stroke-width:1;"/></g><!--link test_puml to render_diagrams--><g class="link" data-entity-1="test_puml" data-entity-2="render_diagrams" data-source-line="35" data-uid="lnk32" id="link_test_puml_render_diagrams"><path d="M1169.69,57.67 C1134.8,76.21 1090.7986,99.5848 1055.8286,118.1648 " fill="none" id="test_puml-to-render_diagrams" style="stroke:#181818;stroke-width:1;"/><polygon fill="#181818" points="1050.53,120.98,1060.3546,120.2896,1054.9455,118.634,1056.601,113.2248,1050.53,120.98" style="stroke:#181818;stroke-width:1;"/></g><!--link test_puml to settings--><g class="link" data-entity-1="test_puml" data-entity-2="settings" data-source-line="36" data-uid="lnk33" id="link_test_puml_settings"><path d="M1208.93,57.39 C1204.55,84.61 1194.83,131.6 1175.96,167.74 C1147.45,222.36 1136.62,237.56 1086.96,274.04 C1041.07,307.74 985.0502,328.7536 942.7802,341.6136 " fill="none" id="test_puml-to-settings" style="stroke:#181818;stroke-width:1;"/><polygon fill="#181818" points="937.04,343.36,946.8146,344.5673,941.8235,341.9047,944.4861,336.9136,937.04,343.36" style="stroke:#181818;stroke-width:1;"/></g><!--SRC=[VL91RiGW3Bpx5Rxrj3zOvHMzeGhHnCqY4H81KPk-lX32fYJUdC3Z6GzZyORl3-snqwftQi1lvL7DOHnKqAqoPi6UB3aLgCFF1SE3i1qxGcMLMNx90OXo_S2aBRXeZLwHUCOYQcH5h10Gcx_StCPCEg7HRSfZuvd6EjgcEKgb_TBz1gGh2FffQGfwj7w5znB445zWCfol83o5e6sVmLA0a59R7QHSuLA0S6GxSd9xP1OTC121V93d-6VufSrAdUR1xC9K0SJDuktMrAl4-tssiwUkQVuH777ulWskUuZ2KSgAgbuokvXUsfpsYRtMbxrS9p-mwlXLyo9bnUEUUzHoPXo7JyOnETVd3s3zwkv5kfh86Fq1]--></g></svg>