<?xml version="1.0" encoding="us-ascii" standalone="no"?><svg xmlns="http://www.w3.org/2000/svg" xmlns:xlink="http://www.w3.org/1999/xlink" contentStyleType="text/css" height="833px" preserveAspectRatio="none" style="width:1371px;height:833px;background:#FFFFFF;" version="1.1" viewBox="0 0 1371 833" width="1371px" zoomAndPan="magnify"><defs/><g><text fill="#000000" font-family="sans-serif" font-size="14" font-weight="bold" lengthAdjust="spacing" textLength="224" x="566.5" y="24.5332">Pipeline Data Model ER Diagram</text><!--class Document--><g id="elem_Document"><rect codeLine="11" fill="#F1F1F1" height="153.6563" id="Document" rx="2.5" ry="2.5" style="stroke:#181818;stroke-width:0.5;" width="170" x="659.5" y="45.6094"/><ellipse cx="708.25" cy="61.6094" fill="#FFAAAA" rx="11" ry="11" style="stroke:#181818;stroke-width:1.0;"/><path d="M709.1719,59 L709.1719,65.6563 L710.3281,65.6563 Q710.9375,65.6563 711.1875,65.8906 Q711.4531,66.125 711.4531,66.5156 Q711.4531,66.8906 711.1875,67.125 Q710.9375,67.3594 710.3281,67.3594 L706.3438,67.3594 Q705.7188,67.3594 705.4531,67.125 Q705.2031,66.8906 705.2031,66.5 Q705.2031,66.125 705.4531,65.8906 Q705.7188,65.6563 706.3438,65.6563 L707.4688,65.6563 L707.4688,59 L705.625,59 L705.625,60.6094 Q705.625,61.2188 705.3906,61.4844 Q705.1563,61.75 704.7813,61.75 Q704.4063,61.75 704.1719,61.4844 Q703.9375,61.2188 703.9375,60.6094 L703.9375,57.2969 L712.75,57.2969 L712.75,60.6094 Q712.75,61.2188 712.5,61.4844 Q712.2656,61.75 711.8906,61.75 Q711.5156,61.75 711.2813,61.4844 Q711.0469,61.2188 711.0469,60.6094 L711.0469,59 L709.1719,59 Z " fill="#000000"/><text fill="#000000" font-family="sans-serif" font-size="14" lengthAdjust="spacing" textLength="64" x="728.75" y="67.3379">Document</text><line style="stroke:#181818;stroke-width:0.5;" x1="660.5" x2="828.5" y1="77.6094" y2="77.6094"/><text fill="#000000" font-family="sans-serif" font-size="14" lengthAdjust="spacing" text-decoration="underline" textLength="11" x="679.5" y="96.1426">id</text><polygon fill="none" points="670.5,104.5234,674.5,108.5234,670.5,112.5234,666.5,108.5234" style="stroke:#B38D22;stroke-width:1.0;"/><text fill="#000000" font-family="sans-serif" font-size="14" lengthAdjust="spacing" textLength="86" x="679.5" y="113.752">metadata_id#</text><text fill="#000000" font-family="sans-serif" font-size="14" lengthAdjust="spacing" textLength="71" x="679.5" y="131.3613">path: string</text><text fill="#000000" font-family="sans-serif" font-size="14" lengthAdjust="spacing" textLength="70" x="679.5" y="148.9707">type: string</text><text fill="#000000" font-family="sans-serif" font-size="14" lengthAdjust="spacing" textLength="140" x="679.5" y="166.5801">created_at: timestamp</text><text fill="#000000" font-family="sans-serif" font-size="14" lengthAdjust="spacing" textLength="144" x="679.5" y="184.1895">updated_at: timestamp</text><line style="stroke:#181818;stroke-width:0.5;" x1="660.5" x2="828.5" y1="191.2656" y2="191.2656"/></g><!--class DocumentMetadata--><g id="elem_DocumentMetadata"><rect codeLine="20" fill="#F1F1F1" height="188.875" id="DocumentMetadata" rx="2.5" ry="2.5" style="stroke:#181818;stroke-width:0.5;" width="195" x="1169" y="260.6094"/><ellipse cx="1202" cy="276.6094" fill="#FFAAAA" rx="11" ry="11" style="stroke:#181818;stroke-width:1.0;"/><path d="M1202.9219,274 L1202.9219,280.6563 L1204.0781,280.6563 Q1204.6875,280.6563 1204.9375,280.8906 Q1205.2031,281.125 1205.2031,281.5156 Q1205.2031,281.8906 1204.9375,282.125 Q1204.6875,282.3594 1204.0781,282.3594 L1200.0938,282.3594 Q1199.4688,282.3594 1199.2031,282.125 Q1198.9531,281.8906 1198.9531,281.5 Q1198.9531,281.125 1199.2031,280.8906 Q1199.4688,280.6563 1200.0938,280.6563 L1201.2188,280.6563 L1201.2188,274 L1199.375,274 L1199.375,275.6094 Q1199.375,276.2188 1199.1406,276.4844 Q1198.9063,276.75 1198.5313,276.75 Q1198.1563,276.75 1197.9219,276.4844 Q1197.6875,276.2188 1197.6875,275.6094 L1197.6875,272.2969 L1206.5,272.2969 L1206.5,275.6094 Q1206.5,276.2188 1206.25,276.4844 Q1206.0156,276.75 1205.6406,276.75 Q1205.2656,276.75 1205.0313,276.4844 Q1204.7969,276.2188 1204.7969,275.6094 L1204.7969,274 L1202.9219,274 Z " fill="#000000"/><text fill="#000000" font-family="sans-serif" font-size="14" lengthAdjust="spacing" textLength="123" x="1220" y="282.3379">DocumentMetadata</text><line style="stroke:#181818;stroke-width:0.5;" x1="1170" x2="1363" y1="292.6094" y2="292.6094"/><text fill="#000000" font-family="sans-serif" font-size="14" lengthAdjust="spacing" text-decoration="underline" textLength="11" x="1175" y="311.1426">id</text><text fill="#000000" font-family="sans-serif" font-size="14" lengthAdjust="spacing" textLength="65" x="1175" y="328.752">title: string</text><text fill="#000000" font-family="sans-serif" font-size="14" lengthAdjust="spacing" textLength="84" x="1175" y="346.3613">author: string</text><text fill="#000000" font-family="sans-serif" font-size="14" lengthAdjust="spacing" textLength="88" x="1175" y="363.9707">subject: string</text><text fill="#000000" font-family="sans-serif" font-size="14" lengthAdjust="spacing" textLength="88" x="1175" y="381.5801">creator: string</text><text fill="#000000" font-family="sans-serif" font-size="14" lengthAdjust="spacing" textLength="100" x="1175" y="399.1895">producer: string</text><text fill="#000000" font-family="sans-serif" font-size="14" lengthAdjust="spacing" textLength="159" x="1175" y="416.7988">creation_date: timestamp</text><text fill="#000000" font-family="sans-serif" font-size="14" lengthAdjust="spacing" textLength="183" x="1175" y="434.4082">modification_date: timestamp</text><line style="stroke:#181818;stroke-width:0.5;" x1="1170" x2="1363" y1="441.4844" y2="441.4844"/></g><!--class Section--><g id="elem_Section"><rect codeLine="31" fill="#F1F1F1" height="171.2656" id="Section" rx="2.5" ry="2.5" style="stroke:#181818;stroke-width:0.5;" width="147" x="9" y="269.6094"/><ellipse cx="54.75" cy="285.6094" fill="#FFAAAA" rx="11" ry="11" style="stroke:#181818;stroke-width:1.0;"/><path d="M55.6719,283 L55.6719,289.6563 L56.8281,289.6563 Q57.4375,289.6563 57.6875,289.8906 Q57.9531,290.125 57.9531,290.5156 Q57.9531,290.8906 57.6875,291.125 Q57.4375,291.3594 56.8281,291.3594 L52.8438,291.3594 Q52.2188,291.3594 51.9531,291.125 Q51.7031,290.8906 51.7031,290.5 Q51.7031,290.125 51.9531,289.8906 Q52.2188,289.6563 52.8438,289.6563 L53.9688,289.6563 L53.9688,283 L52.125,283 L52.125,284.6094 Q52.125,285.2188 51.8906,285.4844 Q51.6563,285.75 51.2813,285.75 Q50.9063,285.75 50.6719,285.4844 Q50.4375,285.2188 50.4375,284.6094 L50.4375,281.2969 L59.25,281.2969 L59.25,284.6094 Q59.25,285.2188 59,285.4844 Q58.7656,285.75 58.3906,285.75 Q58.0156,285.75 57.7813,285.4844 Q57.5469,285.2188 57.5469,284.6094 L57.5469,283 L55.6719,283 Z " fill="#000000"/><text fill="#000000" font-family="sans-serif" font-size="14" lengthAdjust="spacing" textLength="47" x="75.25" y="291.3379">Section</text><line style="stroke:#181818;stroke-width:0.5;" x1="10" x2="155" y1="301.6094" y2="301.6094"/><text fill="#000000" font-family="sans-serif" font-size="14" lengthAdjust="spacing" text-decoration="underline" textLength="11" x="29" y="320.1426">id</text><polygon fill="none" points="20,328.5234,24,332.5234,20,336.5234,16,332.5234" style="stroke:#B38D22;stroke-width:1.0;"/><text fill="#000000" font-family="sans-serif" font-size="14" lengthAdjust="spacing" textLength="89" x="29" y="337.752">document_id#</text><polygon fill="none" points="20,346.1328,24,350.1328,20,354.1328,16,350.1328" style="stroke:#B38D22;stroke-width:1.0;"/><text fill="#000000" font-family="sans-serif" font-size="14" lengthAdjust="spacing" textLength="121" x="29" y="355.3613">parent_section_id#</text><text fill="#000000" font-family="sans-serif" font-size="14" lengthAdjust="spacing" textLength="65" x="29" y="372.9707">title: string</text><text fill="#000000" font-family="sans-serif" font-size="14" lengthAdjust="spacing" textLength="77" x="29" y="390.5801">content: text</text><text fill="#000000" font-family="sans-serif" font-size="14" lengthAdjust="spacing" textLength="81" x="29" y="408.1895">level: integer</text><text fill="#000000" font-family="sans-serif" font-size="14" lengthAdjust="spacing" textLength="114" x="29" y="425.7988">sequence: integer</text><line style="stroke:#181818;stroke-width:0.5;" x1="10" x2="155" y1="432.875" y2="432.875"/></g><!--class Table--><g id="elem_Table"><rect codeLine="41" fill="#F1F1F1" height="136.0469" id="Table" rx="2.5" ry="2.5" style="stroke:#181818;stroke-width:0.5;" width="165" x="437" y="287.1094"/><ellipse cx="497.25" cy="303.1094" fill="#FFAAAA" rx="11" ry="11" style="stroke:#181818;stroke-width:1.0;"/><path d="M498.1719,300.5 L498.1719,307.1563 L499.3281,307.1563 Q499.9375,307.1563 500.1875,307.3906 Q500.4531,307.625 500.4531,308.0156 Q500.4531,308.3906 500.1875,308.625 Q499.9375,308.8594 499.3281,308.8594 L495.3438,308.8594 Q494.7188,308.8594 494.4531,308.625 Q494.2031,308.3906 494.2031,308 Q494.2031,307.625 494.4531,307.3906 Q494.7188,307.1563 495.3438,307.1563 L496.4688,307.1563 L496.4688,300.5 L494.625,300.5 L494.625,302.1094 Q494.625,302.7188 494.3906,302.9844 Q494.1563,303.25 493.7813,303.25 Q493.4063,303.25 493.1719,302.9844 Q492.9375,302.7188 492.9375,302.1094 L492.9375,298.7969 L501.75,298.7969 L501.75,302.1094 Q501.75,302.7188 501.5,302.9844 Q501.2656,303.25 500.8906,303.25 Q500.5156,303.25 500.2813,302.9844 Q500.0469,302.7188 500.0469,302.1094 L500.0469,300.5 L498.1719,300.5 Z " fill="#000000"/><text fill="#000000" font-family="sans-serif" font-size="14" lengthAdjust="spacing" textLength="36" x="517.75" y="308.8379">Table</text><line style="stroke:#181818;stroke-width:0.5;" x1="438" x2="601" y1="319.1094" y2="319.1094"/><text fill="#000000" font-family="sans-serif" font-size="14" lengthAdjust="spacing" text-decoration="underline" textLength="11" x="457" y="337.6426">id</text><polygon fill="none" points="448,346.0234,452,350.0234,448,354.0234,444,350.0234" style="stroke:#B38D22;stroke-width:1.0;"/><text fill="#000000" font-family="sans-serif" font-size="14" lengthAdjust="spacing" textLength="89" x="457" y="355.252">document_id#</text><text fill="#000000" font-family="sans-serif" font-size="14" lengthAdjust="spacing" textLength="84" x="457" y="372.8613">page: integer</text><text fill="#000000" font-family="sans-serif" font-size="14" lengthAdjust="spacing" textLength="139" x="457" y="390.4707">table_number: integer</text><text fill="#000000" font-family="sans-serif" font-size="14" lengthAdjust="spacing" textLength="92" x="457" y="408.0801">accuracy: float</text><line style="stroke:#181818;stroke-width:0.5;" x1="438" x2="601" y1="415.1563" y2="415.1563"/></g><!--class TableRow--><g id="elem_TableRow"><rect codeLine="49" fill="#F1F1F1" height="100.8281" id="TableRow" rx="2.5" ry="2.5" style="stroke:#181818;stroke-width:0.5;" width="156" x="441.5" y="528.1094"/><ellipse cx="483.95" cy="544.1094" fill="#FFAAAA" rx="11" ry="11" style="stroke:#181818;stroke-width:1.0;"/><path d="M484.8719,541.5 L484.8719,548.1563 L486.0281,548.1563 Q486.6375,548.1563 486.8875,548.3906 Q487.1531,548.625 487.1531,549.0156 Q487.1531,549.3906 486.8875,549.625 Q486.6375,549.8594 486.0281,549.8594 L482.0438,549.8594 Q481.4188,549.8594 481.1531,549.625 Q480.9031,549.3906 480.9031,549 Q480.9031,548.625 481.1531,548.3906 Q481.4188,548.1563 482.0438,548.1563 L483.1688,548.1563 L483.1688,541.5 L481.325,541.5 L481.325,543.1094 Q481.325,543.7188 481.0906,543.9844 Q480.8563,544.25 480.4813,544.25 Q480.1063,544.25 479.8719,543.9844 Q479.6375,543.7188 479.6375,543.1094 L479.6375,539.7969 L488.45,539.7969 L488.45,543.1094 Q488.45,543.7188 488.2,543.9844 Q487.9656,544.25 487.5906,544.25 Q487.2156,544.25 486.9813,543.9844 Q486.7469,543.7188 486.7469,543.1094 L486.7469,541.5 L484.8719,541.5 Z " fill="#000000"/><text fill="#000000" font-family="sans-serif" font-size="14" lengthAdjust="spacing" textLength="63" x="504.05" y="549.8379">TableRow</text><line style="stroke:#181818;stroke-width:0.5;" x1="442.5" x2="596.5" y1="560.1094" y2="560.1094"/><text fill="#000000" font-family="sans-serif" font-size="14" lengthAdjust="spacing" text-decoration="underline" textLength="11" x="461.5" y="578.6426">id</text><polygon fill="none" points="452.5,587.0234,456.5,591.0234,452.5,595.0234,448.5,591.0234" style="stroke:#B38D22;stroke-width:1.0;"/><text fill="#000000" font-family="sans-serif" font-size="14" lengthAdjust="spacing" textLength="58" x="461.5" y="596.252">table_id#</text><text fill="#000000" font-family="sans-serif" font-size="14" lengthAdjust="spacing" textLength="130" x="461.5" y="613.8613">row_number: integer</text><line style="stroke:#181818;stroke-width:0.5;" x1="442.5" x2="596.5" y1="620.9375" y2="620.9375"/></g><!--class TableCell--><g id="elem_TableCell"><rect codeLine="55" fill="#F1F1F1" height="118.4375" id="TableCell" rx="2.5" ry="2.5" style="stroke:#181818;stroke-width:0.5;" width="179" x="430" y="707.6094"/><ellipse cx="485.25" cy="723.6094" fill="#FFAAAA" rx="11" ry="11" style="stroke:#181818;stroke-width:1.0;"/><path d="M486.1719,721 L486.1719,727.6563 L487.3281,727.6563 Q487.9375,727.6563 488.1875,727.8906 Q488.4531,728.125 488.4531,728.5156 Q488.4531,728.8906 488.1875,729.125 Q487.9375,729.3594 487.3281,729.3594 L483.3438,729.3594 Q482.7188,729.3594 482.4531,729.125 Q482.2031,728.8906 482.2031,728.5 Q482.2031,728.125 482.4531,727.8906 Q482.7188,727.6563 483.3438,727.6563 L484.4688,727.6563 L484.4688,721 L482.625,721 L482.625,722.6094 Q482.625,723.2188 482.3906,723.4844 Q482.1563,723.75 481.7813,723.75 Q481.4063,723.75 481.1719,723.4844 Q480.9375,723.2188 480.9375,722.6094 L480.9375,719.2969 L489.75,719.2969 L489.75,722.6094 Q489.75,723.2188 489.5,723.4844 Q489.2656,723.75 488.8906,723.75 Q488.5156,723.75 488.2813,723.4844 Q488.0469,723.2188 488.0469,722.6094 L488.0469,721 L486.1719,721 Z " fill="#000000"/><text fill="#000000" font-family="sans-serif" font-size="14" lengthAdjust="spacing" textLength="60" x="505.75" y="729.3379">TableCell</text><line style="stroke:#181818;stroke-width:0.5;" x1="431" x2="608" y1="739.6094" y2="739.6094"/><text fill="#000000" font-family="sans-serif" font-size="14" lengthAdjust="spacing" text-decoration="underline" textLength="11" x="450" y="758.1426">id</text><polygon fill="none" points="441,766.5234,445,770.5234,441,774.5234,437,770.5234" style="stroke:#B38D22;stroke-width:1.0;"/><text fill="#000000" font-family="sans-serif" font-size="14" lengthAdjust="spacing" textLength="49" x="450" y="775.752">row_id#</text><text fill="#000000" font-family="sans-serif" font-size="14" lengthAdjust="spacing" textLength="153" x="450" y="793.3613">column_number: integer</text><text fill="#000000" font-family="sans-serif" font-size="14" lengthAdjust="spacing" textLength="90" x="450" y="810.9707">content: string</text><line style="stroke:#181818;stroke-width:0.5;" x1="431" x2="608" y1="818.0469" y2="818.0469"/></g><!--class Schema--><g id="elem_Schema"><rect codeLine="62" fill="#F1F1F1" height="118.4375" id="Schema" rx="2.5" ry="2.5" style="stroke:#181818;stroke-width:0.5;" width="115" x="823" y="296.1094"/><ellipse cx="852.4" cy="312.1094" fill="#FFAAAA" rx="11" ry="11" style="stroke:#181818;stroke-width:1.0;"/><path d="M853.3219,309.5 L853.3219,316.1563 L854.4781,316.1563 Q855.0875,316.1563 855.3375,316.3906 Q855.6031,316.625 855.6031,317.0156 Q855.6031,317.3906 855.3375,317.625 Q855.0875,317.8594 854.4781,317.8594 L850.4938,317.8594 Q849.8688,317.8594 849.6031,317.625 Q849.3531,317.3906 849.3531,317 Q849.3531,316.625 849.6031,316.3906 Q849.8688,316.1563 850.4938,316.1563 L851.6188,316.1563 L851.6188,309.5 L849.775,309.5 L849.775,311.1094 Q849.775,311.7188 849.5406,311.9844 Q849.3063,312.25 848.9313,312.25 Q848.5563,312.25 848.3219,311.9844 Q848.0875,311.7188 848.0875,311.1094 L848.0875,307.7969 L856.9,307.7969 L856.9,311.1094 Q856.9,311.7188 856.65,311.9844 Q856.4156,312.25 856.0406,312.25 Q855.6656,312.25 855.4313,311.9844 Q855.1969,311.7188 855.1969,311.1094 L855.1969,309.5 L853.3219,309.5 Z " fill="#000000"/><text fill="#000000" font-family="sans-serif" font-size="14" lengthAdjust="spacing" textLength="51" x="869.6" y="317.8379">Schema</text><line style="stroke:#181818;stroke-width:0.5;" x1="824" x2="937" y1="328.1094" y2="328.1094"/><text fill="#000000" font-family="sans-serif" font-size="14" lengthAdjust="spacing" text-decoration="underline" textLength="11" x="843" y="346.6426">id</text><polygon fill="none" points="834,355.0234,838,359.0234,834,363.0234,830,359.0234" style="stroke:#B38D22;stroke-width:1.0;"/><text fill="#000000" font-family="sans-serif" font-size="14" lengthAdjust="spacing" textLength="89" x="843" y="364.252">document_id#</text><text fill="#000000" font-family="sans-serif" font-size="14" lengthAdjust="spacing" textLength="70" x="843" y="381.8613">type: string</text><text fill="#000000" font-family="sans-serif" font-size="14" lengthAdjust="spacing" textLength="65" x="843" y="399.4707">title: string</text><line style="stroke:#181818;stroke-width:0.5;" x1="824" x2="937" y1="406.5469" y2="406.5469"/></g><!--class SchemaProperty--><g id="elem_SchemaProperty"><rect codeLine="69" fill="#F1F1F1" height="136.0469" id="SchemaProperty" rx="2.5" ry="2.5" style="stroke:#181818;stroke-width:0.5;" width="138" x="811.5" y="510.6094"/><ellipse cx="826.95" cy="526.6094" fill="#FFAAAA" rx="11" ry="11" style="stroke:#181818;stroke-width:1.0;"/><path d="M827.8719,524 L827.8719,530.6563 L829.0281,530.6563 Q829.6375,530.6563 829.8875,530.8906 Q830.1531,531.125 830.1531,531.5156 Q830.1531,531.8906 829.8875,532.125 Q829.6375,532.3594 829.0281,532.3594 L825.0438,532.3594 Q824.4188,532.3594 824.1531,532.125 Q823.9031,531.8906 823.9031,531.5 Q823.9031,531.125 824.1531,530.8906 Q824.4188,530.6563 825.0438,530.6563 L826.1688,530.6563 L826.1688,524 L824.325,524 L824.325,525.6094 Q824.325,526.2188 824.0906,526.4844 Q823.8563,526.75 823.4813,526.75 Q823.1063,526.75 822.8719,526.4844 Q822.6375,526.2188 822.6375,525.6094 L822.6375,522.2969 L831.45,522.2969 L831.45,525.6094 Q831.45,526.2188 831.2,526.4844 Q830.9656,526.75 830.5906,526.75 Q830.2156,526.75 829.9813,526.4844 Q829.7469,526.2188 829.7469,525.6094 L829.7469,524 L827.8719,524 Z " fill="#000000"/><text fill="#000000" font-family="sans-serif" font-size="14" lengthAdjust="spacing" textLength="105" x="841.05" y="532.3379">SchemaProperty</text><line style="stroke:#181818;stroke-width:0.5;" x1="812.5" x2="948.5" y1="542.6094" y2="542.6094"/><text fill="#000000" font-family="sans-serif" font-size="14" lengthAdjust="spacing" text-decoration="underline" textLength="11" x="831.5" y="561.1426">id</text><polygon fill="none" points="822.5,569.5234,826.5,573.5234,822.5,577.5234,818.5,573.5234" style="stroke:#B38D22;stroke-width:1.0;"/><text fill="#000000" font-family="sans-serif" font-size="14" lengthAdjust="spacing" textLength="76" x="831.5" y="578.752">schema_id#</text><text fill="#000000" font-family="sans-serif" font-size="14" lengthAdjust="spacing" textLength="78" x="831.5" y="596.3613">name: string</text><text fill="#000000" font-family="sans-serif" font-size="14" lengthAdjust="spacing" textLength="70" x="831.5" y="613.9707">type: string</text><text fill="#000000" font-family="sans-serif" font-size="14" lengthAdjust="spacing" textLength="112" x="831.5" y="631.5801">required: boolean</text><line style="stroke:#181818;stroke-width:0.5;" x1="812.5" x2="948.5" y1="638.6563" y2="638.6563"/></g><g id="elem_GMN18"><path d="M865,101.1094 L865,118.6094 L829.81,122.6094 L865,126.6094 L865,143.8125 A0,0 0 0 0 865,143.8125 L1038,143.8125 A0,0 0 0 0 1038,143.8125 L1038,111.1094 L1028,101.1094 L865,101.1094 A0,0 0 0 0 865,101.1094 " fill="#FEFFDD" style="stroke:#181818;stroke-width:0.5;"/><path d="M1028,101.1094 L1028,111.1094 L1038,111.1094 L1028,101.1094 " fill="#FEFFDD" style="stroke:#181818;stroke-width:0.5;"/><text fill="#000000" font-family="sans-serif" font-size="13" lengthAdjust="spacing" textLength="152" x="871" y="119.6045">Central entity representing</text><text fill="#000000" font-family="sans-serif" font-size="13" lengthAdjust="spacing" textLength="132" x="871" y="135.9561">a processed document</text></g><g id="elem_GMN21"><path d="M257.5,333.6094 L257.5,351.1094 L156.31,355.1094 L257.5,359.1094 L257.5,376.3125 A0,0 0 0 0 257.5,376.3125 L401.5,376.3125 A0,0 0 0 0 401.5,376.3125 L401.5,343.6094 L391.5,333.6094 L257.5,333.6094 A0,0 0 0 0 257.5,333.6094 " fill="#FEFFDD" style="stroke:#181818;stroke-width:0.5;"/><path d="M391.5,333.6094 L391.5,343.6094 L401.5,343.6094 L391.5,333.6094 " fill="#FEFFDD" style="stroke:#181818;stroke-width:0.5;"/><text fill="#000000" font-family="sans-serif" font-size="13" lengthAdjust="spacing" textLength="123" x="263.5" y="352.1045">Hierarchical structure</text><text fill="#000000" font-family="sans-serif" font-size="13" lengthAdjust="spacing" textLength="118" x="263.5" y="368.4561">of document content</text></g><g id="elem_GMN24"><path d="M637.5,333.6094 L637.5,351.1094 L602.05,355.1094 L637.5,359.1094 L637.5,376.3125 A0,0 0 0 0 637.5,376.3125 L787.5,376.3125 A0,0 0 0 0 787.5,376.3125 L787.5,343.6094 L777.5,333.6094 L637.5,333.6094 A0,0 0 0 0 637.5,333.6094 " fill="#FEFFDD" style="stroke:#181818;stroke-width:0.5;"/><path d="M777.5,333.6094 L777.5,343.6094 L787.5,343.6094 L777.5,333.6094 " fill="#FEFFDD" style="stroke:#181818;stroke-width:0.5;"/><text fill="#000000" font-family="sans-serif" font-size="13" lengthAdjust="spacing" textLength="129" x="643.5" y="352.1045">Tabular data extracted</text><text fill="#000000" font-family="sans-serif" font-size="13" lengthAdjust="spacing" textLength="93" x="643.5" y="368.4561">from documents</text></g><g id="elem_GMN27"><path d="M973.5,333.6094 L973.5,351.1094 L938.28,355.1094 L973.5,359.1094 L973.5,376.3125 A0,0 0 0 0 973.5,376.3125 L1133.5,376.3125 A0,0 0 0 0 1133.5,376.3125 L1133.5,343.6094 L1123.5,333.6094 L973.5,333.6094 A0,0 0 0 0 973.5,333.6094 " fill="#FEFFDD" style="stroke:#181818;stroke-width:0.5;"/><path d="M1123.5,333.6094 L1123.5,343.6094 L1133.5,343.6094 L1123.5,333.6094 " fill="#FEFFDD" style="stroke:#181818;stroke-width:0.5;"/><text fill="#000000" font-family="sans-serif" font-size="13" lengthAdjust="spacing" textLength="139" x="979.5" y="352.1045">Document structure and</text><text fill="#000000" font-family="sans-serif" font-size="13" lengthAdjust="spacing" textLength="85" x="979.5" y="368.4561">validation rules</text></g><!--link Document to DocumentMetadata--><g id="link_Document_DocumentMetadata"><path codeLine="78" d="M836.6091,194.5076 C842.4991,197.8276 841.51,196.9494 847.5,199.6094 C973.09,255.2694 1026.13,202.2794 1150.5,260.6094 C1156.71,263.5194 1155.9921,262.7435 1162.0521,266.3435 " fill="none" id="Document-DocumentMetadata" style="stroke:#181818;stroke-width:1.0;"/><line style="stroke:#181818;stroke-width:1.0;" x1="831.1604" x2="835.0887" y1="196.0281" y2="189.0589"/><line style="stroke:#181818;stroke-width:1.0;" x1="833.7739" x2="837.7021" y1="197.5012" y2="190.532"/><line style="stroke:#181818;stroke-width:1.0;" x1="836.6091" x2="829.64" y1="194.5076" y2="190.5794"/><line style="stroke:#181818;stroke-width:1.0;" x1="1167.534" x2="1163.4481" y1="264.9475" y2="271.8254"/><line style="stroke:#181818;stroke-width:1.0;" x1="1164.9548" x2="1160.8689" y1="263.4153" y2="270.2932"/><line style="stroke:#181818;stroke-width:1.0;" x1="1162.0521" x2="1168.93" y1="266.3435" y2="270.4294"/></g><!--link Document to Section--><g id="link_Document_Section"><path codeLine="79" d="M651.2065,140.9541 C548.8465,161.5041 381.26,200.4994 239.5,260.6094 C211.17,272.6194 197.1276,279.5708 171.5276,295.2208 " fill="none" id="Document-Section" style="stroke:#181818;stroke-width:1.0;"/><line style="stroke:#181818;stroke-width:1.0;" x1="654.3409" x2="655.9156" y1="136.245" y2="144.0885"/><line style="stroke:#181818;stroke-width:1.0;" x1="651.3996" x2="652.9743" y1="136.8355" y2="144.679"/><line style="stroke:#181818;stroke-width:1.0;" x1="651.2065" x2="659.05" y1="140.9541" y2="139.3794"/><line style="stroke:#181818;stroke-width:1.0;" x1="162.9956" x2="159.2995" y1="300.4367" y2="309.7286"/><line style="stroke:#181818;stroke-width:1.0;" x1="162.9956" x2="153.0405" y1="300.4367" y2="299.4902"/><line style="stroke:#181818;stroke-width:1.0;" x1="162.9956" x2="156.17" y1="300.4367" y2="304.6094"/><ellipse cx="168.1148" cy="297.3072" fill="none" rx="4" ry="4" style="stroke:#181818;stroke-width:1.0;"/></g><!--link Document to Table--><g id="link_Document_Table"><path codeLine="80" d="M664.6126,205.4448 C637.0926,233.6448 624.2738,246.7792 597.5938,274.1092 " fill="none" id="Document-Table" style="stroke:#181818;stroke-width:1.0;"/><line style="stroke:#181818;stroke-width:1.0;" x1="664.5436" x2="670.269" y1="199.7884" y2="205.3758"/><line style="stroke:#181818;stroke-width:1.0;" x1="662.4483" x2="668.1738" y1="201.9355" y2="207.5229"/><line style="stroke:#181818;stroke-width:1.0;" x1="664.6126" x2="670.2" y1="205.4448" y2="199.7194"/><line style="stroke:#181818;stroke-width:1.0;" x1="590.6084" x2="589.3134" y1="281.2649" y2="291.1807"/><line style="stroke:#181818;stroke-width:1.0;" x1="590.6084" x2="580.7266" y1="281.2649" y2="282.7981"/><line style="stroke:#181818;stroke-width:1.0;" x1="590.6084" x2="585.02" y1="281.2649" y2="286.9894"/><ellipse cx="594.7996" cy="276.9715" fill="none" rx="4" ry="4" style="stroke:#181818;stroke-width:1.0;"/></g><!--link Document to Schema--><g id="link_Document_Schema"><path codeLine="81" d="M793.4751,206.6096 C811.9651,237.9496 824.9141,259.8996 842.1341,289.0796 " fill="none" id="Document-Schema" style="stroke:#181818;stroke-width:1.0;"/><line style="stroke:#181818;stroke-width:1.0;" x1="787.9974" x2="794.8877" y1="205.197" y2="201.1319"/><line style="stroke:#181818;stroke-width:1.0;" x1="789.5219" x2="796.4121" y1="207.7809" y2="203.7158"/><line style="stroke:#181818;stroke-width:1.0;" x1="793.4751" x2="789.41" y1="206.6096" y2="199.7194"/><line style="stroke:#181818;stroke-width:1.0;" x1="847.612" x2="840.7222" y1="290.4916" y2="294.5574"/><line style="stroke:#181818;stroke-width:1.0;" x1="846.0873" x2="839.1975" y1="287.9079" y2="291.9738"/><line style="stroke:#181818;stroke-width:1.0;" x1="842.1341" x2="846.2" y1="289.0796" y2="295.9694"/></g><!--link Section to Section--><g id="link_Section_Section"><path codeLine="83" d="M173.9961,333.133 C193.8561,334.353 191,340.9394 191,355.1094 C191,369.2794 183.8749,376.4789 164.0149,377.6989 " fill="none" id="Section-Section" style="stroke:#181818;stroke-width:1.0;"/><line style="stroke:#181818;stroke-width:1.0;" x1="164.0149" x2="155.6621" y1="332.5199" y2="338.0181"/><line style="stroke:#181818;stroke-width:1.0;" x1="164.0149" x2="156.3979" y1="332.5199" y2="326.0407"/><line style="stroke:#181818;stroke-width:1.0;" x1="164.0149" x2="156.03" y1="332.5199" y2="332.0294"/><ellipse cx="170.0037" cy="332.8878" fill="none" rx="4" ry="4" style="stroke:#181818;stroke-width:1.0;"/><line style="stroke:#181818;stroke-width:1.0;" x1="160.2677" x2="159.7772" y1="381.9366" y2="373.9516"/><line style="stroke:#181818;stroke-width:1.0;" x1="163.2621" x2="162.7716" y1="381.7526" y2="373.7677"/><line style="stroke:#181818;stroke-width:1.0;" x1="164.0149" x2="156.03" y1="377.6989" y2="378.1894"/><text fill="#000000" font-family="sans-serif" font-size="13" lengthAdjust="spacing" textLength="36" x="197" y="360.6045">parent</text></g><!--link Table to TableRow--><g id="link_Table_TableRow"><path codeLine="85" d="M519.5,431.1694 C519.5,464.9094 519.5,479.0994 519.5,510.0194 " fill="none" id="Table-TableRow" style="stroke:#181818;stroke-width:1.0;"/><line style="stroke:#181818;stroke-width:1.0;" x1="515.5" x2="523.5" y1="427.1694" y2="427.1694"/><line style="stroke:#181818;stroke-width:1.0;" x1="515.5" x2="523.5" y1="430.1694" y2="430.1694"/><line style="stroke:#181818;stroke-width:1.0;" x1="519.5" x2="519.5" y1="431.1694" y2="423.1694"/><line style="stroke:#181818;stroke-width:1.0;" x1="519.5" x2="525.5" y1="520.0194" y2="528.0194"/><line style="stroke:#181818;stroke-width:1.0;" x1="519.5" x2="513.5" y1="520.0194" y2="528.0194"/><line style="stroke:#181818;stroke-width:1.0;" x1="519.5" x2="519.5" y1="520.0194" y2="528.0194"/><ellipse cx="519.5" cy="514.0194" fill="none" rx="4" ry="4" style="stroke:#181818;stroke-width:1.0;"/></g><!--link TableRow to TableCell--><g id="link_TableRow_TableCell"><path codeLine="86" d="M519.5,637.4494 C519.5,661.4494 519.5,664.3694 519.5,689.3794 " fill="none" id="TableRow-TableCell" style="stroke:#181818;stroke-width:1.0;"/><line style="stroke:#181818;stroke-width:1.0;" x1="515.5" x2="523.5" y1="633.4494" y2="633.4494"/><line style="stroke:#181818;stroke-width:1.0;" x1="515.5" x2="523.5" y1="636.4494" y2="636.4494"/><line style="stroke:#181818;stroke-width:1.0;" x1="519.5" x2="519.5" y1="637.4494" y2="629.4494"/><line style="stroke:#181818;stroke-width:1.0;" x1="519.5" x2="525.5" y1="699.3794" y2="707.3794"/><line style="stroke:#181818;stroke-width:1.0;" x1="519.5" x2="513.5" y1="699.3794" y2="707.3794"/><line style="stroke:#181818;stroke-width:1.0;" x1="519.5" x2="519.5" y1="699.3794" y2="707.3794"/><ellipse cx="519.5" cy="693.3794" fill="none" rx="4" ry="4" style="stroke:#181818;stroke-width:1.0;"/></g><!--link Schema to SchemaProperty--><g id="link_Schema_SchemaProperty"><path codeLine="88" d="M880.5,422.3094 C880.5,451.7894 880.5,461.7394 880.5,492.3894 " fill="none" id="Schema-SchemaProperty" style="stroke:#181818;stroke-width:1.0;"/><line style="stroke:#181818;stroke-width:1.0;" x1="876.5" x2="884.5" y1="418.3094" y2="418.3094"/><line style="stroke:#181818;stroke-width:1.0;" x1="876.5" x2="884.5" y1="421.3094" y2="421.3094"/><line style="stroke:#181818;stroke-width:1.0;" x1="880.5" x2="880.5" y1="422.3094" y2="414.3094"/><line style="stroke:#181818;stroke-width:1.0;" x1="880.5" x2="886.5" y1="502.3894" y2="510.3894"/><line style="stroke:#181818;stroke-width:1.0;" x1="880.5" x2="874.5" y1="502.3894" y2="510.3894"/><line style="stroke:#181818;stroke-width:1.0;" x1="880.5" x2="880.5" y1="502.3894" y2="510.3894"/><ellipse cx="880.5" cy="496.3894" fill="none" rx="4" ry="4" style="stroke:#181818;stroke-width:1.0;"/></g><!--SRC=[dLHDRzim3BthLt3eeGsmOlSWA33q0xjqADhU3KPY4csov55I6wFfVvzanqxif4LG7sIRf1uVdqYTmrEeZRPByKtHGbk2W7D35-i9I8FUmnfcCxXu_dvsT_SpFHEukkf3AzObSbtyfJflcCMhzUn7tFaNZaalRUS_Mvy9SGxFEXWI8Q_me2ioEVG60yAzKsJWzX5kD2uPonnzQrEa9YzQNZTEnf9icC2RWFJiKz1gqjZsqvOKK2NiedDM65PJy85ppTaGwee61ic4WLI1OGf1b-G3bbNZYPKwudaN8sxtsvoVSMpA7wJ565QE1oOVvtz8XaDsexYAdOgI-31GErjapkDAIgVqGilZ0Nr1Jobv2ZXLQxMjlpZch92poxUGnSSwI6T3Yao4Q1qQYw4NCbFGoRuaRfMXVv6if9sr9_sSrozJhd19mrGDQc5ZESy2xtjGoiWewoaiZCCmel3eNazbqQReFEnU3z8DeQ_9c5EnCrfdbyx4qXwjfLTzUnAx7f0hAl7BUXvCr_30HsaUs5N4eJurdMzszSaiblJvR7Fg6ysafZ1tpX3QpE0S7iaqe-1NklAYcsFOR2ulDniOp_KmmBt1TauExCrX7S2rfGgntGNlhZLlVwVGZeeGpVO1LkefqNqC7BaZ4cA3tBCQI9hB_Er2kaXjMe7rSXN0BVhYaZpNwSLeWFALMoUjAYQVVnhnC5ypahmd1Tqn2x8ACfuOeNQA0FpInCXobIuRaqyYoX2PaYD5TJ1Tztq8rme9-HqDCkHJW7GzfEbBzt5oBDYLFPp_c5OhFVHLxnW1sWpqWaQhfXU0ew4zgFy0]--></g></svg>