<?xml version="1.0" encoding="us-ascii" standalone="no"?><svg xmlns="http://www.w3.org/2000/svg" xmlns:xlink="http://www.w3.org/1999/xlink" contentStyleType="text/css" height="1412px" preserveAspectRatio="none" style="width:1441px;height:1412px;background:#FFFFFF;" version="1.1" viewBox="0 0 1441 1412" width="1441px" zoomAndPan="magnify"><defs/><g><text fill="#000000" font-family="sans-serif" font-size="14" font-weight="bold" lengthAdjust="spacing" textLength="223" x="602" y="24.5332">Document Pipeline Architecture</text><!--cluster input--><g id="cluster_input"><rect fill="#ADD8E6" height="232" rx="2.5" ry="2.5" style="stroke:#999999;stroke-width:1.0;" width="272" x="448" y="45.6094"/><text fill="#000000" font-family="sans-serif" font-size="14" font-weight="bold" lengthAdjust="spacing" textLength="71" x="548.5" y="62.1426">Input Data</text></g><!--cluster core--><g id="cluster_core"><rect fill="#90EE90" height="277" rx="2.5" ry="2.5" style="stroke:#999999;stroke-width:1.0;" width="350" x="752" y="174.6094"/><text fill="#000000" font-family="sans-serif" font-size="14" font-weight="bold" lengthAdjust="spacing" textLength="95" x="879.5" y="191.1426">Pipeline Core</text></g><!--cluster stages--><g id="cluster_stages"><rect fill="#FFFFE0" height="590" rx="2.5" ry="2.5" style="stroke:#999999;stroke-width:1.0;" width="161" x="559" y="343.6094"/><text fill="#000000" font-family="sans-serif" font-size="14" font-weight="bold" lengthAdjust="spacing" textLength="131" x="574" y="360.1426">Processing Stages</text></g><!--cluster strategies--><g id="cluster_strategies"><rect fill="#FFB6C1" height="298" rx="2.5" ry="2.5" style="stroke:#999999;stroke-width:1.0;" width="350" x="854" y="817.6094"/><text fill="#000000" font-family="sans-serif" font-size="14" font-weight="bold" lengthAdjust="spacing" textLength="72" x="993" y="834.1426">Strategies</text></g><!--cluster models--><g id="cluster_models"><rect fill="#E0FFFF" height="243" rx="2.5" ry="2.5" style="stroke:#999999;stroke-width:1.0;" width="342" x="472" y="999.6094"/><text fill="#000000" font-family="sans-serif" font-size="14" font-weight="bold" lengthAdjust="spacing" textLength="52" x="617" y="1016.1426">Models</text></g><!--cluster utils--><g id="cluster_utils"><rect fill="#D3D3D3" height="242" rx="2.5" ry="2.5" style="stroke:#999999;stroke-width:1.0;" width="271" x="182" y="509.6094"/><text fill="#000000" font-family="sans-serif" font-size="14" font-weight="bold" lengthAdjust="spacing" textLength="53" x="291" y="526.1426">Utilities</text></g><!--cluster output--><g id="cluster_output"><rect fill="#ADD8E6" height="233" rx="2.5" ry="2.5" style="stroke:#999999;stroke-width:1.0;" width="283" x="149" y="1004.6094"/><text fill="#000000" font-family="sans-serif" font-size="14" font-weight="bold" lengthAdjust="spacing" textLength="83" x="249" y="1021.1426">Output Data</text></g><!--entity pdf--><g id="elem_pdf"><path d="M472,92.1094 L472,124.7188 A2.5,2.5 0 0 0 474.5,127.2188 L551.5,127.2188 A2.5,2.5 0 0 0 554,124.7188 L554,99.6094 L544,89.6094 L474.5,89.6094 A2.5,2.5 0 0 0 472,92.1094 " fill="#F1F1F1" style="stroke:#181818;stroke-width:0.5;"/><path d="M544,89.6094 L544,97.1094 A2.5,2.5 0 0 0 546.5,99.6094 L554,99.6094 " fill="#F1F1F1" style="stroke:#181818;stroke-width:0.5;"/><text fill="#000000" font-family="sans-serif" font-size="14" lengthAdjust="spacing" textLength="62" x="482" y="114.1426">PDF Files</text></g><!--entity excel--><g id="elem_excel"><path d="M589.5,92.1094 L589.5,124.7188 A2.5,2.5 0 0 0 592,127.2188 L674,127.2188 A2.5,2.5 0 0 0 676.5,124.7188 L676.5,99.6094 L666.5,89.6094 L592,89.6094 A2.5,2.5 0 0 0 589.5,92.1094 " fill="#F1F1F1" style="stroke:#181818;stroke-width:0.5;"/><path d="M666.5,89.6094 L666.5,97.1094 A2.5,2.5 0 0 0 669,99.6094 L676.5,99.6094 " fill="#F1F1F1" style="stroke:#181818;stroke-width:0.5;"/><text fill="#000000" font-family="sans-serif" font-size="14" lengthAdjust="spacing" textLength="67" x="599.5" y="114.1426">Excel Files</text></g><!--entity word--><g id="elem_word"><path d="M472,218.1094 L472,250.7188 A2.5,2.5 0 0 0 474.5,253.2188 L557.5,253.2188 A2.5,2.5 0 0 0 560,250.7188 L560,225.6094 L550,215.6094 L474.5,215.6094 A2.5,2.5 0 0 0 472,218.1094 " fill="#F1F1F1" style="stroke:#181818;stroke-width:0.5;"/><path d="M550,215.6094 L550,223.1094 A2.5,2.5 0 0 0 552.5,225.6094 L560,225.6094 " fill="#F1F1F1" style="stroke:#181818;stroke-width:0.5;"/><text fill="#000000" font-family="sans-serif" font-size="14" lengthAdjust="spacing" textLength="68" x="482" y="240.1426">Word Files</text></g><!--entity text--><g id="elem_text"><path d="M595.5,218.1094 L595.5,250.7188 A2.5,2.5 0 0 0 598,253.2188 L674,253.2188 A2.5,2.5 0 0 0 676.5,250.7188 L676.5,225.6094 L666.5,215.6094 L598,215.6094 A2.5,2.5 0 0 0 595.5,218.1094 " fill="#F1F1F1" style="stroke:#181818;stroke-width:0.5;"/><path d="M666.5,215.6094 L666.5,223.1094 A2.5,2.5 0 0 0 669,225.6094 L676.5,225.6094 " fill="#F1F1F1" style="stroke:#181818;stroke-width:0.5;"/><text fill="#000000" font-family="sans-serif" font-size="14" lengthAdjust="spacing" textLength="61" x="605.5" y="240.1426">Text Files</text></g><!--entity pipeline--><g id="elem_pipeline"><rect fill="#EEEEEE" height="47.6094" rx="2.5" ry="2.5" style="stroke:#999999;stroke-width:0.5;" width="174" x="861" y="210.6094"/><rect fill="#EEEEEE" height="10" style="stroke:#999999;stroke-width:0.5;" width="15" x="1015" y="215.6094"/><rect fill="#EEEEEE" height="2" style="stroke:#999999;stroke-width:0.5;" width="4" x="1013" y="217.6094"/><rect fill="#EEEEEE" height="2" style="stroke:#999999;stroke-width:0.5;" width="4" x="1013" y="221.6094"/><text fill="#000000" font-family="sans-serif" font-size="14" lengthAdjust="spacing" textLength="134" x="876" y="245.1426">Pipeline Orchestrator</text></g><!--entity config--><g id="elem_config"><rect fill="#EEEEEE" height="47.6094" rx="2.5" ry="2.5" style="stroke:#999999;stroke-width:0.5;" width="137" x="768.5" y="387.6094"/><rect fill="#EEEEEE" height="10" style="stroke:#999999;stroke-width:0.5;" width="15" x="885.5" y="392.6094"/><rect fill="#EEEEEE" height="2" style="stroke:#999999;stroke-width:0.5;" width="4" x="883.5" y="394.6094"/><rect fill="#EEEEEE" height="2" style="stroke:#999999;stroke-width:0.5;" width="4" x="883.5" y="398.6094"/><text fill="#000000" font-family="sans-serif" font-size="14" lengthAdjust="spacing" textLength="97" x="783.5" y="422.1426">ConfigManager</text></g><!--entity selector--><g id="elem_selector"><rect fill="#EEEEEE" height="47.6094" rx="2.5" ry="2.5" style="stroke:#999999;stroke-width:0.5;" width="145" x="940.5" y="387.6094"/><rect fill="#EEEEEE" height="10" style="stroke:#999999;stroke-width:0.5;" width="15" x="1065.5" y="392.6094"/><rect fill="#EEEEEE" height="2" style="stroke:#999999;stroke-width:0.5;" width="4" x="1063.5" y="394.6094"/><rect fill="#EEEEEE" height="2" style="stroke:#999999;stroke-width:0.5;" width="4" x="1063.5" y="398.6094"/><text fill="#000000" font-family="sans-serif" font-size="14" lengthAdjust="spacing" textLength="105" x="955.5" y="422.1426">StrategySelector</text></g><!--entity analyzer--><g id="elem_analyzer"><rect fill="#EEEEEE" height="47.6094" rx="2.5" ry="2.5" style="stroke:#999999;stroke-width:0.5;" width="94" x="602" y="387.6094"/><rect fill="#EEEEEE" height="10" style="stroke:#999999;stroke-width:0.5;" width="15" x="676" y="392.6094"/><rect fill="#EEEEEE" height="2" style="stroke:#999999;stroke-width:0.5;" width="4" x="674" y="394.6094"/><rect fill="#EEEEEE" height="2" style="stroke:#999999;stroke-width:0.5;" width="4" x="674" y="398.6094"/><text fill="#000000" font-family="sans-serif" font-size="14" lengthAdjust="spacing" textLength="54" x="617" y="422.1426">Analyzer</text></g><!--entity cleaner--><g id="elem_cleaner"><rect fill="#EEEEEE" height="47.6094" rx="2.5" ry="2.5" style="stroke:#999999;stroke-width:0.5;" width="90" x="601" y="553.6094"/><rect fill="#EEEEEE" height="10" style="stroke:#999999;stroke-width:0.5;" width="15" x="671" y="558.6094"/><rect fill="#EEEEEE" height="2" style="stroke:#999999;stroke-width:0.5;" width="4" x="669" y="560.6094"/><rect fill="#EEEEEE" height="2" style="stroke:#999999;stroke-width:0.5;" width="4" x="669" y="564.6094"/><text fill="#000000" font-family="sans-serif" font-size="14" lengthAdjust="spacing" textLength="50" x="616" y="588.1426">Cleaner</text></g><!--entity extractor--><g id="elem_extractor"><rect fill="#EEEEEE" height="47.6094" rx="2.5" ry="2.5" style="stroke:#999999;stroke-width:0.5;" width="96" x="600" y="679.6094"/><rect fill="#EEEEEE" height="10" style="stroke:#999999;stroke-width:0.5;" width="15" x="676" y="684.6094"/><rect fill="#EEEEEE" height="2" style="stroke:#999999;stroke-width:0.5;" width="4" x="674" y="686.6094"/><rect fill="#EEEEEE" height="2" style="stroke:#999999;stroke-width:0.5;" width="4" x="674" y="690.6094"/><text fill="#000000" font-family="sans-serif" font-size="14" lengthAdjust="spacing" textLength="56" x="615" y="714.1426">Extractor</text></g><!--entity validator--><g id="elem_validator"><rect fill="#EEEEEE" height="47.6094" rx="2.5" ry="2.5" style="stroke:#999999;stroke-width:0.5;" width="96" x="597" y="861.6094"/><rect fill="#EEEEEE" height="10" style="stroke:#999999;stroke-width:0.5;" width="15" x="673" y="866.6094"/><rect fill="#EEEEEE" height="2" style="stroke:#999999;stroke-width:0.5;" width="4" x="671" y="868.6094"/><rect fill="#EEEEEE" height="2" style="stroke:#999999;stroke-width:0.5;" width="4" x="671" y="872.6094"/><text fill="#000000" font-family="sans-serif" font-size="14" lengthAdjust="spacing" textLength="56" x="612" y="896.1426">Validator</text></g><!--entity pdfstrat--><g id="elem_pdfstrat"><rect fill="#EEEEEE" height="47.6094" rx="2.5" ry="2.5" style="stroke:#999999;stroke-width:0.5;" width="121" x="1058.5" y="861.6094"/><rect fill="#EEEEEE" height="10" style="stroke:#999999;stroke-width:0.5;" width="15" x="1159.5" y="866.6094"/><rect fill="#EEEEEE" height="2" style="stroke:#999999;stroke-width:0.5;" width="4" x="1157.5" y="868.6094"/><rect fill="#EEEEEE" height="2" style="stroke:#999999;stroke-width:0.5;" width="4" x="1157.5" y="872.6094"/><text fill="#000000" font-family="sans-serif" font-size="14" lengthAdjust="spacing" textLength="81" x="1073.5" y="896.1426">PDFStrategy</text></g><!--entity excelstrat--><g id="elem_excelstrat"><rect fill="#EEEEEE" height="47.6094" rx="2.5" ry="2.5" style="stroke:#999999;stroke-width:0.5;" width="126" x="897" y="861.6094"/><rect fill="#EEEEEE" height="10" style="stroke:#999999;stroke-width:0.5;" width="15" x="1003" y="866.6094"/><rect fill="#EEEEEE" height="2" style="stroke:#999999;stroke-width:0.5;" width="4" x="1001" y="868.6094"/><rect fill="#EEEEEE" height="2" style="stroke:#999999;stroke-width:0.5;" width="4" x="1001" y="872.6094"/><text fill="#000000" font-family="sans-serif" font-size="14" lengthAdjust="spacing" textLength="86" x="912" y="896.1426">ExcelStrategy</text></g><!--entity wordstrat--><g id="elem_wordstrat"><rect fill="#EEEEEE" height="47.6094" rx="2.5" ry="2.5" style="stroke:#999999;stroke-width:0.5;" width="127" x="897.5" y="1043.6094"/><rect fill="#EEEEEE" height="10" style="stroke:#999999;stroke-width:0.5;" width="15" x="1004.5" y="1048.6094"/><rect fill="#EEEEEE" height="2" style="stroke:#999999;stroke-width:0.5;" width="4" x="1002.5" y="1050.6094"/><rect fill="#EEEEEE" height="2" style="stroke:#999999;stroke-width:0.5;" width="4" x="1002.5" y="1054.6094"/><text fill="#000000" font-family="sans-serif" font-size="14" lengthAdjust="spacing" textLength="87" x="912.5" y="1078.1426">WordStrategy</text></g><!--entity textstrat--><g id="elem_textstrat"><rect fill="#EEEEEE" height="47.6094" rx="2.5" ry="2.5" style="stroke:#999999;stroke-width:0.5;" width="120" x="1060" y="1043.6094"/><rect fill="#EEEEEE" height="10" style="stroke:#999999;stroke-width:0.5;" width="15" x="1160" y="1048.6094"/><rect fill="#EEEEEE" height="2" style="stroke:#999999;stroke-width:0.5;" width="4" x="1158" y="1050.6094"/><rect fill="#EEEEEE" height="2" style="stroke:#999999;stroke-width:0.5;" width="4" x="1158" y="1054.6094"/><text fill="#000000" font-family="sans-serif" font-size="14" lengthAdjust="spacing" textLength="80" x="1075" y="1078.1426">TextStrategy</text></g><!--entity doc--><g id="elem_doc"><rect fill="#EEEEEE" height="47.6094" rx="2.5" ry="2.5" style="stroke:#999999;stroke-width:0.5;" width="104" x="496" y="1043.6094"/><rect fill="#EEEEEE" height="10" style="stroke:#999999;stroke-width:0.5;" width="15" x="580" y="1048.6094"/><rect fill="#EEEEEE" height="2" style="stroke:#999999;stroke-width:0.5;" width="4" x="578" y="1050.6094"/><rect fill="#EEEEEE" height="2" style="stroke:#999999;stroke-width:0.5;" width="4" x="578" y="1054.6094"/><text fill="#000000" font-family="sans-serif" font-size="14" lengthAdjust="spacing" textLength="64" x="511" y="1078.1426">Document</text></g><!--entity structured--><g id="elem_structured"><rect fill="#EEEEEE" height="47.6094" rx="2.5" ry="2.5" style="stroke:#999999;stroke-width:0.5;" width="136" x="635" y="1043.6094"/><rect fill="#EEEEEE" height="10" style="stroke:#999999;stroke-width:0.5;" width="15" x="751" y="1048.6094"/><rect fill="#EEEEEE" height="2" style="stroke:#999999;stroke-width:0.5;" width="4" x="749" y="1050.6094"/><rect fill="#EEEEEE" height="2" style="stroke:#999999;stroke-width:0.5;" width="4" x="749" y="1054.6094"/><text fill="#000000" font-family="sans-serif" font-size="14" lengthAdjust="spacing" textLength="96" x="650" y="1078.1426">StructuredData</text></g><!--entity valresult--><g id="elem_valresult"><rect fill="#EEEEEE" height="47.6094" rx="2.5" ry="2.5" style="stroke:#999999;stroke-width:0.5;" width="142" x="496" y="1170.6094"/><rect fill="#EEEEEE" height="10" style="stroke:#999999;stroke-width:0.5;" width="15" x="618" y="1175.6094"/><rect fill="#EEEEEE" height="2" style="stroke:#999999;stroke-width:0.5;" width="4" x="616" y="1177.6094"/><rect fill="#EEEEEE" height="2" style="stroke:#999999;stroke-width:0.5;" width="4" x="616" y="1181.6094"/><text fill="#000000" font-family="sans-serif" font-size="14" lengthAdjust="spacing" textLength="102" x="511" y="1205.1426">ValidationResult</text></g><!--entity logging--><g id="elem_logging"><rect fill="#EEEEEE" height="47.6094" rx="2.5" ry="2.5" style="stroke:#999999;stroke-width:0.5;" width="91" x="337.5" y="553.6094"/><rect fill="#EEEEEE" height="10" style="stroke:#999999;stroke-width:0.5;" width="15" x="408.5" y="558.6094"/><rect fill="#EEEEEE" height="2" style="stroke:#999999;stroke-width:0.5;" width="4" x="406.5" y="560.6094"/><rect fill="#EEEEEE" height="2" style="stroke:#999999;stroke-width:0.5;" width="4" x="406.5" y="564.6094"/><text fill="#000000" font-family="sans-serif" font-size="14" lengthAdjust="spacing" textLength="51" x="352.5" y="588.1426">Logging</text></g><!--entity fileio--><g id="elem_fileio"><rect fill="#EEEEEE" height="47.6094" rx="2.5" ry="2.5" style="stroke:#999999;stroke-width:0.5;" width="77" x="225.5" y="553.6094"/><rect fill="#EEEEEE" height="10" style="stroke:#999999;stroke-width:0.5;" width="15" x="282.5" y="558.6094"/><rect fill="#EEEEEE" height="2" style="stroke:#999999;stroke-width:0.5;" width="4" x="280.5" y="560.6094"/><rect fill="#EEEEEE" height="2" style="stroke:#999999;stroke-width:0.5;" width="4" x="280.5" y="564.6094"/><text fill="#000000" font-family="sans-serif" font-size="14" lengthAdjust="spacing" textLength="37" x="240.5" y="588.1426">FileIO</text></g><!--entity error--><g id="elem_error"><rect fill="#EEEEEE" height="47.6094" rx="2.5" ry="2.5" style="stroke:#999999;stroke-width:0.5;" width="127" x="301.5" y="679.6094"/><rect fill="#EEEEEE" height="10" style="stroke:#999999;stroke-width:0.5;" width="15" x="408.5" y="684.6094"/><rect fill="#EEEEEE" height="2" style="stroke:#999999;stroke-width:0.5;" width="4" x="406.5" y="686.6094"/><rect fill="#EEEEEE" height="2" style="stroke:#999999;stroke-width:0.5;" width="4" x="406.5" y="690.6094"/><text fill="#000000" font-family="sans-serif" font-size="14" lengthAdjust="spacing" textLength="87" x="316.5" y="714.1426">ErrorHandling</text></g><!--entity yaml--><g id="elem_yaml"><path d="M173.5,1051.1094 L173.5,1083.7188 A2.5,2.5 0 0 0 176,1086.2188 L262,1086.2188 A2.5,2.5 0 0 0 264.5,1083.7188 L264.5,1058.6094 L254.5,1048.6094 L176,1048.6094 A2.5,2.5 0 0 0 173.5,1051.1094 " fill="#F1F1F1" style="stroke:#181818;stroke-width:0.5;"/><path d="M254.5,1048.6094 L254.5,1056.1094 A2.5,2.5 0 0 0 257,1058.6094 L264.5,1058.6094 " fill="#F1F1F1" style="stroke:#181818;stroke-width:0.5;"/><text fill="#000000" font-family="sans-serif" font-size="14" lengthAdjust="spacing" textLength="71" x="183.5" y="1073.1426">YAML Files</text></g><!--entity json--><g id="elem_json"><path d="M299.5,1051.1094 L299.5,1083.7188 A2.5,2.5 0 0 0 302,1086.2188 L386,1086.2188 A2.5,2.5 0 0 0 388.5,1083.7188 L388.5,1058.6094 L378.5,1048.6094 L302,1048.6094 A2.5,2.5 0 0 0 299.5,1051.1094 " fill="#F1F1F1" style="stroke:#181818;stroke-width:0.5;"/><path d="M378.5,1048.6094 L378.5,1056.1094 A2.5,2.5 0 0 0 381,1058.6094 L388.5,1058.6094 " fill="#F1F1F1" style="stroke:#181818;stroke-width:0.5;"/><text fill="#000000" font-family="sans-serif" font-size="14" lengthAdjust="spacing" textLength="69" x="309.5" y="1073.1426">JSON Files</text></g><!--entity reports--><g id="elem_reports"><path d="M184,1178.1094 L184,1210.7188 A2.5,2.5 0 0 0 186.5,1213.2188 L251.5,1213.2188 A2.5,2.5 0 0 0 254,1210.7188 L254,1185.6094 L244,1175.6094 L186.5,1175.6094 A2.5,2.5 0 0 0 184,1178.1094 " fill="#F1F1F1" style="stroke:#181818;stroke-width:0.5;"/><path d="M244,1175.6094 L244,1183.1094 A2.5,2.5 0 0 0 246.5,1185.6094 L254,1185.6094 " fill="#F1F1F1" style="stroke:#181818;stroke-width:0.5;"/><text fill="#000000" font-family="sans-serif" font-size="14" lengthAdjust="spacing" textLength="50" x="194" y="1200.1426">Reports</text></g><g id="elem_GMN49"><path d="M1189.5,213.1094 L1189.5,230.6094 L1035.16,234.6094 L1189.5,238.6094 L1189.5,255.8125 A0,0 0 0 0 1189.5,255.8125 L1420.5,255.8125 A0,0 0 0 0 1420.5,255.8125 L1420.5,223.1094 L1410.5,213.1094 L1189.5,213.1094 A0,0 0 0 0 1189.5,213.1094 " fill="#EEEEEE" style="stroke:#999999;stroke-width:0.5;"/><path d="M1410.5,213.1094 L1410.5,223.1094 L1420.5,223.1094 L1410.5,213.1094 " fill="#EEEEEE" style="stroke:#999999;stroke-width:0.5;"/><text fill="#000000" font-family="sans-serif" font-size="13" lengthAdjust="spacing" textLength="207" x="1195.5" y="231.6045">Orchestrates the entire pipeline flow</text><text fill="#000000" font-family="sans-serif" font-size="13" lengthAdjust="spacing" textLength="210" x="1195.5" y="247.9561">and manages the processing stages</text></g><g id="elem_GMN52"><path d="M1228,1046.1094 L1228,1088.8125 L1434,1088.8125 L1434,1056.1094 L1424,1046.1094 L1228,1046.1094 " fill="#EEEEEE" style="stroke:#999999;stroke-width:0.5;"/><path d="M1424,1046.1094 L1424,1056.1094 L1434,1056.1094 L1424,1046.1094 " fill="#EEEEEE" style="stroke:#999999;stroke-width:1.0;"/><text fill="#000000" font-family="sans-serif" font-size="13" lengthAdjust="spacing" textLength="185" x="1234" y="1064.6045">Strategy pattern implementation</text><text fill="#000000" font-family="sans-serif" font-size="13" lengthAdjust="spacing" textLength="171" x="1234" y="1080.9561">for different document formats</text></g><g id="elem_GMN55"><path d="M838.5,1173.1094 L838.5,1215.8125 L1053.5,1215.8125 L1053.5,1183.1094 L1043.5,1173.1094 L838.5,1173.1094 " fill="#EEEEEE" style="stroke:#999999;stroke-width:0.5;"/><path d="M1043.5,1173.1094 L1043.5,1183.1094 L1053.5,1183.1094 L1043.5,1173.1094 " fill="#EEEEEE" style="stroke:#999999;stroke-width:1.0;"/><text fill="#000000" font-family="sans-serif" font-size="13" lengthAdjust="spacing" textLength="164" x="844.5" y="1191.6045">Data structures representing</text><text fill="#000000" font-family="sans-serif" font-size="13" lengthAdjust="spacing" textLength="194" x="844.5" y="1207.9561">documents and extracted content</text></g><g id="elem_GMN58"><path d="M6,682.1094 L6,724.8125 L158,724.8125 L158,692.1094 L148,682.1094 L6,682.1094 " fill="#EEEEEE" style="stroke:#999999;stroke-width:0.5;"/><path d="M148,682.1094 L148,692.1094 L158,692.1094 L148,682.1094 " fill="#EEEEEE" style="stroke:#999999;stroke-width:1.0;"/><text fill="#000000" font-family="sans-serif" font-size="13" lengthAdjust="spacing" textLength="129" x="12" y="700.6045">Common utilities used</text><text fill="#000000" font-family="sans-serif" font-size="13" lengthAdjust="spacing" textLength="131" x="12" y="716.9561">throughout the pipeline</text></g><!--link input to pipeline--><g id="link_input_pipeline"><path d="M720.1389,113.8842 C720.2698,113.9529 720.4022,114.0225 720.536,114.0928 C720.8035,114.2334 721.0768,114.377 721.3558,114.5235 C722.4714,115.1097 723.6772,115.7432 724.9677,116.4212 C727.5487,117.7773 730.4688,119.3116 733.6855,121.0017 C746.5522,127.7622 764.1644,137.0163 783.8038,147.3356 C823.0825,167.9744 865.1587,190.0834 898.9087,207.8184 " fill="none" id="input-to-pipeline" style="stroke:#666666;stroke-width:1.0;"/><polygon fill="#666666" points="904.22,210.6094,898.1137,202.882,899.7939,208.2835,894.3923,209.9638,904.22,210.6094" style="stroke:#666666;stroke-width:1.0;"/></g><!--link pipeline to analyzer--><g id="link_pipeline_analyzer"><path d="M889.5,258.7094 C849.51,275.5294 795.99,300.1194 752,327.6094 C723.76,345.2594 698.9685,365.5691 678.8685,383.3091 " fill="none" id="pipeline-to-analyzer" style="stroke:#666666;stroke-width:1.0;"/><polygon fill="#666666" points="674.37,387.2794,683.7646,384.3229,678.1188,383.9708,678.4709,378.3249,674.37,387.2794" style="stroke:#666666;stroke-width:1.0;"/><text fill="#000000" font-family="sans-serif" font-size="13" lengthAdjust="spacing" textLength="62" x="794" y="316.1045">1. Analyze</text></g><!--link analyzer to cleaner--><g id="link_analyzer_cleaner"><path d="M648.58,435.7594 C648,467.0194 647.0996,516.3804 646.5296,547.5804 " fill="none" id="analyzer-to-cleaner" style="stroke:#666666;stroke-width:1.0;"/><polygon fill="#666666" points="646.42,553.5794,650.5837,544.6539,646.5113,548.5802,642.5851,544.5078,646.42,553.5794" style="stroke:#666666;stroke-width:1.0;"/><text fill="#000000" font-family="sans-serif" font-size="13" lengthAdjust="spacing" textLength="48" x="648" y="482.1045">2. Clean</text></g><!--link cleaner to extractor--><g id="link_cleaner_extractor"><path d="M646.37,601.6394 C646.73,623.7794 647.1755,651.0501 647.5255,673.2801 " fill="none" id="cleaner-to-extractor" style="stroke:#666666;stroke-width:1.0;"/><polygon fill="#666666" points="647.62,679.2794,651.4778,670.2175,647.5413,674.28,643.4788,670.3435,647.62,679.2794" style="stroke:#666666;stroke-width:1.0;"/><text fill="#000000" font-family="sans-serif" font-size="13" lengthAdjust="spacing" textLength="57" x="648" y="646.1045">3. Extract</text></g><!--link extractor to validator--><g id="link_extractor_validator"><path d="M647.61,727.7694 C647.04,762.3394 646.0608,821.0202 645.4808,855.5402 " fill="none" id="extractor-to-validator" style="stroke:#666666;stroke-width:1.0;"/><polygon fill="#666666" points="645.38,861.5394,649.5306,852.6078,645.464,856.5401,641.5318,852.4734,645.38,861.5394" style="stroke:#666666;stroke-width:1.0;"/><text fill="#000000" font-family="sans-serif" font-size="13" lengthAdjust="spacing" textLength="62" x="647" y="790.1045">4. Validate</text></g><!--link validator to output--><g id="link_validator_output"><path d="M596.81,907.7794 C561.72,924.7994 514.51,951.1794 480,983.6094 C464.295,998.3694 450.665,1018.3044 440.785,1034.9381 C438.315,1039.0966 436.0794,1043.0487 434.1043,1046.662 C433.6105,1047.5653 433.133,1048.4475 432.6722,1049.3064 C432.5571,1049.5212 432.4429,1049.7344 432.3298,1049.9462 C432.2732,1050.0521 435.0384,1044.8624 434.9824,1044.9676 " fill="none" id="validator-to-output" style="stroke:#666666;stroke-width:1.0;"/><polygon fill="#666666" points="432.1609,1050.2628,439.9233,1044.2009,434.5121,1045.8501,432.863,1040.439,432.1609,1050.2628" style="stroke:#666666;stroke-width:1.0;"/><text fill="#000000" font-family="sans-serif" font-size="13" lengthAdjust="spacing" textLength="54" x="509" y="972.1045">5. Output</text></g><!--link pipeline to config--><g id="link_pipeline_config"><path d="M933.26,258.8494 C911.97,292.4094 876.0645,349.0231 854.8345,382.4831 " fill="none" id="pipeline-to-config" style="stroke:#666666;stroke-width:1.0;"/><polygon fill="#666666" points="851.62,387.5494,859.8192,382.093,854.2987,383.3275,853.0642,377.807,851.62,387.5494" style="stroke:#666666;stroke-width:1.0;"/><text fill="#000000" font-family="sans-serif" font-size="13" lengthAdjust="spacing" textLength="28" x="906" y="316.1045">uses</text></g><!--link pipeline to selector--><g id="link_pipeline_selector"><path d="M956.63,258.8494 C969.1,292.4094 989.9206,348.4649 1002.3506,381.9249 " fill="none" id="pipeline-to-selector" style="stroke:#666666;stroke-width:1.0;"/><polygon fill="#666666" points="1004.44,387.5494,1005.0555,377.7198,1002.6988,382.8623,997.5563,380.5057,1004.44,387.5494" style="stroke:#666666;stroke-width:1.0;"/><text fill="#000000" font-family="sans-serif" font-size="13" lengthAdjust="spacing" textLength="28" x="979" y="316.1045">uses</text></g><!--link selector to strategies--><g id="link_selector_strategies"><path d="M1004.12,436.0294 C981.52,496.1194 920.85,660.9494 881,801.6094 C879.7513,806.0181 878.5263,810.5763 877.3376,815.1829 C877.189,815.7588 877.041,816.3354 876.8936,816.9125 C876.8567,817.0568 878.3013,811.3869 878.2646,811.5313 " fill="none" id="selector-to-strategies" style="stroke:#666666;stroke-width:1.0;"/><polygon fill="#666666" points="876.7831,817.3455,882.8814,809.6118,878.0176,812.5003,875.1291,807.6365,876.7831,817.3455" style="stroke:#666666;stroke-width:1.0;"/><text fill="#000000" font-family="sans-serif" font-size="13" lengthAdjust="spacing" textLength="42" x="935" y="646.1045">selects</text></g><!--link analyzer to strategies--><g id="link_analyzer_strategies"><path d="M623.29,435.7594 C608.73,450.6594 591.89,471.3494 584,493.6094 C543.3,608.3794 517.84,664.7294 583,767.6094 C614.73,817.6994 655.47,783.7194 712,801.6094 C747.755,812.9244 784.65,833.2069 812.9013,850.8894 C827.0269,859.7306 838.9916,867.9219 847.5723,874.0172 C849.7175,875.541 851.6512,876.9338 853.3543,878.1731 C853.5672,878.328 848.9297,874.9437 849.1354,875.0938 " fill="none" id="analyzer-to-strategies" style="stroke:#666666;stroke-width:1.0;"/><polygon fill="#666666" points="853.9822,878.6306,849.0698,870.0942,849.9432,875.6833,844.3541,876.5566,853.9822,878.6306" style="stroke:#666666;stroke-width:1.0;"/><text fill="#000000" font-family="sans-serif" font-size="13" lengthAdjust="spacing" textLength="28" x="544" y="646.1045">uses</text></g><!--link cleaner to strategies--><g id="link_cleaner_strategies"><path d="M680.69,601.6394 C692.11,610.2194 704.34,620.5694 714,631.6094 C756.23,679.8544 792.7425,741.8969 818.935,792.4681 C832.0313,817.7538 842.5475,840.1716 849.9084,856.563 C850.8286,858.6119 851.6994,860.5667 852.5198,862.4211 C852.93,863.3483 853.3275,864.2504 853.7124,865.1267 C853.8086,865.3458 851.495,860.0681 851.5896,860.2839 " fill="none" id="cleaner-to-strategies" style="stroke:#666666;stroke-width:1.0;"/><polygon fill="#666666" points="853.9986,865.7791,854.0486,855.9303,851.9911,861.1998,846.7217,859.1423,853.9986,865.7791" style="stroke:#666666;stroke-width:1.0;"/><text fill="#000000" font-family="sans-serif" font-size="13" lengthAdjust="spacing" textLength="28" x="806" y="709.1045">uses</text></g><!--link extractor to strategies--><g id="link_extractor_strategies"><path d="M675.54,727.7694 C703.985,751.6994 749.6,790.0669 788.5925,822.8631 C808.0887,839.2613 825.9294,854.2666 839.1403,865.378 C842.443,868.1558 845.4564,870.6903 848.134,872.9423 C849.4728,874.0684 850.7276,875.1238 851.8926,876.1037 C852.4752,876.5936 853.0352,877.0647 853.5722,877.5163 C853.7064,877.6292 849.2474,873.8788 849.3787,873.9893 " fill="none" id="extractor-to-strategies" style="stroke:#666666;stroke-width:1.0;"/><polygon fill="#666666" points="853.9705,877.8513,849.6576,868.997,850.144,874.6329,844.5081,875.1194,853.9705,877.8513" style="stroke:#666666;stroke-width:1.0;"/><text fill="#000000" font-family="sans-serif" font-size="13" lengthAdjust="spacing" textLength="28" x="749" y="790.1045">uses</text></g><!--link validator to models--><g id="link_validator_models"><path d="M668.32,909.9494 C689.68,930.0794 723.05,958.5394 757,975.6094 C769.33,981.8094 777.42,973.6794 787,983.6094 C790.1825,986.9069 792.8728,990.6228 795.1435,994.6075 C795.7111,995.6037 796.2526,996.6166 796.7689,997.6441 C797.0271,998.1578 797.279,998.6751 797.5248,999.1958 C797.5862,999.3259 795.1187,994.0151 795.1794,994.1457 " fill="none" id="validator-to-models" style="stroke:#666666;stroke-width:1.0;"/><polygon fill="#666666" points="797.7079,999.5869,797.5426,989.7394,795.6008,995.0525,790.2877,993.1108,797.7079,999.5869" style="stroke:#666666;stroke-width:1.0;"/><text fill="#000000" font-family="sans-serif" font-size="13" lengthAdjust="spacing" textLength="50" x="758" y="972.1045">validates</text></g><!--link strategies to models--><g id="link_strategies_models"><path d="M853.9772,898.1808 C853.9251,898.2593 853.8728,898.3382 853.8204,898.4174 C853.6106,898.7343 853.3979,899.0564 853.1826,899.3837 C852.752,900.0383 852.3107,900.7134 851.8599,901.408 C850.0566,904.1864 848.1016,907.2762 846.0713,910.6069 C837.95,923.9294 828.625,941.1044 823,957.6094 C819.1075,969.0294 816.1012,981.43 813.7808,993.6369 C813.4907,995.1627 813.2114,996.6856 812.9424,998.2031 C812.8751,998.5825 813.8383,993.0505 813.7723,993.4292 " fill="none" id="strategies-to-models" style="stroke:#666666;stroke-width:1.0;"/><polygon fill="#666666" points="812.7425,999.3402,818.2278,991.1602,813.6007,994.4144,810.3465,989.7872,812.7425,999.3402" style="stroke:#666666;stroke-width:1.0;"/><text fill="#000000" font-family="sans-serif" font-size="13" lengthAdjust="spacing" textLength="56" x="824" y="972.1045">populates</text></g><!--link pipeline to utils--><g id="link_pipeline_utils"><path d="M860.8,256.0894 C811.6,267.4794 748.96,281.7194 693,293.6094 C465.33,341.9894 350.5,308.7994 209,493.6094 C206.2138,497.2481 203.8238,501.2227 201.7749,505.3983 C201.2627,506.4422 200.7718,507.4987 200.3013,508.5656 C200.1837,508.8324 202.4344,503.5864 202.3194,503.8544 " fill="none" id="pipeline-to-utils" style="stroke:#666666;stroke-width:1.0;"/><polygon fill="#666666" points="199.9523,509.3678,207.1785,502.6758,201.9249,504.7733,199.8273,499.5197,199.9523,509.3678" style="stroke:#666666;stroke-width:1.0;"/><text fill="#000000" font-family="sans-serif" font-size="13" lengthAdjust="spacing" textLength="28" x="487" y="417.1045">uses</text></g><!--link stages to utils--><g id="link_stages_utils"><path d="M558.6908,418.8851 C558.4827,419.0409 558.2712,419.199 558.0564,419.3596 C556.3381,420.644 554.4085,422.0805 552.2998,423.6416 C543.8653,429.8856 532.5669,438.1206 520.4762,446.5694 C496.295,463.4669 468.945,481.2194 455,485.6094 C441.96,489.7194 219.55,484.9194 209,493.6094 C205.4638,496.5231 202.5053,499.9483 200.0366,503.7183 C199.4194,504.6608 198.8329,505.6248 198.2755,506.6078 C197.9968,507.0993 197.7255,507.5955 197.4613,508.0962 C197.3291,508.3465 197.1988,508.5979 197.0703,508.8504 C197.006,508.9767 199.6261,503.7369 199.5627,503.8637 " fill="none" id="stages-to-utils" style="stroke:#666666;stroke-width:1.0;"/><polygon fill="#666666" points="196.8787,509.2299,204.4821,502.9699,199.1153,504.7581,197.3271,499.3913,196.8787,509.2299" style="stroke:#666666;stroke-width:1.0;"/><text fill="#000000" font-family="sans-serif" font-size="13" lengthAdjust="spacing" textLength="28" x="489" y="482.1045">uses</text></g><!--link strategies to GMN52--><g id="link_strategies_GMN52"><path d="M1204.2496,986.6125 C1204.4113,986.6749 1204.5731,986.7374 1204.7348,986.8002 C1205.0582,986.9257 1205.3817,987.052 1205.705,987.179 C1206.3518,987.4331 1206.9984,987.6903 1207.6448,987.9505 C1208.9375,988.4709 1210.2294,989.0032 1211.5198,989.5468 C1216.6817,991.7211 1221.8212,994.0754 1226.9055,996.5639 C1237.0741,1001.5409 1247.0219,1007.055 1256.4863,1012.7406 C1275.415,1024.1119 1292.41,1036.1694 1305.37,1045.9894 " fill="none" id="strategies-GMN52" style="stroke:#666666;stroke-width:1.0;stroke-dasharray:7.0,7.0;"/></g><!--link models to GMN55--><g id="link_models_GMN55"><path d="M814.102,1075.8465 C814.3005,1076.0237 814.5021,1076.2037 814.7069,1076.3866 C816.3452,1077.8496 818.1846,1079.4921 820.1989,1081.2908 C828.2559,1088.4853 839.1106,1098.1775 851.0838,1108.8681 C875.03,1130.2494 903.45,1155.6244 922.91,1172.9994 " fill="none" id="models-GMN55" style="stroke:#666666;stroke-width:1.0;stroke-dasharray:7.0,7.0;"/></g><!--link utils to GMN58--><g id="link_utils_GMN58"><path d="M181.8305,587.985 C181.6591,588.1817 181.4855,588.3811 181.3095,588.5831 C180.6058,589.3911 179.8659,590.2406 179.0925,591.1286 C172.905,598.2328 164.5675,607.8063 155.365,618.3731 C136.96,639.5069 115.095,664.6144 100.05,681.8894 " fill="none" id="utils-GMN58" style="stroke:#666666;stroke-width:1.0;stroke-dasharray:7.0,7.0;"/></g><rect fill="none" height="133.2656" id="_legend" rx="7.5" ry="7.5" style="stroke:#000000;stroke-width:1.0;" width="269" x="1146" y="1259.6094"/><text fill="#000000" font-family="sans-serif" font-size="14" font-weight="bold" lengthAdjust="spacing" textLength="94" x="1151" y="1279.1426">Pipeline Flow</text><text fill="#000000" font-family="sans-serif" font-size="14" lengthAdjust="spacing" textLength="140" x="1151" y="1296.752">1. Input data is loaded</text><text fill="#000000" font-family="sans-serif" font-size="14" lengthAdjust="spacing" textLength="259" x="1151" y="1314.3613">2. Analyzer examines document structure</text><text fill="#000000" font-family="sans-serif" font-size="14" lengthAdjust="spacing" textLength="188" x="1151" y="1331.9707">3. Cleaner normalizes content</text><text fill="#000000" font-family="sans-serif" font-size="14" lengthAdjust="spacing" textLength="205" x="1151" y="1349.5801">4. Extractor pulls structured data</text><text fill="#000000" font-family="sans-serif" font-size="14" lengthAdjust="spacing" textLength="213" x="1151" y="1367.1895">5. Validator ensures data integrity</text><text fill="#000000" font-family="sans-serif" font-size="14" lengthAdjust="spacing" textLength="252" x="1151" y="1384.7988">6. Output is generated in desired format</text><!--SRC=[XLPBRniv3BxFhn2QGu00CR3fji3ci40Q9zikaYQ8korwL3tqM1kDD90qJTnY__kIr6CUTbiVR57yHFAZICh7OWaRPK3uiDFWA_-eJ2UTRCNQjfqrOCAADA9lzTb8-qMk7njdUrDVMcsTUDgg02FzXNFsAQgENlDdfBpCfjzOLuDBi3_uSn0sStPqnPyHzBqDy7DZZFYbdGTO1saQ_GjZ0-m75gjZyK453LMWRx6qwxv58k9UTQ0ftHTkJHbRXzu1eM-bCaFAVUMo1_7YdUdw89Ooo1T2Ug5OFBfHpJQyqJs8xvKG6qN8- -MrkCQLPs1NRuhcwdaDUgG3aels4v8TAPzGBBeFy1n6ke1YzLyrZgzmkhGE6BJ6HOhmBmTWECH2RdJY3hC0FZWPh8in9yqKVsdDHZMtqiW6NF90ErFKYkn0irk1nk2IGP-4USpEhi5xPHgn2cWralEyJ95_1gtjqppq2oFrxbkAGYPX5gq6QNASSJq5N3rZf2L2oD8Kz55gLPUyVCtIZ4VYh0g1B2OIzyeyxcL_UPrJbUk4pys3n0gPuBXc3Y2fUYP0gfy3EAga2OvgAUAcf6vjZOuOql8oaRdSoRrIoft5wDgkzqgYvnQhI_luidKmtygQ1_2z3ZdjZgLPXFy4fLN8MUzHygNUvMuUuurj6gmqnkgudWAelTxTiPwQJjdPLU0iTM-bgNMs0hGpY-ck3vCvOQDyS51ylhYz6JNrJhR3CFXxTVT-fFlNMrDq3z1P5wB2nJL5SIpUefDJ3Lzno6omQweuf4vF_nmwEYzuDtUEE1U_BKHggghi4YIr3YBE5e9xgifRf2vjWu2N2v5wgXgs2LJQ1a6_BqIwOwY6VKAbJ9sBLmiHiqYKokk3J3KNXj-gpazvn3c4HtiFCrMUF5bPP5OEZNgUa7vAVu9W0sFs-zefyNtzb7Bgg_ES8OflE391TBRhDICcz6BHPsvnSExjOnhftVMLmM_Xg1A5tOod_F02uFcm1O49L_Xw55zSJW8BfXOjFm0HrWq3F3gl017afehEljWGR4lU1c9e9myWqSaGm1cXsau3JH2-OgfqJ56jDXjmTFTrVhbnkvNX9svYmj00TU0mPhXHy8TuSTzdYvuvfMk3caefuFQF7N1cqG0MPciDYpo3ADKqpC8M_uWqMwpccA6SvC7WiRY11iLAyq-y43nvSb9Uv6jCzya9xc5RnZyUDT5HDBbapNxEIiCw35-sUCmFUIh44VaoDIu23QLFgs_W2r51BLdUGe5LfiVZcHqZw5NfMmI1yPpJ61JQQPmAEqIzpgrBeI8ve6kk4I9gy8hCnGlaR4JwrVy0]--></g></svg>