<?xml version="1.0" encoding="us-ascii" standalone="no"?><svg xmlns="http://www.w3.org/2000/svg" xmlns:xlink="http://www.w3.org/1999/xlink" contentStyleType="text/css" height="1812px" preserveAspectRatio="none" style="width:1318px;height:1812px;background:#FFFFFF;" version="1.1" viewBox="0 0 1318 1812" width="1318px" zoomAndPan="magnify"><defs/><g><text fill="#000000" font-family="sans-serif" font-size="14" font-weight="bold" lengthAdjust="spacing" textLength="223" x="540.5" y="24.5332">Document Pipeline Architecture</text><!--cluster input--><g id="cluster_input"><rect fill="#ADD8E6" height="127" rx="2.5" ry="2.5" style="stroke:#999999;stroke-width:1.0;" width="380" x="754" y="45.6094"/><text fill="#000000" font-family="sans-serif" font-size="14" font-weight="bold" lengthAdjust="spacing" textLength="36" x="926" y="62.1426">Input</text></g><!--cluster core--><g id="cluster_core"><rect fill="#90EE90" height="226" rx="2.5" ry="2.5" style="stroke:#999999;stroke-width:1.0;" width="543" x="570" y="230.6094"/><text fill="#000000" font-family="sans-serif" font-size="14" font-weight="bold" lengthAdjust="spacing" textLength="95" x="794" y="247.1426">Pipeline Core</text></g><!--cluster stages--><g id="cluster_stages"><rect fill="#FFFFE0" height="577" rx="2.5" ry="2.5" style="stroke:#999999;stroke-width:1.0;" width="381" x="286" y="514.6094"/><text fill="#000000" font-family="sans-serif" font-size="14" font-weight="bold" lengthAdjust="spacing" textLength="131" x="411" y="531.1426">Processing Stages</text></g><!--cluster formatters--><g id="cluster_formatters"><rect fill="#FFB6C1" height="255.72" rx="2.5" ry="2.5" style="stroke:#999999;stroke-width:1.0;" width="580" x="7" y="1157.6094"/><text fill="#000000" font-family="sans-serif" font-size="14" font-weight="bold" lengthAdjust="spacing" textLength="77" x="258.5" y="1174.1426">Formatters</text></g><!--cluster models--><g id="cluster_models"><rect fill="#E0FFFF" height="242" rx="2.5" ry="2.5" style="stroke:#999999;stroke-width:1.0;" width="294" x="707" y="678.6094"/><text fill="#000000" font-family="sans-serif" font-size="14" font-weight="bold" lengthAdjust="spacing" textLength="52" x="828" y="695.1426">Models</text></g><!--cluster utils--><g id="cluster_utils"><rect fill="#D3D3D3" height="242" rx="2.5" ry="2.5" style="stroke:#999999;stroke-width:1.0;" width="271" x="1041" y="678.6094"/><text fill="#000000" font-family="sans-serif" font-size="14" font-weight="bold" lengthAdjust="spacing" textLength="53" x="1150" y="695.1426">Utilities</text></g><!--cluster output--><g id="cluster_output"><rect fill="#ADD8E6" height="296" rx="2.5" ry="2.5" style="stroke:#999999;stroke-width:1.0;" width="395" x="627" y="1258.3294"/><text fill="#000000" font-family="sans-serif" font-size="14" font-weight="bold" lengthAdjust="spacing" textLength="48" x="800.5" y="1274.8626">Output</text></g><!--cluster json--><g id="cluster_json"><path d="M773,1312.8294 L773,1519.8294 A2.5,2.5 0 0 0 775.5,1522.3294 L987.5,1522.3294 A2.5,2.5 0 0 0 990,1519.8294 L990,1320.3294 L980,1310.3294 L775.5,1310.3294 A2.5,2.5 0 0 0 773,1312.8294 " fill="none" style="stroke:#181818;stroke-width:1.0;"/><path d="M980,1310.3294 L980,1317.8294 A2.5,2.5 0 0 0 982.5,1320.3294 L990,1320.3294 " fill="none" style="stroke:#181818;stroke-width:1.0;"/><text fill="#000000" font-family="sans-serif" font-size="14" font-weight="bold" lengthAdjust="spacing" textLength="38" x="862.5" y="1326.8626">JSON</text></g><!--entity pdf--><g id="elem_pdf"><path d="M797.5,102.6094 L797.5,135.2188 A2.5,2.5 0 0 0 800,137.7188 L918,137.7188 A2.5,2.5 0 0 0 920.5,135.2188 L920.5,110.1094 L910.5,100.1094 L800,100.1094 A2.5,2.5 0 0 0 797.5,102.6094 " fill="#F1F1F1" style="stroke:#181818;stroke-width:0.5;"/><path d="M910.5,100.1094 L910.5,107.6094 A2.5,2.5 0 0 0 913,110.1094 L920.5,110.1094 " fill="#F1F1F1" style="stroke:#181818;stroke-width:0.5;"/><text fill="#000000" font-family="sans-serif" font-size="14" lengthAdjust="spacing" textLength="103" x="807.5" y="124.6426">PDF Documents</text></g><g id="elem_GMN4"><path d="M956,89.6094 L956,115.1094 L920.51,119.1094 L956,123.1094 L956,148.6641 A0,0 0 0 0 956,148.6641 L1110,148.6641 A0,0 0 0 0 1110,148.6641 L1110,99.6094 L1100,89.6094 L956,89.6094 A0,0 0 0 0 956,89.6094 " fill="#EEEEEE" style="stroke:#999999;stroke-width:0.5;"/><path d="M1100,89.6094 L1100,99.6094 L1110,99.6094 L1100,89.6094 " fill="#EEEEEE" style="stroke:#999999;stroke-width:0.5;"/><text fill="#000000" font-family="sans-serif" font-size="13" lengthAdjust="spacing" textLength="50" x="962" y="108.1045">- Quotes</text><text fill="#000000" font-family="sans-serif" font-size="13" lengthAdjust="spacing" textLength="89" x="962" y="124.4561">- Specifications</text><text fill="#000000" font-family="sans-serif" font-size="13" lengthAdjust="spacing" textLength="133" x="962" y="140.8076">- Technical Documents</text></g><!--entity pipeline--><g id="elem_pipeline"><rect fill="#EEEEEE" height="47.6094" rx="2.5" ry="2.5" style="stroke:#999999;stroke-width:0.5;" width="90" x="717" y="266.6094"/><rect fill="#EEEEEE" height="10" style="stroke:#999999;stroke-width:0.5;" width="15" x="787" y="271.6094"/><rect fill="#EEEEEE" height="2" style="stroke:#999999;stroke-width:0.5;" width="4" x="785" y="273.6094"/><rect fill="#EEEEEE" height="2" style="stroke:#999999;stroke-width:0.5;" width="4" x="785" y="277.6094"/><text fill="#000000" font-family="sans-serif" font-size="14" lengthAdjust="spacing" textLength="50" x="732" y="301.1426">Pipeline</text></g><!--entity progress--><g id="elem_progress"><rect fill="#EEEEEE" height="47.6094" rx="2.5" ry="2.5" style="stroke:#999999;stroke-width:0.5;" width="147" x="766.5" y="392.6094"/><rect fill="#EEEEEE" height="10" style="stroke:#999999;stroke-width:0.5;" width="15" x="893.5" y="397.6094"/><rect fill="#EEEEEE" height="2" style="stroke:#999999;stroke-width:0.5;" width="4" x="891.5" y="399.6094"/><rect fill="#EEEEEE" height="2" style="stroke:#999999;stroke-width:0.5;" width="4" x="891.5" y="403.6094"/><text fill="#000000" font-family="sans-serif" font-size="14" lengthAdjust="spacing" textLength="107" x="781.5" y="427.1426">PipelineProgress</text></g><!--entity selector--><g id="elem_selector"><rect fill="#EEEEEE" height="47.6094" rx="2.5" ry="2.5" style="stroke:#999999;stroke-width:0.5;" width="145" x="586.5" y="392.6094"/><rect fill="#EEEEEE" height="10" style="stroke:#999999;stroke-width:0.5;" width="15" x="711.5" y="397.6094"/><rect fill="#EEEEEE" height="2" style="stroke:#999999;stroke-width:0.5;" width="4" x="709.5" y="399.6094"/><rect fill="#EEEEEE" height="2" style="stroke:#999999;stroke-width:0.5;" width="4" x="709.5" y="403.6094"/><text fill="#000000" font-family="sans-serif" font-size="14" lengthAdjust="spacing" textLength="105" x="601.5" y="427.1426">StrategySelector</text></g><g id="elem_GMN11"><path d="M949,395.1094 L949,412.6094 L913.63,416.6094 L949,420.6094 L949,437.8125 A0,0 0 0 0 949,437.8125 L1097,437.8125 A0,0 0 0 0 1097,437.8125 L1097,405.1094 L1087,395.1094 L949,395.1094 A0,0 0 0 0 949,395.1094 " fill="#EEEEEE" style="stroke:#999999;stroke-width:0.5;"/><path d="M1087,395.1094 L1087,405.1094 L1097,405.1094 L1087,395.1094 " fill="#EEEEEE" style="stroke:#999999;stroke-width:0.5;"/><text fill="#000000" font-family="sans-serif" font-size="13" lengthAdjust="spacing" textLength="116" x="955" y="413.6045">Rich terminal output</text><text fill="#000000" font-family="sans-serif" font-size="13" lengthAdjust="spacing" textLength="127" x="955" y="429.9561">with progress tracking</text></g><!--entity analyzer--><g id="elem_analyzer"><rect fill="#EEEEEE" height="47.6094" rx="2.5" ry="2.5" style="stroke:#999999;stroke-width:0.5;" width="122" x="426" y="558.6094"/><rect fill="#EEEEEE" height="10" style="stroke:#999999;stroke-width:0.5;" width="15" x="528" y="563.6094"/><rect fill="#EEEEEE" height="2" style="stroke:#999999;stroke-width:0.5;" width="4" x="526" y="565.6094"/><rect fill="#EEEEEE" height="2" style="stroke:#999999;stroke-width:0.5;" width="4" x="526" y="569.6094"/><text fill="#000000" font-family="sans-serif" font-size="14" lengthAdjust="spacing" textLength="82" x="441" y="593.1426">PDFAnalyzer</text></g><!--entity cleaner--><g id="elem_cleaner"><rect fill="#EEEEEE" height="47.6094" rx="2.5" ry="2.5" style="stroke:#999999;stroke-width:0.5;" width="118" x="428" y="722.6094"/><rect fill="#EEEEEE" height="10" style="stroke:#999999;stroke-width:0.5;" width="15" x="526" y="727.6094"/><rect fill="#EEEEEE" height="2" style="stroke:#999999;stroke-width:0.5;" width="4" x="524" y="729.6094"/><rect fill="#EEEEEE" height="2" style="stroke:#999999;stroke-width:0.5;" width="4" x="524" y="733.6094"/><text fill="#000000" font-family="sans-serif" font-size="14" lengthAdjust="spacing" textLength="78" x="443" y="757.1426">PDFCleaner</text></g><!--entity extractor--><g id="elem_extractor"><rect fill="#EEEEEE" height="47.6094" rx="2.5" ry="2.5" style="stroke:#999999;stroke-width:0.5;" width="124" x="425" y="848.6094"/><rect fill="#EEEEEE" height="10" style="stroke:#999999;stroke-width:0.5;" width="15" x="529" y="853.6094"/><rect fill="#EEEEEE" height="2" style="stroke:#999999;stroke-width:0.5;" width="4" x="527" y="855.6094"/><rect fill="#EEEEEE" height="2" style="stroke:#999999;stroke-width:0.5;" width="4" x="527" y="859.6094"/><text fill="#000000" font-family="sans-serif" font-size="14" lengthAdjust="spacing" textLength="84" x="440" y="883.1426">PDFExtractor</text></g><!--entity validator--><g id="elem_validator"><rect fill="#EEEEEE" height="47.6094" rx="2.5" ry="2.5" style="stroke:#999999;stroke-width:0.5;" width="124" x="310" y="1006.1094"/><rect fill="#EEEEEE" height="10" style="stroke:#999999;stroke-width:0.5;" width="15" x="414" y="1011.1094"/><rect fill="#EEEEEE" height="2" style="stroke:#999999;stroke-width:0.5;" width="4" x="412" y="1013.1094"/><rect fill="#EEEEEE" height="2" style="stroke:#999999;stroke-width:0.5;" width="4" x="412" y="1017.1094"/><text fill="#000000" font-family="sans-serif" font-size="14" lengthAdjust="spacing" textLength="84" x="325" y="1040.6426">PDFValidator</text></g><g id="elem_GMN19"><path d="M469.5,992.6094 L469.5,1068.0156 A0,0 0 0 0 469.5,1068.0156 L634.5,1068.0156 A0,0 0 0 0 634.5,1068.0156 L634.5,1002.6094 L624.5,992.6094 L540.64,992.6094 L496.73,896.8894 L532.64,992.6094 L469.5,992.6094 A0,0 0 0 0 469.5,992.6094 " fill="#EEEEEE" style="stroke:#999999;stroke-width:0.5;"/><path d="M624.5,992.6094 L624.5,1002.6094 L634.5,1002.6094 L624.5,992.6094 " fill="#EEEEEE" style="stroke:#999999;stroke-width:0.5;"/><text fill="#000000" font-family="sans-serif" font-size="13" lengthAdjust="spacing" textLength="144" x="475.5" y="1011.1045">Extracts structured data:</text><text fill="#000000" font-family="sans-serif" font-size="13" lengthAdjust="spacing" textLength="59" x="475.5" y="1027.4561">- Sections</text><text fill="#000000" font-family="sans-serif" font-size="13" lengthAdjust="spacing" textLength="46" x="475.5" y="1043.8076">- Tables</text><text fill="#000000" font-family="sans-serif" font-size="13" lengthAdjust="spacing" textLength="56" x="475.5" y="1060.1592">- Schema</text></g><!--entity jsonformat--><g id="elem_jsonformat"><rect fill="#EEEEEE" height="47.6094" rx="2.5" ry="2.5" style="stroke:#999999;stroke-width:0.5;" width="137" x="425.5" y="1341.3294"/><rect fill="#EEEEEE" height="10" style="stroke:#999999;stroke-width:0.5;" width="15" x="542.5" y="1346.3294"/><rect fill="#EEEEEE" height="2" style="stroke:#999999;stroke-width:0.5;" width="4" x="540.5" y="1348.3294"/><rect fill="#EEEEEE" height="2" style="stroke:#999999;stroke-width:0.5;" width="4" x="540.5" y="1352.3294"/><text fill="#000000" font-family="sans-serif" font-size="14" lengthAdjust="spacing" textLength="97" x="440.5" y="1375.8626">JSONFormatter</text></g><!--entity mdformat--><g id="elem_mdformat"><rect fill="#EEEEEE" height="47.6094" rx="2.5" ry="2.5" style="stroke:#999999;stroke-width:0.5;" width="166" x="224" y="1341.3294"/><rect fill="#EEEEEE" height="10" style="stroke:#999999;stroke-width:0.5;" width="15" x="370" y="1346.3294"/><rect fill="#EEEEEE" height="2" style="stroke:#999999;stroke-width:0.5;" width="4" x="368" y="1348.3294"/><rect fill="#EEEEEE" height="2" style="stroke:#999999;stroke-width:0.5;" width="4" x="368" y="1352.3294"/><text fill="#000000" font-family="sans-serif" font-size="14" lengthAdjust="spacing" textLength="126" x="239" y="1375.8626">MarkdownFormatter</text></g><g id="elem_GMN25"><path d="M31,1343.8294 L31,1386.5325 L189,1386.5325 L189,1353.8294 L179,1343.8294 L31,1343.8294 " fill="#EEEEEE" style="stroke:#999999;stroke-width:0.5;"/><path d="M179,1343.8294 L179,1353.8294 L189,1353.8294 L179,1343.8294 " fill="#EEEEEE" style="stroke:#999999;stroke-width:1.0;"/><text fill="#000000" font-family="sans-serif" font-size="13" lengthAdjust="spacing" textLength="137" x="37" y="1362.3245">Converts extracted data</text><text fill="#000000" font-family="sans-serif" font-size="13" lengthAdjust="spacing" textLength="137" x="37" y="1378.6761">to desired output format</text></g><!--entity doc--><g id="elem_doc"><rect fill="#EEEEEE" height="47.6094" rx="2.5" ry="2.5" style="stroke:#999999;stroke-width:0.5;" width="104" x="750" y="722.6094"/><rect fill="#EEEEEE" height="10" style="stroke:#999999;stroke-width:0.5;" width="15" x="834" y="727.6094"/><rect fill="#EEEEEE" height="2" style="stroke:#999999;stroke-width:0.5;" width="4" x="832" y="729.6094"/><rect fill="#EEEEEE" height="2" style="stroke:#999999;stroke-width:0.5;" width="4" x="832" y="733.6094"/><text fill="#000000" font-family="sans-serif" font-size="14" lengthAdjust="spacing" textLength="64" x="765" y="757.1426">Document</text></g><!--entity section--><g id="elem_section"><rect fill="#EEEEEE" height="47.6094" rx="2.5" ry="2.5" style="stroke:#999999;stroke-width:0.5;" width="87" x="889.5" y="722.6094"/><rect fill="#EEEEEE" height="10" style="stroke:#999999;stroke-width:0.5;" width="15" x="956.5" y="727.6094"/><rect fill="#EEEEEE" height="2" style="stroke:#999999;stroke-width:0.5;" width="4" x="954.5" y="729.6094"/><rect fill="#EEEEEE" height="2" style="stroke:#999999;stroke-width:0.5;" width="4" x="954.5" y="733.6094"/><text fill="#000000" font-family="sans-serif" font-size="14" lengthAdjust="spacing" textLength="47" x="904.5" y="757.1426">Section</text></g><!--entity table--><g id="elem_table"><rect fill="#EEEEEE" height="47.6094" rx="2.5" ry="2.5" style="stroke:#999999;stroke-width:0.5;" width="76" x="764" y="848.6094"/><rect fill="#EEEEEE" height="10" style="stroke:#999999;stroke-width:0.5;" width="15" x="820" y="853.6094"/><rect fill="#EEEEEE" height="2" style="stroke:#999999;stroke-width:0.5;" width="4" x="818" y="855.6094"/><rect fill="#EEEEEE" height="2" style="stroke:#999999;stroke-width:0.5;" width="4" x="818" y="859.6094"/><text fill="#000000" font-family="sans-serif" font-size="14" lengthAdjust="spacing" textLength="36" x="779" y="883.1426">Table</text></g><!--entity schema--><g id="elem_schema"><rect fill="#EEEEEE" height="47.6094" rx="2.5" ry="2.5" style="stroke:#999999;stroke-width:0.5;" width="91" x="875.5" y="848.6094"/><rect fill="#EEEEEE" height="10" style="stroke:#999999;stroke-width:0.5;" width="15" x="946.5" y="853.6094"/><rect fill="#EEEEEE" height="2" style="stroke:#999999;stroke-width:0.5;" width="4" x="944.5" y="855.6094"/><rect fill="#EEEEEE" height="2" style="stroke:#999999;stroke-width:0.5;" width="4" x="944.5" y="859.6094"/><text fill="#000000" font-family="sans-serif" font-size="14" lengthAdjust="spacing" textLength="51" x="890.5" y="883.1426">Schema</text></g><!--entity logging--><g id="elem_logging"><rect fill="#EEEEEE" height="47.6094" rx="2.5" ry="2.5" style="stroke:#999999;stroke-width:0.5;" width="91" x="1084.5" y="722.6094"/><rect fill="#EEEEEE" height="10" style="stroke:#999999;stroke-width:0.5;" width="15" x="1155.5" y="727.6094"/><rect fill="#EEEEEE" height="2" style="stroke:#999999;stroke-width:0.5;" width="4" x="1153.5" y="729.6094"/><rect fill="#EEEEEE" height="2" style="stroke:#999999;stroke-width:0.5;" width="4" x="1153.5" y="733.6094"/><text fill="#000000" font-family="sans-serif" font-size="14" lengthAdjust="spacing" textLength="51" x="1099.5" y="757.1426">Logging</text></g><!--entity fileio--><g id="elem_fileio"><rect fill="#EEEEEE" height="47.6094" rx="2.5" ry="2.5" style="stroke:#999999;stroke-width:0.5;" width="77" x="1210.5" y="722.6094"/><rect fill="#EEEEEE" height="10" style="stroke:#999999;stroke-width:0.5;" width="15" x="1267.5" y="727.6094"/><rect fill="#EEEEEE" height="2" style="stroke:#999999;stroke-width:0.5;" width="4" x="1265.5" y="729.6094"/><rect fill="#EEEEEE" height="2" style="stroke:#999999;stroke-width:0.5;" width="4" x="1265.5" y="733.6094"/><text fill="#000000" font-family="sans-serif" font-size="14" lengthAdjust="spacing" textLength="37" x="1225.5" y="757.1426">FileIO</text></g><!--entity error--><g id="elem_error"><rect fill="#EEEEEE" height="47.6094" rx="2.5" ry="2.5" style="stroke:#999999;stroke-width:0.5;" width="127" x="1084.5" y="848.6094"/><rect fill="#EEEEEE" height="10" style="stroke:#999999;stroke-width:0.5;" width="15" x="1191.5" y="853.6094"/><rect fill="#EEEEEE" height="2" style="stroke:#999999;stroke-width:0.5;" width="4" x="1189.5" y="855.6094"/><rect fill="#EEEEEE" height="2" style="stroke:#999999;stroke-width:0.5;" width="4" x="1189.5" y="859.6094"/><text fill="#000000" font-family="sans-serif" font-size="14" lengthAdjust="spacing" textLength="87" x="1099.5" y="883.1426">ErrorHandling</text></g><!--entity markdown--><g id="elem_markdown"><path d="M670,1348.8294 L670,1381.4388 A2.5,2.5 0 0 0 672.5,1383.9388 L751.5,1383.9388 A2.5,2.5 0 0 0 754,1381.4388 L754,1356.3294 L744,1346.3294 L672.5,1346.3294 A2.5,2.5 0 0 0 670,1348.8294 " fill="#F1F1F1" style="stroke:#181818;stroke-width:0.5;"/><path d="M744,1346.3294 L744,1353.8294 A2.5,2.5 0 0 0 746.5,1356.3294 L754,1356.3294 " fill="#F1F1F1" style="stroke:#181818;stroke-width:0.5;"/><text fill="#000000" font-family="sans-serif" font-size="14" lengthAdjust="spacing" textLength="64" x="680" y="1370.8626">Markdown</text></g><!--entity content--><g id="elem_content"><path d="M789,1348.8294 L789,1381.4388 A2.5,2.5 0 0 0 791.5,1383.9388 L856.5,1383.9388 A2.5,2.5 0 0 0 859,1381.4388 L859,1356.3294 L849,1346.3294 L791.5,1346.3294 A2.5,2.5 0 0 0 789,1348.8294 " fill="#F1F1F1" style="stroke:#181818;stroke-width:0.5;"/><path d="M849,1346.3294 L849,1353.8294 A2.5,2.5 0 0 0 851.5,1356.3294 L859,1356.3294 " fill="#F1F1F1" style="stroke:#181818;stroke-width:0.5;"/><text fill="#000000" font-family="sans-serif" font-size="14" lengthAdjust="spacing" textLength="50" x="799" y="1370.8626">Content</text></g><!--entity metadata--><g id="elem_metadata"><path d="M894.5,1348.8294 L894.5,1381.4388 A2.5,2.5 0 0 0 897,1383.9388 L971,1383.9388 A2.5,2.5 0 0 0 973.5,1381.4388 L973.5,1356.3294 L963.5,1346.3294 L897,1346.3294 A2.5,2.5 0 0 0 894.5,1348.8294 " fill="#F1F1F1" style="stroke:#181818;stroke-width:0.5;"/><path d="M963.5,1346.3294 L963.5,1353.8294 A2.5,2.5 0 0 0 966,1356.3294 L973.5,1356.3294 " fill="#F1F1F1" style="stroke:#181818;stroke-width:0.5;"/><text fill="#000000" font-family="sans-serif" font-size="14" lengthAdjust="spacing" textLength="59" x="904.5" y="1370.8626">Metadata</text></g><!--entity tables--><g id="elem_tables"><path d="M792.5,1470.8294 L792.5,1503.4388 A2.5,2.5 0 0 0 795,1505.9388 L853,1505.9388 A2.5,2.5 0 0 0 855.5,1503.4388 L855.5,1478.3294 L845.5,1468.3294 L795,1468.3294 A2.5,2.5 0 0 0 792.5,1470.8294 " fill="#F1F1F1" style="stroke:#181818;stroke-width:0.5;"/><path d="M845.5,1468.3294 L845.5,1475.8294 A2.5,2.5 0 0 0 848,1478.3294 L855.5,1478.3294 " fill="#F1F1F1" style="stroke:#181818;stroke-width:0.5;"/><text fill="#000000" font-family="sans-serif" font-size="14" lengthAdjust="spacing" textLength="43" x="802.5" y="1492.8626">Tables</text></g><!--entity validation--><g id="elem_validation"><path d="M891,1470.8294 L891,1503.4388 A2.5,2.5 0 0 0 893.5,1505.9388 L970.5,1505.9388 A2.5,2.5 0 0 0 973,1503.4388 L973,1478.3294 L963,1468.3294 L893.5,1468.3294 A2.5,2.5 0 0 0 891,1470.8294 " fill="#F1F1F1" style="stroke:#181818;stroke-width:0.5;"/><path d="M963,1468.3294 L963,1475.8294 A2.5,2.5 0 0 0 965.5,1478.3294 L973,1478.3294 " fill="#F1F1F1" style="stroke:#181818;stroke-width:0.5;"/><text fill="#000000" font-family="sans-serif" font-size="14" lengthAdjust="spacing" textLength="62" x="901" y="1492.8626">Validation</text></g><!--link formatters to GMN25--><g id="link_formatters_GMN25"><path d="M371.93,1186.3394 C368.81,1186.6794 268.61,1198.1294 206,1242.3294 C167.47,1269.5294 136.76,1316.5494 121.18,1343.5894 " fill="none" id="formatters-GMN25" style="stroke:#666666;stroke-width:1.0;stroke-dasharray:7.0,7.0;"/></g><!--link input to pipeline--><g id="link_input_pipeline"><path d="M762,172.7749 C762,173.0072 762,173.2398 762,173.4729 C762,173.939 762,174.4065 762,174.8755 C762,175.8134 762,176.757 762,177.7056 C762,208.0619 762,237.6144 762,260.3594 " fill="none" id="input-to-pipeline" style="stroke:#666666;stroke-width:1.0;"/><polygon fill="#666666" points="762,266.3594,766,257.3594,762,261.3594,758,257.3594,762,266.3594" style="stroke:#666666;stroke-width:1.0;"/><text fill="#000000" font-family="sans-serif" font-size="13" lengthAdjust="spacing" textLength="48" x="763" y="211.1045">Input file</text></g><!--link pipeline to progress--><g id="link_pipeline_progress"><path d="M776.49,314.6394 C790.41,336.7794 808.1458,364.9703 822.1258,387.2003 " fill="none" id="pipeline-to-progress" style="stroke:#666666;stroke-width:1.0;"/><polygon fill="#666666" points="825.32,392.2794,823.9148,382.5313,822.6582,388.0468,817.1427,386.7901,825.32,392.2794" style="stroke:#666666;stroke-width:1.0;"/><text fill="#000000" font-family="sans-serif" font-size="13" lengthAdjust="spacing" textLength="102" x="806" y="359.1045">Updates progress</text></g><!--link pipeline to selector--><g id="link_pipeline_selector"><path d="M729.25,314.7994 C718.5,323.3894 707.01,333.7094 698,344.6094 C685.99,359.1394 678.4412,372.4882 671.5212,387.0782 " fill="none" id="pipeline-to-selector" style="stroke:#666666;stroke-width:1.0;"/><polygon fill="#666666" points="668.95,392.4994,676.4209,386.0818,671.0927,387.9818,669.1928,382.6535,668.95,392.4994" style="stroke:#666666;stroke-width:1.0;"/><text fill="#000000" font-family="sans-serif" font-size="13" lengthAdjust="spacing" textLength="88" x="699" y="359.1045">Select strategy</text></g><!--link selector to stages--><g id="link_selector_stages"><path d="M659,440.7594 C659,451.8844 659,466.0638 659,481.1205 C659,488.6488 659,496.3965 659,504.0914 C659,506.0152 659,507.9356 659,509.8485 C659,510.8049 659,511.7594 659,512.7116 C659,513.1876 659,507.6631 659,508.1379 " fill="none" id="selector-to-stages" style="stroke:#666666;stroke-width:1.0;"/><polygon fill="#666666" points="659,514.1379,663,505.1379,659,509.1379,655,505.1379,659,514.1379" style="stroke:#666666;stroke-width:1.0;"/><text fill="#000000" font-family="sans-serif" font-size="13" lengthAdjust="spacing" textLength="122" x="660" y="487.1045">Configure processors</text></g><!--link pipeline to analyzer--><g id="link_pipeline_analyzer"><path d="M716.76,295.3594 C657.62,302.8794 555.63,325.4094 505,392.6094 C467.91,441.8394 474.3666,514.089 481.1066,552.639 " fill="none" id="pipeline-to-analyzer" style="stroke:#666666;stroke-width:1.0;"/><polygon fill="#666666" points="482.14,558.5494,484.5302,548.995,481.2789,553.6241,476.6497,550.3728,482.14,558.5494" style="stroke:#666666;stroke-width:1.0;"/><text fill="#000000" font-family="sans-serif" font-size="13" lengthAdjust="spacing" textLength="62" x="506" y="422.1045">1. Analyze</text></g><!--link analyzer to cleaner--><g id="link_analyzer_cleaner"><path d="M487,606.8194 C487,637.6194 487,685.6694 487,716.4394 " fill="none" id="analyzer-to-cleaner" style="stroke:#666666;stroke-width:1.0;"/><polygon fill="#666666" points="487,722.4394,491,713.4394,487,717.4394,483,713.4394,487,722.4394" style="stroke:#666666;stroke-width:1.0;"/><text fill="#000000" font-family="sans-serif" font-size="13" lengthAdjust="spacing" textLength="48" x="488" y="651.1045">2. Clean</text></g><!--link cleaner to extractor--><g id="link_cleaner_extractor"><path d="M487,770.6394 C487,792.7794 487,820.0494 487,842.2794 " fill="none" id="cleaner-to-extractor" style="stroke:#666666;stroke-width:1.0;"/><polygon fill="#666666" points="487,848.2794,491,839.2794,487,843.2794,483,839.2794,487,848.2794" style="stroke:#666666;stroke-width:1.0;"/><text fill="#000000" font-family="sans-serif" font-size="13" lengthAdjust="spacing" textLength="57" x="488" y="815.1045">3. Extract</text></g><!--link extractor to validator--><g id="link_extractor_validator"><path d="M469.78,896.8894 C448.04,926.2894 414.4273,971.745 392.7173,1001.105 " fill="none" id="extractor-to-validator" style="stroke:#666666;stroke-width:1.0;"/><polygon fill="#666666" points="389.15,1005.9294,397.7172,1001.0711,392.1228,1001.9091,391.2847,996.3147,389.15,1005.9294" style="stroke:#666666;stroke-width:1.0;"/><text fill="#000000" font-family="sans-serif" font-size="13" lengthAdjust="spacing" textLength="62" x="433" y="959.1045">4. Validate</text></g><!--link validator to formatters--><g id="link_validator_formatters"><path d="M372,1054.1394 C372,1075.2694 372,1107.2919 372,1134.3669 C372,1141.1356 372,1147.5952 372,1153.498 C372,1154.2358 372,1154.965 372,1155.6849 C372,1156.0449 372,1156.4026 372,1156.758 C372,1156.9356 372,1151.1127 372,1151.2892 " fill="none" id="validator-to-formatters" style="stroke:#666666;stroke-width:1.0;"/><polygon fill="#666666" points="372,1157.2892,376,1148.2892,372,1152.2892,368,1148.2892,372,1157.2892" style="stroke:#666666;stroke-width:1.0;"/><text fill="#000000" font-family="sans-serif" font-size="13" lengthAdjust="spacing" textLength="56" x="373" y="1130.1045">5. Format</text></g><!--link formatters to output--><g id="link_formatters_output"><path d="M587.0129,1249.9232 C589.5549,1252.6046 591.9698,1255.4261 594.2634,1258.3577 C598.8505,1264.2211 602.9523,1270.5253 606.6147,1277.0313 C613.9394,1290.0431 619.5062,1303.8619 623.6825,1316.5744 C624.7266,1319.7525 625.6837,1322.8615 626.5597,1325.8714 C626.6692,1326.2477 626.7774,1326.6224 626.8844,1326.9955 C626.9111,1327.0887 625.2898,1321.4127 625.3164,1321.5057 " fill="none" id="formatters-to-output" style="stroke:#666666;stroke-width:1.0;"/><polygon fill="#666666" points="626.9644,1327.275,628.3386,1317.5225,625.5911,1322.4673,620.6462,1319.7198,626.9644,1327.275" style="stroke:#666666;stroke-width:1.0;"/><text fill="#000000" font-family="sans-serif" font-size="13" lengthAdjust="spacing" textLength="43" x="566" y="1230.8245">6. Save</text></g><!--link stages to models--><g id="link_stages_models"><path d="M667.0643,606.9403 C667.1414,607.1633 667.2189,607.3875 667.2968,607.613 C667.6085,608.5146 667.9269,609.4354 668.2514,610.3742 C673.4441,625.3947 680.2281,645.0188 687.0113,664.6406 C693.7944,684.2625 700.5766,703.8822 705.7655,718.8939 C706.0898,719.8321 706.4079,720.7524 706.7193,721.6535 C706.7972,721.8788 704.9145,716.432 704.9916,716.6549 " fill="none" id="stages-to-models" style="stroke:#666666;stroke-width:1.0;"/><polygon fill="#666666" points="706.9517,722.3257,707.792,712.5128,705.3183,717.6,700.231,715.1263,706.9517,722.3257" style="stroke:#666666;stroke-width:1.0;"/><text fill="#000000" font-family="sans-serif" font-size="13" lengthAdjust="spacing" textLength="58" x="682" y="651.1045">Populates</text></g><!--link stages to utils--><g id="link_stages_utils"><path d="M667.028,586.5875 C667.3007,586.6874 667.5798,586.7895 667.8654,586.8939 C668.4366,587.1027 669.0335,587.3204 669.6555,587.5469 C670.8995,587.9997 672.2441,588.4873 673.6848,589.0074 C676.5663,590.0474 679.832,591.2172 683.4463,592.4981 C697.9031,597.6219 717.935,604.5244 741.2425,612.0194 C787.8575,627.0094 847.575,644.3694 902,654.6094 C921.95,658.3594 975.51,652.2994 993,662.6094 C1011.87,673.7294 1025.73,694.0094 1034.9413,711.7394 C1037.2441,716.1719 1036.8424,714.952 1038.5698,718.8828 " fill="none" id="stages-to-utils" style="stroke:#666666;stroke-width:1.0;"/><polygon fill="#666666" points="1040.9837,724.3758,1041.0249,714.527,1038.9721,719.7983,1033.7009,717.7455,1040.9837,724.3758" style="stroke:#666666;stroke-width:1.0;"/><text fill="#000000" font-family="sans-serif" font-size="13" lengthAdjust="spacing" textLength="30" x="903" y="651.1045">Uses</text></g><!--link pipeline to utils--><g id="link_pipeline_utils"><path d="M807.2,297.7794 C893.77,310.6094 1077.73,343.1794 1115,392.6094 C1148.54,437.0894 1092.74,556.4994 1068,662.6094 C1066.96,667.0719 1065.8933,671.6706 1064.8216,676.3072 C1064.6876,676.8868 1064.5536,677.4669 1064.4195,678.0475 C1064.386,678.1926 1065.7023,672.4916 1065.6688,672.6368 " fill="none" id="pipeline-to-utils" style="stroke:#666666;stroke-width:1.0;"/><polygon fill="#666666" points="1064.3189,678.483,1070.2412,670.6136,1065.4438,673.6112,1062.4463,668.8138,1064.3189,678.483" style="stroke:#666666;stroke-width:1.0;"/><text fill="#000000" font-family="sans-serif" font-size="13" lengthAdjust="spacing" textLength="30" x="1121" y="487.1045">Uses</text></g><!--link progress to utils--><g id="link_progress_utils"><path d="M854.7,440.6694 C878.115,477.4194 925.55,551.8644 967.6875,617.9956 C988.7563,651.0613 1008.5006,682.0484 1023.2559,705.2061 C1026.9448,710.9955 1030.3218,716.2956 1033.3297,721.0164 C1034.8337,723.3769 1036.2454,725.5925 1037.5576,727.6521 C1038.2138,728.6819 1038.8451,729.6727 1039.4506,730.6231 C1039.7534,731.0982 1040.0497,731.5633 1040.3395,732.0181 C1040.4843,732.2455 1037.4035,727.4102 1037.5451,727.6324 " fill="none" id="progress-to-utils" style="stroke:#666666;stroke-width:1.0;"/><polygon fill="#666666" points="1040.7692,732.6926,1039.3066,722.953,1038.0825,728.4758,1032.5597,727.2517,1040.7692,732.6926" style="stroke:#666666;stroke-width:1.0;"/><text fill="#000000" font-family="sans-serif" font-size="13" lengthAdjust="spacing" textLength="30" x="959" y="588.1045">Uses</text></g><rect fill="none" height="221.3125" id="_legend" rx="7.5" ry="7.5" style="stroke:#000000;stroke-width:1.0;" width="145" x="1147" y="1571.3294"/><text fill="#000000" font-family="sans-serif" font-size="14" font-weight="bold" lengthAdjust="spacing" textLength="94" x="1152" y="1590.8626">Pipeline Flow</text><text fill="#000000" font-family="sans-serif" font-size="14" lengthAdjust="spacing" textLength="114" x="1152" y="1608.472">1. Load document</text><text fill="#000000" font-family="sans-serif" font-size="14" lengthAdjust="spacing" textLength="125" x="1152" y="1626.0813">2. Analyze structure</text><text fill="#000000" font-family="sans-serif" font-size="14" lengthAdjust="spacing" textLength="104" x="1152" y="1643.6907">3. Clean content</text><text fill="#000000" font-family="sans-serif" font-size="14" lengthAdjust="spacing" textLength="91" x="1152" y="1661.3001">4. Extract data</text><text fill="#000000" font-family="sans-serif" font-size="14" lengthAdjust="spacing" textLength="120" x="1152" y="1678.9095">5. Validate schema</text><text fill="#000000" font-family="sans-serif" font-size="14" lengthAdjust="spacing" textLength="105" x="1152" y="1696.5188">6. Format output</text><text fill="#000000" font-family="sans-serif" font-size="14" lengthAdjust="spacing" textLength="4" x="1152" y="1714.1282">&#160;</text><text fill="#000000" font-family="sans-serif" font-size="14" font-weight="bold" lengthAdjust="spacing" textLength="128" x="1152" y="1731.7376">Progress Tracking</text><text fill="#000000" font-family="sans-serif" font-size="14" lengthAdjust="spacing" textLength="135" x="1152" y="1749.347">- Rich terminal output</text><text fill="#000000" font-family="sans-serif" font-size="14" lengthAdjust="spacing" textLength="118" x="1152" y="1766.9563">- Stage completion</text><text fill="#000000" font-family="sans-serif" font-size="14" lengthAdjust="spacing" textLength="99" x="1152" y="1784.5657">- Error handling</text><!--SRC=[XLPBR-Cs4BxhLmmsXm01RA3P1r0V2cITkDqYsRZhR84U6Maiiw58WQBYkiN-zmw73qbsigj3Givy7Cvyyw3FuHgtKYDqxg2mAxedgLjXHGEbQLgZKRkDrq3VgCkHzb6KJxKrlQwMHXaB-vrqED9VMMlsGNNsWR-HSfbCVpIsGXjXF_Ft8kpeihCR_aRGpyRXzuqnueTslc3fXAxL3umDi5Si5kVm89t2mlc_S6tAlg50O2rRL9xkArjwnahNM_JeEo7rG7bNs7G3lFcaszwz0T61z2iukvNrpdrKFS9_1S1MUj3wUfLlwHZSLblIQWeRh3y0PXjb03FueoT55pUR5akvbQLmqkWaVC1ofqcc1hkaGLsnpU9RCVOnnxKq5ldwaXRHrLyjecPVSu33YU1htBmCMLjJM-nYM74pXMwS5GxhmmOLEMKiGxkuEQLXi07mHPOxS6WRgIbMqplYc1LxwNOP2dH1IVcllyE1DIKX2GCR9seC_dQyZ4pyXKgP_GaLrwihkllmBmQ_HToSe9OAXOwWCgnFC3V_U4yJ1PXs9xW_XPALIBZdj4jSFHhdJEF96fi0YEPzNBRdwgs03ef5AYNYOrn4ub4DPLRki16l4xWojX6EKX6Os-PjP6yjzTCnTxzlxZ_dStpixyxeS7IAl1FsgJ9xFKKtLSOUnJrSp-ulZNv6wpAbCMxMEGCLTj9p4Ue7ij5NGhqp5QeGPiFB6EBo84uw9RKVeojJ7bL-83mMFA-d04u1gvrV7Ptcb8J38JjJFxywgQIJiPPxsdMvgSNXsDDRKzTK_enLOJq5h6XMVReFsQMbD5Fr3JqQzZUXAvMie9SS-NJF5BCwiltYHFILaGk2vKb3gNI9ppAiHzexTC9dDYGdRaRwKD83eTr85vigvUCvRmdpBNkMAZ7S43S-o7DOqNWemfYVpNx9Sn4MmAy06oYob25fG2tWQqkNuMX4Je1f6X8mJ4dVmZmqYwnYN1XO2r_nMrbJXtk3Vh8PQWNoSJJdjjxToIrfTj7vd-OGnrgHfHuI9nSXBkV08wr88g_EyuO0R-Tfu1I3s8Fol2BGkpb4th4Ov1urcY0BU3-7qFh5IEnHiOWMy64E6_7Cpt7-wG4MLNWMTxAbdqU177yizkq2rgRjbIT-h0sjGZdfy2WFKqtAtec6dBZ5ciP7eVXVUBseXYukycFhg-NYWcH4zQqHbPyEF2f8T9dP7qOrYTz6oaU5_owJd2RQ-u7HD1R0inFu6zx8u4qAuI6-aEpHxBLtTHOUHsvxXR4tPi2j3xlO-uKFECHT_0y0]--></g></svg>