<svg xmlns="http://www.w3.org/2000/svg" xmlns:xlink="http://www.w3.org/1999/xlink" contentStyleType="text/css" data-diagram-type="DESCRIPTION" height="706px" preserveAspectRatio="none" style="width:569px;height:706px;background:#FFFFFF;" version="1.1" viewBox="0 0 569 706" width="569px" zoomAndPan="magnify"><defs/><g><!--cluster Classifier System--><g class="cluster" data-entity="Classifier System" data-source-line="2" data-uid="ent0002" id="cluster_Classifier System"><path d="M8.5,114.3 L145.9658,114.3 A3.75,3.75 0 0 1 148.4658,116.8 L155.4658,136.5969 L412.5,136.5969 A2.5,2.5 0 0 1 415,139.0969 L415,578.98 A2.5,2.5 0 0 1 412.5,581.48 L8.5,581.48 A2.5,2.5 0 0 1 6,578.98 L6,116.8 A2.5,2.5 0 0 1 8.5,114.3 " fill="none" style="stroke:#000000;stroke-width:1.5;"/><line style="stroke:#000000;stroke-width:1.5;" x1="6" x2="155.4658" y1="136.5969" y2="136.5969"/><text fill="#000000" font-family="sans-serif" font-size="14" font-weight="bold" lengthAdjust="spacing" textLength="136.4658" x="10" y="129.2951">Classifier System</text></g><!--entity Preprocess--><g class="entity" data-entity="Preprocess" data-source-line="3" data-uid="ent0003" id="entity_Preprocess"><rect fill="#F1F1F1" height="46.2969" rx="2.5" ry="2.5" style="stroke:#181818;stroke-width:0.5;" width="176.4453" x="21.78" y="149.3"/><rect fill="#F1F1F1" height="10" style="stroke:#181818;stroke-width:0.5;" width="15" x="178.2253" y="154.3"/><rect fill="#F1F1F1" height="2" style="stroke:#181818;stroke-width:0.5;" width="4" x="176.2253" y="156.3"/><rect fill="#F1F1F1" height="2" style="stroke:#181818;stroke-width:0.5;" width="4" x="176.2253" y="160.3"/><text fill="#000000" font-family="sans-serif" font-size="14" lengthAdjust="spacing" textLength="136.4453" x="36.78" y="182.2951">Data Preprocessing</text></g><!--entity Features--><g class="entity" data-entity="Features" data-source-line="4" data-uid="ent0004" id="entity_Features"><rect fill="#F1F1F1" height="46.2969" rx="2.5" ry="2.5" style="stroke:#181818;stroke-width:0.5;" width="182.4268" x="110.79" y="272.59"/><rect fill="#F1F1F1" height="10" style="stroke:#181818;stroke-width:0.5;" width="15" x="273.2168" y="277.59"/><rect fill="#F1F1F1" height="2" style="stroke:#181818;stroke-width:0.5;" width="4" x="271.2168" y="279.59"/><rect fill="#F1F1F1" height="2" style="stroke:#181818;stroke-width:0.5;" width="4" x="271.2168" y="283.59"/><text fill="#000000" font-family="sans-serif" font-size="14" lengthAdjust="spacing" textLength="142.4268" x="125.79" y="305.5851">Feature Engineering</text></g><!--entity Training--><g class="entity" data-entity="Training" data-source-line="5" data-uid="ent0005" id="entity_Training"><rect fill="#F1F1F1" height="46.2969" rx="2.5" ry="2.5" style="stroke:#181818;stroke-width:0.5;" width="143.7832" x="135.11" y="395.89"/><rect fill="#F1F1F1" height="10" style="stroke:#181818;stroke-width:0.5;" width="15" x="258.8932" y="400.89"/><rect fill="#F1F1F1" height="2" style="stroke:#181818;stroke-width:0.5;" width="4" x="256.8932" y="402.89"/><rect fill="#F1F1F1" height="2" style="stroke:#181818;stroke-width:0.5;" width="4" x="256.8932" y="406.89"/><text fill="#000000" font-family="sans-serif" font-size="14" lengthAdjust="spacing" textLength="103.7832" x="150.11" y="428.8851">Model Training</text></g><!--entity Evaluation--><g class="entity" data-entity="Evaluation" data-source-line="6" data-uid="ent0006" id="entity_Evaluation"><rect fill="#F1F1F1" height="46.2969" rx="2.5" ry="2.5" style="stroke:#181818;stroke-width:0.5;" width="160.3535" x="126.82" y="519.19"/><rect fill="#F1F1F1" height="10" style="stroke:#181818;stroke-width:0.5;" width="15" x="267.1735" y="524.19"/><rect fill="#F1F1F1" height="2" style="stroke:#181818;stroke-width:0.5;" width="4" x="265.1735" y="526.19"/><rect fill="#F1F1F1" height="2" style="stroke:#181818;stroke-width:0.5;" width="4" x="265.1735" y="530.19"/><text fill="#000000" font-family="sans-serif" font-size="14" lengthAdjust="spacing" textLength="120.3535" x="141.82" y="552.1851">Model Evaluation</text></g><!--entity Prediction--><g class="entity" data-entity="Prediction" data-source-line="7" data-uid="ent0007" id="entity_Prediction"><rect fill="#F1F1F1" height="46.2969" rx="2.5" ry="2.5" style="stroke:#181818;stroke-width:0.5;" width="166.2939" x="232.85" y="149.3"/><rect fill="#F1F1F1" height="10" style="stroke:#181818;stroke-width:0.5;" width="15" x="379.1439" y="154.3"/><rect fill="#F1F1F1" height="2" style="stroke:#181818;stroke-width:0.5;" width="4" x="377.1439" y="156.3"/><rect fill="#F1F1F1" height="2" style="stroke:#181818;stroke-width:0.5;" width="4" x="377.1439" y="160.3"/><text fill="#000000" font-family="sans-serif" font-size="14" lengthAdjust="spacing" textLength="126.2939" x="247.85" y="182.2951">Prediction Service</text></g><!--entity TrainingData--><g class="entity" data-entity="TrainingData" data-source-line="10" data-uid="ent0008" id="entity_TrainingData"><path d="M52.41,16 C52.41,6 109.9984,6 109.9984,6 C109.9984,6 167.5868,6 167.5868,16 L167.5868,41.2969 C167.5868,51.2969 109.9984,51.2969 109.9984,51.2969 C109.9984,51.2969 52.41,51.2969 52.41,41.2969 L52.41,16 " fill="#F1F1F1" style="stroke:#181818;stroke-width:0.5;"/><path d="M52.41,16 C52.41,26 109.9984,26 109.9984,26 C109.9984,26 167.5868,26 167.5868,16 " fill="none" style="stroke:#181818;stroke-width:0.5;"/><text fill="#000000" font-family="sans-serif" font-size="14" lengthAdjust="spacing" textLength="95.1768" x="62.41" y="42.9951">Training Data</text></g><!--entity ModelStorage--><g class="entity" data-entity="ModelStorage" data-source-line="11" data-uid="ent0009" id="entity_ModelStorage"><path d="M431.37,529.69 C431.37,519.69 492.0004,519.69 492.0004,519.69 C492.0004,519.69 552.6307,519.69 552.6307,529.69 L552.6307,554.9869 C552.6307,564.9869 492.0004,564.9869 492.0004,564.9869 C492.0004,564.9869 431.37,564.9869 431.37,554.9869 L431.37,529.69 " fill="#F1F1F1" style="stroke:#181818;stroke-width:0.5;"/><path d="M431.37,529.69 C431.37,539.69 492.0004,539.69 492.0004,539.69 C492.0004,539.69 552.6307,539.69 552.6307,529.69 " fill="none" style="stroke:#181818;stroke-width:0.5;"/><text fill="#000000" font-family="sans-serif" font-size="14" lengthAdjust="spacing" textLength="101.2607" x="441.37" y="556.6851">Model Storage</text></g><!--entity EvalResults--><g class="entity" data-entity="EvalResults" data-source-line="12" data-uid="ent0010" id="entity_EvalResults"><path d="M132.25,654.48 C132.25,644.48 207,644.48 207,644.48 C207,644.48 281.75,644.48 281.75,654.48 L281.75,679.7769 C281.75,689.7769 207,689.7769 207,689.7769 C207,689.7769 132.25,689.7769 132.25,679.7769 L132.25,654.48 " fill="#F1F1F1" style="stroke:#181818;stroke-width:0.5;"/><path d="M132.25,654.48 C132.25,664.48 207,664.48 207,664.48 C207,664.48 281.75,664.48 281.75,654.48 " fill="none" style="stroke:#181818;stroke-width:0.5;"/><text fill="#000000" font-family="sans-serif" font-size="14" lengthAdjust="spacing" textLength="129.5" x="142.25" y="681.4751">Evaluation Results</text></g><!--link TrainingData to Preprocess--><g class="link" data-entity-1="TrainingData" data-entity-2="Preprocess" data-source-line="15" data-uid="lnk11" id="link_TrainingData_Preprocess"><path d="M110,51.49 C110,77.91 110,116.13 110,142.87 " fill="none" id="TrainingData-to-Preprocess" style="stroke:#181818;stroke-width:1;"/><polygon fill="#181818" points="110,148.87,114,139.87,110,143.87,106,139.87,110,148.87" style="stroke:#181818;stroke-width:1;"/><text fill="#000000" font-family="sans-serif" font-size="13" lengthAdjust="spacing" textLength="33.4395" x="111" y="94.3669">input</text></g><!--link Preprocess to Features--><g class="link" data-entity-1="Preprocess" data-entity-2="Features" data-source-line="16" data-uid="lnk12" id="link_Preprocess_Features"><path d="M127.09,195.97 C143.61,217.76 164.8851,245.7988 181.3751,267.5488 " fill="none" id="Preprocess-to-Features" style="stroke:#181818;stroke-width:1;"/><polygon fill="#181818" points="185,272.33,182.7501,262.7416,181.9792,268.3457,176.3751,267.5748,185,272.33" style="stroke:#181818;stroke-width:1;"/><text fill="#000000" font-family="sans-serif" font-size="13" lengthAdjust="spacing" textLength="68.377" x="162" y="238.6569">clean data</text></g><!--link Features to Training--><g class="link" data-entity-1="Features" data-entity-2="Training" data-source-line="17" data-uid="lnk13" id="link_Features_Training"><path d="M202.93,319.27 C203.83,341.06 204.9319,367.8851 205.8319,389.6351 " fill="none" id="Features-to-Training" style="stroke:#181818;stroke-width:1;"/><polygon fill="#181818" points="206.08,395.63,209.7045,386.4723,205.8733,390.6343,201.7113,386.8031,206.08,395.63" style="stroke:#181818;stroke-width:1;"/><text fill="#000000" font-family="sans-serif" font-size="13" lengthAdjust="spacing" textLength="53.9932" x="205" y="361.9569">features</text></g><!--link Training to ModelStorage--><g class="link" data-entity-1="Training" data-entity-2="ModelStorage" data-source-line="18" data-uid="lnk14" id="link_Training_ModelStorage"><path d="M232.03,442.56 C250.06,457.7 275.59,477.04 301,489.19 C348.27,511.78 364.49,505.28 415,519.19 C420.23,520.63 419.8769,520.5057 425.3169,522.0457 " fill="none" id="Training-to-ModelStorage" style="stroke:#181818;stroke-width:1;"/><polygon fill="#181818" points="431.09,523.68,423.5198,517.3798,426.2791,522.3181,421.3408,525.0773,431.09,523.68" style="stroke:#181818;stroke-width:1;"/><text fill="#000000" font-family="sans-serif" font-size="13" lengthAdjust="spacing" textLength="75.042" x="302" y="485.2569">save model</text></g><!--link ModelStorage to Prediction--><g class="link" data-entity-1="ModelStorage" data-entity-2="Prediction" data-source-line="19" data-uid="lnk15" id="link_ModelStorage_Prediction"><path d="M481.62,519.63 C450.52,454.62 360.8994,267.3025 329.3294,201.3125 " fill="none" id="ModelStorage-to-Prediction" style="stroke:#181818;stroke-width:1;"/><polygon fill="#181818" points="326.74,195.9,327.0157,205.745,328.8978,200.4104,334.2324,202.2925,326.74,195.9" style="stroke:#181818;stroke-width:1;"/><text fill="#000000" font-family="sans-serif" font-size="13" lengthAdjust="spacing" textLength="72.395" x="409" y="361.9569">load model</text></g><!--link Training to Evaluation--><g class="link" data-entity-1="Training" data-entity-2="Evaluation" data-source-line="20" data-uid="lnk16" id="link_Training_Evaluation"><path d="M206.4,442.46 C206.11,455.99 205.85,473.58 206,489.19 C206.09,498.87 206.1558,503.5713 206.3458,512.7513 " fill="none" id="Training-to-Evaluation" style="stroke:#181818;stroke-width:1;"/><polygon fill="#181818" points="206.47,518.75,210.2829,509.6692,206.3665,513.7511,202.2846,509.8347,206.47,518.75" style="stroke:#181818;stroke-width:1;"/><text fill="#000000" font-family="sans-serif" font-size="13" lengthAdjust="spacing" textLength="52.1968" x="207" y="485.2569">validate</text></g><!--link Evaluation to EvalResults--><g class="link" data-entity-1="Evaluation" data-entity-2="EvalResults" data-source-line="21" data-uid="lnk17" id="link_Evaluation_EvalResults"><path d="M207,565.86 C207,588.15 207,616.07 207,638.16 " fill="none" id="Evaluation-to-EvalResults" style="stroke:#181818;stroke-width:1;"/><polygon fill="#181818" points="207,644.16,211,635.16,207,639.16,203,635.16,207,644.16" style="stroke:#181818;stroke-width:1;"/><text fill="#000000" font-family="sans-serif" font-size="13" lengthAdjust="spacing" textLength="85.9346" x="208" y="610.5469">store metrics</text></g><!--SRC=[LP2nJiGm44Jx_OfLcglk1rBGS4U7XCXrY69nDi72iIEl4maX_Xqxs8clyyu-UMRdX1SUj6LKRfgTPHi4Pb9VD38sZuP4zA3PO_SjWQS6Vm3nxKA1yCNpx9tYIDZn7Kag9K5FJ67nZ5Sxnl_P5ohh6_FiUZPuywHjMPVXM5zNCWi5xUm676D2ecUlLPgmOxzgnILAbk4Ne8zvFqZYHULtJ2SqjLyIAl3VkWlEnoOsS5EoK85777nbMKoGfgJCCy2fbEpPRAXywbcWjiRp-Q4g45lKTbu2L58YIdbnhmoJnHG4TZKX-uaj3gNgNKj0VKY4X5R6AMbmjyc1Ihij6aTz1k_-gnfeCRvrpCHGgGNAVIJFw15DENYjv0y0]--></g></svg>