<svg xmlns="http://www.w3.org/2000/svg" xmlns:xlink="http://www.w3.org/1999/xlink" contentStyleType="text/css" data-diagram-type="ACTIVITY" height="622px" preserveAspectRatio="none" style="width:523px;height:622px;background:#FFFFFF;" version="1.1" viewBox="0 0 523 622" width="523px" zoomAndPan="magnify"><defs/><g><ellipse cx="93.1611" cy="20" fill="#222222" rx="10" ry="10" style="stroke:#222222;stroke-width:1;"/><rect fill="#F1F1F1" height="33.9688" rx="12.5" ry="12.5" style="stroke:#181818;stroke-width:0.5;" width="110.7852" x="37.7686" y="50"/><text fill="#000000" font-family="sans-serif" font-size="12" lengthAdjust="spacing" textLength="90.7852" x="47.7686" y="71.1387">Load Raw Data</text><path d="M165.7002,108.3867 L165.7002,116.9531 L145.7002,120.9531 L165.7002,124.9531 L165.7002,133.5195 A0,0 0 0 0 165.7002,133.5195 L464.1626,133.5195 A0,0 0 0 0 464.1626,133.5195 L464.1626,118.3867 L454.1626,108.3867 L165.7002,108.3867 A0,0 0 0 0 165.7002,108.3867 " fill="#FEFFDD" style="stroke:#181818;stroke-width:0.5;"/><path d="M454.1626,108.3867 L454.1626,118.3867 L464.1626,118.3867 L454.1626,108.3867 " fill="#FEFFDD" style="stroke:#181818;stroke-width:0.5;"/><text fill="#000000" font-family="sans-serif" font-size="13" lengthAdjust="spacing" textLength="277.4624" x="171.7002" y="125.4536">Remove duplicates, handle missing values</text><rect fill="#F1F1F1" height="33.9688" rx="12.5" ry="12.5" style="stroke:#181818;stroke-width:0.5;" width="105.0781" x="40.6221" y="103.9688"/><text fill="#000000" font-family="sans-serif" font-size="12" lengthAdjust="spacing" textLength="85.0781" x="50.6221" y="125.1074">Data Cleaning</text><path d="M175.8516,162.3555 L175.8516,170.9219 L155.8516,174.9219 L175.8516,178.9219 L175.8516,187.4883 A0,0 0 0 0 175.8516,187.4883 L361.0527,187.4883 A0,0 0 0 0 361.0527,187.4883 L361.0527,172.3555 L351.0527,162.3555 L175.8516,162.3555 A0,0 0 0 0 175.8516,162.3555 " fill="#FEFFDD" style="stroke:#181818;stroke-width:0.5;"/><path d="M351.0527,162.3555 L351.0527,172.3555 L361.0527,172.3555 L351.0527,162.3555 " fill="#FEFFDD" style="stroke:#181818;stroke-width:0.5;"/><text fill="#000000" font-family="sans-serif" font-size="13" lengthAdjust="spacing" textLength="164.2012" x="181.8516" y="179.4224">Choose relevant features</text><rect fill="#F1F1F1" height="33.9688" rx="12.5" ry="12.5" style="stroke:#181818;stroke-width:0.5;" width="125.3809" x="30.4707" y="157.9375"/><text fill="#000000" font-family="sans-serif" font-size="12" lengthAdjust="spacing" textLength="105.3809" x="40.4707" y="179.0762">Feature Selection</text><path d="M184.2012,216.3242 L184.2012,224.8906 L164.2012,228.8906 L184.2012,232.8906 L184.2012,241.457 A0,0 0 0 0 184.2012,241.457 L443.7017,241.457 A0,0 0 0 0 443.7017,241.457 L443.7017,226.3242 L433.7017,216.3242 L184.2012,216.3242 A0,0 0 0 0 184.2012,216.3242 " fill="#FEFFDD" style="stroke:#181818;stroke-width:0.5;"/><path d="M433.7017,216.3242 L433.7017,226.3242 L443.7017,226.3242 L433.7017,216.3242 " fill="#FEFFDD" style="stroke:#181818;stroke-width:0.5;"/><text fill="#000000" font-family="sans-serif" font-size="13" lengthAdjust="spacing" textLength="238.5005" x="190.2012" y="233.3911">Create new features, normalize data</text><rect fill="#F1F1F1" height="33.9688" rx="12.5" ry="12.5" style="stroke:#181818;stroke-width:0.5;" width="142.0801" x="22.1211" y="211.9063"/><text fill="#000000" font-family="sans-serif" font-size="12" lengthAdjust="spacing" textLength="122.0801" x="32.1211" y="233.0449">Feature Engineering</text><path d="M152.6982,270.293 L152.6982,278.8594 L132.6982,282.8594 L152.6982,286.8594 L152.6982,295.4258 A0,0 0 0 0 152.6982,295.4258 L397.3198,295.4258 A0,0 0 0 0 397.3198,295.4258 L397.3198,280.293 L387.3198,270.293 L152.6982,270.293 A0,0 0 0 0 152.6982,270.293 " fill="#FEFFDD" style="stroke:#181818;stroke-width:0.5;"/><path d="M387.3198,270.293 L387.3198,280.293 L397.3198,280.293 L387.3198,270.293 " fill="#FEFFDD" style="stroke:#181818;stroke-width:0.5;"/><text fill="#000000" font-family="sans-serif" font-size="13" lengthAdjust="spacing" textLength="223.6216" x="158.6982" y="287.3599">Training set (80%), Test set (20%)</text><rect fill="#F1F1F1" height="33.9688" rx="12.5" ry="12.5" style="stroke:#181818;stroke-width:0.5;" width="79.0742" x="53.624" y="265.875"/><text fill="#000000" font-family="sans-serif" font-size="12" lengthAdjust="spacing" textLength="59.0742" x="63.624" y="287.0137">Split Data</text><path d="M158.3613,324.2617 L158.3613,332.8281 L138.3613,336.8281 L158.3613,340.8281 L158.3613,349.3945 A0,0 0 0 0 158.3613,349.3945 L511.4326,349.3945 A0,0 0 0 0 511.4326,349.3945 L511.4326,334.2617 L501.4326,324.2617 L158.3613,324.2617 A0,0 0 0 0 158.3613,324.2617 " fill="#FEFFDD" style="stroke:#181818;stroke-width:0.5;"/><path d="M501.4326,324.2617 L501.4326,334.2617 L511.4326,334.2617 L501.4326,324.2617 " fill="#FEFFDD" style="stroke:#181818;stroke-width:0.5;"/><text fill="#000000" font-family="sans-serif" font-size="13" lengthAdjust="spacing" textLength="332.0713" x="164.3613" y="341.3286">Use various algorithms (Random Forest, SVM, etc.)</text><rect fill="#F1F1F1" height="33.9688" rx="12.5" ry="12.5" style="stroke:#181818;stroke-width:0.5;" width="90.4004" x="47.9609" y="319.8438"/><text fill="#000000" font-family="sans-serif" font-size="12" lengthAdjust="spacing" textLength="70.4004" x="57.9609" y="340.9824">Train Model</text><path d="M195.3223,378.2305 L195.3223,386.7969 L175.3223,390.7969 L195.3223,394.7969 L195.3223,403.3633 A0,0 0 0 0 195.3223,403.3633 L402.1563,403.3633 A0,0 0 0 0 402.1563,403.3633 L402.1563,388.2305 L392.1563,378.2305 L195.3223,378.2305 A0,0 0 0 0 195.3223,378.2305 " fill="#FEFFDD" style="stroke:#181818;stroke-width:0.5;"/><path d="M392.1563,378.2305 L392.1563,388.2305 L402.1563,388.2305 L392.1563,378.2305 " fill="#FEFFDD" style="stroke:#181818;stroke-width:0.5;"/><text fill="#000000" font-family="sans-serif" font-size="13" lengthAdjust="spacing" textLength="185.834" x="201.3223" y="395.2974">Grid search, cross-validation</text><rect fill="#F1F1F1" height="33.9688" rx="12.5" ry="12.5" style="stroke:#181818;stroke-width:0.5;" width="164.3223" x="11" y="373.8125"/><text fill="#000000" font-family="sans-serif" font-size="12" lengthAdjust="spacing" textLength="144.3223" x="21" y="394.9512">Hyperparameter Tuning</text><path d="M169.292,432.1992 L169.292,440.7656 L149.292,444.7656 L169.292,448.7656 L169.292,457.332 A0,0 0 0 0 169.292,457.332 L424.3745,457.332 A0,0 0 0 0 424.3745,457.332 L424.3745,442.1992 L414.3745,432.1992 L169.292,432.1992 A0,0 0 0 0 169.292,432.1992 " fill="#FEFFDD" style="stroke:#181818;stroke-width:0.5;"/><path d="M414.3745,432.1992 L414.3745,442.1992 L424.3745,442.1992 L414.3745,432.1992 " fill="#FEFFDD" style="stroke:#181818;stroke-width:0.5;"/><text fill="#000000" font-family="sans-serif" font-size="13" lengthAdjust="spacing" textLength="234.0825" x="175.292" y="449.2661">Accuracy, precision, recall, F1 score</text><rect fill="#F1F1F1" height="33.9688" rx="12.5" ry="12.5" style="stroke:#181818;stroke-width:0.5;" width="112.2617" x="37.0303" y="427.7813"/><text fill="#000000" font-family="sans-serif" font-size="12" lengthAdjust="spacing" textLength="92.2617" x="47.0303" y="448.9199">Evaluate Model</text><rect fill="#F1F1F1" height="33.9688" rx="12.5" ry="12.5" style="stroke:#181818;stroke-width:0.5;" width="89.2988" x="48.5117" y="481.75"/><text fill="#000000" font-family="sans-serif" font-size="12" lengthAdjust="spacing" textLength="69.2988" x="58.5117" y="502.8887">Save Model</text><rect fill="#F1F1F1" height="33.9688" rx="12.5" ry="12.5" style="stroke:#181818;stroke-width:0.5;" width="101.8613" x="42.2305" y="535.7188"/><text fill="#000000" font-family="sans-serif" font-size="12" lengthAdjust="spacing" textLength="81.8613" x="52.2305" y="556.8574">Deploy Model</text><ellipse cx="93.1611" cy="600.6875" fill="none" rx="11" ry="11" style="stroke:#222222;stroke-width:1;"/><ellipse cx="93.1611" cy="600.6875" fill="#222222" rx="6" ry="6" style="stroke:#222222;stroke-width:1;"/><line style="stroke:#181818;stroke-width:1;" x1="93.1611" x2="93.1611" y1="30" y2="50"/><polygon fill="#181818" points="89.1611,40,93.1611,50,97.1611,40,93.1611,44" style="stroke:#181818;stroke-width:1;"/><line style="stroke:#181818;stroke-width:1;" x1="93.1611" x2="93.1611" y1="83.9688" y2="103.9688"/><polygon fill="#181818" points="89.1611,93.9688,93.1611,103.9688,97.1611,93.9688,93.1611,97.9688" style="stroke:#181818;stroke-width:1;"/><line style="stroke:#181818;stroke-width:1;" x1="93.1611" x2="93.1611" y1="137.9375" y2="157.9375"/><polygon fill="#181818" points="89.1611,147.9375,93.1611,157.9375,97.1611,147.9375,93.1611,151.9375" style="stroke:#181818;stroke-width:1;"/><line style="stroke:#181818;stroke-width:1;" x1="93.1611" x2="93.1611" y1="191.9063" y2="211.9063"/><polygon fill="#181818" points="89.1611,201.9063,93.1611,211.9063,97.1611,201.9063,93.1611,205.9063" style="stroke:#181818;stroke-width:1;"/><line style="stroke:#181818;stroke-width:1;" x1="93.1611" x2="93.1611" y1="245.875" y2="265.875"/><polygon fill="#181818" points="89.1611,255.875,93.1611,265.875,97.1611,255.875,93.1611,259.875" style="stroke:#181818;stroke-width:1;"/><line style="stroke:#181818;stroke-width:1;" x1="93.1611" x2="93.1611" y1="299.8438" y2="319.8438"/><polygon fill="#181818" points="89.1611,309.8438,93.1611,319.8438,97.1611,309.8438,93.1611,313.8438" style="stroke:#181818;stroke-width:1;"/><line style="stroke:#181818;stroke-width:1;" x1="93.1611" x2="93.1611" y1="353.8125" y2="373.8125"/><polygon fill="#181818" points="89.1611,363.8125,93.1611,373.8125,97.1611,363.8125,93.1611,367.8125" style="stroke:#181818;stroke-width:1;"/><line style="stroke:#181818;stroke-width:1;" x1="93.1611" x2="93.1611" y1="407.7813" y2="427.7813"/><polygon fill="#181818" points="89.1611,417.7813,93.1611,427.7813,97.1611,417.7813,93.1611,421.7813" style="stroke:#181818;stroke-width:1;"/><line style="stroke:#181818;stroke-width:1;" x1="93.1611" x2="93.1611" y1="461.75" y2="481.75"/><polygon fill="#181818" points="89.1611,471.75,93.1611,481.75,97.1611,471.75,93.1611,475.75" style="stroke:#181818;stroke-width:1;"/><line style="stroke:#181818;stroke-width:1;" x1="93.1611" x2="93.1611" y1="515.7188" y2="535.7188"/><polygon fill="#181818" points="89.1611,525.7188,93.1611,535.7188,97.1611,525.7188,93.1611,529.7188" style="stroke:#181818;stroke-width:1;"/><line style="stroke:#181818;stroke-width:1;" x1="93.1611" x2="93.1611" y1="569.6875" y2="589.6875"/><polygon fill="#181818" points="89.1611,579.6875,93.1611,589.6875,97.1611,579.6875,93.1611,583.6875" style="stroke:#181818;stroke-width:1;"/><!--SRC=[RP5FJyCm3CNl_HI-88OK4712smdj3npOPHlShTHhBQL9vRYTogV7PMZQD4xLQ_nUVdwvXGNjEH9eJT1oIs4Kc04Ze5VkMGSe6Il1fiYAeaKn_KXOmWOFi435cVqOlp0FX95ZDIjYKWBXgjOfRAX9FK7PjO4zAcK7DSOo43ISiur3Zw6ZR2ahGks4O4k1xEeKBvFcTKhPb9ts61Nsn_5pvp9MXazoHJ4Nco28T3ZP7CGa3GR-DZhZjvYjCUhVKkVkdI2Fcq4cXSdBuysTWnrbFUfdqsR-7O9rAYbSkZyDkaVXr5cheKh2MZSP9Xkh8JMmIWQZ3hPVQmUa_c4CUnzQaXQjT58Is7NNnRu9bmQ0uci7NbBEzzOasohMd4Kinrx7fVz1UlM-4_I3WrR8SpQ7is8zXk1WzGJP6zHO2FOdlxqojI4D9vqrjJy0]--></g></svg>