<svg xmlns="http://www.w3.org/2000/svg" xmlns:xlink="http://www.w3.org/1999/xlink" contentStyleType="text/css" data-diagram-type="CLASS" height="637px" preserveAspectRatio="none" style="width:431px;height:637px;background:#FFFFFF;" version="1.1" viewBox="0 0 431 637" width="431px" zoomAndPan="magnify"><defs/><g><!--class dataset--><g class="entity" data-entity="dataset" data-source-line="2" data-uid="ent0002" id="entity_dataset"><rect fill="#F1F1F1" height="145.7813" rx="2.5" ry="2.5" style="stroke:#181818;stroke-width:0.5;" width="195.4629" x="82.54" y="7"/><ellipse cx="148.6093" cy="23" fill="#ADD1B2" rx="11" ry="11" style="stroke:#181818;stroke-width:1;"/><path d="M152.7187,29 L145,29 L145,16.6094 L152.7187,16.6094 L152.7187,18.7656 L147.4531,18.7656 L147.4531,21.4375 L152.2187,21.4375 L152.2187,23.5938 L147.4531,23.5938 L147.4531,26.8438 L152.7187,26.8438 L152.7187,29 Z " fill="#000000"/><text fill="#000000" font-family="sans-serif" font-size="14" lengthAdjust="spacing" textLength="54.8242" x="169.1093" y="27.8467">Dataset</text><line style="stroke:#181818;stroke-width:0.5;" x1="83.54" x2="277.0029" y1="39" y2="39"/><ellipse cx="93.54" cy="52.6484" fill="#000000" rx="3" ry="3" style="stroke:#000000;stroke-width:1;"/><text fill="#000000" font-family="sans-serif" font-size="14" lengthAdjust="spacing" textLength="101.001" x="102.54" y="55.9951">id : UUID &#171;PK&#187;</text><line style="stroke:#181818;stroke-width:1;" x1="83.54" x2="277.0029" y1="63.2969" y2="63.2969"/><ellipse cx="93.54" cy="76.9453" fill="#000000" rx="3" ry="3" style="stroke:#000000;stroke-width:1;"/><text fill="#000000" font-family="sans-serif" font-size="14" lengthAdjust="spacing" textLength="159.4551" x="102.54" y="80.292">name : VARCHAR(255)</text><ellipse cx="93.54" cy="93.2422" fill="#000000" rx="3" ry="3" style="stroke:#000000;stroke-width:1;"/><text fill="#000000" font-family="sans-serif" font-size="14" lengthAdjust="spacing" textLength="126.998" x="102.54" y="96.5889">description : TEXT</text><ellipse cx="93.54" cy="109.5391" fill="#000000" rx="3" ry="3" style="stroke:#000000;stroke-width:1;"/><text fill="#000000" font-family="sans-serif" font-size="14" lengthAdjust="spacing" textLength="169.4629" x="102.54" y="112.8857">created_at : TIMESTAMP</text><ellipse cx="93.54" cy="125.8359" fill="#000000" rx="3" ry="3" style="stroke:#000000;stroke-width:1;"/><text fill="#000000" font-family="sans-serif" font-size="14" lengthAdjust="spacing" textLength="162.1211" x="102.54" y="129.1826">version : VARCHAR(50)</text><ellipse cx="93.54" cy="142.1328" fill="#000000" rx="3" ry="3" style="stroke:#000000;stroke-width:1;"/><text fill="#000000" font-family="sans-serif" font-size="14" lengthAdjust="spacing" textLength="98.2803" x="102.54" y="145.4795">status : ENUM</text></g><!--class feature--><g class="entity" data-entity="feature" data-source-line="12" data-uid="ent0003" id="entity_feature"><rect fill="#F1F1F1" height="145.7813" rx="2.5" ry="2.5" style="stroke:#181818;stroke-width:0.5;" width="186.542" x="7" y="246.08"/><ellipse cx="69.0327" cy="262.08" fill="#ADD1B2" rx="11" ry="11" style="stroke:#181818;stroke-width:1;"/><path d="M73.1421,268.08 L65.4233,268.08 L65.4233,255.6894 L73.1421,255.6894 L73.1421,257.8456 L67.8765,257.8456 L67.8765,260.5175 L72.6421,260.5175 L72.6421,262.6738 L67.8765,262.6738 L67.8765,265.9238 L73.1421,265.9238 L73.1421,268.08 Z " fill="#000000"/><text fill="#000000" font-family="sans-serif" font-size="14" lengthAdjust="spacing" textLength="53.9766" x="89.5327" y="266.9267">Feature</text><line style="stroke:#181818;stroke-width:0.5;" x1="8" x2="192.542" y1="278.08" y2="278.08"/><ellipse cx="18" cy="291.7284" fill="#000000" rx="3" ry="3" style="stroke:#000000;stroke-width:1;"/><text fill="#000000" font-family="sans-serif" font-size="14" lengthAdjust="spacing" textLength="101.001" x="27" y="295.0751">id : UUID &#171;PK&#187;</text><ellipse cx="18" cy="308.0253" fill="#000000" rx="3" ry="3" style="stroke:#000000;stroke-width:1;"/><text fill="#000000" font-family="sans-serif" font-size="14" lengthAdjust="spacing" textLength="160.542" x="27" y="311.372">dataset_id : UUID &#171;FK&#187;</text><line style="stroke:#181818;stroke-width:1;" x1="8" x2="192.542" y1="318.6738" y2="318.6738"/><ellipse cx="18" cy="332.3222" fill="#000000" rx="3" ry="3" style="stroke:#000000;stroke-width:1;"/><text fill="#000000" font-family="sans-serif" font-size="14" lengthAdjust="spacing" textLength="159.4551" x="27" y="335.6689">name : VARCHAR(255)</text><ellipse cx="18" cy="348.6191" fill="#000000" rx="3" ry="3" style="stroke:#000000;stroke-width:1;"/><text fill="#000000" font-family="sans-serif" font-size="14" lengthAdjust="spacing" textLength="86.5361" x="27" y="351.9657">type : ENUM</text><ellipse cx="18" cy="364.9159" fill="#000000" rx="3" ry="3" style="stroke:#000000;stroke-width:1;"/><text fill="#000000" font-family="sans-serif" font-size="14" lengthAdjust="spacing" textLength="138.6055" x="27" y="368.2626">importance : FLOAT</text><ellipse cx="18" cy="381.2128" fill="#000000" rx="3" ry="3" style="stroke:#000000;stroke-width:1;"/><text fill="#000000" font-family="sans-serif" font-size="14" lengthAdjust="spacing" textLength="126.998" x="27" y="384.5595">description : TEXT</text></g><!--class model--><g class="entity" data-entity="model" data-source-line="22" data-uid="ent0004" id="entity_model"><rect fill="#F1F1F1" height="178.375" rx="2.5" ry="2.5" style="stroke:#181818;stroke-width:0.5;" width="195.4629" x="228.54" y="229.78"/><ellipse cx="301.0044" cy="245.78" fill="#ADD1B2" rx="11" ry="11" style="stroke:#181818;stroke-width:1;"/><path d="M305.1137,251.78 L297.395,251.78 L297.395,239.3894 L305.1137,239.3894 L305.1137,241.5456 L299.8481,241.5456 L299.8481,244.2175 L304.6137,244.2175 L304.6137,246.3738 L299.8481,246.3738 L299.8481,249.6238 L305.1137,249.6238 L305.1137,251.78 Z " fill="#000000"/><text fill="#000000" font-family="sans-serif" font-size="14" lengthAdjust="spacing" textLength="42.0342" x="321.5044" y="250.6267">Model</text><line style="stroke:#181818;stroke-width:0.5;" x1="229.54" x2="423.0029" y1="261.78" y2="261.78"/><ellipse cx="239.54" cy="275.4284" fill="#000000" rx="3" ry="3" style="stroke:#000000;stroke-width:1;"/><text fill="#000000" font-family="sans-serif" font-size="14" lengthAdjust="spacing" textLength="101.001" x="248.54" y="278.7751">id : UUID &#171;PK&#187;</text><ellipse cx="239.54" cy="291.7253" fill="#000000" rx="3" ry="3" style="stroke:#000000;stroke-width:1;"/><text fill="#000000" font-family="sans-serif" font-size="14" lengthAdjust="spacing" textLength="160.542" x="248.54" y="295.072">dataset_id : UUID &#171;FK&#187;</text><line style="stroke:#181818;stroke-width:1;" x1="229.54" x2="423.0029" y1="302.3738" y2="302.3738"/><ellipse cx="239.54" cy="316.0222" fill="#000000" rx="3" ry="3" style="stroke:#000000;stroke-width:1;"/><text fill="#000000" font-family="sans-serif" font-size="14" lengthAdjust="spacing" textLength="159.4551" x="248.54" y="319.3689">name : VARCHAR(255)</text><ellipse cx="239.54" cy="332.3191" fill="#000000" rx="3" ry="3" style="stroke:#000000;stroke-width:1;"/><text fill="#000000" font-family="sans-serif" font-size="14" lengthAdjust="spacing" textLength="151.0264" x="248.54" y="335.6657">type : VARCHAR(100)</text><ellipse cx="239.54" cy="348.6159" fill="#000000" rx="3" ry="3" style="stroke:#000000;stroke-width:1;"/><text fill="#000000" font-family="sans-serif" font-size="14" lengthAdjust="spacing" textLength="162.1211" x="248.54" y="351.9626">version : VARCHAR(50)</text><ellipse cx="239.54" cy="364.9128" fill="#000000" rx="3" ry="3" style="stroke:#000000;stroke-width:1;"/><text fill="#000000" font-family="sans-serif" font-size="14" lengthAdjust="spacing" textLength="121.7822" x="248.54" y="368.2595">accuracy : FLOAT</text><ellipse cx="239.54" cy="381.2097" fill="#000000" rx="3" ry="3" style="stroke:#000000;stroke-width:1;"/><text fill="#000000" font-family="sans-serif" font-size="14" lengthAdjust="spacing" textLength="169.4629" x="248.54" y="384.5564">created_at : TIMESTAMP</text><ellipse cx="239.54" cy="397.5066" fill="#000000" rx="3" ry="3" style="stroke:#000000;stroke-width:1;"/><text fill="#000000" font-family="sans-serif" font-size="14" lengthAdjust="spacing" textLength="138.9336" x="248.54" y="400.8532">parameters : JSONB</text></g><!--class prediction--><g class="entity" data-entity="prediction" data-source-line="34" data-uid="ent0005" id="entity_prediction"><rect fill="#F1F1F1" height="145.7813" rx="2.5" ry="2.5" style="stroke:#181818;stroke-width:0.5;" width="195.4629" x="228.54" y="485.16"/><ellipse cx="286.9702" cy="501.16" fill="#ADD1B2" rx="11" ry="11" style="stroke:#181818;stroke-width:1;"/><path d="M291.0796,507.16 L283.3608,507.16 L283.3608,494.7694 L291.0796,494.7694 L291.0796,496.9256 L285.8139,496.9256 L285.8139,499.5975 L290.5796,499.5975 L290.5796,501.7538 L285.8139,501.7538 L285.8139,505.0038 L291.0796,505.0038 L291.0796,507.16 Z " fill="#000000"/><text fill="#000000" font-family="sans-serif" font-size="14" lengthAdjust="spacing" textLength="70.1025" x="307.4702" y="506.0067">Prediction</text><line style="stroke:#181818;stroke-width:0.5;" x1="229.54" x2="423.0029" y1="517.16" y2="517.16"/><ellipse cx="239.54" cy="530.8084" fill="#000000" rx="3" ry="3" style="stroke:#000000;stroke-width:1;"/><text fill="#000000" font-family="sans-serif" font-size="14" lengthAdjust="spacing" textLength="101.001" x="248.54" y="534.1551">id : UUID &#171;PK&#187;</text><ellipse cx="239.54" cy="547.1053" fill="#000000" rx="3" ry="3" style="stroke:#000000;stroke-width:1;"/><text fill="#000000" font-family="sans-serif" font-size="14" lengthAdjust="spacing" textLength="151.2041" x="248.54" y="550.452">model_id : UUID &#171;FK&#187;</text><line style="stroke:#181818;stroke-width:1;" x1="229.54" x2="423.0029" y1="557.7538" y2="557.7538"/><ellipse cx="239.54" cy="571.4022" fill="#000000" rx="3" ry="3" style="stroke:#000000;stroke-width:1;"/><text fill="#000000" font-family="sans-serif" font-size="14" lengthAdjust="spacing" textLength="132.2754" x="248.54" y="574.7489">input_data : JSONB</text><ellipse cx="239.54" cy="587.6991" fill="#000000" rx="3" ry="3" style="stroke:#000000;stroke-width:1;"/><text fill="#000000" font-family="sans-serif" font-size="14" lengthAdjust="spacing" textLength="97.6445" x="248.54" y="591.0457">result : JSONB</text><ellipse cx="239.54" cy="603.9959" fill="#000000" rx="3" ry="3" style="stroke:#000000;stroke-width:1;"/><text fill="#000000" font-family="sans-serif" font-size="14" lengthAdjust="spacing" textLength="135.2559" x="248.54" y="607.3426">confidence : FLOAT</text><ellipse cx="239.54" cy="620.2928" fill="#000000" rx="3" ry="3" style="stroke:#000000;stroke-width:1;"/><text fill="#000000" font-family="sans-serif" font-size="14" lengthAdjust="spacing" textLength="169.4629" x="248.54" y="623.6395">created_at : TIMESTAMP</text></g><!--link dataset to feature--><g class="link" data-entity-1="dataset" data-entity-2="feature" data-source-line="45" data-uid="lnk6" id="link_dataset_feature"><path codeLine="45" d="M153.3824,160.5701 C143.4524,190.0001 140.3046,199.3247 130.3746,228.7547 " fill="none" id="dataset-feature" style="stroke:#181818;stroke-width:1;"/><line style="stroke:#181818;stroke-width:1;" x1="150.8711" x2="158.4513" y1="155.5013" y2="158.0589"/><line style="stroke:#181818;stroke-width:1;" x1="149.912" x2="157.4922" y1="158.3438" y2="160.9014"/><line style="stroke:#181818;stroke-width:1;" x1="153.3824" x2="155.94" y1="160.5701" y2="152.99"/><line style="stroke:#181818;stroke-width:1;" x1="127.1776" x2="130.3051" y1="238.2299" y2="247.7282"/><line style="stroke:#181818;stroke-width:1;" x1="127.1776" x2="118.9349" y1="238.2299" y2="243.8918"/><line style="stroke:#181818;stroke-width:1;" x1="127.1776" x2="124.62" y1="238.2299" y2="245.81"/><ellipse cx="129.0958" cy="232.5447" fill="none" rx="4" ry="4" style="stroke:#181818;stroke-width:1;"/><text fill="#000000" font-family="sans-serif" font-size="13" lengthAdjust="spacing" textLength="55.0278" x="145.27" y="195.8469">contains</text></g><!--link dataset to model--><g class="link" data-entity-1="dataset" data-entity-2="model" data-source-line="46" data-uid="lnk7" id="link_dataset_model"><path codeLine="46" d="M228.8655,159.8016 C243.7155,183.9116 246.8018,188.9329 262.3318,214.1529 " fill="none" id="dataset-model" style="stroke:#181818;stroke-width:1;"/><line style="stroke:#181818;stroke-width:1;" x1="223.3619" x2="230.1735" y1="158.4935" y2="154.2981"/><line style="stroke:#181818;stroke-width:1;" x1="224.9352" x2="231.7468" y1="161.0479" y2="156.8524"/><line style="stroke:#181818;stroke-width:1;" x1="228.8655" x2="224.67" y1="159.8016" y2="152.99"/><line style="stroke:#181818;stroke-width:1;" x1="267.5753" x2="276.879" y1="222.6679" y2="226.3339"/><line style="stroke:#181818;stroke-width:1;" x1="267.5753" x2="266.661" y1="222.6679" y2="232.6261"/><line style="stroke:#181818;stroke-width:1;" x1="267.5753" x2="271.77" y1="222.6679" y2="229.48"/><ellipse cx="264.4292" cy="217.5589" fill="none" rx="4" ry="4" style="stroke:#181818;stroke-width:1;"/><text fill="#000000" font-family="sans-serif" font-size="13" lengthAdjust="spacing" textLength="37.0322" x="254.27" y="195.8469">trains</text></g><!--link model to prediction--><g class="link" data-entity-1="model" data-entity-2="prediction" data-source-line="47" data-uid="lnk8" id="link_model_prediction"><path codeLine="47" d="M326.27,416.59 C326.27,441.71 326.27,442.75 326.27,466.78 " fill="none" id="model-prediction" style="stroke:#181818;stroke-width:1;"/><line style="stroke:#181818;stroke-width:1;" x1="322.27" x2="330.27" y1="412.59" y2="412.59"/><line style="stroke:#181818;stroke-width:1;" x1="322.27" x2="330.27" y1="415.59" y2="415.59"/><line style="stroke:#181818;stroke-width:1;" x1="326.27" x2="326.27" y1="416.59" y2="408.59"/><line style="stroke:#181818;stroke-width:1;" x1="326.27" x2="332.27" y1="476.78" y2="484.78"/><line style="stroke:#181818;stroke-width:1;" x1="326.27" x2="320.27" y1="476.78" y2="484.78"/><line style="stroke:#181818;stroke-width:1;" x1="326.27" x2="326.27" y1="476.78" y2="484.78"/><ellipse cx="326.27" cy="470.78" fill="none" rx="4" ry="4" style="stroke:#181818;stroke-width:1;"/><text fill="#000000" font-family="sans-serif" font-size="13" lengthAdjust="spacing" textLength="65.6665" x="327.27" y="451.2269">generates</text></g><!--SRC=[jLFHQi8m57tlLmHVt8I26_XIHEYcChTLHUlOcuJakWKq3SdjG7J_lYIrfKugUzdRpJdXtdFEJTfa21iXWO14WG9Cu8izQGqfKWFO8jGGNjJa413I8OAJYAnMao7fz-SlWu45mz0pakx0Sc_nul4fNjpSztgt7kTWc1OAHIOjdOxUKmyp3HI1hoawT9ACbccSp3tr1TeKjyjclMxHoo35t5XYD5qbmNTG2HxRPha6BtXJrCs2EwMdTPqS_yaDxXMKyttxdSeqKiaSEdwTnMcJwPhQ9EEmzLfthlfNfIL-rprbs9mkPIpNbEtFd5pPawBQpaRRprBFozdqeMvohe4BvXBmJbLrl6RNvt75h90gnxKBfHhfO0qct-8Pn3Av4Hn-BwR1ZjNTBd-3XYrrEisdK2Oed__n68RPeNfSaHk0LCYB6yLA8uBQiyNnnDL2YCW7ID1MZFa1]--></g></svg>