<?xml version="1.0" encoding="us-ascii" standalone="no"?><svg xmlns="http://www.w3.org/2000/svg" xmlns:xlink="http://www.w3.org/1999/xlink" contentStyleType="text/css" height="1006px" preserveAspectRatio="none" style="width:2908px;height:1006px;background:#FFFFFF;" version="1.1" viewBox="0 0 2908 1006" width="2908px" zoomAndPan="magnify"><defs/><g><text fill="#000000" font-family="sans-serif" font-size="14" font-weight="bold" lengthAdjust="spacing" textLength="160" x="1367" y="24.5332">Pipeline Class Diagram</text><!--class Pipeline--><g id="elem_Pipeline"><rect codeLine="13" fill="#E0FFFF" height="259.3125" id="Pipeline" rx="2.5" ry="2.5" style="stroke:#999999;stroke-width:0.5;" width="593" x="224.5" y="189.6094"/><ellipse cx="491.75" cy="205.6094" fill="#ADD1B2" rx="11" ry="11" style="stroke:#181818;stroke-width:1.0;"/><path d="M494.5156,201.4844 Q494.6719,201.2656 494.8594,201.1563 Q495.0469,201.0469 495.2656,201.0469 Q495.6406,201.0469 495.875,201.3125 Q496.1094,201.5625 496.1094,202.1719 L496.1094,203.625 Q496.1094,204.2344 495.875,204.5 Q495.6406,204.7656 495.2656,204.7656 Q494.9219,204.7656 494.7188,204.5625 Q494.5156,204.375 494.4063,203.8594 Q494.3594,203.5 494.1719,203.3125 Q493.8438,202.9375 493.2344,202.7188 Q492.625,202.5 492,202.5 Q491.2344,202.5 490.5938,202.8281 Q489.9688,203.1563 489.4688,203.9063 Q488.9844,204.6563 488.9844,205.6875 L488.9844,206.7813 Q488.9844,208.0156 489.875,208.8438 Q490.7656,209.6563 492.3594,209.6563 Q493.2969,209.6563 493.9531,209.4063 Q494.3438,209.25 494.7656,208.8125 Q495.0313,208.5469 495.1719,208.4688 Q495.3281,208.3906 495.5313,208.3906 Q495.8594,208.3906 496.1094,208.6563 Q496.375,208.9063 496.375,209.25 Q496.375,209.5938 496.0313,210 Q495.5313,210.5781 494.7344,210.9063 Q493.6563,211.3594 492.3594,211.3594 Q490.8438,211.3594 489.6406,210.7344 Q488.6563,210.2344 487.9688,209.1719 Q487.2813,208.0938 487.2813,206.8125 L487.2813,205.6563 Q487.2813,204.3281 487.8906,203.1875 Q488.5156,202.0313 489.6094,201.4219 Q490.7031,200.7969 491.9375,200.7969 Q492.6719,200.7969 493.3125,200.9688 Q493.9688,201.125 494.5156,201.4844 Z " fill="#000000"/><text fill="#000000" font-family="sans-serif" font-size="14" lengthAdjust="spacing" textLength="50" x="512.25" y="211.3379">Pipeline</text><line style="stroke:#999999;stroke-width:0.5;" x1="225.5" x2="816.5" y1="221.6094" y2="221.6094"/><rect fill="none" height="6" style="stroke:#C82930;stroke-width:1.0;" width="6" x="232.5" y="232.9141"/><text fill="#000000" font-family="sans-serif" font-size="14" lengthAdjust="spacing" textLength="126" x="244.5" y="240.1426">config: Dict[str, Any]</text><rect fill="none" height="6" style="stroke:#C82930;stroke-width:1.0;" width="6" x="232.5" y="250.5234"/><text fill="#000000" font-family="sans-serif" font-size="14" lengthAdjust="spacing" textLength="93" x="244.5" y="257.752">logger: Logger</text><rect fill="none" height="6" style="stroke:#C82930;stroke-width:1.0;" width="6" x="232.5" y="268.1328"/><text fill="#000000" font-family="sans-serif" font-size="14" lengthAdjust="spacing" textLength="222" x="244.5" y="275.3613">strategy_selector: StrategySelector</text><line style="stroke:#999999;stroke-width:0.5;" x1="225.5" x2="816.5" y1="282.4375" y2="282.4375"/><ellipse cx="235.5" cy="296.7422" fill="#84BE84" rx="3" ry="3" style="stroke:#038048;stroke-width:1.0;"/><text fill="#000000" font-family="sans-serif" font-size="14" lengthAdjust="spacing" textLength="247" x="244.5" y="300.9707">__init__(config: Optional[Dict[str, Any]])</text><ellipse cx="235.5" cy="314.3516" fill="#84BE84" rx="3" ry="3" style="stroke:#038048;stroke-width:1.0;"/><text fill="#000000" font-family="sans-serif" font-size="14" lengthAdjust="spacing" textLength="210" x="244.5" y="318.5801">run(input_path: str): Dict[str, Any]</text><rect fill="#F24D5C" height="6" style="stroke:#C82930;stroke-width:1.0;" width="6" x="232.5" y="328.9609"/><text fill="#000000" font-family="sans-serif" font-size="14" lengthAdjust="spacing" textLength="277" x="244.5" y="336.1895">_detect_document_type(input_path: str): str</text><rect fill="#F24D5C" height="6" style="stroke:#C82930;stroke-width:1.0;" width="6" x="232.5" y="346.5703"/><text fill="#000000" font-family="sans-serif" font-size="14" lengthAdjust="spacing" textLength="376" x="244.5" y="353.7988">_analyze_document(input_path: str, analyzer): Dict[str, Any]</text><rect fill="#F24D5C" height="6" style="stroke:#C82930;stroke-width:1.0;" width="6" x="232.5" y="364.1797"/><text fill="#000000" font-family="sans-serif" font-size="14" lengthAdjust="spacing" textLength="432" x="244.5" y="371.4082">_clean_content(analysis_result: Dict[str, Any], cleaner): Dict[str, Any]</text><rect fill="#F24D5C" height="6" style="stroke:#C82930;stroke-width:1.0;" width="6" x="232.5" y="381.7891"/><text fill="#000000" font-family="sans-serif" font-size="14" lengthAdjust="spacing" textLength="421" x="244.5" y="389.0176">_extract_data(cleaned_data: Dict[str, Any], extractor): Dict[str, Any]</text><rect fill="#F24D5C" height="6" style="stroke:#C82930;stroke-width:1.0;" width="6" x="232.5" y="399.3984"/><text fill="#000000" font-family="sans-serif" font-size="14" lengthAdjust="spacing" textLength="435" x="244.5" y="406.627">_validate_data(extracted_data: Dict[str, Any], validator): Dict[str, Any]</text><rect fill="#F24D5C" height="6" style="stroke:#C82930;stroke-width:1.0;" width="6" x="232.5" y="417.0078"/><text fill="#000000" font-family="sans-serif" font-size="14" lengthAdjust="spacing" textLength="567" x="244.5" y="424.2363">_format_output(validated_data: Dict[str, Any], output_format: OutputFormat): Dict[str, Any]</text><ellipse cx="235.5" cy="437.6172" fill="#84BE84" rx="3" ry="3" style="stroke:#038048;stroke-width:1.0;"/><text fill="#000000" font-family="sans-serif" font-size="14" lengthAdjust="spacing" textLength="401" x="244.5" y="441.8457">save_output(output_data: Dict[str, Any], output_path: str): None</text></g><!--class PipelineProgress--><g id="elem_PipelineProgress"><rect codeLine="28" fill="#E0FFFF" height="224.0938" id="PipelineProgress" rx="2.5" ry="2.5" style="stroke:#999999;stroke-width:0.5;" width="562" x="7" y="526.6094"/><ellipse cx="230.25" cy="542.6094" fill="#ADD1B2" rx="11" ry="11" style="stroke:#181818;stroke-width:1.0;"/><path d="M233.0156,538.4844 Q233.1719,538.2656 233.3594,538.1563 Q233.5469,538.0469 233.7656,538.0469 Q234.1406,538.0469 234.375,538.3125 Q234.6094,538.5625 234.6094,539.1719 L234.6094,540.625 Q234.6094,541.2344 234.375,541.5 Q234.1406,541.7656 233.7656,541.7656 Q233.4219,541.7656 233.2188,541.5625 Q233.0156,541.375 232.9063,540.8594 Q232.8594,540.5 232.6719,540.3125 Q232.3438,539.9375 231.7344,539.7188 Q231.125,539.5 230.5,539.5 Q229.7344,539.5 229.0938,539.8281 Q228.4688,540.1563 227.9688,540.9063 Q227.4844,541.6563 227.4844,542.6875 L227.4844,543.7813 Q227.4844,545.0156 228.375,545.8438 Q229.2656,546.6563 230.8594,546.6563 Q231.7969,546.6563 232.4531,546.4063 Q232.8438,546.25 233.2656,545.8125 Q233.5313,545.5469 233.6719,545.4688 Q233.8281,545.3906 234.0313,545.3906 Q234.3594,545.3906 234.6094,545.6563 Q234.875,545.9063 234.875,546.25 Q234.875,546.5938 234.5313,547 Q234.0313,547.5781 233.2344,547.9063 Q232.1563,548.3594 230.8594,548.3594 Q229.3438,548.3594 228.1406,547.7344 Q227.1563,547.2344 226.4688,546.1719 Q225.7813,545.0938 225.7813,543.8125 L225.7813,542.6563 Q225.7813,541.3281 226.3906,540.1875 Q227.0156,539.0313 228.1094,538.4219 Q229.2031,537.7969 230.4375,537.7969 Q231.1719,537.7969 231.8125,537.9688 Q232.4688,538.125 233.0156,538.4844 Z " fill="#000000"/><text fill="#000000" font-family="sans-serif" font-size="14" lengthAdjust="spacing" textLength="107" x="250.75" y="548.3379">PipelineProgress</text><line style="stroke:#999999;stroke-width:0.5;" x1="8" x2="568" y1="558.6094" y2="558.6094"/><rect fill="none" height="6" style="stroke:#C82930;stroke-width:1.0;" width="6" x="15" y="569.9141"/><text fill="#000000" font-family="sans-serif" font-size="14" lengthAdjust="spacing" textLength="121" x="27" y="577.1426">progress: Progress</text><line style="stroke:#999999;stroke-width:0.5;" x1="8" x2="568" y1="584.2188" y2="584.2188"/><ellipse cx="18" cy="598.5234" fill="#84BE84" rx="3" ry="3" style="stroke:#038048;stroke-width:1.0;"/><text fill="#000000" font-family="sans-serif" font-size="14" lengthAdjust="spacing" textLength="60" x="27" y="602.752">__init__()</text><ellipse cx="18" cy="616.1328" fill="#84BE84" rx="3" ry="3" style="stroke:#038048;stroke-width:1.0;"/><text fill="#000000" font-family="sans-serif" font-size="14" lengthAdjust="spacing" textLength="79" x="27" y="620.3613">start(): None</text><ellipse cx="18" cy="633.7422" fill="#84BE84" rx="3" ry="3" style="stroke:#038048;stroke-width:1.0;"/><text fill="#000000" font-family="sans-serif" font-size="14" lengthAdjust="spacing" textLength="78" x="27" y="637.9707">stop(): None</text><ellipse cx="18" cy="651.3516" fill="#84BE84" rx="3" ry="3" style="stroke:#038048;stroke-width:1.0;"/><text fill="#000000" font-family="sans-serif" font-size="14" lengthAdjust="spacing" textLength="344" x="27" y="655.5801">add_task(description: str, total: Optional[float]): TaskID</text><ellipse cx="18" cy="668.9609" fill="#84BE84" rx="3" ry="3" style="stroke:#038048;stroke-width:1.0;"/><text fill="#000000" font-family="sans-serif" font-size="14" lengthAdjust="spacing" textLength="289" x="27" y="673.1895">update(task_id: TaskID, advance: float): None</text><ellipse cx="18" cy="686.5703" fill="#84BE84" rx="3" ry="3" style="stroke:#038048;stroke-width:1.0;"/><text fill="#000000" font-family="sans-serif" font-size="14" lengthAdjust="spacing" textLength="536" x="27" y="690.7988">display_stage_output(stage_name: str, data: Dict[str, Any], show_details: bool): None</text><ellipse cx="18" cy="704.1797" fill="#84BE84" rx="3" ry="3" style="stroke:#038048;stroke-width:1.0;"/><text fill="#000000" font-family="sans-serif" font-size="14" lengthAdjust="spacing" textLength="382" x="27" y="708.4082">display_summary(stages_data: Dict[str, Dict[str, Any]]): None</text><ellipse cx="18" cy="721.7891" fill="#84BE84" rx="3" ry="3" style="stroke:#038048;stroke-width:1.0;"/><text fill="#000000" font-family="sans-serif" font-size="14" lengthAdjust="spacing" textLength="215" x="27" y="726.0176">display_error(message: str): None</text><ellipse cx="18" cy="739.3984" fill="#84BE84" rx="3" ry="3" style="stroke:#038048;stroke-width:1.0;"/><text fill="#000000" font-family="sans-serif" font-size="14" lengthAdjust="spacing" textLength="235" x="27" y="743.627">display_success(message: str): None</text></g><!--class Document--><g id="elem_Document"><rect codeLine="42" fill="#E0FFFF" height="153.6563" id="Document" rx="2.5" ry="2.5" style="stroke:#999999;stroke-width:0.5;" width="216" x="825" y="561.6094"/><ellipse cx="896.75" cy="577.6094" fill="#ADD1B2" rx="11" ry="11" style="stroke:#181818;stroke-width:1.0;"/><path d="M899.5156,573.4844 Q899.6719,573.2656 899.8594,573.1563 Q900.0469,573.0469 900.2656,573.0469 Q900.6406,573.0469 900.875,573.3125 Q901.1094,573.5625 901.1094,574.1719 L901.1094,575.625 Q901.1094,576.2344 900.875,576.5 Q900.6406,576.7656 900.2656,576.7656 Q899.9219,576.7656 899.7188,576.5625 Q899.5156,576.375 899.4063,575.8594 Q899.3594,575.5 899.1719,575.3125 Q898.8438,574.9375 898.2344,574.7188 Q897.625,574.5 897,574.5 Q896.2344,574.5 895.5938,574.8281 Q894.9688,575.1563 894.4688,575.9063 Q893.9844,576.6563 893.9844,577.6875 L893.9844,578.7813 Q893.9844,580.0156 894.875,580.8438 Q895.7656,581.6563 897.3594,581.6563 Q898.2969,581.6563 898.9531,581.4063 Q899.3438,581.25 899.7656,580.8125 Q900.0313,580.5469 900.1719,580.4688 Q900.3281,580.3906 900.5313,580.3906 Q900.8594,580.3906 901.1094,580.6563 Q901.375,580.9063 901.375,581.25 Q901.375,581.5938 901.0313,582 Q900.5313,582.5781 899.7344,582.9063 Q898.6563,583.3594 897.3594,583.3594 Q895.8438,583.3594 894.6406,582.7344 Q893.6563,582.2344 892.9688,581.1719 Q892.2813,580.0938 892.2813,578.8125 L892.2813,577.6563 Q892.2813,576.3281 892.8906,575.1875 Q893.5156,574.0313 894.6094,573.4219 Q895.7031,572.7969 896.9375,572.7969 Q897.6719,572.7969 898.3125,572.9688 Q898.9688,573.125 899.5156,573.4844 Z " fill="#000000"/><text fill="#000000" font-family="sans-serif" font-size="14" lengthAdjust="spacing" textLength="64" x="917.25" y="583.3379">Document</text><line style="stroke:#999999;stroke-width:0.5;" x1="826" x2="1040" y1="593.6094" y2="593.6094"/><ellipse cx="836" cy="607.9141" fill="none" rx="3" ry="3" style="stroke:#038048;stroke-width:1.0;"/><text fill="#000000" font-family="sans-serif" font-size="14" lengthAdjust="spacing" textLength="190" x="845" y="612.1426">metadata: DocumentMetadata</text><ellipse cx="836" cy="625.5234" fill="none" rx="3" ry="3" style="stroke:#038048;stroke-width:1.0;"/><text fill="#000000" font-family="sans-serif" font-size="14" lengthAdjust="spacing" textLength="132" x="845" y="629.752">content: List[Section]</text><ellipse cx="836" cy="643.1328" fill="none" rx="3" ry="3" style="stroke:#038048;stroke-width:1.0;"/><text fill="#000000" font-family="sans-serif" font-size="14" lengthAdjust="spacing" textLength="112" x="845" y="647.3613">tables: List[Table]</text><ellipse cx="836" cy="660.7422" fill="none" rx="3" ry="3" style="stroke:#038048;stroke-width:1.0;"/><text fill="#000000" font-family="sans-serif" font-size="14" lengthAdjust="spacing" textLength="108" x="845" y="664.9707">schema: Schema</text><ellipse cx="836" cy="678.3516" fill="none" rx="3" ry="3" style="stroke:#038048;stroke-width:1.0;"/><text fill="#000000" font-family="sans-serif" font-size="14" lengthAdjust="spacing" textLength="52" x="845" y="682.5801">path: str</text><ellipse cx="836" cy="695.9609" fill="none" rx="3" ry="3" style="stroke:#038048;stroke-width:1.0;"/><text fill="#000000" font-family="sans-serif" font-size="14" lengthAdjust="spacing" textLength="51" x="845" y="700.1895">type: str</text><line style="stroke:#999999;stroke-width:0.5;" x1="826" x2="1040" y1="707.2656" y2="707.2656"/></g><!--class DocumentMetadata--><g id="elem_DocumentMetadata"><rect codeLine="51" fill="#E0FFFF" height="171.2656" id="DocumentMetadata" rx="2.5" ry="2.5" style="stroke:#999999;stroke-width:0.5;" width="161" x="807.5" y="828.6094"/><ellipse cx="825.2" cy="844.6094" fill="#ADD1B2" rx="11" ry="11" style="stroke:#181818;stroke-width:1.0;"/><path d="M827.9656,840.4844 Q828.1219,840.2656 828.3094,840.1563 Q828.4969,840.0469 828.7156,840.0469 Q829.0906,840.0469 829.325,840.3125 Q829.5594,840.5625 829.5594,841.1719 L829.5594,842.625 Q829.5594,843.2344 829.325,843.5 Q829.0906,843.7656 828.7156,843.7656 Q828.3719,843.7656 828.1688,843.5625 Q827.9656,843.375 827.8563,842.8594 Q827.8094,842.5 827.6219,842.3125 Q827.2938,841.9375 826.6844,841.7188 Q826.075,841.5 825.45,841.5 Q824.6844,841.5 824.0438,841.8281 Q823.4188,842.1563 822.9188,842.9063 Q822.4344,843.6563 822.4344,844.6875 L822.4344,845.7813 Q822.4344,847.0156 823.325,847.8438 Q824.2156,848.6563 825.8094,848.6563 Q826.7469,848.6563 827.4031,848.4063 Q827.7938,848.25 828.2156,847.8125 Q828.4813,847.5469 828.6219,847.4688 Q828.7781,847.3906 828.9813,847.3906 Q829.3094,847.3906 829.5594,847.6563 Q829.825,847.9063 829.825,848.25 Q829.825,848.5938 829.4813,849 Q828.9813,849.5781 828.1844,849.9063 Q827.1063,850.3594 825.8094,850.3594 Q824.2938,850.3594 823.0906,849.7344 Q822.1063,849.2344 821.4188,848.1719 Q820.7313,847.0938 820.7313,845.8125 L820.7313,844.6563 Q820.7313,843.3281 821.3406,842.1875 Q821.9656,841.0313 823.0594,840.4219 Q824.1531,839.7969 825.3875,839.7969 Q826.1219,839.7969 826.7625,839.9688 Q827.4188,840.125 827.9656,840.4844 Z " fill="#000000"/><text fill="#000000" font-family="sans-serif" font-size="14" lengthAdjust="spacing" textLength="123" x="839.8" y="850.3379">DocumentMetadata</text><line style="stroke:#999999;stroke-width:0.5;" x1="808.5" x2="967.5" y1="860.6094" y2="860.6094"/><ellipse cx="818.5" cy="874.9141" fill="none" rx="3" ry="3" style="stroke:#038048;stroke-width:1.0;"/><text fill="#000000" font-family="sans-serif" font-size="14" lengthAdjust="spacing" textLength="46" x="827.5" y="879.1426">title: str</text><ellipse cx="818.5" cy="892.5234" fill="none" rx="3" ry="3" style="stroke:#038048;stroke-width:1.0;"/><text fill="#000000" font-family="sans-serif" font-size="14" lengthAdjust="spacing" textLength="65" x="827.5" y="896.752">author: str</text><ellipse cx="818.5" cy="910.1328" fill="none" rx="3" ry="3" style="stroke:#038048;stroke-width:1.0;"/><text fill="#000000" font-family="sans-serif" font-size="14" lengthAdjust="spacing" textLength="69" x="827.5" y="914.3613">subject: str</text><ellipse cx="818.5" cy="927.7422" fill="none" rx="3" ry="3" style="stroke:#038048;stroke-width:1.0;"/><text fill="#000000" font-family="sans-serif" font-size="14" lengthAdjust="spacing" textLength="69" x="827.5" y="931.9707">creator: str</text><ellipse cx="818.5" cy="945.3516" fill="none" rx="3" ry="3" style="stroke:#038048;stroke-width:1.0;"/><text fill="#000000" font-family="sans-serif" font-size="14" lengthAdjust="spacing" textLength="81" x="827.5" y="949.5801">producer: str</text><ellipse cx="818.5" cy="962.9609" fill="none" rx="3" ry="3" style="stroke:#038048;stroke-width:1.0;"/><text fill="#000000" font-family="sans-serif" font-size="14" lengthAdjust="spacing" textLength="111" x="827.5" y="967.1895">creation_date: str</text><ellipse cx="818.5" cy="980.5703" fill="none" rx="3" ry="3" style="stroke:#038048;stroke-width:1.0;"/><text fill="#000000" font-family="sans-serif" font-size="14" lengthAdjust="spacing" textLength="135" x="827.5" y="984.7988">modification_date: str</text><line style="stroke:#999999;stroke-width:0.5;" x1="808.5" x2="967.5" y1="991.875" y2="991.875"/></g><!--class Section--><g id="elem_Section"><rect codeLine="61" fill="#E0FFFF" height="118.4375" id="Section" rx="2.5" ry="2.5" style="stroke:#999999;stroke-width:0.5;" width="161" x="1217.5" y="855.1094"/><ellipse cx="1270.25" cy="871.1094" fill="#ADD1B2" rx="11" ry="11" style="stroke:#181818;stroke-width:1.0;"/><path d="M1273.0156,866.9844 Q1273.1719,866.7656 1273.3594,866.6563 Q1273.5469,866.5469 1273.7656,866.5469 Q1274.1406,866.5469 1274.375,866.8125 Q1274.6094,867.0625 1274.6094,867.6719 L1274.6094,869.125 Q1274.6094,869.7344 1274.375,870 Q1274.1406,870.2656 1273.7656,870.2656 Q1273.4219,870.2656 1273.2188,870.0625 Q1273.0156,869.875 1272.9063,869.3594 Q1272.8594,869 1272.6719,868.8125 Q1272.3438,868.4375 1271.7344,868.2188 Q1271.125,868 1270.5,868 Q1269.7344,868 1269.0938,868.3281 Q1268.4688,868.6563 1267.9688,869.4063 Q1267.4844,870.1563 1267.4844,871.1875 L1267.4844,872.2813 Q1267.4844,873.5156 1268.375,874.3438 Q1269.2656,875.1563 1270.8594,875.1563 Q1271.7969,875.1563 1272.4531,874.9063 Q1272.8438,874.75 1273.2656,874.3125 Q1273.5313,874.0469 1273.6719,873.9688 Q1273.8281,873.8906 1274.0313,873.8906 Q1274.3594,873.8906 1274.6094,874.1563 Q1274.875,874.4063 1274.875,874.75 Q1274.875,875.0938 1274.5313,875.5 Q1274.0313,876.0781 1273.2344,876.4063 Q1272.1563,876.8594 1270.8594,876.8594 Q1269.3438,876.8594 1268.1406,876.2344 Q1267.1563,875.7344 1266.4688,874.6719 Q1265.7813,873.5938 1265.7813,872.3125 L1265.7813,871.1563 Q1265.7813,869.8281 1266.3906,868.6875 Q1267.0156,867.5313 1268.1094,866.9219 Q1269.2031,866.2969 1270.4375,866.2969 Q1271.1719,866.2969 1271.8125,866.4688 Q1272.4688,866.625 1273.0156,866.9844 Z " fill="#000000"/><text fill="#000000" font-family="sans-serif" font-size="14" lengthAdjust="spacing" textLength="47" x="1290.75" y="876.8379">Section</text><line style="stroke:#999999;stroke-width:0.5;" x1="1218.5" x2="1377.5" y1="887.1094" y2="887.1094"/><ellipse cx="1228.5" cy="901.4141" fill="none" rx="3" ry="3" style="stroke:#038048;stroke-width:1.0;"/><text fill="#000000" font-family="sans-serif" font-size="14" lengthAdjust="spacing" textLength="46" x="1237.5" y="905.6426">title: str</text><ellipse cx="1228.5" cy="919.0234" fill="none" rx="3" ry="3" style="stroke:#038048;stroke-width:1.0;"/><text fill="#000000" font-family="sans-serif" font-size="14" lengthAdjust="spacing" textLength="71" x="1237.5" y="923.252">content: str</text><ellipse cx="1228.5" cy="936.6328" fill="none" rx="3" ry="3" style="stroke:#038048;stroke-width:1.0;"/><text fill="#000000" font-family="sans-serif" font-size="14" lengthAdjust="spacing" textLength="135" x="1237.5" y="940.8613">children: List[Section]</text><ellipse cx="1228.5" cy="954.2422" fill="none" rx="3" ry="3" style="stroke:#038048;stroke-width:1.0;"/><text fill="#000000" font-family="sans-serif" font-size="14" lengthAdjust="spacing" textLength="52" x="1237.5" y="958.4707">level: int</text><line style="stroke:#999999;stroke-width:0.5;" x1="1218.5" x2="1377.5" y1="965.5469" y2="965.5469"/></g><!--class Table--><g id="elem_Table"><rect codeLine="68" fill="#E0FFFF" height="118.4375" id="Table" rx="2.5" ry="2.5" style="stroke:#999999;stroke-width:0.5;" width="179" x="1003.5" y="855.1094"/><ellipse cx="1070.75" cy="871.1094" fill="#ADD1B2" rx="11" ry="11" style="stroke:#181818;stroke-width:1.0;"/><path d="M1073.5156,866.9844 Q1073.6719,866.7656 1073.8594,866.6563 Q1074.0469,866.5469 1074.2656,866.5469 Q1074.6406,866.5469 1074.875,866.8125 Q1075.1094,867.0625 1075.1094,867.6719 L1075.1094,869.125 Q1075.1094,869.7344 1074.875,870 Q1074.6406,870.2656 1074.2656,870.2656 Q1073.9219,870.2656 1073.7188,870.0625 Q1073.5156,869.875 1073.4063,869.3594 Q1073.3594,869 1073.1719,868.8125 Q1072.8438,868.4375 1072.2344,868.2188 Q1071.625,868 1071,868 Q1070.2344,868 1069.5938,868.3281 Q1068.9688,868.6563 1068.4688,869.4063 Q1067.9844,870.1563 1067.9844,871.1875 L1067.9844,872.2813 Q1067.9844,873.5156 1068.875,874.3438 Q1069.7656,875.1563 1071.3594,875.1563 Q1072.2969,875.1563 1072.9531,874.9063 Q1073.3438,874.75 1073.7656,874.3125 Q1074.0313,874.0469 1074.1719,873.9688 Q1074.3281,873.8906 1074.5313,873.8906 Q1074.8594,873.8906 1075.1094,874.1563 Q1075.375,874.4063 1075.375,874.75 Q1075.375,875.0938 1075.0313,875.5 Q1074.5313,876.0781 1073.7344,876.4063 Q1072.6563,876.8594 1071.3594,876.8594 Q1069.8438,876.8594 1068.6406,876.2344 Q1067.6563,875.7344 1066.9688,874.6719 Q1066.2813,873.5938 1066.2813,872.3125 L1066.2813,871.1563 Q1066.2813,869.8281 1066.8906,868.6875 Q1067.5156,867.5313 1068.6094,866.9219 Q1069.7031,866.2969 1070.9375,866.2969 Q1071.6719,866.2969 1072.3125,866.4688 Q1072.9688,866.625 1073.5156,866.9844 Z " fill="#000000"/><text fill="#000000" font-family="sans-serif" font-size="14" lengthAdjust="spacing" textLength="36" x="1091.25" y="876.8379">Table</text><line style="stroke:#999999;stroke-width:0.5;" x1="1004.5" x2="1181.5" y1="887.1094" y2="887.1094"/><ellipse cx="1014.5" cy="901.4141" fill="none" rx="3" ry="3" style="stroke:#038048;stroke-width:1.0;"/><text fill="#000000" font-family="sans-serif" font-size="14" lengthAdjust="spacing" textLength="55" x="1023.5" y="905.6426">page: int</text><ellipse cx="1014.5" cy="919.0234" fill="none" rx="3" ry="3" style="stroke:#038048;stroke-width:1.0;"/><text fill="#000000" font-family="sans-serif" font-size="14" lengthAdjust="spacing" textLength="110" x="1023.5" y="923.252">table_number: int</text><ellipse cx="1014.5" cy="936.6328" fill="none" rx="3" ry="3" style="stroke:#038048;stroke-width:1.0;"/><text fill="#000000" font-family="sans-serif" font-size="14" lengthAdjust="spacing" textLength="112" x="1023.5" y="940.8613">data: List[List[str]]</text><ellipse cx="1014.5" cy="954.2422" fill="none" rx="3" ry="3" style="stroke:#038048;stroke-width:1.0;"/><text fill="#000000" font-family="sans-serif" font-size="14" lengthAdjust="spacing" textLength="153" x="1023.5" y="958.4707">accuracy: Optional[float]</text><line style="stroke:#999999;stroke-width:0.5;" x1="1004.5" x2="1181.5" y1="965.5469" y2="965.5469"/></g><!--class Schema--><g id="elem_Schema"><rect codeLine="75" fill="#E0FFFF" height="118.4375" id="Schema" rx="2.5" ry="2.5" style="stroke:#999999;stroke-width:0.5;" width="178" x="1414" y="855.1094"/><ellipse cx="1473.25" cy="871.1094" fill="#ADD1B2" rx="11" ry="11" style="stroke:#181818;stroke-width:1.0;"/><path d="M1476.0156,866.9844 Q1476.1719,866.7656 1476.3594,866.6563 Q1476.5469,866.5469 1476.7656,866.5469 Q1477.1406,866.5469 1477.375,866.8125 Q1477.6094,867.0625 1477.6094,867.6719 L1477.6094,869.125 Q1477.6094,869.7344 1477.375,870 Q1477.1406,870.2656 1476.7656,870.2656 Q1476.4219,870.2656 1476.2188,870.0625 Q1476.0156,869.875 1475.9063,869.3594 Q1475.8594,869 1475.6719,868.8125 Q1475.3438,868.4375 1474.7344,868.2188 Q1474.125,868 1473.5,868 Q1472.7344,868 1472.0938,868.3281 Q1471.4688,868.6563 1470.9688,869.4063 Q1470.4844,870.1563 1470.4844,871.1875 L1470.4844,872.2813 Q1470.4844,873.5156 1471.375,874.3438 Q1472.2656,875.1563 1473.8594,875.1563 Q1474.7969,875.1563 1475.4531,874.9063 Q1475.8438,874.75 1476.2656,874.3125 Q1476.5313,874.0469 1476.6719,873.9688 Q1476.8281,873.8906 1477.0313,873.8906 Q1477.3594,873.8906 1477.6094,874.1563 Q1477.875,874.4063 1477.875,874.75 Q1477.875,875.0938 1477.5313,875.5 Q1477.0313,876.0781 1476.2344,876.4063 Q1475.1563,876.8594 1473.8594,876.8594 Q1472.3438,876.8594 1471.1406,876.2344 Q1470.1563,875.7344 1469.4688,874.6719 Q1468.7813,873.5938 1468.7813,872.3125 L1468.7813,871.1563 Q1468.7813,869.8281 1469.3906,868.6875 Q1470.0156,867.5313 1471.1094,866.9219 Q1472.2031,866.2969 1473.4375,866.2969 Q1474.1719,866.2969 1474.8125,866.4688 Q1475.4688,866.625 1476.0156,866.9844 Z " fill="#000000"/><text fill="#000000" font-family="sans-serif" font-size="14" lengthAdjust="spacing" textLength="51" x="1493.75" y="876.8379">Schema</text><line style="stroke:#999999;stroke-width:0.5;" x1="1415" x2="1591" y1="887.1094" y2="887.1094"/><ellipse cx="1425" cy="901.4141" fill="none" rx="3" ry="3" style="stroke:#038048;stroke-width:1.0;"/><text fill="#000000" font-family="sans-serif" font-size="14" lengthAdjust="spacing" textLength="51" x="1434" y="905.6426">type: str</text><ellipse cx="1425" cy="919.0234" fill="none" rx="3" ry="3" style="stroke:#038048;stroke-width:1.0;"/><text fill="#000000" font-family="sans-serif" font-size="14" lengthAdjust="spacing" textLength="46" x="1434" y="923.252">title: str</text><ellipse cx="1425" cy="936.6328" fill="none" rx="3" ry="3" style="stroke:#038048;stroke-width:1.0;"/><text fill="#000000" font-family="sans-serif" font-size="14" lengthAdjust="spacing" textLength="152" x="1434" y="940.8613">properties: Dict[str, Any]</text><ellipse cx="1425" cy="954.2422" fill="none" rx="3" ry="3" style="stroke:#038048;stroke-width:1.0;"/><text fill="#000000" font-family="sans-serif" font-size="14" lengthAdjust="spacing" textLength="107" x="1434" y="958.4707">required: List[str]</text><line style="stroke:#999999;stroke-width:0.5;" x1="1415" x2="1591" y1="965.5469" y2="965.5469"/></g><!--class BaseProcessor--><g id="elem_BaseProcessor"><rect codeLine="83" fill="#E0FFFF" height="83.2188" id="BaseProcessor" rx="2.5" ry="2.5" style="stroke:#999999;stroke-width:0.5;" width="290" x="1450" y="45.6094"/><ellipse cx="1542.75" cy="61.6094" fill="#A9DCDF" rx="11" ry="11" style="stroke:#181818;stroke-width:1.0;"/><path d="M1544.9375,63.375 L1540.7969,63.375 L1540.375,64.4063 L1540.7969,64.4063 Q1541.4063,64.4063 1541.6719,64.6406 Q1541.9375,64.875 1541.9375,65.2656 Q1541.9375,65.6406 1541.6719,65.875 Q1541.4063,66.1094 1540.7969,66.1094 L1538.5,66.1094 Q1537.8906,66.1094 1537.6406,65.875 Q1537.375,65.6406 1537.375,65.25 Q1537.375,64.875 1537.6563,64.6406 Q1537.9219,64.3906 1538.5469,64.4063 L1541.2188,57.75 L1540.1094,57.75 Q1539.5,57.75 1539.2344,57.5156 Q1538.9688,57.2813 1538.9688,56.8906 Q1538.9688,56.5156 1539.2344,56.2813 Q1539.5,56.0469 1540.1094,56.0469 L1543.7813,56.0469 L1547.1719,64.4063 Q1547.7656,64.4063 1547.9531,64.5469 Q1548.3438,64.8125 1548.3438,65.2656 Q1548.3438,65.6406 1548.0781,65.875 Q1547.8281,66.1094 1547.2188,66.1094 L1544.9219,66.1094 Q1544.3125,66.1094 1544.0469,65.875 Q1543.7813,65.6406 1543.7813,65.25 Q1543.7813,64.875 1544.0469,64.6406 Q1544.3125,64.4063 1544.9219,64.4063 L1545.3438,64.4063 L1544.9375,63.375 Z M1544.2188,61.6719 L1542.8594,58.2969 L1541.4844,61.6719 L1544.2188,61.6719 Z " fill="#000000"/><text fill="#000000" font-family="sans-serif" font-size="14" font-style="italic" lengthAdjust="spacing" textLength="96" x="1563.25" y="67.3379">BaseProcessor</text><line style="stroke:#999999;stroke-width:0.5;" x1="1451" x2="1739" y1="77.6094" y2="77.6094"/><polygon fill="none" points="1461,86.9141,1465,90.9141,1461,94.9141,1457,90.9141" style="stroke:#B38D22;stroke-width:1.0;"/><text fill="#000000" font-family="sans-serif" font-size="14" lengthAdjust="spacing" textLength="93" x="1470" y="96.1426">logger: Logger</text><line style="stroke:#999999;stroke-width:0.5;" x1="1451" x2="1739" y1="103.2188" y2="103.2188"/><ellipse cx="1461" cy="117.5234" fill="#84BE84" rx="3" ry="3" style="stroke:#038048;stroke-width:1.0;"/><text fill="#000000" font-family="sans-serif" font-size="14" font-style="italic" lengthAdjust="spacing" textLength="264" x="1470" y="121.752">process(data: Dict[str, Any]): Dict[str, Any]</text></g><!--class PDFAnalyzer--><g id="elem_PDFAnalyzer"><rect codeLine="88" fill="#E0FFFF" height="65.6094" id="PDFAnalyzer" rx="2.5" ry="2.5" style="stroke:#999999;stroke-width:0.5;" width="263" x="1147.5" y="286.1094"/><ellipse cx="1233.75" cy="302.1094" fill="#ADD1B2" rx="11" ry="11" style="stroke:#181818;stroke-width:1.0;"/><path d="M1236.5156,297.9844 Q1236.6719,297.7656 1236.8594,297.6563 Q1237.0469,297.5469 1237.2656,297.5469 Q1237.6406,297.5469 1237.875,297.8125 Q1238.1094,298.0625 1238.1094,298.6719 L1238.1094,300.125 Q1238.1094,300.7344 1237.875,301 Q1237.6406,301.2656 1237.2656,301.2656 Q1236.9219,301.2656 1236.7188,301.0625 Q1236.5156,300.875 1236.4063,300.3594 Q1236.3594,300 1236.1719,299.8125 Q1235.8438,299.4375 1235.2344,299.2188 Q1234.625,299 1234,299 Q1233.2344,299 1232.5938,299.3281 Q1231.9688,299.6563 1231.4688,300.4063 Q1230.9844,301.1563 1230.9844,302.1875 L1230.9844,303.2813 Q1230.9844,304.5156 1231.875,305.3438 Q1232.7656,306.1563 1234.3594,306.1563 Q1235.2969,306.1563 1235.9531,305.9063 Q1236.3438,305.75 1236.7656,305.3125 Q1237.0313,305.0469 1237.1719,304.9688 Q1237.3281,304.8906 1237.5313,304.8906 Q1237.8594,304.8906 1238.1094,305.1563 Q1238.375,305.4063 1238.375,305.75 Q1238.375,306.0938 1238.0313,306.5 Q1237.5313,307.0781 1236.7344,307.4063 Q1235.6563,307.8594 1234.3594,307.8594 Q1232.8438,307.8594 1231.6406,307.2344 Q1230.6563,306.7344 1229.9688,305.6719 Q1229.2813,304.5938 1229.2813,303.3125 L1229.2813,302.1563 Q1229.2813,300.8281 1229.8906,299.6875 Q1230.5156,298.5313 1231.6094,297.9219 Q1232.7031,297.2969 1233.9375,297.2969 Q1234.6719,297.2969 1235.3125,297.4688 Q1235.9688,297.625 1236.5156,297.9844 Z " fill="#000000"/><text fill="#000000" font-family="sans-serif" font-size="14" lengthAdjust="spacing" textLength="82" x="1254.25" y="307.8379">PDFAnalyzer</text><line style="stroke:#999999;stroke-width:0.5;" x1="1148.5" x2="1409.5" y1="318.1094" y2="318.1094"/><line style="stroke:#999999;stroke-width:0.5;" x1="1148.5" x2="1409.5" y1="326.1094" y2="326.1094"/><ellipse cx="1158.5" cy="340.4141" fill="#84BE84" rx="3" ry="3" style="stroke:#038048;stroke-width:1.0;"/><text fill="#000000" font-family="sans-serif" font-size="14" lengthAdjust="spacing" textLength="237" x="1167.5" y="344.6426">analyze(input_path: str): Dict[str, Any]</text></g><!--class PDFCleaner--><g id="elem_PDFCleaner"><rect codeLine="92" fill="#E0FFFF" height="65.6094" id="PDFCleaner" rx="2.5" ry="2.5" style="stroke:#999999;stroke-width:0.5;" width="340" x="1536" y="286.1094"/><ellipse cx="1662.75" cy="302.1094" fill="#ADD1B2" rx="11" ry="11" style="stroke:#181818;stroke-width:1.0;"/><path d="M1665.5156,297.9844 Q1665.6719,297.7656 1665.8594,297.6563 Q1666.0469,297.5469 1666.2656,297.5469 Q1666.6406,297.5469 1666.875,297.8125 Q1667.1094,298.0625 1667.1094,298.6719 L1667.1094,300.125 Q1667.1094,300.7344 1666.875,301 Q1666.6406,301.2656 1666.2656,301.2656 Q1665.9219,301.2656 1665.7188,301.0625 Q1665.5156,300.875 1665.4063,300.3594 Q1665.3594,300 1665.1719,299.8125 Q1664.8438,299.4375 1664.2344,299.2188 Q1663.625,299 1663,299 Q1662.2344,299 1661.5938,299.3281 Q1660.9688,299.6563 1660.4688,300.4063 Q1659.9844,301.1563 1659.9844,302.1875 L1659.9844,303.2813 Q1659.9844,304.5156 1660.875,305.3438 Q1661.7656,306.1563 1663.3594,306.1563 Q1664.2969,306.1563 1664.9531,305.9063 Q1665.3438,305.75 1665.7656,305.3125 Q1666.0313,305.0469 1666.1719,304.9688 Q1666.3281,304.8906 1666.5313,304.8906 Q1666.8594,304.8906 1667.1094,305.1563 Q1667.375,305.4063 1667.375,305.75 Q1667.375,306.0938 1667.0313,306.5 Q1666.5313,307.0781 1665.7344,307.4063 Q1664.6563,307.8594 1663.3594,307.8594 Q1661.8438,307.8594 1660.6406,307.2344 Q1659.6563,306.7344 1658.9688,305.6719 Q1658.2813,304.5938 1658.2813,303.3125 L1658.2813,302.1563 Q1658.2813,300.8281 1658.8906,299.6875 Q1659.5156,298.5313 1660.6094,297.9219 Q1661.7031,297.2969 1662.9375,297.2969 Q1663.6719,297.2969 1664.3125,297.4688 Q1664.9688,297.625 1665.5156,297.9844 Z " fill="#000000"/><text fill="#000000" font-family="sans-serif" font-size="14" lengthAdjust="spacing" textLength="78" x="1683.25" y="307.8379">PDFCleaner</text><line style="stroke:#999999;stroke-width:0.5;" x1="1537" x2="1875" y1="318.1094" y2="318.1094"/><line style="stroke:#999999;stroke-width:0.5;" x1="1537" x2="1875" y1="326.1094" y2="326.1094"/><ellipse cx="1547" cy="340.4141" fill="#84BE84" rx="3" ry="3" style="stroke:#038048;stroke-width:1.0;"/><text fill="#000000" font-family="sans-serif" font-size="14" lengthAdjust="spacing" textLength="314" x="1556" y="344.6426">clean(analysis_result: Dict[str, Any]): Dict[str, Any]</text></g><!--class PDFExtractor--><g id="elem_PDFExtractor"><rect codeLine="96" fill="#E0FFFF" height="118.4375" id="PDFExtractor" rx="2.5" ry="2.5" style="stroke:#999999;stroke-width:0.5;" width="401" x="1302.5" y="579.6094"/><ellipse cx="1456.75" cy="595.6094" fill="#ADD1B2" rx="11" ry="11" style="stroke:#181818;stroke-width:1.0;"/><path d="M1459.5156,591.4844 Q1459.6719,591.2656 1459.8594,591.1563 Q1460.0469,591.0469 1460.2656,591.0469 Q1460.6406,591.0469 1460.875,591.3125 Q1461.1094,591.5625 1461.1094,592.1719 L1461.1094,593.625 Q1461.1094,594.2344 1460.875,594.5 Q1460.6406,594.7656 1460.2656,594.7656 Q1459.9219,594.7656 1459.7188,594.5625 Q1459.5156,594.375 1459.4063,593.8594 Q1459.3594,593.5 1459.1719,593.3125 Q1458.8438,592.9375 1458.2344,592.7188 Q1457.625,592.5 1457,592.5 Q1456.2344,592.5 1455.5938,592.8281 Q1454.9688,593.1563 1454.4688,593.9063 Q1453.9844,594.6563 1453.9844,595.6875 L1453.9844,596.7813 Q1453.9844,598.0156 1454.875,598.8438 Q1455.7656,599.6563 1457.3594,599.6563 Q1458.2969,599.6563 1458.9531,599.4063 Q1459.3438,599.25 1459.7656,598.8125 Q1460.0313,598.5469 1460.1719,598.4688 Q1460.3281,598.3906 1460.5313,598.3906 Q1460.8594,598.3906 1461.1094,598.6563 Q1461.375,598.9063 1461.375,599.25 Q1461.375,599.5938 1461.0313,600 Q1460.5313,600.5781 1459.7344,600.9063 Q1458.6563,601.3594 1457.3594,601.3594 Q1455.8438,601.3594 1454.6406,600.7344 Q1453.6563,600.2344 1452.9688,599.1719 Q1452.2813,598.0938 1452.2813,596.8125 L1452.2813,595.6563 Q1452.2813,594.3281 1452.8906,593.1875 Q1453.5156,592.0313 1454.6094,591.4219 Q1455.7031,590.7969 1456.9375,590.7969 Q1457.6719,590.7969 1458.3125,590.9688 Q1458.9688,591.125 1459.5156,591.4844 Z " fill="#000000"/><text fill="#000000" font-family="sans-serif" font-size="14" lengthAdjust="spacing" textLength="84" x="1477.25" y="601.3379">PDFExtractor</text><line style="stroke:#999999;stroke-width:0.5;" x1="1303.5" x2="1702.5" y1="611.6094" y2="611.6094"/><line style="stroke:#999999;stroke-width:0.5;" x1="1303.5" x2="1702.5" y1="619.6094" y2="619.6094"/><ellipse cx="1313.5" cy="633.9141" fill="#84BE84" rx="3" ry="3" style="stroke:#038048;stroke-width:1.0;"/><text fill="#000000" font-family="sans-serif" font-size="14" lengthAdjust="spacing" textLength="314" x="1322.5" y="638.1426">extract(cleaned_data: Dict[str, Any]): Dict[str, Any]</text><rect fill="#F24D5C" height="6" style="stroke:#C82930;stroke-width:1.0;" width="6" x="1310.5" y="648.5234"/><text fill="#000000" font-family="sans-serif" font-size="14" lengthAdjust="spacing" textLength="261" x="1322.5" y="655.752">_extract_sections(doc): List[Dict[str, Any]]</text><rect fill="#F24D5C" height="6" style="stroke:#C82930;stroke-width:1.0;" width="6" x="1310.5" y="666.1328"/><text fill="#000000" font-family="sans-serif" font-size="14" lengthAdjust="spacing" textLength="247" x="1322.5" y="673.3613">_extract_tables(doc): List[Dict[str, Any]]</text><rect fill="#F24D5C" height="6" style="stroke:#C82930;stroke-width:1.0;" width="6" x="1310.5" y="683.7422"/><text fill="#000000" font-family="sans-serif" font-size="14" lengthAdjust="spacing" textLength="375" x="1322.5" y="690.9707">_extract_schema(sections: List[Dict[str, Any]]): Dict[str, Any]</text></g><!--class PDFValidator--><g id="elem_PDFValidator"><rect codeLine="103" fill="#E0FFFF" height="65.6094" id="PDFValidator" rx="2.5" ry="2.5" style="stroke:#999999;stroke-width:0.5;" width="355" x="1911.5" y="286.1094"/><ellipse cx="2042.75" cy="302.1094" fill="#ADD1B2" rx="11" ry="11" style="stroke:#181818;stroke-width:1.0;"/><path d="M2045.5156,297.9844 Q2045.6719,297.7656 2045.8594,297.6563 Q2046.0469,297.5469 2046.2656,297.5469 Q2046.6406,297.5469 2046.875,297.8125 Q2047.1094,298.0625 2047.1094,298.6719 L2047.1094,300.125 Q2047.1094,300.7344 2046.875,301 Q2046.6406,301.2656 2046.2656,301.2656 Q2045.9219,301.2656 2045.7188,301.0625 Q2045.5156,300.875 2045.4063,300.3594 Q2045.3594,300 2045.1719,299.8125 Q2044.8438,299.4375 2044.2344,299.2188 Q2043.625,299 2043,299 Q2042.2344,299 2041.5938,299.3281 Q2040.9688,299.6563 2040.4688,300.4063 Q2039.9844,301.1563 2039.9844,302.1875 L2039.9844,303.2813 Q2039.9844,304.5156 2040.875,305.3438 Q2041.7656,306.1563 2043.3594,306.1563 Q2044.2969,306.1563 2044.9531,305.9063 Q2045.3438,305.75 2045.7656,305.3125 Q2046.0313,305.0469 2046.1719,304.9688 Q2046.3281,304.8906 2046.5313,304.8906 Q2046.8594,304.8906 2047.1094,305.1563 Q2047.375,305.4063 2047.375,305.75 Q2047.375,306.0938 2047.0313,306.5 Q2046.5313,307.0781 2045.7344,307.4063 Q2044.6563,307.8594 2043.3594,307.8594 Q2041.8438,307.8594 2040.6406,307.2344 Q2039.6563,306.7344 2038.9688,305.6719 Q2038.2813,304.5938 2038.2813,303.3125 L2038.2813,302.1563 Q2038.2813,300.8281 2038.8906,299.6875 Q2039.5156,298.5313 2040.6094,297.9219 Q2041.7031,297.2969 2042.9375,297.2969 Q2043.6719,297.2969 2044.3125,297.4688 Q2044.9688,297.625 2045.5156,297.9844 Z " fill="#000000"/><text fill="#000000" font-family="sans-serif" font-size="14" lengthAdjust="spacing" textLength="84" x="2063.25" y="307.8379">PDFValidator</text><line style="stroke:#999999;stroke-width:0.5;" x1="1912.5" x2="2265.5" y1="318.1094" y2="318.1094"/><line style="stroke:#999999;stroke-width:0.5;" x1="1912.5" x2="2265.5" y1="326.1094" y2="326.1094"/><ellipse cx="1922.5" cy="340.4141" fill="#84BE84" rx="3" ry="3" style="stroke:#038048;stroke-width:1.0;"/><text fill="#000000" font-family="sans-serif" font-size="14" lengthAdjust="spacing" textLength="329" x="1931.5" y="344.6426">validate(extracted_data: Dict[str, Any]): Dict[str, Any]</text></g><!--class BaseFormatter--><g id="elem_BaseFormatter"><rect codeLine="108" fill="#E0FFFF" height="83.2188" id="BaseFormatter" rx="2.5" ry="2.5" style="stroke:#999999;stroke-width:0.5;" width="283" x="2460.5" y="45.6094"/><ellipse cx="2550.75" cy="61.6094" fill="#A9DCDF" rx="11" ry="11" style="stroke:#181818;stroke-width:1.0;"/><path d="M2552.9375,63.375 L2548.7969,63.375 L2548.375,64.4063 L2548.7969,64.4063 Q2549.4063,64.4063 2549.6719,64.6406 Q2549.9375,64.875 2549.9375,65.2656 Q2549.9375,65.6406 2549.6719,65.875 Q2549.4063,66.1094 2548.7969,66.1094 L2546.5,66.1094 Q2545.8906,66.1094 2545.6406,65.875 Q2545.375,65.6406 2545.375,65.25 Q2545.375,64.875 2545.6563,64.6406 Q2545.9219,64.3906 2546.5469,64.4063 L2549.2188,57.75 L2548.1094,57.75 Q2547.5,57.75 2547.2344,57.5156 Q2546.9688,57.2813 2546.9688,56.8906 Q2546.9688,56.5156 2547.2344,56.2813 Q2547.5,56.0469 2548.1094,56.0469 L2551.7813,56.0469 L2555.1719,64.4063 Q2555.7656,64.4063 2555.9531,64.5469 Q2556.3438,64.8125 2556.3438,65.2656 Q2556.3438,65.6406 2556.0781,65.875 Q2555.8281,66.1094 2555.2188,66.1094 L2552.9219,66.1094 Q2552.3125,66.1094 2552.0469,65.875 Q2551.7813,65.6406 2551.7813,65.25 Q2551.7813,64.875 2552.0469,64.6406 Q2552.3125,64.4063 2552.9219,64.4063 L2553.3438,64.4063 L2552.9375,63.375 Z M2552.2188,61.6719 L2550.8594,58.2969 L2549.4844,61.6719 L2552.2188,61.6719 Z " fill="#000000"/><text fill="#000000" font-family="sans-serif" font-size="14" font-style="italic" lengthAdjust="spacing" textLength="94" x="2571.25" y="67.3379">BaseFormatter</text><line style="stroke:#999999;stroke-width:0.5;" x1="2461.5" x2="2742.5" y1="77.6094" y2="77.6094"/><line style="stroke:#999999;stroke-width:0.5;" x1="2461.5" x2="2742.5" y1="85.6094" y2="85.6094"/><ellipse cx="2471.5" cy="99.9141" fill="#84BE84" rx="3" ry="3" style="stroke:#038048;stroke-width:1.0;"/><text fill="#000000" font-family="sans-serif" font-size="14" font-style="italic" lengthAdjust="spacing" textLength="254" x="2480.5" y="104.1426">format(data: Dict[str, Any]): Dict[str, Any]</text><ellipse cx="2471.5" cy="117.5234" fill="#84BE84" rx="3" ry="3" style="stroke:#038048;stroke-width:1.0;"/><text fill="#000000" font-family="sans-serif" font-size="14" font-style="italic" lengthAdjust="spacing" textLength="257" x="2480.5" y="121.752">write(data: Dict[str, Any], path: str): None</text></g><!--class JSONFormatter--><g id="elem_JSONFormatter"><rect codeLine="113" fill="#E0FFFF" height="83.2188" id="JSONFormatter" rx="2.5" ry="2.5" style="stroke:#999999;stroke-width:0.5;" width="282" x="2302" y="277.6094"/><ellipse cx="2390.25" cy="293.6094" fill="#ADD1B2" rx="11" ry="11" style="stroke:#181818;stroke-width:1.0;"/><path d="M2393.0156,289.4844 Q2393.1719,289.2656 2393.3594,289.1563 Q2393.5469,289.0469 2393.7656,289.0469 Q2394.1406,289.0469 2394.375,289.3125 Q2394.6094,289.5625 2394.6094,290.1719 L2394.6094,291.625 Q2394.6094,292.2344 2394.375,292.5 Q2394.1406,292.7656 2393.7656,292.7656 Q2393.4219,292.7656 2393.2188,292.5625 Q2393.0156,292.375 2392.9063,291.8594 Q2392.8594,291.5 2392.6719,291.3125 Q2392.3438,290.9375 2391.7344,290.7188 Q2391.125,290.5 2390.5,290.5 Q2389.7344,290.5 2389.0938,290.8281 Q2388.4688,291.1563 2387.9688,291.9063 Q2387.4844,292.6563 2387.4844,293.6875 L2387.4844,294.7813 Q2387.4844,296.0156 2388.375,296.8438 Q2389.2656,297.6563 2390.8594,297.6563 Q2391.7969,297.6563 2392.4531,297.4063 Q2392.8438,297.25 2393.2656,296.8125 Q2393.5313,296.5469 2393.6719,296.4688 Q2393.8281,296.3906 2394.0313,296.3906 Q2394.3594,296.3906 2394.6094,296.6563 Q2394.875,296.9063 2394.875,297.25 Q2394.875,297.5938 2394.5313,298 Q2394.0313,298.5781 2393.2344,298.9063 Q2392.1563,299.3594 2390.8594,299.3594 Q2389.3438,299.3594 2388.1406,298.7344 Q2387.1563,298.2344 2386.4688,297.1719 Q2385.7813,296.0938 2385.7813,294.8125 L2385.7813,293.6563 Q2385.7813,292.3281 2386.3906,291.1875 Q2387.0156,290.0313 2388.1094,289.4219 Q2389.2031,288.7969 2390.4375,288.7969 Q2391.1719,288.7969 2391.8125,288.9688 Q2392.4688,289.125 2393.0156,289.4844 Z " fill="#000000"/><text fill="#000000" font-family="sans-serif" font-size="14" lengthAdjust="spacing" textLength="97" x="2410.75" y="299.3379">JSONFormatter</text><line style="stroke:#999999;stroke-width:0.5;" x1="2303" x2="2583" y1="309.6094" y2="309.6094"/><line style="stroke:#999999;stroke-width:0.5;" x1="2303" x2="2583" y1="317.6094" y2="317.6094"/><ellipse cx="2313" cy="331.9141" fill="#84BE84" rx="3" ry="3" style="stroke:#038048;stroke-width:1.0;"/><text fill="#000000" font-family="sans-serif" font-size="14" lengthAdjust="spacing" textLength="254" x="2322" y="336.1426">format(data: Dict[str, Any]): Dict[str, Any]</text><ellipse cx="2313" cy="349.5234" fill="#84BE84" rx="3" ry="3" style="stroke:#038048;stroke-width:1.0;"/><text fill="#000000" font-family="sans-serif" font-size="14" lengthAdjust="spacing" textLength="256" x="2322" y="353.752">write(data: Dict[str, Any], path: str): None</text></g><!--class MarkdownFormatter--><g id="elem_MarkdownFormatter"><rect codeLine="118" fill="#E0FFFF" height="83.2188" id="MarkdownFormatter" rx="2.5" ry="2.5" style="stroke:#999999;stroke-width:0.5;" width="282" x="2619" y="277.6094"/><ellipse cx="2692.75" cy="293.6094" fill="#ADD1B2" rx="11" ry="11" style="stroke:#181818;stroke-width:1.0;"/><path d="M2695.5156,289.4844 Q2695.6719,289.2656 2695.8594,289.1563 Q2696.0469,289.0469 2696.2656,289.0469 Q2696.6406,289.0469 2696.875,289.3125 Q2697.1094,289.5625 2697.1094,290.1719 L2697.1094,291.625 Q2697.1094,292.2344 2696.875,292.5 Q2696.6406,292.7656 2696.2656,292.7656 Q2695.9219,292.7656 2695.7188,292.5625 Q2695.5156,292.375 2695.4063,291.8594 Q2695.3594,291.5 2695.1719,291.3125 Q2694.8438,290.9375 2694.2344,290.7188 Q2693.625,290.5 2693,290.5 Q2692.2344,290.5 2691.5938,290.8281 Q2690.9688,291.1563 2690.4688,291.9063 Q2689.9844,292.6563 2689.9844,293.6875 L2689.9844,294.7813 Q2689.9844,296.0156 2690.875,296.8438 Q2691.7656,297.6563 2693.3594,297.6563 Q2694.2969,297.6563 2694.9531,297.4063 Q2695.3438,297.25 2695.7656,296.8125 Q2696.0313,296.5469 2696.1719,296.4688 Q2696.3281,296.3906 2696.5313,296.3906 Q2696.8594,296.3906 2697.1094,296.6563 Q2697.375,296.9063 2697.375,297.25 Q2697.375,297.5938 2697.0313,298 Q2696.5313,298.5781 2695.7344,298.9063 Q2694.6563,299.3594 2693.3594,299.3594 Q2691.8438,299.3594 2690.6406,298.7344 Q2689.6563,298.2344 2688.9688,297.1719 Q2688.2813,296.0938 2688.2813,294.8125 L2688.2813,293.6563 Q2688.2813,292.3281 2688.8906,291.1875 Q2689.5156,290.0313 2690.6094,289.4219 Q2691.7031,288.7969 2692.9375,288.7969 Q2693.6719,288.7969 2694.3125,288.9688 Q2694.9688,289.125 2695.5156,289.4844 Z " fill="#000000"/><text fill="#000000" font-family="sans-serif" font-size="14" lengthAdjust="spacing" textLength="126" x="2713.25" y="299.3379">MarkdownFormatter</text><line style="stroke:#999999;stroke-width:0.5;" x1="2620" x2="2900" y1="309.6094" y2="309.6094"/><line style="stroke:#999999;stroke-width:0.5;" x1="2620" x2="2900" y1="317.6094" y2="317.6094"/><ellipse cx="2630" cy="331.9141" fill="#84BE84" rx="3" ry="3" style="stroke:#038048;stroke-width:1.0;"/><text fill="#000000" font-family="sans-serif" font-size="14" lengthAdjust="spacing" textLength="254" x="2639" y="336.1426">format(data: Dict[str, Any]): Dict[str, Any]</text><ellipse cx="2630" cy="349.5234" fill="#84BE84" rx="3" ry="3" style="stroke:#038048;stroke-width:1.0;"/><text fill="#000000" font-family="sans-serif" font-size="14" lengthAdjust="spacing" textLength="256" x="2639" y="353.752">write(data: Dict[str, Any], path: str): None</text></g><g id="elem_GMN33"><path d="M853,297.6094 L853,315.1094 L817.54,319.1094 L853,323.1094 L853,340.3125 A0,0 0 0 0 853,340.3125 L1073,340.3125 A0,0 0 0 0 1073,340.3125 L1073,307.6094 L1063,297.6094 L853,297.6094 A0,0 0 0 0 853,297.6094 " fill="#FEFFDD" style="stroke:#181818;stroke-width:0.5;"/><path d="M1063,297.6094 L1063,307.6094 L1073,307.6094 L1063,297.6094 " fill="#FEFFDD" style="stroke:#181818;stroke-width:0.5;"/><text fill="#000000" font-family="sans-serif" font-size="13" lengthAdjust="spacing" textLength="198" x="859" y="316.1045">Main orchestrator that coordinates</text><text fill="#000000" font-family="sans-serif" font-size="13" lengthAdjust="spacing" textLength="199" x="859" y="332.4561">the document processing workflow</text></g><g id="elem_GMN36"><path d="M604.5,617.1094 L604.5,634.6094 L569.19,638.6094 L604.5,642.6094 L604.5,659.8125 A0,0 0 0 0 604.5,659.8125 L789.5,659.8125 A0,0 0 0 0 789.5,659.8125 L789.5,627.1094 L779.5,617.1094 L604.5,617.1094 A0,0 0 0 0 604.5,617.1094 " fill="#FEFFDD" style="stroke:#181818;stroke-width:0.5;"/><path d="M779.5,617.1094 L779.5,627.1094 L789.5,627.1094 L779.5,617.1094 " fill="#FEFFDD" style="stroke:#181818;stroke-width:0.5;"/><text fill="#000000" font-family="sans-serif" font-size="13" lengthAdjust="spacing" textLength="164" x="610.5" y="635.6045">Provides rich terminal output</text><text fill="#000000" font-family="sans-serif" font-size="13" lengthAdjust="spacing" textLength="125" x="610.5" y="651.9561">and progress tracking</text></g><g id="elem_GMN39"><path d="M1076.5,617.1094 L1076.5,634.6094 L1041.3,638.6094 L1076.5,642.6094 L1076.5,659.8125 A0,0 0 0 0 1076.5,659.8125 L1267.5,659.8125 A0,0 0 0 0 1267.5,659.8125 L1267.5,627.1094 L1257.5,617.1094 L1076.5,617.1094 A0,0 0 0 0 1076.5,617.1094 " fill="#FEFFDD" style="stroke:#181818;stroke-width:0.5;"/><path d="M1257.5,617.1094 L1257.5,627.1094 L1267.5,627.1094 L1257.5,617.1094 " fill="#FEFFDD" style="stroke:#181818;stroke-width:0.5;"/><text fill="#000000" font-family="sans-serif" font-size="13" lengthAdjust="spacing" textLength="170" x="1082.5" y="635.6045">Core data model representing</text><text fill="#000000" font-family="sans-serif" font-size="13" lengthAdjust="spacing" textLength="132" x="1082.5" y="651.9561">a processed document</text></g><!--link Pipeline to PipelineProgress--><g id="link_Pipeline_PipelineProgress"><path codeLine="124" d="M426.57,448.7894 C407.64,474.5794 391.4705,496.6227 373.0305,521.7427 " fill="none" id="Pipeline-to-PipelineProgress" style="stroke:#666666;stroke-width:1.0;"/><polygon fill="#666666" points="369.48,526.5794,378.0303,521.6913,372.4388,522.5488,371.5813,516.9573,369.48,526.5794" style="stroke:#666666;stroke-width:1.0;"/><text fill="#000000" font-family="sans-serif" font-size="13" lengthAdjust="spacing" textLength="28" x="406" y="493.1045">uses</text></g><!--link Pipeline to Document--><g id="link_Pipeline_Document"><path codeLine="125" d="M704.91,448.8794 C739.28,474.0694 774.58,500.7194 807,526.6094 C820.78,537.6094 830.5463,545.7008 844.3563,557.6108 " fill="none" id="Pipeline-to-Document" style="stroke:#666666;stroke-width:1.0;"/><polygon fill="#666666" points="848.9,561.5294,844.6969,552.6224,845.1136,558.2639,839.4721,558.6807,848.9,561.5294" style="stroke:#666666;stroke-width:1.0;"/><text fill="#000000" font-family="sans-serif" font-size="13" lengthAdjust="spacing" textLength="60" x="763" y="493.1045">processes</text></g><!--reverse link Document to DocumentMetadata--><g id="link_Document_DocumentMetadata"><path codeLine="126" d="M918.5147,727.6306 C912.7747,762.5706 907.88,792.2594 901.97,828.1994 " fill="none" id="Document-backto-DocumentMetadata" style="stroke:#666666;stroke-width:1.0;"/><polygon fill="#666666" points="920.46,715.7894,915.5403,721.0616,918.5147,727.6306,923.4344,722.3584,920.46,715.7894" style="stroke:#666666;stroke-width:1.0;"/></g><!--reverse link Document to Section--><g id="link_Document_Section"><path codeLine="127" d="M1006.7934,724.4151 C1035.4234,753.8051 1062.61,776.8994 1100,798.6094 C1140.13,821.9094 1159.31,806.2994 1200,828.6094 C1213.3,835.8994 1226.39,845.2194 1238.47,854.9894 " fill="none" id="Document-backto-Section" style="stroke:#666666;stroke-width:1.0;"/><polygon fill="#666666" points="998.42,715.8194,999.7415,722.9084,1006.7934,724.4151,1005.4719,717.3261,998.42,715.8194" style="stroke:#666666;stroke-width:1.0;"/><text fill="#000000" font-family="sans-serif" font-size="13" lengthAdjust="spacing" textLength="20" x="1209.996" y="844.299">0..*</text></g><!--reverse link Document to Table--><g id="link_Document_Table"><path codeLine="128" d="M983.6274,726.1483 C1009.3274,770.0983 1035.1,814.1294 1058.81,854.6694 " fill="none" id="Document-backto-Table" style="stroke:#666666;stroke-width:1.0;"/><polygon fill="#666666" points="977.57,715.7894,977.1457,722.988,983.6274,726.1483,984.0517,718.9497,977.57,715.7894" style="stroke:#666666;stroke-width:1.0;"/><text fill="#000000" font-family="sans-serif" font-size="13" lengthAdjust="spacing" textLength="20" x="1033.7005" y="844.3618">0..*</text></g><!--reverse link Document to Schema--><g id="link_Document_Schema"><path codeLine="129" d="M1015.2695,723.4422 C1031.5495,736.8622 1040.31,741.7294 1059,750.6094 C1132.25,785.4194 1160.05,762.0494 1239,780.6094 C1310.03,797.3094 1331.37,794.7494 1396,828.6094 C1410.05,835.9694 1424.07,845.2594 1437.12,854.9794 " fill="none" id="Document-backto-Schema" style="stroke:#666666;stroke-width:1.0;"/><polygon fill="#666666" points="1006.01,715.8094,1008.0955,722.7123,1015.2695,723.4422,1013.1841,716.5393,1006.01,715.8094" style="stroke:#666666;stroke-width:1.0;"/></g><!--reverse link BaseProcessor to PDFAnalyzer--><g id="link_BaseProcessor_PDFAnalyzer"><path codeLine="131" d="M1491.0071,137.2501 C1473.9871,146.3001 1472.53,147.9494 1457,158.6094 C1400.89,197.1194 1343.62,251.7494 1309.7,286.0394 " fill="none" id="BaseProcessor-backto-PDFAnalyzer" style="stroke:#666666;stroke-width:1.0;"/><polygon fill="none" points="1506.9,128.7994,1488.1902,131.9524,1493.824,142.5477,1506.9,128.7994" style="stroke:#666666;stroke-width:1.0;"/></g><!--reverse link BaseProcessor to PDFCleaner--><g id="link_BaseProcessor_PDFCleaner"><path codeLine="132" d="M1622.4137,144.9102 C1644.0737,189.7902 1670.69,244.9494 1690.54,286.0694 " fill="none" id="BaseProcessor-backto-PDFCleaner" style="stroke:#666666;stroke-width:1.0;"/><polygon fill="none" points="1614.59,128.6994,1617.0101,147.5181,1627.8173,142.3023,1614.59,128.6994" style="stroke:#666666;stroke-width:1.0;"/></g><!--reverse link BaseProcessor to PDFExtractor--><g id="link_BaseProcessor_PDFExtractor"><path codeLine="133" d="M1543.2425,142.9005 C1528.8925,160.1605 1525.85,167.5194 1518,189.6094 C1470.8,322.5294 1482.92,491.7994 1494.02,579.3294 " fill="none" id="BaseProcessor-backto-PDFExtractor" style="stroke:#666666;stroke-width:1.0;"/><polygon fill="none" points="1554.75,129.0594,1538.6288,139.0646,1547.8562,146.7363,1554.75,129.0594" style="stroke:#666666;stroke-width:1.0;"/></g><!--reverse link BaseProcessor to PDFValidator--><g id="link_BaseProcessor_PDFValidator"><path codeLine="134" d="M1754.8944,134.2257 C1805.0744,150.5757 1844.01,165.6894 1893,189.6094 C1949.12,217.0194 2008.41,257.7594 2046.89,285.9894 " fill="none" id="BaseProcessor-backto-PDFValidator" style="stroke:#666666;stroke-width:1.0;"/><polygon fill="none" points="1737.78,128.6494,1753.0357,139.9305,1756.7532,128.5209,1737.78,128.6494" style="stroke:#666666;stroke-width:1.0;"/></g><!--reverse link BaseFormatter to JSONFormatter--><g id="link_BaseFormatter_JSONFormatter"><path codeLine="136" d="M2563.7049,143.5062 C2534.7349,185.4162 2500.02,235.6294 2471.05,277.5394 " fill="none" id="BaseFormatter-backto-JSONFormatter" style="stroke:#666666;stroke-width:1.0;"/><polygon fill="none" points="2573.94,128.6994,2558.7693,140.0945,2568.6405,146.9179,2573.94,128.6994" style="stroke:#666666;stroke-width:1.0;"/></g><!--reverse link BaseFormatter to MarkdownFormatter--><g id="link_BaseFormatter_MarkdownFormatter"><path codeLine="137" d="M2640.0744,143.5343 C2668.8744,185.4443 2703.34,235.6294 2732.13,277.5394 " fill="none" id="BaseFormatter-backto-MarkdownFormatter" style="stroke:#666666;stroke-width:1.0;"/><polygon fill="none" points="2629.88,128.6994,2635.1294,146.9324,2645.0193,140.1362,2629.88,128.6994" style="stroke:#666666;stroke-width:1.0;"/></g><!--link PDFAnalyzer to Document--><g id="link_PDFAnalyzer_Document"><path codeLine="139" d="M1243.92,352.2994 C1190.83,401.0194 1093.0008,490.7927 1020.2608,557.5427 " fill="none" id="PDFAnalyzer-to-Document" style="stroke:#666666;stroke-width:1.0;"/><polygon fill="#666666" points="1015.84,561.5994,1025.1756,558.4615,1019.524,558.2188,1019.7667,552.5671,1015.84,561.5994" style="stroke:#666666;stroke-width:1.0;"/><text fill="#000000" font-family="sans-serif" font-size="13" lengthAdjust="spacing" textLength="43" x="1107" y="493.1045">creates</text></g><!--link PDFExtractor to Section--><g id="link_PDFExtractor_Section"><path codeLine="140" d="M1459.52,697.6094 C1424.85,743.8694 1380.108,803.5579 1345.368,849.9179 " fill="none" id="PDFExtractor-to-Section" style="stroke:#666666;stroke-width:1.0;"/><polygon fill="#666666" points="1341.77,854.7194,1350.368,849.9158,1344.7683,850.7181,1343.966,845.1185,1341.77,854.7194" style="stroke:#666666;stroke-width:1.0;"/><text fill="#000000" font-family="sans-serif" font-size="13" lengthAdjust="spacing" textLength="43" x="1396" y="795.1045">creates</text></g><!--link PDFExtractor to Table--><g id="link_PDFExtractor_Table"><path codeLine="141" d="M1403.65,697.7794 C1343.62,733.8494 1266.17,782.0594 1200,828.6094 C1188.29,836.8494 1180.8824,842.2468 1169.1524,851.2868 " fill="none" id="PDFExtractor-to-Table" style="stroke:#666666;stroke-width:1.0;"/><polygon fill="#666666" points="1164.4,854.9494,1173.9704,852.6238,1168.3604,851.8972,1169.0869,846.2872,1164.4,854.9494" style="stroke:#666666;stroke-width:1.0;"/><text fill="#000000" font-family="sans-serif" font-size="13" lengthAdjust="spacing" textLength="43" x="1266" y="795.1045">creates</text></g><!--link PDFExtractor to Schema--><g id="link_PDFExtractor_Schema"><path codeLine="142" d="M1503,697.6094 C1503,743.8694 1503,802.3594 1503,848.7194 " fill="none" id="PDFExtractor-to-Schema" style="stroke:#666666;stroke-width:1.0;"/><polygon fill="#666666" points="1503,854.7194,1507,845.7194,1503,849.7194,1499,845.7194,1503,854.7194" style="stroke:#666666;stroke-width:1.0;"/><text fill="#000000" font-family="sans-serif" font-size="13" lengthAdjust="spacing" textLength="43" x="1504" y="795.1045">creates</text></g><!--SRC=[nLVTRzis47_NNq6q3r6QkDZJW1b5WTHPWGrDMip1Ne90e2bQvaoH6adPSxF-xpj-Mf8bP-lB_61Rz_6xu_5uF-e2BSs1Cr5bUij4WnMk4U5OQ_IS8VXym6HRATcASY6vLEWJgpPcSS32QM-KadklUFsZ-tWdgKggWlmdzyc-PTa5Uc26qypOR_I5DHG2KxHmuMuPhY2ujLf85QHKPpwPPEopcY4YnPfLSt0Zvb4RTOrknE4fABciAghcw9Fx3K8mmePMXq9JJecHe5y6qJ98dEKLAWecc2cAF0Rvt1Wc1UQF_MXFby51jIA7uhMcQB3Pp6seoudKYf8QY5MKahGr5QOmXuQEECDtzC0G-V2L9fUXzJKA5jD12QTO5B0SO_sTkMQwK5Itt0oThf4pFmD7_uB2sKLWWtDlNBg7KwXWAgV1TfWpyAKUBTXFuWNhCtXhgMfi2jaQg58UqQVml5bmWfrsZn_TqtY4AwJnZaRuu7uMkxkjzr9GUnJwNVr5oGhsGgVkRe9WZg9gs9gnzRJ1okGHESfaCn3XiYmCrjkyf9eevlevD8-H1lDEZw-vnEO9t1_0_fVR0D0sjegvnIXO6PNGUkKE2qBdoBdrWvPCDnp3WJEuIXNp3mBNDCGVhvtUoBqzAvXngC9AIZw1tTOrLWSFgqysOdXWHp4eJ36Lrr1bmEZjr30M8M0qQkd6ssqueUXEbfJ7sPMapm6lXcM5H8FgBaY2GJYeCC2ODezBc1UmDR7z35vngeFkmJwanYGRMWFgqlq6OUg-w0xpnZ-dDXncaH9rWxhhZ5kpiOFpAD7jwW_8hoiYYcBJju9-Bbj2rOaPhClkMIz8BKksPcIeJEc6UandcShN4MqOBnKLuoNbT4VX231XZb5SPLECnkstDUXiGY7QUcKNTPJxRNKnt1Tay1IZO49Qc6s7axFMMPhRkUFAqbvDh1Jgsb1bcEs7qLcbw9yjKxGCETbqVAl2NB6z3CIVc1Qlj9kzWVy_O4s35T2uJ-dr6BLUeUVe-ircvCx8sAa-7QZ7INZxyIQGM5fzOBMNcRMBil3KbK0SExt4UESXVuuKba03IPsblXV9K_iUX599SXdsPp2kXYx-wFy71pyHyXXgtEdywd-FX9jM7odr1QuUXRr0dbiDLQCDbxGfMgUtF4dd_xxQFU-zOf3pEDjCK_Iloy_tfqbzHoRV5_uEgsqfz-9_IU42_KQv6yDwmngTfKluRFR-zEuoHwsT8ZsZH7tpE1Z08WdVp6Qd3DZJllhXxTith-B47zMvETtN1FxB-XFitT-WwioP2NKO81FQD0iczEcq-EZ7RNC6lMOQCpZPxYphJiP1IHs3sf9tPvIrYGnvniJJspaCJqL72sY7Usd_2FX6ohu78hbEVG0zTeUPG5A1etlN0Y2pmN2w9RmECk5048WeYcyoiIai2-sbsW8TxZCgIcH3P1E1EZTY-BjZSAC58x91KAuQml1mxmOz1gXubKPsSLlxeZiL85OM7DqRgBiArVOc1pJQ00Reh3_WfcukqrgEiFy0]--></g></svg>